<svg xmlns="http://www.w3.org/2000/svg" xmlns:xlink="http://www.w3.org/1999/xlink" xmlns:lucid="lucid" width="920" height="751"><g transform="translate(-3561 -1185)" lucid:page-tab-id="0_0"><path d="M3828.64 1480c0 22.1-17.9 40-40 40s-40-17.9-40-40 17.9-40 40-40 40 17.9 40 40zM3828.64 1600c0 22.1-17.9 40-40 40s-40-17.9-40-40 17.9-40 40-40 40 17.9 40 40zM3828.64 1720c0 22.1-17.9 40-40 40s-40-17.9-40-40 17.9-40 40-40 40 17.9 40 40z" stroke="#0c7cba" stroke-width="4" fill="#fff"/><path d="M4068.64 1480c0 22.1-17.9 40-40 40s-40-17.9-40-40 17.9-40 40-40 40 17.9 40 40zM4068.64 1600c0 22.1-17.9 40-40 40s-40-17.9-40-40 17.9-40 40-40 40 17.9 40 40z" stroke="#000" stroke-width="4" fill="#fff"/><path d="M4288.64 1483.2c0 22.1-17.9 40-40 40s-40-17.9-40-40 17.9-40 40-40 40 17.9 40 40z" stroke="#ef8d22" stroke-width="4" fill="#fff"/><path d="M3728.14 1720h-58.5" stroke="#999" stroke-width="2" fill="none"/><path d="M3743.4 1720l-14.26 4.64v-9.28z" stroke="#999" stroke-width="2" fill="#999"/><path d="M3669.67 1720h-1.03M3831.43 1719.4l140.54-108.12" stroke="#999" stroke-width="2" fill="none"/><path d="M3832.06 1720.17l-1.5 1.15.08-1.3-.04-1.25.24-.2z" fill="#999"/><path d="M3984.07 1601.97l-8.48 12.38-5.66-7.35z" stroke="#999" stroke-width="2" fill="#999"/><path d="M3831.2 1719.16l145.36-223.65" stroke="#999" stroke-width="2" fill="none"/><path d="M3832.04 1719.7l-1.52 2.33.12-2-.04-1.28z" fill="#999"/><path d="M3984.87 1482.7l-3.88 14.5-7.8-5.05z" stroke="#999" stroke-width="2" fill="#999"/><path d="M3831.64 1600h136.5" stroke="#999" stroke-width="2" fill="none"/><path d="M3831.67 1601h-1.1l.07-.97-.03-1.03h1.07z" fill="#999"/><path d="M3983.4 1600l-14.26 4.64v-9.28z" stroke="#999" stroke-width="2" fill="#999"/><path d="M3831.43 1599.4l140.54-108.12" stroke="#999" stroke-width="2" fill="none"/><path d="M3832.06 1600.17l-1.5 1.15.08-1.3-.04-1.25.24-.2z" fill="#999"/><path d="M3984.07 1481.97l-8.48 12.38-5.66-7.35z" stroke="#999" stroke-width="2" fill="#999"/><path d="M3831.43 1480.6l140.54 108.12" stroke="#999" stroke-width="2" fill="none"/><path d="M3832.06 1479.83l-1.22 1.6-.27-.22.07-1.17-.04-1.33z" fill="#999"/><path d="M3984.07 1598.03l-14.13-5.03 5.65-7.35z" stroke="#999" stroke-width="2" fill="#999"/><path d="M3831.64 1480h136.5" stroke="#999" stroke-width="2" fill="none"/><path d="M3831.67 1481h-1.1l.07-.97-.03-1.03h1.07z" fill="#999"/><path d="M3983.4 1480l-14.26 4.64v-9.28z" stroke="#999" stroke-width="2" fill="#999"/><path d="M4071.64 1480.02l116.5 2.74" stroke="#999" stroke-width="2" fill="none"/><path d="M4071.7 1479.02l-.06 2-1.06-.02.06-.97-.03-1.03z" fill="#999"/><path d="M4203.4 1483.12l-14.37 4.3.22-9.27z" stroke="#999" stroke-width="2" fill="#999"/><path d="M4071.4 1599.35l121.2-104.1" stroke="#999" stroke-width="2" fill="none"/><path d="M4072.07 1600.1l-1.5 1.3.07-1.37-.04-1.3.17-.16z" fill="#999"/><path d="M4204.18 1485.3l-7.8 12.82-6.04-7.03z" stroke="#999" stroke-width="2" fill="#999"/><path d="M3880 1783.5h280v74h-280z" stroke="#000" stroke-opacity="0" stroke-width="2" fill="#fff" fill-opacity="0"/><use xlink:href="#a" transform="matrix(1,0,0,1,3885,1788.5) translate(3.3333333333333144 37.333333333333336)"/><use xlink:href="#b" transform="matrix(1,0,0,1,3885,1788.5) translate(220.81481481481484 37.333333333333336)"/><path d="M4148.64 1783.5h240v74h-240z" stroke="#000" stroke-opacity="0" stroke-width="2" fill="#fff" fill-opacity="0"/><use xlink:href="#c" transform="matrix(1,0,0,1,4153.639810488298,1788.5) translate(48.40740740740739 37.333333333333336)"/><use xlink:href="#d" transform="matrix(1,0,0,1,4153.639810488298,1788.5) translate(135.74074074074073 37.333333333333336)"/><path d="M3668.64 1783.5h240v74h-240z" stroke="#000" stroke-opacity="0" stroke-width="2" fill="#fff" fill-opacity="0"/><use xlink:href="#e" transform="matrix(1,0,0,1,3673.6398104882983,1788.5) translate(49.185185185185176 37.333333333333336)"/><use xlink:href="#f" transform="matrix(1,0,0,1,3673.6398104882983,1788.5) translate(134.96296296296296 37.333333333333336)"/><path d="M3828.64 1360c0 22.1-17.9 40-40 40s-40-17.9-40-40 17.9-40 40-40 40 17.9 40 40z" stroke="#0c7cba" stroke-width="4" fill="#fff"/><path d="M3831.2 1360.84l145.36 223.65" stroke="#999" stroke-width="2" fill="none"/><path d="M3832.04 1360.3l-1.48.97.08-1.24-.07-1.97z" fill="#999"/><path d="M3984.87 1597.3l-11.66-9.45 7.8-5.05z" stroke="#999" stroke-width="2" fill="#999"/><path d="M3831.43 1360.6l140.54 108.12" stroke="#999" stroke-width="2" fill="none"/><path d="M3832.06 1359.83l-1.22 1.6-.27-.22.07-1.17-.04-1.33z" fill="#999"/><path d="M3984.07 1478.03l-14.13-5.03 5.65-7.35z" stroke="#999" stroke-width="2" fill="#999"/><path d="M3680 1331.96h31.25v23.08H3680z" fill="#fff" fill-opacity="0"/><path d="M3689.03 1341.18l.72 3.73c2.88-4.77 4.13-7.2 4.13-8.7 0-.48-.23-.68-.88-1.1-.68-.43-.88-.77-.88-1.3 0-.76.58-1.27 1.36-1.27 1 0 1.76.85 1.76 1.87 0 1.93-1.63 5.66-4.44 10.34-3.53 5.83-7.16 9.73-9.1 9.73-1 0-1.72-.58-1.72-1.46 0-.74.58-1.35 1.33-1.35 1.2 0 1.2.95 2.07.95.44 0 .85-.27 1.63-1.12.6-.64 2.14-2.64 2.4-3.08.2-.4.35-.8.35-1.2 0-1.34-1.87-8.94-2.78-11.24-.65-1.66-1.26-2.17-2.6-2.17-.4 0-.7.02-1.06.12v-.57l1.1-.2c.67-.14 1.8-.35 3.62-.62h.13c.5 0 2.3 5.63 2.88 8.65M3705.3 1352.6h-6.62v-.37c1.77-.1 2.28-.6 2.28-1.92v-10.75c0-.82-.22-1.18-.72-1.18-.24 0-.65.12-1.08.3l-.65.23v-.33l4.3-2.2.22.1v14.3c0 1.03.48 1.46 2.28 1.46v.36"/><path d="M3680 1692.9h32.3v23.85H3680z" fill="#fff" fill-opacity="0"/><path d="M3689.34 1702.43l.73 3.85c2.98-4.94 4.27-7.46 4.27-9 0-.5-.24-.7-.9-1.12-.7-.46-.92-.8-.92-1.37 0-.78.6-1.3 1.4-1.3 1.06 0 1.83.87 1.83 1.92 0 2-1.7 5.85-4.6 10.68-3.64 6.03-7.38 10.06-9.38 10.06-1.05 0-1.8-.6-1.8-1.5 0-.78.6-1.4 1.38-1.4 1.22 0 1.22.97 2.14.97.44 0 .86-.28 1.67-1.16.63-.66 2.2-2.73 2.48-3.18.2-.43.35-.85.35-1.24 0-1.4-1.92-9.25-2.87-11.63-.66-1.72-1.3-2.24-2.7-2.24-.38 0-.7.02-1.08.13v-.6l1.12-.2c.7-.15 1.86-.36 3.75-.64h.14c.52 0 2.38 5.8 2.98 8.93M3707.77 1711.32l.35.32c-1.68 2.3-2.3 2.8-3.47 2.8-.62 0-1.16-.4-1.16-1.34 0-.25.04-.57.38-1.86l1.1-4c.2-.78.34-1.67.34-1.96 0-.45-.22-.72-.6-.72-.98 0-2.1 1.2-3.66 3.5-1.1 1.67-1.3 2.24-2.48 6.16h-1.85l2.37-8.67c.03-.13.05-.27.05-.42 0-.5-.34-.65-1.6-.67v-.4c2-.4 2.7-.5 4-.77l.1.04-1.66 5.4c2.47-3.96 4.13-5.45 5.72-5.45 1.06 0 1.6.6 1.6 1.5 0 .45-.1.97-.24 1.5l-1.4 5.02c-.24.9-.33 1.3-.33 1.5 0 .23.1.46.4.46.34 0 .78-.4 1.5-1.32.18-.2.35-.42.52-.64"/><path d="M3656.97 1386.27h60.28v274h-60.28z" stroke="#000" stroke-opacity="0" stroke-width="2" fill="#fff" fill-opacity="0"/><use xlink:href="#g" transform="matrix(1,0,0,1,3661.9655616905075,1391.2666666666664) translate(22.104938271604937 20.05555555555553)"/><use xlink:href="#g" transform="matrix(1,0,0,1,3661.9655616905075,1391.2666666666664) translate(22.104938271604937 49.388888888888864)"/><use xlink:href="#g" transform="matrix(1,0,0,1,3661.9655616905075,1391.2666666666664) translate(22.104938271604937 78.7222222222222)"/><use xlink:href="#g" transform="matrix(1,0,0,1,3661.9655616905075,1391.2666666666664) translate(22.104938271604937 108.05555555555553)"/><use xlink:href="#g" transform="matrix(1,0,0,1,3661.9655616905075,1391.2666666666664) translate(22.104938271604937 137.38888888888886)"/><use xlink:href="#g" transform="matrix(1,0,0,1,3661.9655616905075,1391.2666666666664) translate(22.104938271604937 166.72222222222223)"/><use xlink:href="#g" transform="matrix(1,0,0,1,3661.9655616905075,1391.2666666666664) translate(22.104938271604937 196.05555555555554)"/><use xlink:href="#g" transform="matrix(1,0,0,1,3661.9655616905075,1391.2666666666664) translate(22.104938271604937 225.3888888888889)"/><use xlink:href="#h" transform="matrix(1,0,0,1,3661.9655616905075,1391.2666666666664) translate(22.104938271604937 254.72222222222223)"/><path d="M3728.14 1360h-58.5" stroke="#999" stroke-width="2" fill="none"/><path d="M3743.4 1360l-14.26 4.64v-9.28z" stroke="#999" stroke-width="2" fill="#999"/><path d="M3669.67 1360h-1.03" stroke="#999" stroke-width="2" fill="none"/><path d="M3998.5 1500h60.28v70.67h-60.28z" stroke="#000" stroke-opacity="0" stroke-width="2" fill="#fff" fill-opacity="0"/><use xlink:href="#g" transform="matrix(1,0,0,1,3998.4974782368236,1500) translate(27.104938271604937 28.655555555555555)"/><use xlink:href="#g" transform="matrix(1,0,0,1,3998.4974782368236,1500) translate(27.104938271604937 40.388888888888886)"/><use xlink:href="#h" transform="matrix(1,0,0,1,3998.4974782368236,1500) translate(27.104938271604937 52.12222222222222)"/><path d="M4288.64 1603.2c0 22.1-17.9 40-40 40s-40-17.9-40-40 17.9-40 40-40 40 17.9 40 40zM4288.64 1360c0 22.1-17.9 40-40 40s-40-17.9-40-40 17.9-40 40-40 40 17.9 40 40zM4288.64 1720c0 22.1-17.9 40-40 40s-40-17.9-40-40 17.9-40 40-40 40 17.9 40 40z" stroke="#ef8d22" stroke-width="4" fill="#fff"/><path d="M4291.64 1360h67.86" stroke="#999" stroke-width="2" fill="none"/><path d="M4291.67 1361h-1.1l.07-.97-.03-1.03h1.07z" fill="#999"/><path d="M4374.76 1360l-14.26 4.64v-9.28z" stroke="#999" stroke-width="2" fill="#999"/><path d="M4291.64 1720h81.32" stroke="#999" stroke-width="2" fill="none"/><path d="M4291.67 1721h-1.1l.07-.97-.03-1.03h1.07z" fill="#999"/><path d="M4388.22 1720l-14.26 4.64v-9.28z" stroke="#999" stroke-width="2" fill="#999"/><path d="M4071.4 1479.34l121.37-107.1" stroke="#999" stroke-width="2" fill="none"/><path d="M4072.07 1480.07l-1.5 1.34.07-1.37-.04-1.32.15-.13z" fill="#999"/><path d="M4204.2 1362.14l-7.62 12.92-6.13-6.96z" stroke="#999" stroke-width="2" fill="#999"/><path d="M4071.64 1480.02l116.5 2.74" stroke="#999" stroke-width="2" fill="none"/><path d="M4071.7 1479.02l-.06 2-1.06-.02.06-.97-.03-1.03z" fill="#999"/><path d="M4203.4 1483.12l-14.37 4.3.22-9.27z" stroke="#999" stroke-width="2" fill="#999"/><path d="M4071.38 1480.67l121.55 110.1" stroke="#999" stroke-width="2" fill="none"/><path d="M4072.07 1479.95l-1.34 1.48-.17-.15.08-1.25-.05-1.42z" fill="#999"/><path d="M4204.24 1601.03l-13.68-6.15 6.22-6.87z" stroke="#999" stroke-width="2" fill="#999"/><path d="M4071.13 1480.87l126.4 223.03" stroke="#999" stroke-width="2" fill="none"/><path d="M4072.02 1480.4l-1.45.82.07-1.2-.08-2.18z" fill="#999"/><path d="M4205.04 1717.18l-11.06-10.12 8.06-4.57z" stroke="#999" stroke-width="2" fill="#999"/><path d="M4071.13 1599.13l126.4-223.03" stroke="#999" stroke-width="2" fill="none"/><path d="M4072.02 1599.6l-1.52 2.67.14-2.24-.04-1.23z" fill="#999"/><path d="M4205.04 1362.82l-3 14.7-8.06-4.58z" stroke="#999" stroke-width="2" fill="#999"/><path d="M4071.64 1600.02l116.5 2.74" stroke="#999" stroke-width="2" fill="none"/><path d="M4071.7 1599.02l-.06 2-1.06-.02.06-.97-.03-1.03z" fill="#999"/><path d="M4203.4 1603.12l-14.37 4.3.22-9.27z" stroke="#999" stroke-width="2" fill="#999"/><path d="M4071.4 1600.66l121.37 107.1" stroke="#999" stroke-width="2" fill="none"/><path d="M4072.07 1599.93l-1.32 1.5-.2-.16.1-1.24-.06-1.4z" fill="#999"/><path d="M4204.2 1717.86l-13.75-5.96 6.13-6.96z" stroke="#999" stroke-width="2" fill="#999"/><path d="M4320 1321.83h31.25v33.2H4320z" fill="#fff" fill-opacity="0"/><path d="M4329.03 1339.96l.72 3.72c2.88-4.78 4.13-7.22 4.13-8.7 0-.48-.23-.7-.88-1.1-.68-.43-.88-.77-.88-1.32 0-.74.58-1.25 1.36-1.25 1 0 1.76.86 1.76 1.87 0 1.94-1.63 5.67-4.44 10.34-3.53 5.85-7.16 9.74-9.1 9.74-1 0-1.72-.57-1.72-1.45 0-.76.58-1.37 1.33-1.37 1.2 0 1.2.95 2.07.95.44 0 .85-.27 1.63-1.12.6-.64 2.14-2.64 2.4-3.08.2-.4.35-.82.35-1.2 0-1.35-1.87-8.94-2.78-11.25-.65-1.66-1.26-2.17-2.6-2.17-.4 0-.7.04-1.06.14v-.58l1.1-.2c.67-.14 1.8-.34 3.62-.6h.13c.5 0 2.3 5.62 2.88 8.64M4332.3 1328.1h-1.16l-4.14-3.5-4.1 3.5h-1.15l4.2-5.67h2.1M4345.3 1354.48h-6.62v-.36c1.77-.1 2.28-.6 2.28-1.9v-10.78c0-.8-.22-1.17-.72-1.17-.24 0-.65.12-1.08.3l-.65.23v-.34l4.3-2.18.22.07v14.3c0 1.04.48 1.47 2.28 1.47v.36"/><path d="M4320 1681.44h31.62v33.82H4320z" fill="#fff" fill-opacity="0"/><path d="M4329.14 1699.78l.72 3.77c2.92-4.84 4.2-7.3 4.2-8.82 0-.48-.25-.68-.9-1.1-.7-.44-.9-.78-.9-1.33 0-.76.6-1.27 1.37-1.27 1.03 0 1.8.86 1.8 1.9 0 1.94-1.66 5.7-4.5 10.45-3.57 5.9-7.24 9.84-9.2 9.84-1.03 0-1.75-.58-1.75-1.47 0-.76.6-1.38 1.34-1.38 1.2 0 1.2.96 2.1.96.44 0 .85-.27 1.64-1.13.62-.65 2.16-2.67 2.43-3.12.2-.4.34-.82.34-1.2 0-1.37-1.9-9.05-2.82-11.4-.65-1.67-1.26-2.18-2.64-2.18-.37 0-.68.03-1.06.14v-.6c.38-.06.76-.12 1.1-.2.68-.13 1.82-.34 3.67-.6h.13c.5 0 2.33 5.68 2.9 8.74M4332.43 1687.77h-1.16l-4.2-3.53-4.14 3.53h-1.16l4.25-5.73h2.13M4347.2 1711.64l.33.3c-1.65 2.27-2.25 2.75-3.4 2.75-.6 0-1.13-.4-1.13-1.32 0-.24.05-.55.4-1.82l1.05-3.92c.2-.76.34-1.63.34-1.92 0-.44-.23-.7-.6-.7-.96 0-2.05 1.18-3.58 3.44-1.1 1.62-1.28 2.18-2.42 6h-1.82l2.33-8.47c.03-.14.05-.28.05-.43 0-.48-.34-.63-1.57-.65v-.4c1.96-.38 2.64-.47 3.93-.74l.1.05-1.62 5.28c2.42-3.87 4.05-5.32 5.6-5.32 1.04 0 1.58.6 1.58 1.48 0 .43-.1.94-.25 1.45l-1.34 4.94c-.25.87-.34 1.28-.34 1.48 0 .2.1.43.4.43.32 0 .76-.4 1.46-1.28.17-.2.34-.4.5-.63"/><defs><path d="M240-174c0 40-23 61-54 70L253 0h-59l-57-94H76V0H24v-248c93 4 217-23 216 74zM76-134c48-2 112 12 112-38 0-48-66-32-112-35v73" id="i"/><path d="M185-48c-13 30-37 53-82 52C43 2 14-33 14-96s30-98 90-98c62 0 83 45 84 108H66c0 31 8 55 39 56 18 0 30-7 34-22zm-45-69c5-46-57-63-70-21-2 6-4 13-4 21h74" id="j"/><path d="M135-194c53 0 70 44 70 98 0 56-19 98-73 100-31 1-45-17-59-34 3 33 2 69 2 105H25l-1-265h48c2 10 0 23 3 31 11-24 29-35 60-35zM114-30c33 0 39-31 40-66 0-38-9-64-40-64-56 0-55 130 0 130" id="k"/><path d="M135-150c-39-12-60 13-60 57V0H25l-1-190h47c2 13-1 29 3 40 6-28 27-53 61-41v41" id="l"/><path d="M12 0v-35l95-120H19v-35h142v35L67-36h103V0H12" id="m"/><path d="M135-194c87-1 58 113 63 194h-50c-7-57 23-157-34-157-59 0-34 97-39 157H25l-1-190h47c2 12-1 28 3 38 12-26 28-41 61-42" id="n"/><path d="M115-3C79 11 28 4 28-45v-112H4v-33h27l15-45h31v45h36v33H77v99c-1 23 16 31 38 25v30" id="o"/><path d="M133-34C117-15 103 5 69 4 32 3 11-16 11-54c-1-60 55-63 116-61 1-26-3-47-28-47-18 1-26 9-28 27l-52-2c7-38 36-58 82-57s74 22 75 68l1 82c-1 14 12 18 25 15v27c-30 8-71 5-69-32zm-48 3c29 0 43-24 42-57-32 0-66-3-65 30 0 17 8 27 23 27" id="p"/><path d="M190-63c-7 42-38 67-86 67-59 0-84-38-90-98-12-110 154-137 174-36l-49 2c-2-19-15-32-35-32-30 0-35 28-38 64-6 74 65 87 74 30" id="q"/><path d="M25-224v-37h50v37H25zM25 0v-190h50V0H25" id="r"/><path d="M25-224v-37h50v37H25zM75 22c2 45-34 59-81 51V38c22 5 31-5 31-27v-201h50V22" id="s"/><path d="M137-138c1-29-70-34-71-4 15 46 118 7 119 86 1 83-164 76-172 9l43-7c4 19 20 25 44 25 33 8 57-30 24-41C81-84 22-81 20-136c-2-80 154-74 161-7" id="t"/><path d="M147 0L96-86 75-71V0H25v-261h50v150l67-79h53l-66 74L201 0h-54" id="u"/><g id="a"><use transform="matrix(0.07407407407407408,0,0,0.07407407407407408,0,0)" xlink:href="#i"/><use transform="matrix(0.07407407407407408,0,0,0.07407407407407408,19.185185185185187,0)" xlink:href="#j"/><use transform="matrix(0.07407407407407408,0,0,0.07407407407407408,34,0)" xlink:href="#k"/><use transform="matrix(0.07407407407407408,0,0,0.07407407407407408,50.22222222222223,0)" xlink:href="#l"/><use transform="matrix(0.07407407407407408,0,0,0.07407407407407408,60.5925925925926,0)" xlink:href="#j"/><use transform="matrix(0.07407407407407408,0,0,0.07407407407407408,75.40740740740742,0)" xlink:href="#m"/><use transform="matrix(0.07407407407407408,0,0,0.07407407407407408,88.74074074074078,0)" xlink:href="#j"/><use transform="matrix(0.07407407407407408,0,0,0.07407407407407408,103.55555555555557,0)" xlink:href="#n"/><use transform="matrix(0.07407407407407408,0,0,0.07407407407407408,119.7777777777778,0)" xlink:href="#o"/><use transform="matrix(0.07407407407407408,0,0,0.07407407407407408,128.5925925925926,0)" xlink:href="#p"/><use transform="matrix(0.07407407407407408,0,0,0.07407407407407408,143.40740740740742,0)" xlink:href="#q"/><use transform="matrix(0.07407407407407408,0,0,0.07407407407407408,158.22222222222226,0)" xlink:href="#r"/><use transform="matrix(0.07407407407407408,0,0,0.07407407407407408,165.62962962962965,0)" xlink:href="#s"/><use transform="matrix(0.07407407407407408,0,0,0.07407407407407408,173.03703703703707,0)" xlink:href="#t"/><use transform="matrix(0.07407407407407408,0,0,0.07407407407407408,187.85185185185188,0)" xlink:href="#u"/><use transform="matrix(0.07407407407407408,0,0,0.07407407407407408,202.66666666666669,0)" xlink:href="#r"/></g><path d="M25 0v-261h50V0H25" id="v"/><path d="M110-194c64 0 96 36 96 99 0 64-35 99-97 99-61 0-95-36-95-99 0-62 34-99 96-99zm-1 164c35 0 45-28 45-65 0-40-10-65-43-65-34 0-45 26-45 65 0 36 10 65 43 65" id="w"/><g id="b"><use transform="matrix(0.07407407407407408,0,0,0.07407407407407408,0,0)" xlink:href="#t"/><use transform="matrix(0.07407407407407408,0,0,0.07407407407407408,14.814814814814817,0)" xlink:href="#v"/><use transform="matrix(0.07407407407407408,0,0,0.07407407407407408,22.222222222222225,0)" xlink:href="#w"/><use transform="matrix(0.07407407407407408,0,0,0.07407407407407408,38.44444444444445,0)" xlink:href="#s"/></g><path fill="#ef8d22" d="M24 0v-248h52V0H24" id="x"/><path fill="#ef8d22" d="M12 0v-35l95-120H19v-35h142v35L67-36h103V0H12" id="y"/><path fill="#ef8d22" d="M25 0v-261h50V0H25" id="z"/><path fill="#ef8d22" d="M133-34C117-15 103 5 69 4 32 3 11-16 11-54c-1-60 55-63 116-61 1-26-3-47-28-47-18 1-26 9-28 27l-52-2c7-38 36-58 82-57s74 22 75 68l1 82c-1 14 12 18 25 15v27c-30 8-71 5-69-32zm-48 3c29 0 43-24 42-57-32 0-66-3-65 30 0 17 8 27 23 27" id="A"/><path fill="#ef8d22" d="M135-194c87-1 58 113 63 194h-50c-7-57 23-157-34-157-59 0-34 97-39 157H25l-1-190h47c2 12-1 28 3 38 12-26 28-41 61-42" id="B"/><path fill="#ef8d22" d="M25-224v-37h50v37H25zM25 0v-190h50V0H25" id="C"/><g id="c"><use transform="matrix(0.07407407407407408,0,0,0.07407407407407408,0,0)" xlink:href="#x"/><use transform="matrix(0.07407407407407408,0,0,0.07407407407407408,7.407407407407408,0)" xlink:href="#y"/><use transform="matrix(0.07407407407407408,0,0,0.07407407407407408,20.740740740740744,0)" xlink:href="#z"/><use transform="matrix(0.07407407407407408,0,0,0.07407407407407408,28.148148148148152,0)" xlink:href="#A"/><use transform="matrix(0.07407407407407408,0,0,0.07407407407407408,42.96296296296297,0)" xlink:href="#y"/><use transform="matrix(0.07407407407407408,0,0,0.07407407407407408,56.296296296296305,0)" xlink:href="#B"/><use transform="matrix(0.07407407407407408,0,0,0.07407407407407408,72.51851851851853,0)" xlink:href="#C"/></g><path fill="#ef8d22" d="M137-138c1-29-70-34-71-4 15 46 118 7 119 86 1 83-164 76-172 9l43-7c4 19 20 25 44 25 33 8 57-30 24-41C81-84 22-81 20-136c-2-80 154-74 161-7" id="D"/><path fill="#ef8d22" d="M110-194c64 0 96 36 96 99 0 64-35 99-97 99-61 0-95-36-95-99 0-62 34-99 96-99zm-1 164c35 0 45-28 45-65 0-40-10-65-43-65-34 0-45 26-45 65 0 36 10 65 43 65" id="E"/><path fill="#ef8d22" d="M25-224v-37h50v37H25zM75 22c2 45-34 59-81 51V38c22 5 31-5 31-27v-201h50V22" id="F"/><g id="d"><use transform="matrix(0.07407407407407408,0,0,0.07407407407407408,0,0)" xlink:href="#D"/><use transform="matrix(0.07407407407407408,0,0,0.07407407407407408,14.814814814814817,0)" xlink:href="#z"/><use transform="matrix(0.07407407407407408,0,0,0.07407407407407408,22.222222222222225,0)" xlink:href="#E"/><use transform="matrix(0.07407407407407408,0,0,0.07407407407407408,38.44444444444445,0)" xlink:href="#F"/></g><path fill="#0c7cba" d="M238-95c0 69-44 99-111 99C63 4 22-25 22-93v-155h51v151c-1 38 19 59 55 60 90 1 49-130 58-211h52v153" id="G"/><path fill="#0c7cba" d="M25 0v-261h50V0H25" id="H"/><path fill="#0c7cba" d="M133-34C117-15 103 5 69 4 32 3 11-16 11-54c-1-60 55-63 116-61 1-26-3-47-28-47-18 1-26 9-28 27l-52-2c7-38 36-58 82-57s74 22 75 68l1 82c-1 14 12 18 25 15v27c-30 8-71 5-69-32zm-48 3c29 0 43-24 42-57-32 0-66-3-65 30 0 17 8 27 23 27" id="I"/><path fill="#0c7cba" d="M12 0v-35l95-120H19v-35h142v35L67-36h103V0H12" id="J"/><path fill="#0c7cba" d="M135-194c87-1 58 113 63 194h-50c-7-57 23-157-34-157-59 0-34 97-39 157H25l-1-190h47c2 12-1 28 3 38 12-26 28-41 61-42" id="K"/><path fill="#0c7cba" d="M25-224v-37h50v37H25zM25 0v-190h50V0H25" id="L"/><g id="e"><use transform="matrix(0.07407407407407408,0,0,0.07407407407407408,0,0)" xlink:href="#G"/><use transform="matrix(0.07407407407407408,0,0,0.07407407407407408,19.185185185185187,0)" xlink:href="#H"/><use transform="matrix(0.07407407407407408,0,0,0.07407407407407408,26.592592592592595,0)" xlink:href="#I"/><use transform="matrix(0.07407407407407408,0,0,0.07407407407407408,41.40740740740741,0)" xlink:href="#J"/><use transform="matrix(0.07407407407407408,0,0,0.07407407407407408,54.74074074074075,0)" xlink:href="#K"/><use transform="matrix(0.07407407407407408,0,0,0.07407407407407408,70.96296296296298,0)" xlink:href="#L"/></g><path fill="#0c7cba" d="M137-138c1-29-70-34-71-4 15 46 118 7 119 86 1 83-164 76-172 9l43-7c4 19 20 25 44 25 33 8 57-30 24-41C81-84 22-81 20-136c-2-80 154-74 161-7" id="M"/><path fill="#0c7cba" d="M110-194c64 0 96 36 96 99 0 64-35 99-97 99-61 0-95-36-95-99 0-62 34-99 96-99zm-1 164c35 0 45-28 45-65 0-40-10-65-43-65-34 0-45 26-45 65 0 36 10 65 43 65" id="N"/><path fill="#0c7cba" d="M25-224v-37h50v37H25zM75 22c2 45-34 59-81 51V38c22 5 31-5 31-27v-201h50V22" id="O"/><g id="f"><use transform="matrix(0.07407407407407408,0,0,0.07407407407407408,0,0)" xlink:href="#M"/><use transform="matrix(0.07407407407407408,0,0,0.07407407407407408,14.814814814814817,0)" xlink:href="#H"/><use transform="matrix(0.07407407407407408,0,0,0.07407407407407408,22.222222222222225,0)" xlink:href="#N"/><use transform="matrix(0.07407407407407408,0,0,0.07407407407407408,38.44444444444445,0)" xlink:href="#O"/></g><path d="M24 0v-54h51V0H24" id="P"/><use transform="matrix(0.06790123456790124,0,0,0.06790123456790124,0,0)" xlink:href="#P" id="g"/><use transform="matrix(0.06790123456790124,0,0,0.06790123456790124,0,0)" xlink:href="#P" id="h"/></defs></g></svg>