<?xml version="1.0" encoding="utf-8" standalone="no"?>
<!DOCTYPE svg PUBLIC "-//W3C//DTD SVG 1.1//EN"
  "http://www.w3.org/Graphics/SVG/1.1/DTD/svg11.dtd">
<!-- Created with matplotlib (https://matplotlib.org/) -->
<svg height="720pt" version="1.1" viewBox="0 0 1296 720" width="1296pt" xmlns="http://www.w3.org/2000/svg" xmlns:xlink="http://www.w3.org/1999/xlink">
 <defs>
  <style type="text/css">
*{stroke-linecap:butt;stroke-linejoin:round;}
  </style>
 </defs>
 <g id="figure_1">
  <g id="patch_1">
   <path d="M 0 720 
L 1296 720 
L 1296 0 
L 0 0 
z
" style="fill:#ffffff;"/>
  </g>
  <g id="axes_1">
   <g id="patch_2">
    <path d="M 57.62 666.52 
L 1278.36 666.52 
L 1278.36 34.08 
L 57.62 34.08 
z
" style="fill:#ffffff;"/>
   </g>
   <g id="matplotlib.axis_1">
    <g id="xtick_1">
     <g id="line2d_1">
      <defs>
       <path d="M 0 0 
L 0 3.5 
" id="ma3f51a23a2" style="stroke:#000000;stroke-width:0.8;"/>
      </defs>
      <g>
       <use style="stroke:#000000;stroke-width:0.8;" x="171.789928" xlink:href="#ma3f51a23a2" y="666.52"/>
      </g>
     </g>
     <g id="text_1">
      <!-- 27.03.2018 -->
      <defs>
       <path d="M 19.1875 8.296875 
L 53.609375 8.296875 
L 53.609375 0 
L 7.328125 0 
L 7.328125 8.296875 
Q 12.9375 14.109375 22.625 23.890625 
Q 32.328125 33.6875 34.8125 36.53125 
Q 39.546875 41.84375 41.421875 45.53125 
Q 43.3125 49.21875 43.3125 52.78125 
Q 43.3125 58.59375 39.234375 62.25 
Q 35.15625 65.921875 28.609375 65.921875 
Q 23.96875 65.921875 18.8125 64.3125 
Q 13.671875 62.703125 7.8125 59.421875 
L 7.8125 69.390625 
Q 13.765625 71.78125 18.9375 73 
Q 24.125 74.21875 28.421875 74.21875 
Q 39.75 74.21875 46.484375 68.546875 
Q 53.21875 62.890625 53.21875 53.421875 
Q 53.21875 48.921875 51.53125 44.890625 
Q 49.859375 40.875 45.40625 35.40625 
Q 44.1875 33.984375 37.640625 27.21875 
Q 31.109375 20.453125 19.1875 8.296875 
z
" id="DejaVuSans-50"/>
       <path d="M 8.203125 72.90625 
L 55.078125 72.90625 
L 55.078125 68.703125 
L 28.609375 0 
L 18.3125 0 
L 43.21875 64.59375 
L 8.203125 64.59375 
z
" id="DejaVuSans-55"/>
       <path d="M 10.6875 12.40625 
L 21 12.40625 
L 21 0 
L 10.6875 0 
z
" id="DejaVuSans-46"/>
       <path d="M 31.78125 66.40625 
Q 24.171875 66.40625 20.328125 58.90625 
Q 16.5 51.421875 16.5 36.375 
Q 16.5 21.390625 20.328125 13.890625 
Q 24.171875 6.390625 31.78125 6.390625 
Q 39.453125 6.390625 43.28125 13.890625 
Q 47.125 21.390625 47.125 36.375 
Q 47.125 51.421875 43.28125 58.90625 
Q 39.453125 66.40625 31.78125 66.40625 
z
M 31.78125 74.21875 
Q 44.046875 74.21875 50.515625 64.515625 
Q 56.984375 54.828125 56.984375 36.375 
Q 56.984375 17.96875 50.515625 8.265625 
Q 44.046875 -1.421875 31.78125 -1.421875 
Q 19.53125 -1.421875 13.0625 8.265625 
Q 6.59375 17.96875 6.59375 36.375 
Q 6.59375 54.828125 13.0625 64.515625 
Q 19.53125 74.21875 31.78125 74.21875 
z
" id="DejaVuSans-48"/>
       <path d="M 40.578125 39.3125 
Q 47.65625 37.796875 51.625 33 
Q 55.609375 28.21875 55.609375 21.1875 
Q 55.609375 10.40625 48.1875 4.484375 
Q 40.765625 -1.421875 27.09375 -1.421875 
Q 22.515625 -1.421875 17.65625 -0.515625 
Q 12.796875 0.390625 7.625 2.203125 
L 7.625 11.71875 
Q 11.71875 9.328125 16.59375 8.109375 
Q 21.484375 6.890625 26.8125 6.890625 
Q 36.078125 6.890625 40.9375 10.546875 
Q 45.796875 14.203125 45.796875 21.1875 
Q 45.796875 27.640625 41.28125 31.265625 
Q 36.765625 34.90625 28.71875 34.90625 
L 20.21875 34.90625 
L 20.21875 43.015625 
L 29.109375 43.015625 
Q 36.375 43.015625 40.234375 45.921875 
Q 44.09375 48.828125 44.09375 54.296875 
Q 44.09375 59.90625 40.109375 62.90625 
Q 36.140625 65.921875 28.71875 65.921875 
Q 24.65625 65.921875 20.015625 65.03125 
Q 15.375 64.15625 9.8125 62.3125 
L 9.8125 71.09375 
Q 15.4375 72.65625 20.34375 73.4375 
Q 25.25 74.21875 29.59375 74.21875 
Q 40.828125 74.21875 47.359375 69.109375 
Q 53.90625 64.015625 53.90625 55.328125 
Q 53.90625 49.265625 50.4375 45.09375 
Q 46.96875 40.921875 40.578125 39.3125 
z
" id="DejaVuSans-51"/>
       <path d="M 12.40625 8.296875 
L 28.515625 8.296875 
L 28.515625 63.921875 
L 10.984375 60.40625 
L 10.984375 69.390625 
L 28.421875 72.90625 
L 38.28125 72.90625 
L 38.28125 8.296875 
L 54.390625 8.296875 
L 54.390625 0 
L 12.40625 0 
z
" id="DejaVuSans-49"/>
       <path d="M 31.78125 34.625 
Q 24.75 34.625 20.71875 30.859375 
Q 16.703125 27.09375 16.703125 20.515625 
Q 16.703125 13.921875 20.71875 10.15625 
Q 24.75 6.390625 31.78125 6.390625 
Q 38.8125 6.390625 42.859375 10.171875 
Q 46.921875 13.96875 46.921875 20.515625 
Q 46.921875 27.09375 42.890625 30.859375 
Q 38.875 34.625 31.78125 34.625 
z
M 21.921875 38.8125 
Q 15.578125 40.375 12.03125 44.71875 
Q 8.5 49.078125 8.5 55.328125 
Q 8.5 64.0625 14.71875 69.140625 
Q 20.953125 74.21875 31.78125 74.21875 
Q 42.671875 74.21875 48.875 69.140625 
Q 55.078125 64.0625 55.078125 55.328125 
Q 55.078125 49.078125 51.53125 44.71875 
Q 48 40.375 41.703125 38.8125 
Q 48.828125 37.15625 52.796875 32.3125 
Q 56.78125 27.484375 56.78125 20.515625 
Q 56.78125 9.90625 50.3125 4.234375 
Q 43.84375 -1.421875 31.78125 -1.421875 
Q 19.734375 -1.421875 13.25 4.234375 
Q 6.78125 9.90625 6.78125 20.515625 
Q 6.78125 27.484375 10.78125 32.3125 
Q 14.796875 37.15625 21.921875 38.8125 
z
M 18.3125 54.390625 
Q 18.3125 48.734375 21.84375 45.5625 
Q 25.390625 42.390625 31.78125 42.390625 
Q 38.140625 42.390625 41.71875 45.5625 
Q 45.3125 48.734375 45.3125 54.390625 
Q 45.3125 60.0625 41.71875 63.234375 
Q 38.140625 66.40625 31.78125 66.40625 
Q 25.390625 66.40625 21.84375 63.234375 
Q 18.3125 60.0625 18.3125 54.390625 
z
" id="DejaVuSans-56"/>
      </defs>
      <g transform="translate(131.710553 684.157812)scale(0.14 -0.14)">
       <use xlink:href="#DejaVuSans-50"/>
       <use x="63.623047" xlink:href="#DejaVuSans-55"/>
       <use x="127.246094" xlink:href="#DejaVuSans-46"/>
       <use x="159.033203" xlink:href="#DejaVuSans-48"/>
       <use x="222.65625" xlink:href="#DejaVuSans-51"/>
       <use x="286.279297" xlink:href="#DejaVuSans-46"/>
       <use x="318.066406" xlink:href="#DejaVuSans-50"/>
       <use x="381.689453" xlink:href="#DejaVuSans-48"/>
       <use x="445.3125" xlink:href="#DejaVuSans-49"/>
       <use x="508.935547" xlink:href="#DejaVuSans-56"/>
      </g>
     </g>
    </g>
    <g id="xtick_2">
     <g id="line2d_2">
      <g>
       <use style="stroke:#000000;stroke-width:0.8;" x="303.52446" xlink:href="#ma3f51a23a2" y="666.52"/>
      </g>
     </g>
     <g id="text_2">
      <!-- 11.04.2018 -->
      <defs>
       <path d="M 37.796875 64.3125 
L 12.890625 25.390625 
L 37.796875 25.390625 
z
M 35.203125 72.90625 
L 47.609375 72.90625 
L 47.609375 25.390625 
L 58.015625 25.390625 
L 58.015625 17.1875 
L 47.609375 17.1875 
L 47.609375 0 
L 37.796875 0 
L 37.796875 17.1875 
L 4.890625 17.1875 
L 4.890625 26.703125 
z
" id="DejaVuSans-52"/>
      </defs>
      <g transform="translate(263.445085 684.157812)scale(0.14 -0.14)">
       <use xlink:href="#DejaVuSans-49"/>
       <use x="63.623047" xlink:href="#DejaVuSans-49"/>
       <use x="127.246094" xlink:href="#DejaVuSans-46"/>
       <use x="159.033203" xlink:href="#DejaVuSans-48"/>
       <use x="222.65625" xlink:href="#DejaVuSans-52"/>
       <use x="286.279297" xlink:href="#DejaVuSans-46"/>
       <use x="318.066406" xlink:href="#DejaVuSans-50"/>
       <use x="381.689453" xlink:href="#DejaVuSans-48"/>
       <use x="445.3125" xlink:href="#DejaVuSans-49"/>
       <use x="508.935547" xlink:href="#DejaVuSans-56"/>
      </g>
     </g>
    </g>
    <g id="xtick_3">
     <g id="line2d_3">
      <g>
       <use style="stroke:#000000;stroke-width:0.8;" x="435.258993" xlink:href="#ma3f51a23a2" y="666.52"/>
      </g>
     </g>
     <g id="text_3">
      <!-- 26.04.2018 -->
      <defs>
       <path d="M 33.015625 40.375 
Q 26.375 40.375 22.484375 35.828125 
Q 18.609375 31.296875 18.609375 23.390625 
Q 18.609375 15.53125 22.484375 10.953125 
Q 26.375 6.390625 33.015625 6.390625 
Q 39.65625 6.390625 43.53125 10.953125 
Q 47.40625 15.53125 47.40625 23.390625 
Q 47.40625 31.296875 43.53125 35.828125 
Q 39.65625 40.375 33.015625 40.375 
z
M 52.59375 71.296875 
L 52.59375 62.3125 
Q 48.875 64.0625 45.09375 64.984375 
Q 41.3125 65.921875 37.59375 65.921875 
Q 27.828125 65.921875 22.671875 59.328125 
Q 17.53125 52.734375 16.796875 39.40625 
Q 19.671875 43.65625 24.015625 45.921875 
Q 28.375 48.1875 33.59375 48.1875 
Q 44.578125 48.1875 50.953125 41.515625 
Q 57.328125 34.859375 57.328125 23.390625 
Q 57.328125 12.15625 50.6875 5.359375 
Q 44.046875 -1.421875 33.015625 -1.421875 
Q 20.359375 -1.421875 13.671875 8.265625 
Q 6.984375 17.96875 6.984375 36.375 
Q 6.984375 53.65625 15.1875 63.9375 
Q 23.390625 74.21875 37.203125 74.21875 
Q 40.921875 74.21875 44.703125 73.484375 
Q 48.484375 72.75 52.59375 71.296875 
z
" id="DejaVuSans-54"/>
      </defs>
      <g transform="translate(395.179618 684.157812)scale(0.14 -0.14)">
       <use xlink:href="#DejaVuSans-50"/>
       <use x="63.623047" xlink:href="#DejaVuSans-54"/>
       <use x="127.246094" xlink:href="#DejaVuSans-46"/>
       <use x="159.033203" xlink:href="#DejaVuSans-48"/>
       <use x="222.65625" xlink:href="#DejaVuSans-52"/>
       <use x="286.279297" xlink:href="#DejaVuSans-46"/>
       <use x="318.066406" xlink:href="#DejaVuSans-50"/>
       <use x="381.689453" xlink:href="#DejaVuSans-48"/>
       <use x="445.3125" xlink:href="#DejaVuSans-49"/>
       <use x="508.935547" xlink:href="#DejaVuSans-56"/>
      </g>
     </g>
    </g>
    <g id="xtick_4">
     <g id="line2d_4">
      <g>
       <use style="stroke:#000000;stroke-width:0.8;" x="566.993525" xlink:href="#ma3f51a23a2" y="666.52"/>
      </g>
     </g>
     <g id="text_4">
      <!-- 11.05.2018 -->
      <defs>
       <path d="M 10.796875 72.90625 
L 49.515625 72.90625 
L 49.515625 64.59375 
L 19.828125 64.59375 
L 19.828125 46.734375 
Q 21.96875 47.46875 24.109375 47.828125 
Q 26.265625 48.1875 28.421875 48.1875 
Q 40.625 48.1875 47.75 41.5 
Q 54.890625 34.8125 54.890625 23.390625 
Q 54.890625 11.625 47.5625 5.09375 
Q 40.234375 -1.421875 26.90625 -1.421875 
Q 22.3125 -1.421875 17.546875 -0.640625 
Q 12.796875 0.140625 7.71875 1.703125 
L 7.71875 11.625 
Q 12.109375 9.234375 16.796875 8.0625 
Q 21.484375 6.890625 26.703125 6.890625 
Q 35.15625 6.890625 40.078125 11.328125 
Q 45.015625 15.765625 45.015625 23.390625 
Q 45.015625 31 40.078125 35.4375 
Q 35.15625 39.890625 26.703125 39.890625 
Q 22.75 39.890625 18.8125 39.015625 
Q 14.890625 38.140625 10.796875 36.28125 
z
" id="DejaVuSans-53"/>
      </defs>
      <g transform="translate(526.91415 684.157812)scale(0.14 -0.14)">
       <use xlink:href="#DejaVuSans-49"/>
       <use x="63.623047" xlink:href="#DejaVuSans-49"/>
       <use x="127.246094" xlink:href="#DejaVuSans-46"/>
       <use x="159.033203" xlink:href="#DejaVuSans-48"/>
       <use x="222.65625" xlink:href="#DejaVuSans-53"/>
       <use x="286.279297" xlink:href="#DejaVuSans-46"/>
       <use x="318.066406" xlink:href="#DejaVuSans-50"/>
       <use x="381.689453" xlink:href="#DejaVuSans-48"/>
       <use x="445.3125" xlink:href="#DejaVuSans-49"/>
       <use x="508.935547" xlink:href="#DejaVuSans-56"/>
      </g>
     </g>
    </g>
    <g id="xtick_5">
     <g id="line2d_5">
      <g>
       <use style="stroke:#000000;stroke-width:0.8;" x="698.728058" xlink:href="#ma3f51a23a2" y="666.52"/>
      </g>
     </g>
     <g id="text_5">
      <!-- 26.05.2018 -->
      <g transform="translate(658.648683 684.157812)scale(0.14 -0.14)">
       <use xlink:href="#DejaVuSans-50"/>
       <use x="63.623047" xlink:href="#DejaVuSans-54"/>
       <use x="127.246094" xlink:href="#DejaVuSans-46"/>
       <use x="159.033203" xlink:href="#DejaVuSans-48"/>
       <use x="222.65625" xlink:href="#DejaVuSans-53"/>
       <use x="286.279297" xlink:href="#DejaVuSans-46"/>
       <use x="318.066406" xlink:href="#DejaVuSans-50"/>
       <use x="381.689453" xlink:href="#DejaVuSans-48"/>
       <use x="445.3125" xlink:href="#DejaVuSans-49"/>
       <use x="508.935547" xlink:href="#DejaVuSans-56"/>
      </g>
     </g>
    </g>
    <g id="xtick_6">
     <g id="line2d_6">
      <g>
       <use style="stroke:#000000;stroke-width:0.8;" x="830.46259" xlink:href="#ma3f51a23a2" y="666.52"/>
      </g>
     </g>
     <g id="text_6">
      <!-- 10.06.2018 -->
      <g transform="translate(790.383215 684.157812)scale(0.14 -0.14)">
       <use xlink:href="#DejaVuSans-49"/>
       <use x="63.623047" xlink:href="#DejaVuSans-48"/>
       <use x="127.246094" xlink:href="#DejaVuSans-46"/>
       <use x="159.033203" xlink:href="#DejaVuSans-48"/>
       <use x="222.65625" xlink:href="#DejaVuSans-54"/>
       <use x="286.279297" xlink:href="#DejaVuSans-46"/>
       <use x="318.066406" xlink:href="#DejaVuSans-50"/>
       <use x="381.689453" xlink:href="#DejaVuSans-48"/>
       <use x="445.3125" xlink:href="#DejaVuSans-49"/>
       <use x="508.935547" xlink:href="#DejaVuSans-56"/>
      </g>
     </g>
    </g>
    <g id="xtick_7">
     <g id="line2d_7">
      <g>
       <use style="stroke:#000000;stroke-width:0.8;" x="962.197122" xlink:href="#ma3f51a23a2" y="666.52"/>
      </g>
     </g>
     <g id="text_7">
      <!-- 25.06.2018 -->
      <g transform="translate(922.117747 684.157812)scale(0.14 -0.14)">
       <use xlink:href="#DejaVuSans-50"/>
       <use x="63.623047" xlink:href="#DejaVuSans-53"/>
       <use x="127.246094" xlink:href="#DejaVuSans-46"/>
       <use x="159.033203" xlink:href="#DejaVuSans-48"/>
       <use x="222.65625" xlink:href="#DejaVuSans-54"/>
       <use x="286.279297" xlink:href="#DejaVuSans-46"/>
       <use x="318.066406" xlink:href="#DejaVuSans-50"/>
       <use x="381.689453" xlink:href="#DejaVuSans-48"/>
       <use x="445.3125" xlink:href="#DejaVuSans-49"/>
       <use x="508.935547" xlink:href="#DejaVuSans-56"/>
      </g>
     </g>
    </g>
    <g id="xtick_8">
     <g id="line2d_8">
      <g>
       <use style="stroke:#000000;stroke-width:0.8;" x="1093.931655" xlink:href="#ma3f51a23a2" y="666.52"/>
      </g>
     </g>
     <g id="text_8">
      <!-- 10.07.2018 -->
      <g transform="translate(1053.85228 684.157812)scale(0.14 -0.14)">
       <use xlink:href="#DejaVuSans-49"/>
       <use x="63.623047" xlink:href="#DejaVuSans-48"/>
       <use x="127.246094" xlink:href="#DejaVuSans-46"/>
       <use x="159.033203" xlink:href="#DejaVuSans-48"/>
       <use x="222.65625" xlink:href="#DejaVuSans-55"/>
       <use x="286.279297" xlink:href="#DejaVuSans-46"/>
       <use x="318.066406" xlink:href="#DejaVuSans-50"/>
       <use x="381.689453" xlink:href="#DejaVuSans-48"/>
       <use x="445.3125" xlink:href="#DejaVuSans-49"/>
       <use x="508.935547" xlink:href="#DejaVuSans-56"/>
      </g>
     </g>
    </g>
    <g id="xtick_9">
     <g id="line2d_9">
      <g>
       <use style="stroke:#000000;stroke-width:0.8;" x="1225.666187" xlink:href="#ma3f51a23a2" y="666.52"/>
      </g>
     </g>
     <g id="text_9">
      <!-- 25.07.2018 -->
      <g transform="translate(1185.586812 684.157812)scale(0.14 -0.14)">
       <use xlink:href="#DejaVuSans-50"/>
       <use x="63.623047" xlink:href="#DejaVuSans-53"/>
       <use x="127.246094" xlink:href="#DejaVuSans-46"/>
       <use x="159.033203" xlink:href="#DejaVuSans-48"/>
       <use x="222.65625" xlink:href="#DejaVuSans-55"/>
       <use x="286.279297" xlink:href="#DejaVuSans-46"/>
       <use x="318.066406" xlink:href="#DejaVuSans-50"/>
       <use x="381.689453" xlink:href="#DejaVuSans-48"/>
       <use x="445.3125" xlink:href="#DejaVuSans-49"/>
       <use x="508.935547" xlink:href="#DejaVuSans-56"/>
      </g>
     </g>
    </g>
    <g id="text_10">
     <!-- Datum -->
     <defs>
      <path d="M 19.671875 64.796875 
L 19.671875 8.109375 
L 31.59375 8.109375 
Q 46.6875 8.109375 53.6875 14.9375 
Q 60.6875 21.78125 60.6875 36.53125 
Q 60.6875 51.171875 53.6875 57.984375 
Q 46.6875 64.796875 31.59375 64.796875 
z
M 9.8125 72.90625 
L 30.078125 72.90625 
Q 51.265625 72.90625 61.171875 64.09375 
Q 71.09375 55.28125 71.09375 36.53125 
Q 71.09375 17.671875 61.125 8.828125 
Q 51.171875 0 30.078125 0 
L 9.8125 0 
z
" id="DejaVuSans-68"/>
      <path d="M 34.28125 27.484375 
Q 23.390625 27.484375 19.1875 25 
Q 14.984375 22.515625 14.984375 16.5 
Q 14.984375 11.71875 18.140625 8.90625 
Q 21.296875 6.109375 26.703125 6.109375 
Q 34.1875 6.109375 38.703125 11.40625 
Q 43.21875 16.703125 43.21875 25.484375 
L 43.21875 27.484375 
z
M 52.203125 31.203125 
L 52.203125 0 
L 43.21875 0 
L 43.21875 8.296875 
Q 40.140625 3.328125 35.546875 0.953125 
Q 30.953125 -1.421875 24.3125 -1.421875 
Q 15.921875 -1.421875 10.953125 3.296875 
Q 6 8.015625 6 15.921875 
Q 6 25.140625 12.171875 29.828125 
Q 18.359375 34.515625 30.609375 34.515625 
L 43.21875 34.515625 
L 43.21875 35.40625 
Q 43.21875 41.609375 39.140625 45 
Q 35.0625 48.390625 27.6875 48.390625 
Q 23 48.390625 18.546875 47.265625 
Q 14.109375 46.140625 10.015625 43.890625 
L 10.015625 52.203125 
Q 14.9375 54.109375 19.578125 55.046875 
Q 24.21875 56 28.609375 56 
Q 40.484375 56 46.34375 49.84375 
Q 52.203125 43.703125 52.203125 31.203125 
z
" id="DejaVuSans-97"/>
      <path d="M 18.3125 70.21875 
L 18.3125 54.6875 
L 36.8125 54.6875 
L 36.8125 47.703125 
L 18.3125 47.703125 
L 18.3125 18.015625 
Q 18.3125 11.328125 20.140625 9.421875 
Q 21.96875 7.515625 27.59375 7.515625 
L 36.8125 7.515625 
L 36.8125 0 
L 27.59375 0 
Q 17.1875 0 13.234375 3.875 
Q 9.28125 7.765625 9.28125 18.015625 
L 9.28125 47.703125 
L 2.6875 47.703125 
L 2.6875 54.6875 
L 9.28125 54.6875 
L 9.28125 70.21875 
z
" id="DejaVuSans-116"/>
      <path d="M 8.5 21.578125 
L 8.5 54.6875 
L 17.484375 54.6875 
L 17.484375 21.921875 
Q 17.484375 14.15625 20.5 10.265625 
Q 23.53125 6.390625 29.59375 6.390625 
Q 36.859375 6.390625 41.078125 11.03125 
Q 45.3125 15.671875 45.3125 23.6875 
L 45.3125 54.6875 
L 54.296875 54.6875 
L 54.296875 0 
L 45.3125 0 
L 45.3125 8.40625 
Q 42.046875 3.421875 37.71875 1 
Q 33.40625 -1.421875 27.6875 -1.421875 
Q 18.265625 -1.421875 13.375 4.4375 
Q 8.5 10.296875 8.5 21.578125 
z
M 31.109375 56 
z
" id="DejaVuSans-117"/>
      <path d="M 52 44.1875 
Q 55.375 50.25 60.0625 53.125 
Q 64.75 56 71.09375 56 
Q 79.640625 56 84.28125 50.015625 
Q 88.921875 44.046875 88.921875 33.015625 
L 88.921875 0 
L 79.890625 0 
L 79.890625 32.71875 
Q 79.890625 40.578125 77.09375 44.375 
Q 74.3125 48.1875 68.609375 48.1875 
Q 61.625 48.1875 57.5625 43.546875 
Q 53.515625 38.921875 53.515625 30.90625 
L 53.515625 0 
L 44.484375 0 
L 44.484375 32.71875 
Q 44.484375 40.625 41.703125 44.40625 
Q 38.921875 48.1875 33.109375 48.1875 
Q 26.21875 48.1875 22.15625 43.53125 
Q 18.109375 38.875 18.109375 30.90625 
L 18.109375 0 
L 9.078125 0 
L 9.078125 54.6875 
L 18.109375 54.6875 
L 18.109375 46.1875 
Q 21.1875 51.21875 25.484375 53.609375 
Q 29.78125 56 35.6875 56 
Q 41.65625 56 45.828125 52.96875 
Q 50 49.953125 52 44.1875 
z
" id="DejaVuSans-109"/>
     </defs>
     <g transform="translate(644.311406 701.707188)scale(0.14 -0.14)">
      <use xlink:href="#DejaVuSans-68"/>
      <use x="77.001953" xlink:href="#DejaVuSans-97"/>
      <use x="138.28125" xlink:href="#DejaVuSans-116"/>
      <use x="177.490234" xlink:href="#DejaVuSans-117"/>
      <use x="240.869141" xlink:href="#DejaVuSans-109"/>
     </g>
    </g>
   </g>
   <g id="matplotlib.axis_2">
    <g id="ytick_1">
     <g id="line2d_10">
      <defs>
       <path d="M 0 0 
L -3.5 0 
" id="m52ddf6f1d9" style="stroke:#000000;stroke-width:0.8;"/>
      </defs>
      <g>
       <use style="stroke:#000000;stroke-width:0.8;" x="57.62" xlink:href="#m52ddf6f1d9" y="666.52"/>
      </g>
     </g>
     <g id="text_11">
      <!-- 0 -->
      <g transform="translate(41.7125 671.838906)scale(0.14 -0.14)">
       <use xlink:href="#DejaVuSans-48"/>
      </g>
     </g>
    </g>
    <g id="ytick_2">
     <g id="line2d_11">
      <g>
       <use style="stroke:#000000;stroke-width:0.8;" x="57.62" xlink:href="#m52ddf6f1d9" y="531.383248"/>
      </g>
     </g>
     <g id="text_12">
      <!-- 20 -->
      <g transform="translate(32.805 536.702154)scale(0.14 -0.14)">
       <use xlink:href="#DejaVuSans-50"/>
       <use x="63.623047" xlink:href="#DejaVuSans-48"/>
      </g>
     </g>
    </g>
    <g id="ytick_3">
     <g id="line2d_12">
      <g>
       <use style="stroke:#000000;stroke-width:0.8;" x="57.62" xlink:href="#m52ddf6f1d9" y="396.246496"/>
      </g>
     </g>
     <g id="text_13">
      <!-- 40 -->
      <g transform="translate(32.805 401.565402)scale(0.14 -0.14)">
       <use xlink:href="#DejaVuSans-52"/>
       <use x="63.623047" xlink:href="#DejaVuSans-48"/>
      </g>
     </g>
    </g>
    <g id="ytick_4">
     <g id="line2d_13">
      <g>
       <use style="stroke:#000000;stroke-width:0.8;" x="57.62" xlink:href="#m52ddf6f1d9" y="261.109744"/>
      </g>
     </g>
     <g id="text_14">
      <!-- 60 -->
      <g transform="translate(32.805 266.42865)scale(0.14 -0.14)">
       <use xlink:href="#DejaVuSans-54"/>
       <use x="63.623047" xlink:href="#DejaVuSans-48"/>
      </g>
     </g>
    </g>
    <g id="ytick_5">
     <g id="line2d_14">
      <g>
       <use style="stroke:#000000;stroke-width:0.8;" x="57.62" xlink:href="#m52ddf6f1d9" y="125.972991"/>
      </g>
     </g>
     <g id="text_15">
      <!-- 80 -->
      <g transform="translate(32.805 131.291898)scale(0.14 -0.14)">
       <use xlink:href="#DejaVuSans-56"/>
       <use x="63.623047" xlink:href="#DejaVuSans-48"/>
      </g>
     </g>
    </g>
    <g id="text_16">
     <!-- Broj soba -->
     <defs>
      <path d="M 19.671875 34.8125 
L 19.671875 8.109375 
L 35.5 8.109375 
Q 43.453125 8.109375 47.28125 11.40625 
Q 51.125 14.703125 51.125 21.484375 
Q 51.125 28.328125 47.28125 31.5625 
Q 43.453125 34.8125 35.5 34.8125 
z
M 19.671875 64.796875 
L 19.671875 42.828125 
L 34.28125 42.828125 
Q 41.5 42.828125 45.03125 45.53125 
Q 48.578125 48.25 48.578125 53.8125 
Q 48.578125 59.328125 45.03125 62.0625 
Q 41.5 64.796875 34.28125 64.796875 
z
M 9.8125 72.90625 
L 35.015625 72.90625 
Q 46.296875 72.90625 52.390625 68.21875 
Q 58.5 63.53125 58.5 54.890625 
Q 58.5 48.1875 55.375 44.234375 
Q 52.25 40.28125 46.1875 39.3125 
Q 53.46875 37.75 57.5 32.78125 
Q 61.53125 27.828125 61.53125 20.40625 
Q 61.53125 10.640625 54.890625 5.3125 
Q 48.25 0 35.984375 0 
L 9.8125 0 
z
" id="DejaVuSans-66"/>
      <path d="M 41.109375 46.296875 
Q 39.59375 47.171875 37.8125 47.578125 
Q 36.03125 48 33.890625 48 
Q 26.265625 48 22.1875 43.046875 
Q 18.109375 38.09375 18.109375 28.8125 
L 18.109375 0 
L 9.078125 0 
L 9.078125 54.6875 
L 18.109375 54.6875 
L 18.109375 46.1875 
Q 20.953125 51.171875 25.484375 53.578125 
Q 30.03125 56 36.53125 56 
Q 37.453125 56 38.578125 55.875 
Q 39.703125 55.765625 41.0625 55.515625 
z
" id="DejaVuSans-114"/>
      <path d="M 30.609375 48.390625 
Q 23.390625 48.390625 19.1875 42.75 
Q 14.984375 37.109375 14.984375 27.296875 
Q 14.984375 17.484375 19.15625 11.84375 
Q 23.34375 6.203125 30.609375 6.203125 
Q 37.796875 6.203125 41.984375 11.859375 
Q 46.1875 17.53125 46.1875 27.296875 
Q 46.1875 37.015625 41.984375 42.703125 
Q 37.796875 48.390625 30.609375 48.390625 
z
M 30.609375 56 
Q 42.328125 56 49.015625 48.375 
Q 55.71875 40.765625 55.71875 27.296875 
Q 55.71875 13.875 49.015625 6.21875 
Q 42.328125 -1.421875 30.609375 -1.421875 
Q 18.84375 -1.421875 12.171875 6.21875 
Q 5.515625 13.875 5.515625 27.296875 
Q 5.515625 40.765625 12.171875 48.375 
Q 18.84375 56 30.609375 56 
z
" id="DejaVuSans-111"/>
      <path d="M 9.421875 54.6875 
L 18.40625 54.6875 
L 18.40625 -0.984375 
Q 18.40625 -11.421875 14.421875 -16.109375 
Q 10.453125 -20.796875 1.609375 -20.796875 
L -1.8125 -20.796875 
L -1.8125 -13.1875 
L 0.59375 -13.1875 
Q 5.71875 -13.1875 7.5625 -10.8125 
Q 9.421875 -8.453125 9.421875 -0.984375 
z
M 9.421875 75.984375 
L 18.40625 75.984375 
L 18.40625 64.59375 
L 9.421875 64.59375 
z
" id="DejaVuSans-106"/>
      <path id="DejaVuSans-32"/>
      <path d="M 44.28125 53.078125 
L 44.28125 44.578125 
Q 40.484375 46.53125 36.375 47.5 
Q 32.28125 48.484375 27.875 48.484375 
Q 21.1875 48.484375 17.84375 46.4375 
Q 14.5 44.390625 14.5 40.28125 
Q 14.5 37.15625 16.890625 35.375 
Q 19.28125 33.59375 26.515625 31.984375 
L 29.59375 31.296875 
Q 39.15625 29.25 43.1875 25.515625 
Q 47.21875 21.78125 47.21875 15.09375 
Q 47.21875 7.46875 41.1875 3.015625 
Q 35.15625 -1.421875 24.609375 -1.421875 
Q 20.21875 -1.421875 15.453125 -0.5625 
Q 10.6875 0.296875 5.421875 2 
L 5.421875 11.28125 
Q 10.40625 8.6875 15.234375 7.390625 
Q 20.0625 6.109375 24.8125 6.109375 
Q 31.15625 6.109375 34.5625 8.28125 
Q 37.984375 10.453125 37.984375 14.40625 
Q 37.984375 18.0625 35.515625 20.015625 
Q 33.0625 21.96875 24.703125 23.78125 
L 21.578125 24.515625 
Q 13.234375 26.265625 9.515625 29.90625 
Q 5.8125 33.546875 5.8125 39.890625 
Q 5.8125 47.609375 11.28125 51.796875 
Q 16.75 56 26.8125 56 
Q 31.78125 56 36.171875 55.265625 
Q 40.578125 54.546875 44.28125 53.078125 
z
" id="DejaVuSans-115"/>
      <path d="M 48.6875 27.296875 
Q 48.6875 37.203125 44.609375 42.84375 
Q 40.53125 48.484375 33.40625 48.484375 
Q 26.265625 48.484375 22.1875 42.84375 
Q 18.109375 37.203125 18.109375 27.296875 
Q 18.109375 17.390625 22.1875 11.75 
Q 26.265625 6.109375 33.40625 6.109375 
Q 40.53125 6.109375 44.609375 11.75 
Q 48.6875 17.390625 48.6875 27.296875 
z
M 18.109375 46.390625 
Q 20.953125 51.265625 25.265625 53.625 
Q 29.59375 56 35.59375 56 
Q 45.5625 56 51.78125 48.09375 
Q 58.015625 40.1875 58.015625 27.296875 
Q 58.015625 14.40625 51.78125 6.484375 
Q 45.5625 -1.421875 35.59375 -1.421875 
Q 29.59375 -1.421875 25.265625 0.953125 
Q 20.953125 3.328125 18.109375 8.203125 
L 18.109375 0 
L 9.078125 0 
L 9.078125 75.984375 
L 18.109375 75.984375 
z
" id="DejaVuSans-98"/>
     </defs>
     <g transform="translate(25.893437 383.093906)rotate(-90)scale(0.14 -0.14)">
      <use xlink:href="#DejaVuSans-66"/>
      <use x="68.603516" xlink:href="#DejaVuSans-114"/>
      <use x="109.685547" xlink:href="#DejaVuSans-111"/>
      <use x="170.867188" xlink:href="#DejaVuSans-106"/>
      <use x="198.650391" xlink:href="#DejaVuSans-32"/>
      <use x="230.4375" xlink:href="#DejaVuSans-115"/>
      <use x="282.537109" xlink:href="#DejaVuSans-111"/>
      <use x="343.71875" xlink:href="#DejaVuSans-98"/>
      <use x="407.195312" xlink:href="#DejaVuSans-97"/>
     </g>
    </g>
   </g>
   <g id="line2d_15">
    <path clip-path="url(#pd393a8a5cb)" d="M 48.837698 565.167436 
L 57.62 612.465299 
L 66.402302 504.355897 
L 75.184604 605.708462 
L 83.966906 558.410598 
L 92.749209 511.112735 
L 101.531511 538.140085 
L 110.313813 578.681111 
L 119.096115 585.437949 
L 127.878417 524.62641 
L 136.660719 585.437949 
L 145.443022 578.681111 
L 154.225324 558.410598 
L 163.007626 477.328547 
L 171.789928 551.653761 
L 180.57223 544.896923 
L 189.354532 612.465299 
L 198.136835 612.465299 
L 206.919137 585.437949 
L 215.701439 585.437949 
L 224.483741 538.140085 
L 233.266043 544.896923 
L 242.048345 551.653761 
L 250.830647 544.896923 
L 259.61295 605.708462 
L 268.395252 565.167436 
L 277.177554 511.112735 
L 285.959856 538.140085 
L 294.742158 538.140085 
L 303.52446 517.869573 
L 312.306763 565.167436 
L 321.089065 565.167436 
L 329.871367 598.951624 
L 338.653669 497.59906 
L 347.435971 612.465299 
L 356.218273 490.842222 
L 365.000576 551.653761 
L 373.782878 551.653761 
L 382.56518 578.681111 
L 391.347482 531.383248 
L 400.129784 396.246496 
L 408.912086 484.085385 
L 417.694388 511.112735 
L 426.476691 511.112735 
L 435.258993 511.112735 
L 444.041295 490.842222 
L 452.823597 524.62641 
L 461.605899 470.571709 
L 470.388201 463.814872 
L 479.170504 436.787521 
L 487.952806 565.167436 
L 496.735108 517.869573 
" style="fill:none;stroke:#2196f3;stroke-linecap:square;stroke-opacity:0.8;stroke-width:1.5;"/>
   </g>
   <g id="line2d_16">
    <path clip-path="url(#pd393a8a5cb)" d="M 496.735108 517.869573 
L 505.51741 490.842222 
L 514.299712 571.924274 
L 523.082014 531.383248 
L 531.864317 511.112735 
L 540.646619 511.112735 
L 549.428921 443.544359 
L 558.211223 531.383248 
L 566.993525 578.681111 
L 575.775827 531.383248 
L 584.558129 470.571709 
L 593.340432 558.410598 
L 602.122734 558.410598 
L 610.905036 450.301197 
L 619.687338 497.59906 
L 628.46964 517.869573 
L 637.251942 619.222137 
L 646.034245 409.760171 
L 654.816547 470.571709 
L 663.598849 504.355897 
L 672.381151 477.328547 
L 681.163453 538.140085 
L 689.945755 558.410598 
L 698.728058 517.869573 
L 707.51036 524.62641 
L 716.292662 517.869573 
L 725.074964 457.058034 
L 733.857266 484.085385 
L 742.639568 571.924274 
L 751.421871 571.924274 
L 760.204173 470.571709 
L 768.986475 457.058034 
L 777.768777 227.325556 
L 786.551079 375.975983 
L 795.333381 511.112735 
L 804.115683 430.030684 
L 812.897986 457.058034 
L 821.680288 531.383248 
L 830.46259 423.273846 
L 839.244892 348.948632 
L 848.027194 355.70547 
L 856.809496 382.732821 
L 865.591799 409.760171 
L 874.374101 423.273846 
L 883.156403 403.003333 
L 891.938705 443.544359 
L 900.721007 423.273846 
L 909.503309 355.70547 
L 918.285612 281.380256 
L 927.067914 153.000342 
L 935.850216 301.650769 
L 944.632518 389.489658 
L 953.41482 375.975983 
L 962.197122 139.486667 
L 970.979424 200.298205 
L 979.761727 200.298205 
L 988.544029 294.893932 
L 997.326331 288.137094 
L 1006.108633 335.434957 
L 1014.890935 450.301197 
" style="fill:none;stroke:#00e676;stroke-linecap:square;stroke-opacity:0.8;stroke-width:1.5;"/>
   </g>
   <g id="line2d_17">
    <path clip-path="url(#pd393a8a5cb)" d="M 496.735108 550.49261 
L 505.51741 532.64094 
L 514.299712 477.42639 
L 523.082014 459.372294 
L 531.864317 474.400474 
L 540.646619 538.95519 
L 549.428921 508.028026 
L 558.211223 490.488315 
L 566.993525 531.95524 
L 575.775827 479.634276 
L 584.558129 475.834366 
L 593.340432 446.175501 
L 602.122734 549.461095 
L 610.905036 487.264947 
L 619.687338 561.748737 
L 628.46964 562.680513 
L 637.251942 428.909613 
L 646.034245 410.279337 
L 654.816547 564.494475 
L 663.598849 433.953838 
L 672.381151 559.497613 
L 681.163453 547.696622 
L 689.945755 590.534883 
L 698.728058 426.010383 
L 707.51036 434.616804 
L 716.292662 454.329771 
L 725.074964 402.059236 
L 733.857266 434.118413 
L 742.639568 519.545469 
L 751.421871 393.545271 
L 760.204173 398.060561 
L 768.986475 389.536054 
L 777.768777 390.644211 
L 786.551079 386.172481 
L 795.333381 401.869659 
L 804.115683 424.598309 
L 812.897986 423.562916 
L 821.680288 387.429181 
L 830.46259 418.881195 
L 839.244892 384.977926 
L 848.027194 386.070308 
L 856.809496 359.702109 
L 865.591799 412.605531 
L 874.374101 392.457116 
L 883.156403 376.266238 
L 891.938705 280.185443 
L 900.721007 335.361678 
L 909.503309 282.166197 
L 918.285612 263.447949 
L 927.067914 245.204199 
L 935.850216 287.886584 
L 944.632518 235.849856 
L 953.41482 217.929689 
L 962.197122 204.237494 
L 970.979424 284.652223 
L 979.761727 207.484304 
L 988.544029 257.911339 
L 997.326331 291.646451 
L 1006.108633 271.865411 
L 1014.890935 307.220165 
" style="fill:none;stroke:#9c27b0;stroke-linecap:square;stroke-width:1.5;"/>
   </g>
   <g id="line2d_18">
    <path clip-path="url(#pd393a8a5cb)" d="M 760.204173 552.780257 
L 768.986475 424.123709 
L 777.768777 469.884437 
L 786.551079 552.861333 
L 795.333381 460.284173 
L 804.115683 505.631633 
L 812.897986 582.229067 
L 821.680288 406.243339 
L 830.46259 445.845603 
L 839.244892 396.518631 
L 848.027194 437.529025 
L 856.809496 380.738664 
L 865.591799 549.483726 
L 874.374101 404.264183 
L 883.156403 381.942215 
L 891.938705 283.808314 
L 900.721007 335.159368 
L 909.503309 283.970106 
L 918.285612 258.934438 
L 927.067914 242.287673 
L 935.850216 286.718113 
L 944.632518 250.775785 
L 953.41482 209.962702 
L 962.197122 206.998131 
L 970.979424 287.167634 
L 979.761727 218.829917 
L 988.544029 245.026324 
L 997.326331 298.283924 
L 1006.108633 289.59448 
L 1014.890935 309.462435 
" style="fill:none;stroke:#f44336;stroke-linecap:square;stroke-width:1.5;"/>
   </g>
   <g id="line2d_19">
    <path clip-path="url(#pd393a8a5cb)" d="M 962.197122 233.677103 
L 970.979424 296.273193 
L 979.761727 235.38054 
L 988.544029 233.27176 
L 997.326331 277.52283 
L 1006.108633 285.669548 
L 1014.890935 319.890602 
" style="fill:none;stroke:#ffc107;stroke-linecap:square;stroke-width:1.5;"/>
   </g>
   <g id="patch_3">
    <path d="M 57.62 666.52 
L 57.62 34.08 
" style="fill:none;stroke:#000000;stroke-linecap:square;stroke-linejoin:miter;stroke-width:0.8;"/>
   </g>
   <g id="patch_4">
    <path d="M 1278.36 666.52 
L 1278.36 34.08 
" style="fill:none;stroke:#000000;stroke-linecap:square;stroke-linejoin:miter;stroke-width:0.8;"/>
   </g>
   <g id="patch_5">
    <path d="M 57.62 666.52 
L 1278.36 666.52 
" style="fill:none;stroke:#000000;stroke-linecap:square;stroke-linejoin:miter;stroke-width:0.8;"/>
   </g>
   <g id="patch_6">
    <path d="M 57.62 34.08 
L 1278.36 34.08 
" style="fill:none;stroke:#000000;stroke-linecap:square;stroke-linejoin:miter;stroke-width:0.8;"/>
   </g>
   <g id="text_17">
    <!-- MAE: 10.1, ACC: 1.01 -->
    <defs>
     <path d="M 9.8125 72.90625 
L 24.515625 72.90625 
L 43.109375 23.296875 
L 61.8125 72.90625 
L 76.515625 72.90625 
L 76.515625 0 
L 66.890625 0 
L 66.890625 64.015625 
L 48.09375 14.015625 
L 38.1875 14.015625 
L 19.390625 64.015625 
L 19.390625 0 
L 9.8125 0 
z
" id="DejaVuSans-77"/>
     <path d="M 34.1875 63.1875 
L 20.796875 26.90625 
L 47.609375 26.90625 
z
M 28.609375 72.90625 
L 39.796875 72.90625 
L 67.578125 0 
L 57.328125 0 
L 50.6875 18.703125 
L 17.828125 18.703125 
L 11.1875 0 
L 0.78125 0 
z
" id="DejaVuSans-65"/>
     <path d="M 9.8125 72.90625 
L 55.90625 72.90625 
L 55.90625 64.59375 
L 19.671875 64.59375 
L 19.671875 43.015625 
L 54.390625 43.015625 
L 54.390625 34.71875 
L 19.671875 34.71875 
L 19.671875 8.296875 
L 56.78125 8.296875 
L 56.78125 0 
L 9.8125 0 
z
" id="DejaVuSans-69"/>
     <path d="M 11.71875 12.40625 
L 22.015625 12.40625 
L 22.015625 0 
L 11.71875 0 
z
M 11.71875 51.703125 
L 22.015625 51.703125 
L 22.015625 39.3125 
L 11.71875 39.3125 
z
" id="DejaVuSans-58"/>
     <path d="M 11.71875 12.40625 
L 22.015625 12.40625 
L 22.015625 4 
L 14.015625 -11.625 
L 7.71875 -11.625 
L 11.71875 4 
z
" id="DejaVuSans-44"/>
     <path d="M 64.40625 67.28125 
L 64.40625 56.890625 
Q 59.421875 61.53125 53.78125 63.8125 
Q 48.140625 66.109375 41.796875 66.109375 
Q 29.296875 66.109375 22.65625 58.46875 
Q 16.015625 50.828125 16.015625 36.375 
Q 16.015625 21.96875 22.65625 14.328125 
Q 29.296875 6.6875 41.796875 6.6875 
Q 48.140625 6.6875 53.78125 8.984375 
Q 59.421875 11.28125 64.40625 15.921875 
L 64.40625 5.609375 
Q 59.234375 2.09375 53.4375 0.328125 
Q 47.65625 -1.421875 41.21875 -1.421875 
Q 24.65625 -1.421875 15.125 8.703125 
Q 5.609375 18.84375 5.609375 36.375 
Q 5.609375 53.953125 15.125 64.078125 
Q 24.65625 74.21875 41.21875 74.21875 
Q 47.75 74.21875 53.53125 72.484375 
Q 59.328125 70.75 64.40625 67.28125 
z
" id="DejaVuSans-67"/>
    </defs>
    <g style="fill:#ffc107;" transform="translate(1058.802446 319.890602)scale(0.14 -0.14)">
     <use xlink:href="#DejaVuSans-77"/>
     <use x="86.279297" xlink:href="#DejaVuSans-65"/>
     <use x="154.6875" xlink:href="#DejaVuSans-69"/>
     <use x="217.871094" xlink:href="#DejaVuSans-58"/>
     <use x="251.5625" xlink:href="#DejaVuSans-32"/>
     <use x="283.349609" xlink:href="#DejaVuSans-49"/>
     <use x="346.972656" xlink:href="#DejaVuSans-48"/>
     <use x="410.595703" xlink:href="#DejaVuSans-46"/>
     <use x="442.382812" xlink:href="#DejaVuSans-49"/>
     <use x="506.005859" xlink:href="#DejaVuSans-44"/>
     <use x="537.792969" xlink:href="#DejaVuSans-32"/>
     <use x="569.580078" xlink:href="#DejaVuSans-65"/>
     <use x="637.972656" xlink:href="#DejaVuSans-67"/>
     <use x="707.796875" xlink:href="#DejaVuSans-67"/>
     <use x="777.621094" xlink:href="#DejaVuSans-58"/>
     <use x="811.3125" xlink:href="#DejaVuSans-32"/>
     <use x="843.099609" xlink:href="#DejaVuSans-49"/>
     <use x="906.722656" xlink:href="#DejaVuSans-46"/>
     <use x="938.509766" xlink:href="#DejaVuSans-48"/>
     <use x="1002.132812" xlink:href="#DejaVuSans-49"/>
    </g>
   </g>
   <g id="text_18">
    <!-- MAE: 11.92, ACC: 0.99 -->
    <defs>
     <path d="M 10.984375 1.515625 
L 10.984375 10.5 
Q 14.703125 8.734375 18.5 7.8125 
Q 22.3125 6.890625 25.984375 6.890625 
Q 35.75 6.890625 40.890625 13.453125 
Q 46.046875 20.015625 46.78125 33.40625 
Q 43.953125 29.203125 39.59375 26.953125 
Q 35.25 24.703125 29.984375 24.703125 
Q 19.046875 24.703125 12.671875 31.3125 
Q 6.296875 37.9375 6.296875 49.421875 
Q 6.296875 60.640625 12.9375 67.421875 
Q 19.578125 74.21875 30.609375 74.21875 
Q 43.265625 74.21875 49.921875 64.515625 
Q 56.59375 54.828125 56.59375 36.375 
Q 56.59375 19.140625 48.40625 8.859375 
Q 40.234375 -1.421875 26.421875 -1.421875 
Q 22.703125 -1.421875 18.890625 -0.6875 
Q 15.09375 0.046875 10.984375 1.515625 
z
M 30.609375 32.421875 
Q 37.25 32.421875 41.125 36.953125 
Q 45.015625 41.5 45.015625 49.421875 
Q 45.015625 57.28125 41.125 61.84375 
Q 37.25 66.40625 30.609375 66.40625 
Q 23.96875 66.40625 20.09375 61.84375 
Q 16.21875 57.28125 16.21875 49.421875 
Q 16.21875 41.5 20.09375 36.953125 
Q 23.96875 32.421875 30.609375 32.421875 
z
" id="DejaVuSans-57"/>
    </defs>
    <g style="fill:#f44336;" transform="translate(1058.802446 286.106414)scale(0.14 -0.14)">
     <use xlink:href="#DejaVuSans-77"/>
     <use x="86.279297" xlink:href="#DejaVuSans-65"/>
     <use x="154.6875" xlink:href="#DejaVuSans-69"/>
     <use x="217.871094" xlink:href="#DejaVuSans-58"/>
     <use x="251.5625" xlink:href="#DejaVuSans-32"/>
     <use x="283.349609" xlink:href="#DejaVuSans-49"/>
     <use x="346.972656" xlink:href="#DejaVuSans-49"/>
     <use x="410.595703" xlink:href="#DejaVuSans-46"/>
     <use x="442.382812" xlink:href="#DejaVuSans-57"/>
     <use x="506.005859" xlink:href="#DejaVuSans-50"/>
     <use x="569.628906" xlink:href="#DejaVuSans-44"/>
     <use x="601.416016" xlink:href="#DejaVuSans-32"/>
     <use x="633.203125" xlink:href="#DejaVuSans-65"/>
     <use x="701.595703" xlink:href="#DejaVuSans-67"/>
     <use x="771.419922" xlink:href="#DejaVuSans-67"/>
     <use x="841.244141" xlink:href="#DejaVuSans-58"/>
     <use x="874.935547" xlink:href="#DejaVuSans-32"/>
     <use x="906.722656" xlink:href="#DejaVuSans-48"/>
     <use x="970.345703" xlink:href="#DejaVuSans-46"/>
     <use x="1002.132812" xlink:href="#DejaVuSans-57"/>
     <use x="1065.755859" xlink:href="#DejaVuSans-57"/>
    </g>
   </g>
   <g id="text_19">
    <!-- MAE: 9.29, ACC: 1.12 -->
    <g style="fill:#9c27b0;" transform="translate(1058.802446 252.322226)scale(0.14 -0.14)">
     <use xlink:href="#DejaVuSans-77"/>
     <use x="86.279297" xlink:href="#DejaVuSans-65"/>
     <use x="154.6875" xlink:href="#DejaVuSans-69"/>
     <use x="217.871094" xlink:href="#DejaVuSans-58"/>
     <use x="251.5625" xlink:href="#DejaVuSans-32"/>
     <use x="283.349609" xlink:href="#DejaVuSans-57"/>
     <use x="346.972656" xlink:href="#DejaVuSans-46"/>
     <use x="378.759766" xlink:href="#DejaVuSans-50"/>
     <use x="442.382812" xlink:href="#DejaVuSans-57"/>
     <use x="506.005859" xlink:href="#DejaVuSans-44"/>
     <use x="537.792969" xlink:href="#DejaVuSans-32"/>
     <use x="569.580078" xlink:href="#DejaVuSans-65"/>
     <use x="637.972656" xlink:href="#DejaVuSans-67"/>
     <use x="707.796875" xlink:href="#DejaVuSans-67"/>
     <use x="777.621094" xlink:href="#DejaVuSans-58"/>
     <use x="811.3125" xlink:href="#DejaVuSans-32"/>
     <use x="843.099609" xlink:href="#DejaVuSans-49"/>
     <use x="906.722656" xlink:href="#DejaVuSans-46"/>
     <use x="938.509766" xlink:href="#DejaVuSans-49"/>
     <use x="1002.132812" xlink:href="#DejaVuSans-50"/>
    </g>
   </g>
   <g id="text_20">
    <!-- Predviđanje broja rezervacija -->
    <defs>
     <path d="M 19.671875 64.796875 
L 19.671875 37.40625 
L 32.078125 37.40625 
Q 38.96875 37.40625 42.71875 40.96875 
Q 46.484375 44.53125 46.484375 51.125 
Q 46.484375 57.671875 42.71875 61.234375 
Q 38.96875 64.796875 32.078125 64.796875 
z
M 9.8125 72.90625 
L 32.078125 72.90625 
Q 44.34375 72.90625 50.609375 67.359375 
Q 56.890625 61.8125 56.890625 51.125 
Q 56.890625 40.328125 50.609375 34.8125 
Q 44.34375 29.296875 32.078125 29.296875 
L 19.671875 29.296875 
L 19.671875 0 
L 9.8125 0 
z
" id="DejaVuSans-80"/>
     <path d="M 56.203125 29.59375 
L 56.203125 25.203125 
L 14.890625 25.203125 
Q 15.484375 15.921875 20.484375 11.0625 
Q 25.484375 6.203125 34.421875 6.203125 
Q 39.59375 6.203125 44.453125 7.46875 
Q 49.3125 8.734375 54.109375 11.28125 
L 54.109375 2.78125 
Q 49.265625 0.734375 44.1875 -0.34375 
Q 39.109375 -1.421875 33.890625 -1.421875 
Q 20.796875 -1.421875 13.15625 6.1875 
Q 5.515625 13.8125 5.515625 26.8125 
Q 5.515625 40.234375 12.765625 48.109375 
Q 20.015625 56 32.328125 56 
Q 43.359375 56 49.78125 48.890625 
Q 56.203125 41.796875 56.203125 29.59375 
z
M 47.21875 32.234375 
Q 47.125 39.59375 43.09375 43.984375 
Q 39.0625 48.390625 32.421875 48.390625 
Q 24.90625 48.390625 20.390625 44.140625 
Q 15.875 39.890625 15.1875 32.171875 
z
" id="DejaVuSans-101"/>
     <path d="M 45.40625 46.390625 
L 45.40625 75.984375 
L 54.390625 75.984375 
L 54.390625 0 
L 45.40625 0 
L 45.40625 8.203125 
Q 42.578125 3.328125 38.25 0.953125 
Q 33.9375 -1.421875 27.875 -1.421875 
Q 17.96875 -1.421875 11.734375 6.484375 
Q 5.515625 14.40625 5.515625 27.296875 
Q 5.515625 40.1875 11.734375 48.09375 
Q 17.96875 56 27.875 56 
Q 33.9375 56 38.25 53.625 
Q 42.578125 51.265625 45.40625 46.390625 
z
M 14.796875 27.296875 
Q 14.796875 17.390625 18.875 11.75 
Q 22.953125 6.109375 30.078125 6.109375 
Q 37.203125 6.109375 41.296875 11.75 
Q 45.40625 17.390625 45.40625 27.296875 
Q 45.40625 37.203125 41.296875 42.84375 
Q 37.203125 48.484375 30.078125 48.484375 
Q 22.953125 48.484375 18.875 42.84375 
Q 14.796875 37.203125 14.796875 27.296875 
z
" id="DejaVuSans-100"/>
     <path d="M 2.984375 54.6875 
L 12.5 54.6875 
L 29.59375 8.796875 
L 46.6875 54.6875 
L 56.203125 54.6875 
L 35.6875 0 
L 23.484375 0 
z
" id="DejaVuSans-118"/>
     <path d="M 9.421875 54.6875 
L 18.40625 54.6875 
L 18.40625 0 
L 9.421875 0 
z
M 9.421875 75.984375 
L 18.40625 75.984375 
L 18.40625 64.59375 
L 9.421875 64.59375 
z
" id="DejaVuSans-105"/>
     <path d="M 45.40625 46.390625 
L 45.40625 62.703125 
L 29.5 62.703125 
L 29.5 68.796875 
L 45.40625 68.796875 
L 45.40625 75.984375 
L 54.390625 75.984375 
L 54.390625 68.796875 
L 61.921875 68.796875 
L 61.921875 62.703125 
L 54.390625 62.703125 
L 54.390625 0 
L 45.40625 0 
L 45.40625 8.203125 
Q 42.578125 3.328125 38.25 0.953125 
Q 33.9375 -1.421875 27.875 -1.421875 
Q 17.96875 -1.421875 11.734375 6.484375 
Q 5.515625 14.40625 5.515625 27.296875 
Q 5.515625 40.1875 11.734375 48.09375 
Q 17.96875 56 27.875 56 
Q 33.9375 56 38.25 53.625 
Q 42.578125 51.265625 45.40625 46.390625 
z
M 14.796875 27.296875 
Q 14.796875 17.390625 18.875 11.75 
Q 22.953125 6.109375 30.078125 6.109375 
Q 37.203125 6.109375 41.296875 11.75 
Q 45.40625 17.390625 45.40625 27.296875 
Q 45.40625 37.203125 41.296875 42.84375 
Q 37.203125 48.484375 30.078125 48.484375 
Q 22.953125 48.484375 18.875 42.84375 
Q 14.796875 37.203125 14.796875 27.296875 
z
" id="DejaVuSans-273"/>
     <path d="M 54.890625 33.015625 
L 54.890625 0 
L 45.90625 0 
L 45.90625 32.71875 
Q 45.90625 40.484375 42.875 44.328125 
Q 39.84375 48.1875 33.796875 48.1875 
Q 26.515625 48.1875 22.3125 43.546875 
Q 18.109375 38.921875 18.109375 30.90625 
L 18.109375 0 
L 9.078125 0 
L 9.078125 54.6875 
L 18.109375 54.6875 
L 18.109375 46.1875 
Q 21.34375 51.125 25.703125 53.5625 
Q 30.078125 56 35.796875 56 
Q 45.21875 56 50.046875 50.171875 
Q 54.890625 44.34375 54.890625 33.015625 
z
" id="DejaVuSans-110"/>
     <path d="M 5.515625 54.6875 
L 48.1875 54.6875 
L 48.1875 46.484375 
L 14.40625 7.171875 
L 48.1875 7.171875 
L 48.1875 0 
L 4.296875 0 
L 4.296875 8.203125 
L 38.09375 47.515625 
L 5.515625 47.515625 
z
" id="DejaVuSans-122"/>
     <path d="M 48.78125 52.59375 
L 48.78125 44.1875 
Q 44.96875 46.296875 41.140625 47.34375 
Q 37.3125 48.390625 33.40625 48.390625 
Q 24.65625 48.390625 19.8125 42.84375 
Q 14.984375 37.3125 14.984375 27.296875 
Q 14.984375 17.28125 19.8125 11.734375 
Q 24.65625 6.203125 33.40625 6.203125 
Q 37.3125 6.203125 41.140625 7.25 
Q 44.96875 8.296875 48.78125 10.40625 
L 48.78125 2.09375 
Q 45.015625 0.34375 40.984375 -0.53125 
Q 36.96875 -1.421875 32.421875 -1.421875 
Q 20.0625 -1.421875 12.78125 6.34375 
Q 5.515625 14.109375 5.515625 27.296875 
Q 5.515625 40.671875 12.859375 48.328125 
Q 20.21875 56 33.015625 56 
Q 37.15625 56 41.109375 55.140625 
Q 45.0625 54.296875 48.78125 52.59375 
z
" id="DejaVuSans-99"/>
    </defs>
    <g transform="translate(545.416938 28.08)scale(0.168 -0.168)">
     <use xlink:href="#DejaVuSans-80"/>
     <use x="60.287109" xlink:href="#DejaVuSans-114"/>
     <use x="101.369141" xlink:href="#DejaVuSans-101"/>
     <use x="162.892578" xlink:href="#DejaVuSans-100"/>
     <use x="226.369141" xlink:href="#DejaVuSans-118"/>
     <use x="285.548828" xlink:href="#DejaVuSans-105"/>
     <use x="313.332031" xlink:href="#DejaVuSans-273"/>
     <use x="376.808594" xlink:href="#DejaVuSans-97"/>
     <use x="438.087891" xlink:href="#DejaVuSans-110"/>
     <use x="501.466797" xlink:href="#DejaVuSans-106"/>
     <use x="529.25" xlink:href="#DejaVuSans-101"/>
     <use x="590.773438" xlink:href="#DejaVuSans-32"/>
     <use x="622.560547" xlink:href="#DejaVuSans-98"/>
     <use x="686.037109" xlink:href="#DejaVuSans-114"/>
     <use x="727.119141" xlink:href="#DejaVuSans-111"/>
     <use x="788.300781" xlink:href="#DejaVuSans-106"/>
     <use x="816.083984" xlink:href="#DejaVuSans-97"/>
     <use x="877.363281" xlink:href="#DejaVuSans-32"/>
     <use x="909.150391" xlink:href="#DejaVuSans-114"/>
     <use x="950.232422" xlink:href="#DejaVuSans-101"/>
     <use x="1011.755859" xlink:href="#DejaVuSans-122"/>
     <use x="1064.246094" xlink:href="#DejaVuSans-101"/>
     <use x="1125.769531" xlink:href="#DejaVuSans-114"/>
     <use x="1166.882812" xlink:href="#DejaVuSans-118"/>
     <use x="1226.0625" xlink:href="#DejaVuSans-97"/>
     <use x="1287.341797" xlink:href="#DejaVuSans-99"/>
     <use x="1342.322266" xlink:href="#DejaVuSans-105"/>
     <use x="1370.105469" xlink:href="#DejaVuSans-106"/>
     <use x="1397.888672" xlink:href="#DejaVuSans-97"/>
    </g>
   </g>
   <g id="legend_1">
    <g id="patch_7">
     <path d="M 1054.241875 148.026875 
L 1268.56 148.026875 
Q 1271.36 148.026875 1271.36 145.226875 
L 1271.36 43.88 
Q 1271.36 41.08 1268.56 41.08 
L 1054.241875 41.08 
Q 1051.441875 41.08 1051.441875 43.88 
L 1051.441875 145.226875 
Q 1051.441875 148.026875 1054.241875 148.026875 
z
" style="fill:#ffffff;opacity:0.8;stroke:#cccccc;stroke-linejoin:miter;"/>
    </g>
    <g id="line2d_20">
     <path d="M 1057.041875 52.417813 
L 1085.041875 52.417813 
" style="fill:none;stroke:#2196f3;stroke-linecap:square;stroke-opacity:0.8;stroke-width:1.5;"/>
    </g>
    <g id="line2d_21"/>
    <g id="text_21">
     <!-- y (train) -->
     <defs>
      <path d="M 32.171875 -5.078125 
Q 28.375 -14.84375 24.75 -17.8125 
Q 21.140625 -20.796875 15.09375 -20.796875 
L 7.90625 -20.796875 
L 7.90625 -13.28125 
L 13.1875 -13.28125 
Q 16.890625 -13.28125 18.9375 -11.515625 
Q 21 -9.765625 23.484375 -3.21875 
L 25.09375 0.875 
L 2.984375 54.6875 
L 12.5 54.6875 
L 29.59375 11.921875 
L 46.6875 54.6875 
L 56.203125 54.6875 
z
" id="DejaVuSans-121"/>
      <path d="M 31 75.875 
Q 24.46875 64.65625 21.28125 53.65625 
Q 18.109375 42.671875 18.109375 31.390625 
Q 18.109375 20.125 21.3125 9.0625 
Q 24.515625 -2 31 -13.1875 
L 23.1875 -13.1875 
Q 15.875 -1.703125 12.234375 9.375 
Q 8.59375 20.453125 8.59375 31.390625 
Q 8.59375 42.28125 12.203125 53.3125 
Q 15.828125 64.359375 23.1875 75.875 
z
" id="DejaVuSans-40"/>
      <path d="M 8.015625 75.875 
L 15.828125 75.875 
Q 23.140625 64.359375 26.78125 53.3125 
Q 30.421875 42.28125 30.421875 31.390625 
Q 30.421875 20.453125 26.78125 9.375 
Q 23.140625 -1.703125 15.828125 -13.1875 
L 8.015625 -13.1875 
Q 14.5 -2 17.703125 9.0625 
Q 20.90625 20.125 20.90625 31.390625 
Q 20.90625 42.671875 17.703125 53.65625 
Q 14.5 64.65625 8.015625 75.875 
z
" id="DejaVuSans-41"/>
     </defs>
     <g transform="translate(1096.241875 57.317813)scale(0.14 -0.14)">
      <use xlink:href="#DejaVuSans-121"/>
      <use x="59.179688" xlink:href="#DejaVuSans-32"/>
      <use x="90.966797" xlink:href="#DejaVuSans-40"/>
      <use x="129.980469" xlink:href="#DejaVuSans-116"/>
      <use x="169.189453" xlink:href="#DejaVuSans-114"/>
      <use x="210.302734" xlink:href="#DejaVuSans-97"/>
      <use x="271.582031" xlink:href="#DejaVuSans-105"/>
      <use x="299.365234" xlink:href="#DejaVuSans-110"/>
      <use x="362.744141" xlink:href="#DejaVuSans-41"/>
     </g>
    </g>
    <g id="line2d_22">
     <path d="M 1057.041875 72.967188 
L 1085.041875 72.967188 
" style="fill:none;stroke:#00e676;stroke-linecap:square;stroke-opacity:0.8;stroke-width:1.5;"/>
    </g>
    <g id="line2d_23"/>
    <g id="text_22">
     <!-- y (test) -->
     <g transform="translate(1096.241875 77.867188)scale(0.14 -0.14)">
      <use xlink:href="#DejaVuSans-121"/>
      <use x="59.179688" xlink:href="#DejaVuSans-32"/>
      <use x="90.966797" xlink:href="#DejaVuSans-40"/>
      <use x="129.980469" xlink:href="#DejaVuSans-116"/>
      <use x="169.189453" xlink:href="#DejaVuSans-101"/>
      <use x="230.712891" xlink:href="#DejaVuSans-115"/>
      <use x="282.8125" xlink:href="#DejaVuSans-116"/>
      <use x="322.021484" xlink:href="#DejaVuSans-41"/>
     </g>
    </g>
    <g id="line2d_24">
     <path d="M 1057.041875 93.516563 
L 1085.041875 93.516563 
" style="fill:none;stroke:#9c27b0;stroke-linecap:square;stroke-width:1.5;"/>
    </g>
    <g id="line2d_25"/>
    <g id="text_23">
     <!-- Forecast (03.05 - 01.07) -->
     <defs>
      <path d="M 9.8125 72.90625 
L 51.703125 72.90625 
L 51.703125 64.59375 
L 19.671875 64.59375 
L 19.671875 43.109375 
L 48.578125 43.109375 
L 48.578125 34.8125 
L 19.671875 34.8125 
L 19.671875 0 
L 9.8125 0 
z
" id="DejaVuSans-70"/>
      <path d="M 4.890625 31.390625 
L 31.203125 31.390625 
L 31.203125 23.390625 
L 4.890625 23.390625 
z
" id="DejaVuSans-45"/>
     </defs>
     <g transform="translate(1096.241875 98.416563)scale(0.14 -0.14)">
      <use xlink:href="#DejaVuSans-70"/>
      <use x="57.472656" xlink:href="#DejaVuSans-111"/>
      <use x="118.654297" xlink:href="#DejaVuSans-114"/>
      <use x="159.736328" xlink:href="#DejaVuSans-101"/>
      <use x="221.259766" xlink:href="#DejaVuSans-99"/>
      <use x="276.240234" xlink:href="#DejaVuSans-97"/>
      <use x="337.519531" xlink:href="#DejaVuSans-115"/>
      <use x="389.619141" xlink:href="#DejaVuSans-116"/>
      <use x="428.828125" xlink:href="#DejaVuSans-32"/>
      <use x="460.615234" xlink:href="#DejaVuSans-40"/>
      <use x="499.628906" xlink:href="#DejaVuSans-48"/>
      <use x="563.251953" xlink:href="#DejaVuSans-51"/>
      <use x="626.875" xlink:href="#DejaVuSans-46"/>
      <use x="658.662109" xlink:href="#DejaVuSans-48"/>
      <use x="722.285156" xlink:href="#DejaVuSans-53"/>
      <use x="785.908203" xlink:href="#DejaVuSans-32"/>
      <use x="817.695312" xlink:href="#DejaVuSans-45"/>
      <use x="853.779297" xlink:href="#DejaVuSans-32"/>
      <use x="885.566406" xlink:href="#DejaVuSans-48"/>
      <use x="949.189453" xlink:href="#DejaVuSans-49"/>
      <use x="1012.8125" xlink:href="#DejaVuSans-46"/>
      <use x="1044.599609" xlink:href="#DejaVuSans-48"/>
      <use x="1108.222656" xlink:href="#DejaVuSans-55"/>
      <use x="1171.845703" xlink:href="#DejaVuSans-41"/>
     </g>
    </g>
    <g id="line2d_26">
     <path d="M 1057.041875 114.065938 
L 1085.041875 114.065938 
" style="fill:none;stroke:#f44336;stroke-linecap:square;stroke-width:1.5;"/>
    </g>
    <g id="line2d_27"/>
    <g id="text_24">
     <!-- Forecast (02.06 - 01.07) -->
     <g transform="translate(1096.241875 118.965938)scale(0.14 -0.14)">
      <use xlink:href="#DejaVuSans-70"/>
      <use x="57.472656" xlink:href="#DejaVuSans-111"/>
      <use x="118.654297" xlink:href="#DejaVuSans-114"/>
      <use x="159.736328" xlink:href="#DejaVuSans-101"/>
      <use x="221.259766" xlink:href="#DejaVuSans-99"/>
      <use x="276.240234" xlink:href="#DejaVuSans-97"/>
      <use x="337.519531" xlink:href="#DejaVuSans-115"/>
      <use x="389.619141" xlink:href="#DejaVuSans-116"/>
      <use x="428.828125" xlink:href="#DejaVuSans-32"/>
      <use x="460.615234" xlink:href="#DejaVuSans-40"/>
      <use x="499.628906" xlink:href="#DejaVuSans-48"/>
      <use x="563.251953" xlink:href="#DejaVuSans-50"/>
      <use x="626.875" xlink:href="#DejaVuSans-46"/>
      <use x="658.662109" xlink:href="#DejaVuSans-48"/>
      <use x="722.285156" xlink:href="#DejaVuSans-54"/>
      <use x="785.908203" xlink:href="#DejaVuSans-32"/>
      <use x="817.695312" xlink:href="#DejaVuSans-45"/>
      <use x="853.779297" xlink:href="#DejaVuSans-32"/>
      <use x="885.566406" xlink:href="#DejaVuSans-48"/>
      <use x="949.189453" xlink:href="#DejaVuSans-49"/>
      <use x="1012.8125" xlink:href="#DejaVuSans-46"/>
      <use x="1044.599609" xlink:href="#DejaVuSans-48"/>
      <use x="1108.222656" xlink:href="#DejaVuSans-55"/>
      <use x="1171.845703" xlink:href="#DejaVuSans-41"/>
     </g>
    </g>
    <g id="line2d_28">
     <path d="M 1057.041875 134.615313 
L 1085.041875 134.615313 
" style="fill:none;stroke:#ffc107;stroke-linecap:square;stroke-width:1.5;"/>
    </g>
    <g id="line2d_29"/>
    <g id="text_25">
     <!-- Forecast (25.06 - 01.07) -->
     <g transform="translate(1096.241875 139.515313)scale(0.14 -0.14)">
      <use xlink:href="#DejaVuSans-70"/>
      <use x="57.472656" xlink:href="#DejaVuSans-111"/>
      <use x="118.654297" xlink:href="#DejaVuSans-114"/>
      <use x="159.736328" xlink:href="#DejaVuSans-101"/>
      <use x="221.259766" xlink:href="#DejaVuSans-99"/>
      <use x="276.240234" xlink:href="#DejaVuSans-97"/>
      <use x="337.519531" xlink:href="#DejaVuSans-115"/>
      <use x="389.619141" xlink:href="#DejaVuSans-116"/>
      <use x="428.828125" xlink:href="#DejaVuSans-32"/>
      <use x="460.615234" xlink:href="#DejaVuSans-40"/>
      <use x="499.628906" xlink:href="#DejaVuSans-50"/>
      <use x="563.251953" xlink:href="#DejaVuSans-53"/>
      <use x="626.875" xlink:href="#DejaVuSans-46"/>
      <use x="658.662109" xlink:href="#DejaVuSans-48"/>
      <use x="722.285156" xlink:href="#DejaVuSans-54"/>
      <use x="785.908203" xlink:href="#DejaVuSans-32"/>
      <use x="817.695312" xlink:href="#DejaVuSans-45"/>
      <use x="853.779297" xlink:href="#DejaVuSans-32"/>
      <use x="885.566406" xlink:href="#DejaVuSans-48"/>
      <use x="949.189453" xlink:href="#DejaVuSans-49"/>
      <use x="1012.8125" xlink:href="#DejaVuSans-46"/>
      <use x="1044.599609" xlink:href="#DejaVuSans-48"/>
      <use x="1108.222656" xlink:href="#DejaVuSans-55"/>
      <use x="1171.845703" xlink:href="#DejaVuSans-41"/>
     </g>
    </g>
   </g>
  </g>
 </g>
 <defs>
  <clipPath id="pd393a8a5cb">
   <rect height="632.44" width="1220.74" x="57.62" y="34.08"/>
  </clipPath>
 </defs>
</svg>
