<?xml version="1.0" encoding="utf-8" standalone="no"?>
<!DOCTYPE svg PUBLIC "-//W3C//DTD SVG 1.1//EN"
  "http://www.w3.org/Graphics/SVG/1.1/DTD/svg11.dtd">
<!-- Created with matplotlib (https://matplotlib.org/) -->
<svg height="720pt" version="1.1" viewBox="0 0 1296 720" width="1296pt" xmlns="http://www.w3.org/2000/svg" xmlns:xlink="http://www.w3.org/1999/xlink">
 <defs>
  <style type="text/css">
*{stroke-linecap:butt;stroke-linejoin:round;}
  </style>
 </defs>
 <g id="figure_1">
  <g id="patch_1">
   <path d="M 0 720 
L 1296 720 
L 1296 0 
L 0 0 
z
" style="fill:#ffffff;"/>
  </g>
  <g id="axes_1">
   <g id="patch_2">
    <path d="M 58.12 658.6 
L 1276.2 658.6 
L 1276.2 37.68 
L 58.12 37.68 
z
" style="fill:#ffffff;"/>
   </g>
   <g id="matplotlib.axis_1">
    <g id="xtick_1">
     <g id="line2d_1">
      <defs>
       <path d="M 0 0 
L 0 3.5 
" id="m4ea936951d" style="stroke:#000000;stroke-width:0.8;"/>
      </defs>
      <g>
       <use style="stroke:#000000;stroke-width:0.8;" x="175.17501" xlink:href="#m4ea936951d" y="658.6"/>
      </g>
     </g>
     <g id="text_1">
      <!-- 09.2015 -->
      <defs>
       <path d="M 31.78125 66.40625 
Q 24.171875 66.40625 20.328125 58.90625 
Q 16.5 51.421875 16.5 36.375 
Q 16.5 21.390625 20.328125 13.890625 
Q 24.171875 6.390625 31.78125 6.390625 
Q 39.453125 6.390625 43.28125 13.890625 
Q 47.125 21.390625 47.125 36.375 
Q 47.125 51.421875 43.28125 58.90625 
Q 39.453125 66.40625 31.78125 66.40625 
z
M 31.78125 74.21875 
Q 44.046875 74.21875 50.515625 64.515625 
Q 56.984375 54.828125 56.984375 36.375 
Q 56.984375 17.96875 50.515625 8.265625 
Q 44.046875 -1.421875 31.78125 -1.421875 
Q 19.53125 -1.421875 13.0625 8.265625 
Q 6.59375 17.96875 6.59375 36.375 
Q 6.59375 54.828125 13.0625 64.515625 
Q 19.53125 74.21875 31.78125 74.21875 
z
" id="DejaVuSans-48"/>
       <path d="M 10.984375 1.515625 
L 10.984375 10.5 
Q 14.703125 8.734375 18.5 7.8125 
Q 22.3125 6.890625 25.984375 6.890625 
Q 35.75 6.890625 40.890625 13.453125 
Q 46.046875 20.015625 46.78125 33.40625 
Q 43.953125 29.203125 39.59375 26.953125 
Q 35.25 24.703125 29.984375 24.703125 
Q 19.046875 24.703125 12.671875 31.3125 
Q 6.296875 37.9375 6.296875 49.421875 
Q 6.296875 60.640625 12.9375 67.421875 
Q 19.578125 74.21875 30.609375 74.21875 
Q 43.265625 74.21875 49.921875 64.515625 
Q 56.59375 54.828125 56.59375 36.375 
Q 56.59375 19.140625 48.40625 8.859375 
Q 40.234375 -1.421875 26.421875 -1.421875 
Q 22.703125 -1.421875 18.890625 -0.6875 
Q 15.09375 0.046875 10.984375 1.515625 
z
M 30.609375 32.421875 
Q 37.25 32.421875 41.125 36.953125 
Q 45.015625 41.5 45.015625 49.421875 
Q 45.015625 57.28125 41.125 61.84375 
Q 37.25 66.40625 30.609375 66.40625 
Q 23.96875 66.40625 20.09375 61.84375 
Q 16.21875 57.28125 16.21875 49.421875 
Q 16.21875 41.5 20.09375 36.953125 
Q 23.96875 32.421875 30.609375 32.421875 
z
" id="DejaVuSans-57"/>
       <path d="M 10.6875 12.40625 
L 21 12.40625 
L 21 0 
L 10.6875 0 
z
" id="DejaVuSans-46"/>
       <path d="M 19.1875 8.296875 
L 53.609375 8.296875 
L 53.609375 0 
L 7.328125 0 
L 7.328125 8.296875 
Q 12.9375 14.109375 22.625 23.890625 
Q 32.328125 33.6875 34.8125 36.53125 
Q 39.546875 41.84375 41.421875 45.53125 
Q 43.3125 49.21875 43.3125 52.78125 
Q 43.3125 58.59375 39.234375 62.25 
Q 35.15625 65.921875 28.609375 65.921875 
Q 23.96875 65.921875 18.8125 64.3125 
Q 13.671875 62.703125 7.8125 59.421875 
L 7.8125 69.390625 
Q 13.765625 71.78125 18.9375 73 
Q 24.125 74.21875 28.421875 74.21875 
Q 39.75 74.21875 46.484375 68.546875 
Q 53.21875 62.890625 53.21875 53.421875 
Q 53.21875 48.921875 51.53125 44.890625 
Q 49.859375 40.875 45.40625 35.40625 
Q 44.1875 33.984375 37.640625 27.21875 
Q 31.109375 20.453125 19.1875 8.296875 
z
" id="DejaVuSans-50"/>
       <path d="M 12.40625 8.296875 
L 28.515625 8.296875 
L 28.515625 63.921875 
L 10.984375 60.40625 
L 10.984375 69.390625 
L 28.421875 72.90625 
L 38.28125 72.90625 
L 38.28125 8.296875 
L 54.390625 8.296875 
L 54.390625 0 
L 12.40625 0 
z
" id="DejaVuSans-49"/>
       <path d="M 10.796875 72.90625 
L 49.515625 72.90625 
L 49.515625 64.59375 
L 19.828125 64.59375 
L 19.828125 46.734375 
Q 21.96875 47.46875 24.109375 47.828125 
Q 26.265625 48.1875 28.421875 48.1875 
Q 40.625 48.1875 47.75 41.5 
Q 54.890625 34.8125 54.890625 23.390625 
Q 54.890625 11.625 47.5625 5.09375 
Q 40.234375 -1.421875 26.90625 -1.421875 
Q 22.3125 -1.421875 17.546875 -0.640625 
Q 12.796875 0.140625 7.71875 1.703125 
L 7.71875 11.625 
Q 12.109375 9.234375 16.796875 8.0625 
Q 21.484375 6.890625 26.703125 6.890625 
Q 35.15625 6.890625 40.078125 11.328125 
Q 45.015625 15.765625 45.015625 23.390625 
Q 45.015625 31 40.078125 35.4375 
Q 35.15625 39.890625 26.703125 39.890625 
Q 22.75 39.890625 18.8125 39.015625 
Q 14.890625 38.140625 10.796875 36.28125 
z
" id="DejaVuSans-53"/>
      </defs>
      <g transform="translate(142.09251 677.7575)scale(0.16 -0.16)">
       <use xlink:href="#DejaVuSans-48"/>
       <use x="63.623047" xlink:href="#DejaVuSans-57"/>
       <use x="127.246094" xlink:href="#DejaVuSans-46"/>
       <use x="159.033203" xlink:href="#DejaVuSans-50"/>
       <use x="222.65625" xlink:href="#DejaVuSans-48"/>
       <use x="286.279297" xlink:href="#DejaVuSans-49"/>
       <use x="349.902344" xlink:href="#DejaVuSans-53"/>
      </g>
     </g>
    </g>
    <g id="xtick_2">
     <g id="line2d_2">
      <g>
       <use style="stroke:#000000;stroke-width:0.8;" x="298.550486" xlink:href="#m4ea936951d" y="658.6"/>
      </g>
     </g>
     <g id="text_2">
      <!-- 01.2016 -->
      <defs>
       <path d="M 33.015625 40.375 
Q 26.375 40.375 22.484375 35.828125 
Q 18.609375 31.296875 18.609375 23.390625 
Q 18.609375 15.53125 22.484375 10.953125 
Q 26.375 6.390625 33.015625 6.390625 
Q 39.65625 6.390625 43.53125 10.953125 
Q 47.40625 15.53125 47.40625 23.390625 
Q 47.40625 31.296875 43.53125 35.828125 
Q 39.65625 40.375 33.015625 40.375 
z
M 52.59375 71.296875 
L 52.59375 62.3125 
Q 48.875 64.0625 45.09375 64.984375 
Q 41.3125 65.921875 37.59375 65.921875 
Q 27.828125 65.921875 22.671875 59.328125 
Q 17.53125 52.734375 16.796875 39.40625 
Q 19.671875 43.65625 24.015625 45.921875 
Q 28.375 48.1875 33.59375 48.1875 
Q 44.578125 48.1875 50.953125 41.515625 
Q 57.328125 34.859375 57.328125 23.390625 
Q 57.328125 12.15625 50.6875 5.359375 
Q 44.046875 -1.421875 33.015625 -1.421875 
Q 20.359375 -1.421875 13.671875 8.265625 
Q 6.984375 17.96875 6.984375 36.375 
Q 6.984375 53.65625 15.1875 63.9375 
Q 23.390625 74.21875 37.203125 74.21875 
Q 40.921875 74.21875 44.703125 73.484375 
Q 48.484375 72.75 52.59375 71.296875 
z
" id="DejaVuSans-54"/>
      </defs>
      <g transform="translate(265.467986 677.7575)scale(0.16 -0.16)">
       <use xlink:href="#DejaVuSans-48"/>
       <use x="63.623047" xlink:href="#DejaVuSans-49"/>
       <use x="127.246094" xlink:href="#DejaVuSans-46"/>
       <use x="159.033203" xlink:href="#DejaVuSans-50"/>
       <use x="222.65625" xlink:href="#DejaVuSans-48"/>
       <use x="286.279297" xlink:href="#DejaVuSans-49"/>
       <use x="349.902344" xlink:href="#DejaVuSans-54"/>
      </g>
     </g>
    </g>
    <g id="xtick_3">
     <g id="line2d_3">
      <g>
       <use style="stroke:#000000;stroke-width:0.8;" x="420.914687" xlink:href="#m4ea936951d" y="658.6"/>
      </g>
     </g>
     <g id="text_3">
      <!-- 05.2016 -->
      <g transform="translate(387.832187 677.7575)scale(0.16 -0.16)">
       <use xlink:href="#DejaVuSans-48"/>
       <use x="63.623047" xlink:href="#DejaVuSans-53"/>
       <use x="127.246094" xlink:href="#DejaVuSans-46"/>
       <use x="159.033203" xlink:href="#DejaVuSans-50"/>
       <use x="222.65625" xlink:href="#DejaVuSans-48"/>
       <use x="286.279297" xlink:href="#DejaVuSans-49"/>
       <use x="349.902344" xlink:href="#DejaVuSans-54"/>
      </g>
     </g>
    </g>
    <g id="xtick_4">
     <g id="line2d_4">
      <g>
       <use style="stroke:#000000;stroke-width:0.8;" x="545.301436" xlink:href="#m4ea936951d" y="658.6"/>
      </g>
     </g>
     <g id="text_4">
      <!-- 09.2016 -->
      <g transform="translate(512.218936 677.7575)scale(0.16 -0.16)">
       <use xlink:href="#DejaVuSans-48"/>
       <use x="63.623047" xlink:href="#DejaVuSans-57"/>
       <use x="127.246094" xlink:href="#DejaVuSans-46"/>
       <use x="159.033203" xlink:href="#DejaVuSans-50"/>
       <use x="222.65625" xlink:href="#DejaVuSans-48"/>
       <use x="286.279297" xlink:href="#DejaVuSans-49"/>
       <use x="349.902344" xlink:href="#DejaVuSans-54"/>
      </g>
     </g>
    </g>
    <g id="xtick_5">
     <g id="line2d_5">
      <g>
       <use style="stroke:#000000;stroke-width:0.8;" x="668.676912" xlink:href="#m4ea936951d" y="658.6"/>
      </g>
     </g>
     <g id="text_5">
      <!-- 01.2017 -->
      <defs>
       <path d="M 8.203125 72.90625 
L 55.078125 72.90625 
L 55.078125 68.703125 
L 28.609375 0 
L 18.3125 0 
L 43.21875 64.59375 
L 8.203125 64.59375 
z
" id="DejaVuSans-55"/>
      </defs>
      <g transform="translate(635.594412 677.7575)scale(0.16 -0.16)">
       <use xlink:href="#DejaVuSans-48"/>
       <use x="63.623047" xlink:href="#DejaVuSans-49"/>
       <use x="127.246094" xlink:href="#DejaVuSans-46"/>
       <use x="159.033203" xlink:href="#DejaVuSans-50"/>
       <use x="222.65625" xlink:href="#DejaVuSans-48"/>
       <use x="286.279297" xlink:href="#DejaVuSans-49"/>
       <use x="349.902344" xlink:href="#DejaVuSans-55"/>
      </g>
     </g>
    </g>
    <g id="xtick_6">
     <g id="line2d_6">
      <g>
       <use style="stroke:#000000;stroke-width:0.8;" x="790.029838" xlink:href="#m4ea936951d" y="658.6"/>
      </g>
     </g>
     <g id="text_6">
      <!-- 05.2017 -->
      <g transform="translate(756.947338 677.7575)scale(0.16 -0.16)">
       <use xlink:href="#DejaVuSans-48"/>
       <use x="63.623047" xlink:href="#DejaVuSans-53"/>
       <use x="127.246094" xlink:href="#DejaVuSans-46"/>
       <use x="159.033203" xlink:href="#DejaVuSans-50"/>
       <use x="222.65625" xlink:href="#DejaVuSans-48"/>
       <use x="286.279297" xlink:href="#DejaVuSans-49"/>
       <use x="349.902344" xlink:href="#DejaVuSans-55"/>
      </g>
     </g>
    </g>
    <g id="xtick_7">
     <g id="line2d_7">
      <g>
       <use style="stroke:#000000;stroke-width:0.8;" x="914.416588" xlink:href="#m4ea936951d" y="658.6"/>
      </g>
     </g>
     <g id="text_7">
      <!-- 09.2017 -->
      <g transform="translate(881.334088 677.7575)scale(0.16 -0.16)">
       <use xlink:href="#DejaVuSans-48"/>
       <use x="63.623047" xlink:href="#DejaVuSans-57"/>
       <use x="127.246094" xlink:href="#DejaVuSans-46"/>
       <use x="159.033203" xlink:href="#DejaVuSans-50"/>
       <use x="222.65625" xlink:href="#DejaVuSans-48"/>
       <use x="286.279297" xlink:href="#DejaVuSans-49"/>
       <use x="349.902344" xlink:href="#DejaVuSans-55"/>
      </g>
     </g>
    </g>
    <g id="xtick_8">
     <g id="line2d_8">
      <g>
       <use style="stroke:#000000;stroke-width:0.8;" x="1037.792063" xlink:href="#m4ea936951d" y="658.6"/>
      </g>
     </g>
     <g id="text_8">
      <!-- 01.2018 -->
      <defs>
       <path d="M 31.78125 34.625 
Q 24.75 34.625 20.71875 30.859375 
Q 16.703125 27.09375 16.703125 20.515625 
Q 16.703125 13.921875 20.71875 10.15625 
Q 24.75 6.390625 31.78125 6.390625 
Q 38.8125 6.390625 42.859375 10.171875 
Q 46.921875 13.96875 46.921875 20.515625 
Q 46.921875 27.09375 42.890625 30.859375 
Q 38.875 34.625 31.78125 34.625 
z
M 21.921875 38.8125 
Q 15.578125 40.375 12.03125 44.71875 
Q 8.5 49.078125 8.5 55.328125 
Q 8.5 64.0625 14.71875 69.140625 
Q 20.953125 74.21875 31.78125 74.21875 
Q 42.671875 74.21875 48.875 69.140625 
Q 55.078125 64.0625 55.078125 55.328125 
Q 55.078125 49.078125 51.53125 44.71875 
Q 48 40.375 41.703125 38.8125 
Q 48.828125 37.15625 52.796875 32.3125 
Q 56.78125 27.484375 56.78125 20.515625 
Q 56.78125 9.90625 50.3125 4.234375 
Q 43.84375 -1.421875 31.78125 -1.421875 
Q 19.734375 -1.421875 13.25 4.234375 
Q 6.78125 9.90625 6.78125 20.515625 
Q 6.78125 27.484375 10.78125 32.3125 
Q 14.796875 37.15625 21.921875 38.8125 
z
M 18.3125 54.390625 
Q 18.3125 48.734375 21.84375 45.5625 
Q 25.390625 42.390625 31.78125 42.390625 
Q 38.140625 42.390625 41.71875 45.5625 
Q 45.3125 48.734375 45.3125 54.390625 
Q 45.3125 60.0625 41.71875 63.234375 
Q 38.140625 66.40625 31.78125 66.40625 
Q 25.390625 66.40625 21.84375 63.234375 
Q 18.3125 60.0625 18.3125 54.390625 
z
" id="DejaVuSans-56"/>
      </defs>
      <g transform="translate(1004.709563 677.7575)scale(0.16 -0.16)">
       <use xlink:href="#DejaVuSans-48"/>
       <use x="63.623047" xlink:href="#DejaVuSans-49"/>
       <use x="127.246094" xlink:href="#DejaVuSans-46"/>
       <use x="159.033203" xlink:href="#DejaVuSans-50"/>
       <use x="222.65625" xlink:href="#DejaVuSans-48"/>
       <use x="286.279297" xlink:href="#DejaVuSans-49"/>
       <use x="349.902344" xlink:href="#DejaVuSans-56"/>
      </g>
     </g>
    </g>
    <g id="xtick_9">
     <g id="line2d_9">
      <g>
       <use style="stroke:#000000;stroke-width:0.8;" x="1159.14499" xlink:href="#m4ea936951d" y="658.6"/>
      </g>
     </g>
     <g id="text_9">
      <!-- 05.2018 -->
      <g transform="translate(1126.06249 677.7575)scale(0.16 -0.16)">
       <use xlink:href="#DejaVuSans-48"/>
       <use x="63.623047" xlink:href="#DejaVuSans-53"/>
       <use x="127.246094" xlink:href="#DejaVuSans-46"/>
       <use x="159.033203" xlink:href="#DejaVuSans-50"/>
       <use x="222.65625" xlink:href="#DejaVuSans-48"/>
       <use x="286.279297" xlink:href="#DejaVuSans-49"/>
       <use x="349.902344" xlink:href="#DejaVuSans-56"/>
      </g>
     </g>
    </g>
    <g id="text_10">
     <!-- Datum -->
     <defs>
      <path d="M 19.671875 64.796875 
L 19.671875 8.109375 
L 31.59375 8.109375 
Q 46.6875 8.109375 53.6875 14.9375 
Q 60.6875 21.78125 60.6875 36.53125 
Q 60.6875 51.171875 53.6875 57.984375 
Q 46.6875 64.796875 31.59375 64.796875 
z
M 9.8125 72.90625 
L 30.078125 72.90625 
Q 51.265625 72.90625 61.171875 64.09375 
Q 71.09375 55.28125 71.09375 36.53125 
Q 71.09375 17.671875 61.125 8.828125 
Q 51.171875 0 30.078125 0 
L 9.8125 0 
z
" id="DejaVuSans-68"/>
      <path d="M 34.28125 27.484375 
Q 23.390625 27.484375 19.1875 25 
Q 14.984375 22.515625 14.984375 16.5 
Q 14.984375 11.71875 18.140625 8.90625 
Q 21.296875 6.109375 26.703125 6.109375 
Q 34.1875 6.109375 38.703125 11.40625 
Q 43.21875 16.703125 43.21875 25.484375 
L 43.21875 27.484375 
z
M 52.203125 31.203125 
L 52.203125 0 
L 43.21875 0 
L 43.21875 8.296875 
Q 40.140625 3.328125 35.546875 0.953125 
Q 30.953125 -1.421875 24.3125 -1.421875 
Q 15.921875 -1.421875 10.953125 3.296875 
Q 6 8.015625 6 15.921875 
Q 6 25.140625 12.171875 29.828125 
Q 18.359375 34.515625 30.609375 34.515625 
L 43.21875 34.515625 
L 43.21875 35.40625 
Q 43.21875 41.609375 39.140625 45 
Q 35.0625 48.390625 27.6875 48.390625 
Q 23 48.390625 18.546875 47.265625 
Q 14.109375 46.140625 10.015625 43.890625 
L 10.015625 52.203125 
Q 14.9375 54.109375 19.578125 55.046875 
Q 24.21875 56 28.609375 56 
Q 40.484375 56 46.34375 49.84375 
Q 52.203125 43.703125 52.203125 31.203125 
z
" id="DejaVuSans-97"/>
      <path d="M 18.3125 70.21875 
L 18.3125 54.6875 
L 36.8125 54.6875 
L 36.8125 47.703125 
L 18.3125 47.703125 
L 18.3125 18.015625 
Q 18.3125 11.328125 20.140625 9.421875 
Q 21.96875 7.515625 27.59375 7.515625 
L 36.8125 7.515625 
L 36.8125 0 
L 27.59375 0 
Q 17.1875 0 13.234375 3.875 
Q 9.28125 7.765625 9.28125 18.015625 
L 9.28125 47.703125 
L 2.6875 47.703125 
L 2.6875 54.6875 
L 9.28125 54.6875 
L 9.28125 70.21875 
z
" id="DejaVuSans-116"/>
      <path d="M 8.5 21.578125 
L 8.5 54.6875 
L 17.484375 54.6875 
L 17.484375 21.921875 
Q 17.484375 14.15625 20.5 10.265625 
Q 23.53125 6.390625 29.59375 6.390625 
Q 36.859375 6.390625 41.078125 11.03125 
Q 45.3125 15.671875 45.3125 23.6875 
L 45.3125 54.6875 
L 54.296875 54.6875 
L 54.296875 0 
L 45.3125 0 
L 45.3125 8.40625 
Q 42.046875 3.421875 37.71875 1 
Q 33.40625 -1.421875 27.6875 -1.421875 
Q 18.265625 -1.421875 13.375 4.4375 
Q 8.5 10.296875 8.5 21.578125 
z
M 31.109375 56 
z
" id="DejaVuSans-117"/>
      <path d="M 52 44.1875 
Q 55.375 50.25 60.0625 53.125 
Q 64.75 56 71.09375 56 
Q 79.640625 56 84.28125 50.015625 
Q 88.921875 44.046875 88.921875 33.015625 
L 88.921875 0 
L 79.890625 0 
L 79.890625 32.71875 
Q 79.890625 40.578125 77.09375 44.375 
Q 74.3125 48.1875 68.609375 48.1875 
Q 61.625 48.1875 57.5625 43.546875 
Q 53.515625 38.921875 53.515625 30.90625 
L 53.515625 0 
L 44.484375 0 
L 44.484375 32.71875 
Q 44.484375 40.625 41.703125 44.40625 
Q 38.921875 48.1875 33.109375 48.1875 
Q 26.21875 48.1875 22.15625 43.53125 
Q 18.109375 38.875 18.109375 30.90625 
L 18.109375 0 
L 9.078125 0 
L 9.078125 54.6875 
L 18.109375 54.6875 
L 18.109375 46.1875 
Q 21.1875 51.21875 25.484375 53.609375 
Q 29.78125 56 35.6875 56 
Q 41.65625 56 45.828125 52.96875 
Q 50 49.953125 52 44.1875 
z
" id="DejaVuSans-109"/>
     </defs>
     <g transform="translate(640.09875 697.2425)scale(0.16 -0.16)">
      <use xlink:href="#DejaVuSans-68"/>
      <use x="77.001953" xlink:href="#DejaVuSans-97"/>
      <use x="138.28125" xlink:href="#DejaVuSans-116"/>
      <use x="177.490234" xlink:href="#DejaVuSans-117"/>
      <use x="240.869141" xlink:href="#DejaVuSans-109"/>
     </g>
    </g>
   </g>
   <g id="matplotlib.axis_2">
    <g id="ytick_1">
     <g id="line2d_10">
      <defs>
       <path d="M 0 0 
L -3.5 0 
" id="m50d0829154" style="stroke:#000000;stroke-width:0.8;"/>
      </defs>
      <g>
       <use style="stroke:#000000;stroke-width:0.8;" x="58.12" xlink:href="#m50d0829154" y="595.460525"/>
      </g>
     </g>
     <g id="text_11">
      <!-- −40 -->
      <defs>
       <path d="M 10.59375 35.5 
L 73.1875 35.5 
L 73.1875 27.203125 
L 10.59375 27.203125 
z
" id="DejaVuSans-8722"/>
       <path d="M 37.796875 64.3125 
L 12.890625 25.390625 
L 37.796875 25.390625 
z
M 35.203125 72.90625 
L 47.609375 72.90625 
L 47.609375 25.390625 
L 58.015625 25.390625 
L 58.015625 17.1875 
L 47.609375 17.1875 
L 47.609375 0 
L 37.796875 0 
L 37.796875 17.1875 
L 4.890625 17.1875 
L 4.890625 26.703125 
z
" id="DejaVuSans-52"/>
      </defs>
      <g transform="translate(17.3525 601.539275)scale(0.16 -0.16)">
       <use xlink:href="#DejaVuSans-8722"/>
       <use x="83.789062" xlink:href="#DejaVuSans-52"/>
       <use x="147.412109" xlink:href="#DejaVuSans-48"/>
      </g>
     </g>
    </g>
    <g id="ytick_2">
     <g id="line2d_11">
      <g>
       <use style="stroke:#000000;stroke-width:0.8;" x="58.12" xlink:href="#m50d0829154" y="479.074396"/>
      </g>
     </g>
     <g id="text_12">
      <!-- −20 -->
      <g transform="translate(17.3525 485.153146)scale(0.16 -0.16)">
       <use xlink:href="#DejaVuSans-8722"/>
       <use x="83.789062" xlink:href="#DejaVuSans-50"/>
       <use x="147.412109" xlink:href="#DejaVuSans-48"/>
      </g>
     </g>
    </g>
    <g id="ytick_3">
     <g id="line2d_12">
      <g>
       <use style="stroke:#000000;stroke-width:0.8;" x="58.12" xlink:href="#m50d0829154" y="362.688266"/>
      </g>
     </g>
     <g id="text_13">
      <!-- 0 -->
      <g transform="translate(40.94 368.767016)scale(0.16 -0.16)">
       <use xlink:href="#DejaVuSans-48"/>
      </g>
     </g>
    </g>
    <g id="ytick_4">
     <g id="line2d_13">
      <g>
       <use style="stroke:#000000;stroke-width:0.8;" x="58.12" xlink:href="#m50d0829154" y="246.302137"/>
      </g>
     </g>
     <g id="text_14">
      <!-- 20 -->
      <g transform="translate(30.76 252.380887)scale(0.16 -0.16)">
       <use xlink:href="#DejaVuSans-50"/>
       <use x="63.623047" xlink:href="#DejaVuSans-48"/>
      </g>
     </g>
    </g>
    <g id="ytick_5">
     <g id="line2d_14">
      <g>
       <use style="stroke:#000000;stroke-width:0.8;" x="58.12" xlink:href="#m50d0829154" y="129.916007"/>
      </g>
     </g>
     <g id="text_15">
      <!-- 40 -->
      <g transform="translate(30.76 135.994757)scale(0.16 -0.16)">
       <use xlink:href="#DejaVuSans-52"/>
       <use x="63.623047" xlink:href="#DejaVuSans-48"/>
      </g>
     </g>
    </g>
   </g>
   <g id="line2d_15">
    <path clip-path="url(#pfa29ae1ac8)" d="M 113.487273 345.230347 
L 114.498547 397.604105 
L 115.509822 356.86896 
L 116.521096 397.604105 
L 117.53237 321.953121 
L 118.543645 333.591734 
L 119.554919 409.242718 
L 120.566193 368.507573 
L 121.577468 316.133814 
L 122.588742 403.423411 
L 123.600017 368.507573 
L 124.611291 351.049653 
L 125.622565 368.507573 
L 126.63384 356.86896 
L 127.645114 385.965492 
L 128.656389 339.41104 
L 129.667663 397.604105 
L 130.678937 351.049653 
L 131.690212 339.41104 
L 132.701486 368.507573 
L 133.71276 368.507573 
L 134.724035 345.230347 
L 135.735309 380.146186 
L 137.757858 368.507573 
L 139.780407 345.230347 
L 140.791681 240.48283 
L 141.802956 432.519944 
L 142.81423 432.519944 
L 143.825504 345.230347 
L 144.836779 391.784799 
L 145.848053 356.86896 
L 146.859328 351.049653 
L 147.870602 362.688266 
L 148.881876 368.507573 
L 149.893151 351.049653 
L 150.904425 356.86896 
L 151.915699 380.146186 
L 152.926974 362.688266 
L 153.938248 368.507573 
L 154.949523 356.86896 
L 155.960797 368.507573 
L 156.972071 356.86896 
L 157.983346 362.688266 
L 158.99462 362.688266 
L 160.005895 368.507573 
L 161.017169 351.049653 
L 162.028443 380.146186 
L 163.039718 368.507573 
L 164.050992 345.230347 
L 165.062267 368.507573 
L 166.073541 368.507573 
L 167.084815 333.591734 
L 168.09609 368.507573 
L 169.107364 391.784799 
L 170.118638 356.86896 
L 171.129913 345.230347 
L 172.141187 362.688266 
L 173.152462 385.965492 
L 174.163736 345.230347 
L 175.17501 345.230347 
L 176.186285 380.146186 
L 178.208834 356.86896 
L 179.220108 368.507573 
L 180.231382 374.326879 
L 181.242657 345.230347 
L 182.253931 362.688266 
L 183.265205 362.688266 
L 184.27648 380.146186 
L 185.287754 339.41104 
L 186.299029 374.326879 
L 187.310303 362.688266 
L 188.321577 321.953121 
L 189.332852 403.423411 
L 190.344126 356.86896 
L 191.355401 327.772427 
L 192.366675 397.604105 
L 193.377949 380.146186 
L 194.389224 356.86896 
L 195.400498 362.688266 
L 196.411773 287.037282 
L 197.423047 438.33925 
L 198.434321 362.688266 
L 199.445596 351.049653 
L 200.45687 374.326879 
L 201.468144 368.507573 
L 202.479419 321.953121 
L 203.490693 374.326879 
L 204.501968 385.965492 
L 205.513242 321.953121 
L 206.524516 362.688266 
L 207.535791 397.604105 
L 208.547065 339.41104 
L 209.55834 374.326879 
L 211.580888 362.688266 
L 212.592163 351.049653 
L 213.603437 368.507573 
L 214.614711 356.86896 
L 215.625986 333.591734 
L 216.63726 397.604105 
L 217.648535 356.86896 
L 218.659809 182.289766 
L 219.671083 525.628847 
L 220.682358 391.784799 
L 222.704907 333.591734 
L 223.716181 356.86896 
L 224.727455 385.965492 
L 226.750004 374.326879 
L 227.761279 327.772427 
L 228.772553 391.784799 
L 229.783827 362.688266 
L 230.795102 298.675895 
L 231.806376 409.242718 
L 232.81765 362.688266 
L 233.828925 339.41104 
L 234.840199 391.784799 
L 235.851474 368.507573 
L 236.862748 333.591734 
L 237.874022 391.784799 
L 238.885297 333.591734 
L 239.896571 345.230347 
L 240.907846 374.326879 
L 241.91912 380.146186 
L 242.930394 356.86896 
L 243.941669 362.688266 
L 244.952943 333.591734 
L 245.964218 397.604105 
L 246.975492 356.86896 
L 247.986766 321.953121 
L 248.998041 397.604105 
L 250.009315 380.146186 
L 251.020589 310.314508 
L 252.031864 385.965492 
L 253.043138 362.688266 
L 254.054413 257.94075 
L 256.076961 455.79717 
L 257.088236 385.965492 
L 258.09951 368.507573 
L 259.110785 246.302137 
L 260.122059 467.435783 
L 261.133333 269.579363 
L 262.144608 473.255089 
L 263.155882 362.688266 
L 264.167156 345.230347 
L 265.178431 380.146186 
L 266.189705 351.049653 
L 267.20098 135.735314 
L 269.223528 543.086767 
L 270.234803 426.700637 
L 271.246077 351.049653 
L 272.257352 345.230347 
L 273.268626 362.688266 
L 274.2799 351.049653 
L 275.291175 374.326879 
L 276.302449 385.965492 
L 277.313724 351.049653 
L 278.324998 380.146186 
L 279.336272 339.41104 
L 280.347547 409.242718 
L 281.358821 316.133814 
L 282.370095 345.230347 
L 283.38137 397.604105 
L 284.392644 362.688266 
L 285.403919 380.146186 
L 286.415193 345.230347 
L 287.426467 333.591734 
L 288.437742 380.146186 
L 289.449016 351.049653 
L 290.460291 356.86896 
L 291.471565 397.604105 
L 292.482839 356.86896 
L 293.494114 298.675895 
L 294.505388 420.881331 
L 295.516663 298.675895 
L 296.527937 304.495201 
L 297.539211 403.423411 
L 298.550486 426.700637 
L 299.56176 310.314508 
L 300.573034 380.146186 
L 301.584309 351.049653 
L 302.595583 339.41104 
L 303.606858 385.965492 
L 304.618132 356.86896 
L 306.640681 368.507573 
L 307.651955 228.844217 
L 308.66323 449.977863 
L 309.674504 304.495201 
L 310.685778 403.423411 
L 311.697053 339.41104 
L 312.708327 321.953121 
L 313.719601 490.713008 
L 314.730876 263.760056 
L 315.74215 327.772427 
L 316.753425 304.495201 
L 317.764699 479.074396 
L 318.775973 316.133814 
L 319.787248 397.604105 
L 320.798522 356.86896 
L 321.809797 374.326879 
L 322.821071 281.217976 
L 323.832345 502.351621 
L 324.84362 304.495201 
L 325.854894 356.86896 
L 326.866169 345.230347 
L 327.877443 467.435783 
L 328.888717 234.663524 
L 329.899992 409.242718 
L 330.911266 252.121443 
L 331.92254 420.881331 
L 332.933815 339.41104 
L 333.945089 420.881331 
L 334.956364 479.074396 
L 335.967638 327.772427 
L 336.978912 316.133814 
L 337.990187 316.133814 
L 339.001461 432.519944 
L 340.012736 316.133814 
L 341.02401 455.79717 
L 342.035284 432.519944 
L 343.046559 263.760056 
L 344.057833 211.386298 
L 345.069108 531.448154 
L 346.080382 316.133814 
L 347.091656 444.158557 
L 348.102931 368.507573 
L 349.114205 327.772427 
L 350.125479 345.230347 
L 351.136754 403.423411 
L 352.148028 316.133814 
L 353.159303 391.784799 
L 354.170577 397.604105 
L 355.181851 304.495201 
L 356.193126 397.604105 
L 357.2044 228.844217 
L 359.226949 455.79717 
L 360.238223 420.881331 
L 361.249498 287.037282 
L 362.260772 449.977863 
L 363.272046 397.604105 
L 364.283321 292.856589 
L 365.294595 368.507573 
L 366.30587 298.675895 
L 367.317144 455.79717 
L 368.328418 339.41104 
L 369.339693 397.604105 
L 370.350967 356.86896 
L 371.362242 333.591734 
L 372.373516 327.772427 
L 373.38479 339.41104 
L 374.396065 420.881331 
L 375.407339 310.314508 
L 376.418614 455.79717 
L 377.429888 374.326879 
L 378.441162 368.507573 
L 379.452437 310.314508 
L 380.463711 362.688266 
L 381.474985 397.604105 
L 382.48626 345.230347 
L 383.497534 403.423411 
L 384.508809 345.230347 
L 385.520083 397.604105 
L 386.531357 298.675895 
L 387.542632 362.688266 
L 388.553906 339.41104 
L 389.565181 432.519944 
L 390.576455 339.41104 
L 391.587729 269.579363 
L 392.599004 397.604105 
L 393.610278 380.146186 
L 394.621553 397.604105 
L 395.632827 310.314508 
L 396.644101 385.965492 
L 397.655376 362.688266 
L 398.66665 374.326879 
L 399.677924 304.495201 
L 400.689199 345.230347 
L 401.700473 391.784799 
L 402.711748 420.881331 
L 403.723022 356.86896 
L 404.734296 403.423411 
L 405.745571 339.41104 
L 406.756845 287.037282 
L 407.76812 397.604105 
L 408.779394 327.772427 
L 409.790668 374.326879 
L 410.801943 287.037282 
L 411.813217 455.79717 
L 412.824491 391.784799 
L 413.835766 339.41104 
L 414.84704 333.591734 
L 415.858315 403.423411 
L 416.869589 327.772427 
L 417.880863 409.242718 
L 418.892138 339.41104 
L 419.903412 339.41104 
L 420.914687 397.604105 
L 421.925961 304.495201 
L 422.937235 409.242718 
L 423.94851 310.314508 
L 424.959784 391.784799 
L 425.971059 438.33925 
L 426.982333 362.688266 
L 427.993607 304.495201 
L 429.004882 374.326879 
L 430.016156 345.230347 
L 431.02743 415.062024 
L 432.038705 321.953121 
L 433.049979 339.41104 
L 434.061254 385.965492 
L 435.072528 374.326879 
L 436.083802 310.314508 
L 437.095077 385.965492 
L 438.106351 345.230347 
L 439.117626 403.423411 
L 440.1289 292.856589 
L 441.140174 479.074396 
L 442.151449 205.566992 
L 443.162723 380.146186 
L 444.173998 438.33925 
L 445.185272 339.41104 
L 446.196546 397.604105 
L 447.207821 356.86896 
L 448.219095 351.049653 
L 449.230369 321.953121 
L 450.241644 310.314508 
L 451.252918 391.784799 
L 452.264193 339.41104 
L 453.275467 333.591734 
L 454.286741 484.893702 
L 455.298016 339.41104 
L 457.320565 385.965492 
L 458.331839 228.844217 
L 459.343113 467.435783 
L 460.354388 321.953121 
L 461.365662 351.049653 
L 462.376936 385.965492 
L 463.388211 415.062024 
L 464.399485 263.760056 
L 465.41076 345.230347 
L 466.422034 409.242718 
L 467.433308 292.856589 
L 468.444583 403.423411 
L 469.455857 409.242718 
L 470.467132 211.386298 
L 471.478406 257.94075 
L 472.48968 397.604105 
L 473.500955 432.519944 
L 474.512229 188.109072 
L 475.523504 444.158557 
L 476.534778 438.33925 
L 477.546052 327.772427 
L 478.557327 246.302137 
L 479.568601 263.760056 
L 480.579875 537.26746 
L 481.59115 269.579363 
L 482.602424 537.26746 
L 483.613699 554.72538 
L 484.624973 449.977863 
L 485.636247 292.856589 
L 486.647522 397.604105 
L 487.658796 321.953121 
L 488.670071 345.230347 
L 489.681345 449.977863 
L 490.692619 374.326879 
L 491.703894 380.146186 
L 492.715168 333.591734 
L 493.726443 374.326879 
L 494.737717 339.41104 
L 495.748991 403.423411 
L 496.760266 327.772427 
L 497.77154 397.604105 
L 498.782814 380.146186 
L 499.794089 321.953121 
L 500.805363 368.507573 
L 501.816638 345.230347 
L 502.827912 403.423411 
L 503.839186 362.688266 
L 504.850461 351.049653 
L 505.861735 385.965492 
L 506.87301 304.495201 
L 507.884284 385.965492 
L 508.895558 362.688266 
L 509.906833 385.965492 
L 510.918107 351.049653 
L 511.929381 362.688266 
L 512.940656 362.688266 
L 513.95193 374.326879 
L 514.963205 351.049653 
L 515.974479 368.507573 
L 516.985753 368.507573 
L 517.997028 362.688266 
L 519.008302 339.41104 
L 520.019577 397.604105 
L 521.030851 356.86896 
L 522.042125 345.230347 
L 523.0534 380.146186 
L 524.064674 356.86896 
L 525.075949 380.146186 
L 526.087223 333.591734 
L 527.098497 385.965492 
L 528.109772 351.049653 
L 529.121046 374.326879 
L 530.13232 356.86896 
L 531.143595 356.86896 
L 532.154869 368.507573 
L 533.166144 374.326879 
L 534.177418 327.772427 
L 535.188692 397.604105 
L 536.199967 362.688266 
L 537.211241 362.688266 
L 538.222516 351.049653 
L 539.23379 362.688266 
L 540.245064 362.688266 
L 541.256339 351.049653 
L 542.267613 368.507573 
L 543.278888 356.86896 
L 544.290162 368.507573 
L 545.301436 368.507573 
L 546.312711 356.86896 
L 547.323985 374.326879 
L 548.335259 351.049653 
L 549.346534 368.507573 
L 550.357808 356.86896 
L 551.369083 368.507573 
L 552.380357 339.41104 
L 553.391631 385.965492 
L 554.402906 368.507573 
L 555.41418 362.688266 
L 556.425455 339.41104 
L 557.436729 362.688266 
L 558.448003 362.688266 
L 559.459278 333.591734 
L 560.470552 385.965492 
L 561.481826 391.784799 
L 562.493101 356.86896 
L 563.504375 368.507573 
L 564.51565 345.230347 
L 565.526924 368.507573 
L 566.538198 362.688266 
L 567.549473 368.507573 
L 568.560747 351.049653 
L 569.572022 351.049653 
L 570.583296 362.688266 
L 571.59457 380.146186 
L 572.605845 351.049653 
L 573.617119 351.049653 
L 574.628394 298.675895 
L 575.639668 432.519944 
L 576.650942 310.314508 
L 577.662217 385.965492 
L 578.673491 321.953121 
L 579.684765 356.86896 
L 580.69604 461.616476 
L 581.707314 316.133814 
L 582.718589 391.784799 
L 583.729863 351.049653 
L 584.741137 345.230347 
L 585.752412 368.507573 
L 586.763686 374.326879 
L 587.774961 351.049653 
L 588.786235 339.41104 
L 589.797509 374.326879 
L 590.808784 368.507573 
L 591.820058 240.48283 
L 592.831333 473.255089 
L 593.842607 368.507573 
L 594.853881 391.784799 
L 595.865156 333.591734 
L 596.87643 385.965492 
L 597.887704 362.688266 
L 598.898979 345.230347 
L 599.910253 380.146186 
L 600.921528 339.41104 
L 601.932802 351.049653 
L 602.944076 345.230347 
L 603.955351 391.784799 
L 604.966625 391.784799 
L 605.9779 310.314508 
L 606.989174 356.86896 
L 608.000448 356.86896 
L 609.011723 339.41104 
L 610.022997 409.242718 
L 611.034271 391.784799 
L 612.045546 333.591734 
L 613.05682 316.133814 
L 614.068095 356.86896 
L 615.079369 403.423411 
L 616.090643 385.965492 
L 617.101918 339.41104 
L 618.113192 420.881331 
L 619.124467 327.772427 
L 620.135741 327.772427 
L 621.147015 339.41104 
L 622.15829 426.700637 
L 623.169564 362.688266 
L 624.180839 345.230347 
L 626.203387 356.86896 
L 627.214662 351.049653 
L 628.225936 316.133814 
L 629.23721 461.616476 
L 630.248485 351.049653 
L 631.259759 310.314508 
L 632.271034 415.062024 
L 633.282308 351.049653 
L 634.293582 316.133814 
L 635.304857 385.965492 
L 636.316131 321.953121 
L 637.327406 426.700637 
L 638.33868 385.965492 
L 639.349954 374.326879 
L 640.361229 368.507573 
L 641.372503 263.760056 
L 642.383778 321.953121 
L 643.395052 461.616476 
L 644.406326 333.591734 
L 645.417601 397.604105 
L 646.428875 397.604105 
L 647.440149 316.133814 
L 648.451424 356.86896 
L 649.462698 351.049653 
L 650.473973 339.41104 
L 651.485247 426.700637 
L 652.496521 310.314508 
L 653.507796 415.062024 
L 654.51907 356.86896 
L 655.530345 234.663524 
L 656.541619 461.616476 
L 657.552893 351.049653 
L 658.564168 380.146186 
L 659.575442 391.784799 
L 660.586716 380.146186 
L 661.597991 345.230347 
L 662.609265 356.86896 
L 663.62054 316.133814 
L 664.631814 310.314508 
L 665.643088 397.604105 
L 666.654363 310.314508 
L 667.665637 455.79717 
L 668.676912 397.604105 
L 669.688186 153.193233 
L 670.69946 292.856589 
L 671.710735 449.977863 
L 672.722009 345.230347 
L 673.733284 438.33925 
L 674.744558 351.049653 
L 675.755832 333.591734 
L 676.767107 333.591734 
L 677.778381 269.579363 
L 678.789655 356.86896 
L 679.80093 310.314508 
L 680.812204 525.628847 
L 681.823479 362.688266 
L 682.834753 223.024911 
L 683.846027 403.423411 
L 684.857302 420.881331 
L 685.868576 362.688266 
L 686.879851 438.33925 
L 687.891125 292.856589 
L 688.902399 415.062024 
L 689.913674 345.230347 
L 690.924948 351.049653 
L 691.936222 362.688266 
L 692.947497 380.146186 
L 694.970046 368.507573 
L 695.98132 473.255089 
L 696.992594 304.495201 
L 698.003869 252.121443 
L 699.015143 228.844217 
L 700.026418 449.977863 
L 701.037692 508.170928 
L 702.048966 292.856589 
L 703.060241 444.158557 
L 704.071515 333.591734 
L 705.08279 339.41104 
L 706.094064 327.772427 
L 707.105338 438.33925 
L 708.116613 246.302137 
L 709.127887 513.990234 
L 710.139161 397.604105 
L 711.150436 345.230347 
L 712.16171 304.495201 
L 713.172985 257.94075 
L 714.184259 420.881331 
L 715.195533 397.604105 
L 716.206808 467.435783 
L 717.218082 374.326879 
L 718.229357 310.314508 
L 719.240631 351.049653 
L 720.251905 356.86896 
L 721.26318 385.965492 
L 722.274454 356.86896 
L 723.285729 444.158557 
L 724.297003 339.41104 
L 725.308277 339.41104 
L 726.319552 368.507573 
L 727.330826 362.688266 
L 728.3421 391.784799 
L 729.353375 321.953121 
L 730.364649 374.326879 
L 731.375924 403.423411 
L 732.387198 316.133814 
L 733.398472 356.86896 
L 734.409747 356.86896 
L 735.421021 385.965492 
L 736.432296 275.398669 
L 737.44357 438.33925 
L 738.454844 409.242718 
L 739.466119 339.41104 
L 740.477393 321.953121 
L 741.488667 409.242718 
L 742.499942 287.037282 
L 743.511216 455.79717 
L 744.522491 345.230347 
L 745.533765 339.41104 
L 746.545039 356.86896 
L 747.556314 345.230347 
L 748.567588 368.507573 
L 749.578863 438.33925 
L 750.590137 327.772427 
L 751.601411 385.965492 
L 753.62396 316.133814 
L 754.635235 380.146186 
L 755.646509 368.507573 
L 756.657783 368.507573 
L 757.669058 391.784799 
L 758.680332 333.591734 
L 759.691606 391.784799 
L 760.702881 339.41104 
L 761.714155 409.242718 
L 762.72543 351.049653 
L 763.736704 321.953121 
L 764.747978 380.146186 
L 765.759253 327.772427 
L 766.770527 374.326879 
L 767.781802 351.049653 
L 768.793076 356.86896 
L 769.80435 403.423411 
L 770.815625 385.965492 
L 771.826899 287.037282 
L 772.838174 362.688266 
L 773.849448 391.784799 
L 774.860722 391.784799 
L 775.871997 310.314508 
L 776.883271 385.965492 
L 777.894545 351.049653 
L 778.90582 380.146186 
L 779.917094 333.591734 
L 780.928369 385.965492 
L 781.939643 316.133814 
L 782.950917 391.784799 
L 783.962192 351.049653 
L 784.973466 356.86896 
L 785.984741 368.507573 
L 786.996015 391.784799 
L 788.007289 351.049653 
L 789.018564 374.326879 
L 790.029838 351.049653 
L 791.041112 287.037282 
L 792.052387 356.86896 
L 793.063661 449.977863 
L 794.074936 304.495201 
L 795.08621 380.146186 
L 796.097484 345.230347 
L 797.108759 333.591734 
L 798.120033 397.604105 
L 800.142582 362.688266 
L 801.153856 397.604105 
L 802.165131 310.314508 
L 803.176405 380.146186 
L 804.18768 298.675895 
L 805.198954 345.230347 
L 806.210228 362.688266 
L 807.221503 391.784799 
L 808.232777 368.507573 
L 809.244051 438.33925 
L 810.255326 263.760056 
L 811.2666 310.314508 
L 812.277875 467.435783 
L 813.289149 420.881331 
L 814.300423 316.133814 
L 815.311698 391.784799 
L 816.322972 327.772427 
L 817.334247 304.495201 
L 818.345521 339.41104 
L 819.356795 385.965492 
L 820.36807 310.314508 
L 821.379344 508.170928 
L 822.390619 292.856589 
L 823.401893 339.41104 
L 824.413167 310.314508 
L 825.424442 356.86896 
L 826.435716 368.507573 
L 829.469539 385.965492 
L 830.480814 380.146186 
L 831.492088 292.856589 
L 832.503362 321.953121 
L 833.514637 362.688266 
L 834.525911 339.41104 
L 835.537186 345.230347 
L 836.54846 397.604105 
L 837.559734 420.881331 
L 838.571009 351.049653 
L 839.582283 292.856589 
L 840.593557 339.41104 
L 841.604832 321.953121 
L 842.616106 380.146186 
L 843.627381 345.230347 
L 844.638655 356.86896 
L 845.649929 467.435783 
L 846.661204 65.903636 
L 847.672478 502.351621 
L 848.683753 292.856589 
L 849.695027 432.519944 
L 850.706301 199.747685 
L 851.717576 630.376364 
L 852.72885 601.279831 
L 853.740125 380.146186 
L 854.751399 362.688266 
L 855.762673 269.579363 
L 856.773948 275.398669 
L 857.785222 438.33925 
L 858.796496 484.893702 
L 859.807771 380.146186 
L 860.819045 298.675895 
L 861.83032 415.062024 
L 862.841594 327.772427 
L 863.852868 333.591734 
L 864.864143 391.784799 
L 865.875417 374.326879 
L 866.886692 385.965492 
L 867.897966 316.133814 
L 868.90924 415.062024 
L 869.920515 380.146186 
L 870.931789 310.314508 
L 871.943064 391.784799 
L 872.954338 257.94075 
L 873.965612 496.532315 
L 874.976887 333.591734 
L 875.988161 385.965492 
L 876.999435 351.049653 
L 878.01071 333.591734 
L 879.021984 385.965492 
L 880.033259 385.965492 
L 881.044533 351.049653 
L 882.055807 380.146186 
L 883.067082 339.41104 
L 884.078356 368.507573 
L 885.089631 351.049653 
L 886.100905 385.965492 
L 887.112179 368.507573 
L 888.123454 345.230347 
L 889.134728 362.688266 
L 890.146002 345.230347 
L 891.157277 409.242718 
L 892.168551 339.41104 
L 893.179826 356.86896 
L 894.1911 356.86896 
L 895.202374 385.965492 
L 896.213649 339.41104 
L 897.224923 385.965492 
L 898.236198 356.86896 
L 899.247472 368.507573 
L 901.270021 356.86896 
L 902.281295 356.86896 
L 903.29257 374.326879 
L 904.303844 351.049653 
L 905.315118 333.591734 
L 906.326393 368.507573 
L 907.337667 374.326879 
L 908.348941 385.965492 
L 909.360216 345.230347 
L 910.37149 356.86896 
L 911.382765 385.965492 
L 912.394039 362.688266 
L 913.405313 345.230347 
L 914.416588 391.784799 
L 915.427862 351.049653 
L 916.439137 345.230347 
L 917.450411 380.146186 
L 919.47296 356.86896 
L 920.484234 339.41104 
L 921.495509 362.688266 
L 922.506783 368.507573 
L 923.518057 339.41104 
L 924.529332 415.062024 
L 925.540606 339.41104 
L 926.55188 368.507573 
L 927.563155 368.507573 
L 928.574429 351.049653 
L 929.585704 374.326879 
L 930.596978 356.86896 
L 931.608252 351.049653 
L 932.619527 374.326879 
L 933.630801 374.326879 
L 934.642076 327.772427 
L 935.65335 362.688266 
L 936.664624 380.146186 
L 937.675899 374.326879 
L 938.687173 321.953121 
L 939.698447 391.784799 
L 940.709722 333.591734 
L 941.720996 397.604105 
L 942.732271 374.326879 
L 943.743545 374.326879 
L 944.754819 356.86896 
L 945.766094 351.049653 
L 946.777368 298.675895 
L 947.788643 356.86896 
L 948.799917 391.784799 
L 949.811191 356.86896 
L 950.822466 351.049653 
L 951.83374 292.856589 
L 952.845015 362.688266 
L 953.856289 374.326879 
L 954.867563 368.507573 
L 955.878838 327.772427 
L 956.890112 449.977863 
L 957.901386 333.591734 
L 958.912661 339.41104 
L 960.93521 327.772427 
L 961.946484 531.448154 
L 962.957758 287.037282 
L 963.969033 298.675895 
L 964.980307 432.519944 
L 965.991582 263.760056 
L 967.002856 391.784799 
L 968.01413 397.604105 
L 969.025405 345.230347 
L 970.036679 304.495201 
L 971.047954 374.326879 
L 972.059228 432.519944 
L 973.070502 193.928379 
L 974.081777 496.532315 
L 975.093051 275.398669 
L 976.104325 473.255089 
L 977.1156 380.146186 
L 978.126874 228.844217 
L 979.138149 490.713008 
L 980.149423 281.217976 
L 981.160697 391.784799 
L 982.171972 356.86896 
L 983.183246 345.230347 
L 984.194521 444.158557 
L 985.205795 351.049653 
L 986.217069 397.604105 
L 987.228344 287.037282 
L 988.239618 397.604105 
L 989.250892 397.604105 
L 990.262167 374.326879 
L 991.273441 362.688266 
L 992.284716 444.158557 
L 993.29599 310.314508 
L 994.307264 380.146186 
L 995.318539 118.277395 
L 996.329813 496.532315 
L 998.352362 374.326879 
L 999.363636 339.41104 
L 1000.374911 374.326879 
L 1001.386185 263.760056 
L 1002.39746 420.881331 
L 1003.408734 356.86896 
L 1004.420008 374.326879 
L 1005.431283 356.86896 
L 1006.442557 292.856589 
L 1007.453831 496.532315 
L 1008.465106 316.133814 
L 1009.47638 252.121443 
L 1010.487655 467.435783 
L 1011.498929 380.146186 
L 1012.510203 362.688266 
L 1013.521478 316.133814 
L 1014.532752 449.977863 
L 1015.544027 316.133814 
L 1016.555301 362.688266 
L 1017.566575 385.965492 
L 1018.57785 385.965492 
L 1019.589124 345.230347 
L 1020.600399 380.146186 
L 1021.611673 397.604105 
L 1022.622947 217.205604 
L 1023.634222 444.158557 
L 1024.645496 356.86896 
L 1025.65677 368.507573 
L 1026.668045 333.591734 
L 1027.679319 415.062024 
L 1028.690594 368.507573 
L 1029.701868 385.965492 
L 1030.713142 351.049653 
L 1031.724417 292.856589 
L 1032.735691 345.230347 
L 1033.746966 362.688266 
L 1034.75824 362.688266 
L 1035.769514 391.784799 
L 1036.780789 345.230347 
L 1037.792063 327.772427 
L 1038.803337 368.507573 
L 1039.814612 327.772427 
L 1040.825886 351.049653 
L 1041.837161 257.94075 
L 1042.848435 502.351621 
L 1043.859709 176.470459 
L 1044.870984 374.326879 
L 1045.882258 415.062024 
L 1046.893533 321.953121 
L 1047.904807 339.41104 
L 1048.916081 351.049653 
L 1049.927356 403.423411 
L 1050.93863 316.133814 
L 1051.949905 310.314508 
L 1052.961179 461.616476 
L 1053.972453 409.242718 
L 1054.983728 310.314508 
L 1055.995002 339.41104 
L 1057.006276 449.977863 
L 1058.017551 356.86896 
L 1059.028825 374.326879 
L 1060.0401 281.217976 
L 1061.051374 397.604105 
L 1062.062648 316.133814 
L 1063.073923 479.074396 
L 1064.085197 449.977863 
L 1065.096472 205.566992 
L 1066.107746 432.519944 
L 1067.11902 170.651153 
L 1068.130295 426.700637 
L 1069.141569 473.255089 
L 1070.152844 281.217976 
L 1071.164118 467.435783 
L 1072.175392 420.881331 
L 1073.186667 269.579363 
L 1074.197941 444.158557 
L 1075.209215 263.760056 
L 1076.22049 484.893702 
L 1077.231764 368.507573 
L 1078.243039 356.86896 
L 1079.254313 275.398669 
L 1080.265587 455.79717 
L 1081.276862 257.94075 
L 1082.288136 420.881331 
L 1083.299411 298.675895 
L 1084.310685 519.809541 
L 1085.321959 339.41104 
L 1086.333234 385.965492 
L 1087.344508 310.314508 
L 1088.355782 356.86896 
L 1089.367057 420.881331 
L 1090.378331 391.784799 
L 1091.389606 391.784799 
L 1092.40088 345.230347 
L 1093.412154 339.41104 
L 1094.423429 316.133814 
L 1095.434703 409.242718 
L 1096.445978 362.688266 
L 1097.457252 321.953121 
L 1098.468526 385.965492 
L 1099.479801 345.230347 
L 1100.491075 362.688266 
L 1101.50235 298.675895 
L 1102.513624 484.893702 
L 1103.524898 292.856589 
L 1104.536173 380.146186 
L 1105.547447 351.049653 
L 1106.558721 159.01254 
L 1107.569996 432.519944 
L 1108.58127 502.351621 
L 1109.592545 385.965492 
L 1110.603819 403.423411 
L 1111.615093 269.579363 
L 1112.626368 449.977863 
L 1113.637642 321.953121 
L 1114.648917 321.953121 
L 1115.660191 385.965492 
L 1116.671465 397.604105 
L 1117.68274 368.507573 
L 1118.694014 310.314508 
L 1119.705289 415.062024 
L 1120.716563 356.86896 
L 1121.727837 345.230347 
L 1122.739112 292.856589 
L 1123.750386 426.700637 
L 1124.76166 356.86896 
L 1125.772935 420.881331 
L 1126.784209 362.688266 
L 1127.795484 339.41104 
L 1128.806758 362.688266 
L 1129.818032 321.953121 
L 1130.829307 368.507573 
L 1131.840581 368.507573 
L 1132.851856 356.86896 
L 1133.86313 415.062024 
L 1134.874404 327.772427 
L 1135.885679 316.133814 
L 1136.896953 385.965492 
L 1137.908227 362.688266 
L 1138.919502 345.230347 
L 1139.930776 403.423411 
L 1140.942051 362.688266 
L 1141.953325 391.784799 
L 1142.964599 275.398669 
L 1143.975874 461.616476 
L 1144.987148 257.94075 
L 1145.998423 415.062024 
L 1147.009697 362.688266 
L 1148.020971 385.965492 
L 1149.032246 321.953121 
L 1150.04352 246.302137 
L 1151.054795 438.33925 
L 1152.066069 385.965492 
L 1153.077343 362.688266 
L 1154.088618 362.688266 
L 1155.099892 345.230347 
L 1156.111166 391.784799 
L 1157.122441 316.133814 
L 1158.133715 356.86896 
L 1159.14499 339.41104 
L 1160.156264 473.255089 
L 1161.167538 321.953121 
L 1162.178813 339.41104 
L 1163.190087 432.519944 
L 1164.201362 327.772427 
L 1166.22391 362.688266 
L 1167.235185 304.495201 
L 1168.246459 438.33925 
L 1169.257733 403.423411 
L 1170.269008 321.953121 
L 1171.280282 310.314508 
L 1172.291557 438.33925 
L 1173.302831 362.688266 
L 1174.314105 269.579363 
L 1175.32538 403.423411 
L 1176.336654 380.146186 
L 1177.347929 449.977863 
L 1178.359203 182.289766 
L 1179.370477 415.062024 
L 1180.381752 391.784799 
L 1181.393026 339.41104 
L 1182.404301 415.062024 
L 1183.415575 380.146186 
L 1184.426849 327.772427 
L 1185.438124 368.507573 
L 1186.449398 356.86896 
L 1187.460672 310.314508 
L 1188.471947 385.965492 
L 1189.483221 438.33925 
L 1190.494496 362.688266 
L 1191.50577 275.398669 
L 1192.517044 351.049653 
L 1193.528319 164.831846 
L 1194.539593 490.713008 
L 1195.550868 479.074396 
L 1196.562142 292.856589 
L 1197.573416 385.965492 
L 1198.584691 426.700637 
L 1199.595965 269.579363 
L 1200.60724 298.675895 
L 1201.618514 368.507573 
L 1202.629788 385.965492 
L 1203.641063 385.965492 
L 1204.652337 374.326879 
L 1205.663611 345.230347 
L 1206.674886 397.604105 
L 1207.68616 345.230347 
L 1208.697435 304.495201 
L 1209.708709 298.675895 
L 1210.719983 252.121443 
L 1211.731258 490.713008 
L 1212.742532 438.33925 
L 1213.753807 351.049653 
L 1214.765081 159.01254 
L 1215.776355 415.062024 
L 1216.78763 362.688266 
L 1217.798904 444.158557 
L 1218.810178 356.86896 
L 1219.821453 403.423411 
L 1220.832727 461.616476 
L 1220.832727 461.616476 
" style="fill:none;stroke:#1f77b4;stroke-linecap:square;stroke-width:1.5;"/>
   </g>
   <g id="patch_3">
    <path d="M 58.12 658.6 
L 58.12 37.68 
" style="fill:none;stroke:#000000;stroke-linecap:square;stroke-linejoin:miter;stroke-width:0.8;"/>
   </g>
   <g id="patch_4">
    <path d="M 1276.2 658.6 
L 1276.2 37.68 
" style="fill:none;stroke:#000000;stroke-linecap:square;stroke-linejoin:miter;stroke-width:0.8;"/>
   </g>
   <g id="patch_5">
    <path d="M 58.12 658.6 
L 1276.2 658.6 
" style="fill:none;stroke:#000000;stroke-linecap:square;stroke-linejoin:miter;stroke-width:0.8;"/>
   </g>
   <g id="patch_6">
    <path d="M 58.12 37.68 
L 1276.2 37.68 
" style="fill:none;stroke:#000000;stroke-linecap:square;stroke-linejoin:miter;stroke-width:0.8;"/>
   </g>
   <g id="text_16">
    <!-- Diferencirani vremenski niz rezervacija -->
    <defs>
     <path d="M 9.421875 54.6875 
L 18.40625 54.6875 
L 18.40625 0 
L 9.421875 0 
z
M 9.421875 75.984375 
L 18.40625 75.984375 
L 18.40625 64.59375 
L 9.421875 64.59375 
z
" id="DejaVuSans-105"/>
     <path d="M 37.109375 75.984375 
L 37.109375 68.5 
L 28.515625 68.5 
Q 23.6875 68.5 21.796875 66.546875 
Q 19.921875 64.59375 19.921875 59.515625 
L 19.921875 54.6875 
L 34.71875 54.6875 
L 34.71875 47.703125 
L 19.921875 47.703125 
L 19.921875 0 
L 10.890625 0 
L 10.890625 47.703125 
L 2.296875 47.703125 
L 2.296875 54.6875 
L 10.890625 54.6875 
L 10.890625 58.5 
Q 10.890625 67.625 15.140625 71.796875 
Q 19.390625 75.984375 28.609375 75.984375 
z
" id="DejaVuSans-102"/>
     <path d="M 56.203125 29.59375 
L 56.203125 25.203125 
L 14.890625 25.203125 
Q 15.484375 15.921875 20.484375 11.0625 
Q 25.484375 6.203125 34.421875 6.203125 
Q 39.59375 6.203125 44.453125 7.46875 
Q 49.3125 8.734375 54.109375 11.28125 
L 54.109375 2.78125 
Q 49.265625 0.734375 44.1875 -0.34375 
Q 39.109375 -1.421875 33.890625 -1.421875 
Q 20.796875 -1.421875 13.15625 6.1875 
Q 5.515625 13.8125 5.515625 26.8125 
Q 5.515625 40.234375 12.765625 48.109375 
Q 20.015625 56 32.328125 56 
Q 43.359375 56 49.78125 48.890625 
Q 56.203125 41.796875 56.203125 29.59375 
z
M 47.21875 32.234375 
Q 47.125 39.59375 43.09375 43.984375 
Q 39.0625 48.390625 32.421875 48.390625 
Q 24.90625 48.390625 20.390625 44.140625 
Q 15.875 39.890625 15.1875 32.171875 
z
" id="DejaVuSans-101"/>
     <path d="M 41.109375 46.296875 
Q 39.59375 47.171875 37.8125 47.578125 
Q 36.03125 48 33.890625 48 
Q 26.265625 48 22.1875 43.046875 
Q 18.109375 38.09375 18.109375 28.8125 
L 18.109375 0 
L 9.078125 0 
L 9.078125 54.6875 
L 18.109375 54.6875 
L 18.109375 46.1875 
Q 20.953125 51.171875 25.484375 53.578125 
Q 30.03125 56 36.53125 56 
Q 37.453125 56 38.578125 55.875 
Q 39.703125 55.765625 41.0625 55.515625 
z
" id="DejaVuSans-114"/>
     <path d="M 54.890625 33.015625 
L 54.890625 0 
L 45.90625 0 
L 45.90625 32.71875 
Q 45.90625 40.484375 42.875 44.328125 
Q 39.84375 48.1875 33.796875 48.1875 
Q 26.515625 48.1875 22.3125 43.546875 
Q 18.109375 38.921875 18.109375 30.90625 
L 18.109375 0 
L 9.078125 0 
L 9.078125 54.6875 
L 18.109375 54.6875 
L 18.109375 46.1875 
Q 21.34375 51.125 25.703125 53.5625 
Q 30.078125 56 35.796875 56 
Q 45.21875 56 50.046875 50.171875 
Q 54.890625 44.34375 54.890625 33.015625 
z
" id="DejaVuSans-110"/>
     <path d="M 48.78125 52.59375 
L 48.78125 44.1875 
Q 44.96875 46.296875 41.140625 47.34375 
Q 37.3125 48.390625 33.40625 48.390625 
Q 24.65625 48.390625 19.8125 42.84375 
Q 14.984375 37.3125 14.984375 27.296875 
Q 14.984375 17.28125 19.8125 11.734375 
Q 24.65625 6.203125 33.40625 6.203125 
Q 37.3125 6.203125 41.140625 7.25 
Q 44.96875 8.296875 48.78125 10.40625 
L 48.78125 2.09375 
Q 45.015625 0.34375 40.984375 -0.53125 
Q 36.96875 -1.421875 32.421875 -1.421875 
Q 20.0625 -1.421875 12.78125 6.34375 
Q 5.515625 14.109375 5.515625 27.296875 
Q 5.515625 40.671875 12.859375 48.328125 
Q 20.21875 56 33.015625 56 
Q 37.15625 56 41.109375 55.140625 
Q 45.0625 54.296875 48.78125 52.59375 
z
" id="DejaVuSans-99"/>
     <path id="DejaVuSans-32"/>
     <path d="M 2.984375 54.6875 
L 12.5 54.6875 
L 29.59375 8.796875 
L 46.6875 54.6875 
L 56.203125 54.6875 
L 35.6875 0 
L 23.484375 0 
z
" id="DejaVuSans-118"/>
     <path d="M 44.28125 53.078125 
L 44.28125 44.578125 
Q 40.484375 46.53125 36.375 47.5 
Q 32.28125 48.484375 27.875 48.484375 
Q 21.1875 48.484375 17.84375 46.4375 
Q 14.5 44.390625 14.5 40.28125 
Q 14.5 37.15625 16.890625 35.375 
Q 19.28125 33.59375 26.515625 31.984375 
L 29.59375 31.296875 
Q 39.15625 29.25 43.1875 25.515625 
Q 47.21875 21.78125 47.21875 15.09375 
Q 47.21875 7.46875 41.1875 3.015625 
Q 35.15625 -1.421875 24.609375 -1.421875 
Q 20.21875 -1.421875 15.453125 -0.5625 
Q 10.6875 0.296875 5.421875 2 
L 5.421875 11.28125 
Q 10.40625 8.6875 15.234375 7.390625 
Q 20.0625 6.109375 24.8125 6.109375 
Q 31.15625 6.109375 34.5625 8.28125 
Q 37.984375 10.453125 37.984375 14.40625 
Q 37.984375 18.0625 35.515625 20.015625 
Q 33.0625 21.96875 24.703125 23.78125 
L 21.578125 24.515625 
Q 13.234375 26.265625 9.515625 29.90625 
Q 5.8125 33.546875 5.8125 39.890625 
Q 5.8125 47.609375 11.28125 51.796875 
Q 16.75 56 26.8125 56 
Q 31.78125 56 36.171875 55.265625 
Q 40.578125 54.546875 44.28125 53.078125 
z
" id="DejaVuSans-115"/>
     <path d="M 9.078125 75.984375 
L 18.109375 75.984375 
L 18.109375 31.109375 
L 44.921875 54.6875 
L 56.390625 54.6875 
L 27.390625 29.109375 
L 57.625 0 
L 45.90625 0 
L 18.109375 26.703125 
L 18.109375 0 
L 9.078125 0 
z
" id="DejaVuSans-107"/>
     <path d="M 5.515625 54.6875 
L 48.1875 54.6875 
L 48.1875 46.484375 
L 14.40625 7.171875 
L 48.1875 7.171875 
L 48.1875 0 
L 4.296875 0 
L 4.296875 8.203125 
L 38.09375 47.515625 
L 5.515625 47.515625 
z
" id="DejaVuSans-122"/>
     <path d="M 9.421875 54.6875 
L 18.40625 54.6875 
L 18.40625 -0.984375 
Q 18.40625 -11.421875 14.421875 -16.109375 
Q 10.453125 -20.796875 1.609375 -20.796875 
L -1.8125 -20.796875 
L -1.8125 -13.1875 
L 0.59375 -13.1875 
Q 5.71875 -13.1875 7.5625 -10.8125 
Q 9.421875 -8.453125 9.421875 -0.984375 
z
M 9.421875 75.984375 
L 18.40625 75.984375 
L 18.40625 64.59375 
L 9.421875 64.59375 
z
" id="DejaVuSans-106"/>
    </defs>
    <g transform="translate(479.507 31.68)scale(0.192 -0.192)">
     <use xlink:href="#DejaVuSans-68"/>
     <use x="77.001953" xlink:href="#DejaVuSans-105"/>
     <use x="104.785156" xlink:href="#DejaVuSans-102"/>
     <use x="139.990234" xlink:href="#DejaVuSans-101"/>
     <use x="201.513672" xlink:href="#DejaVuSans-114"/>
     <use x="242.595703" xlink:href="#DejaVuSans-101"/>
     <use x="304.119141" xlink:href="#DejaVuSans-110"/>
     <use x="367.498047" xlink:href="#DejaVuSans-99"/>
     <use x="422.478516" xlink:href="#DejaVuSans-105"/>
     <use x="450.261719" xlink:href="#DejaVuSans-114"/>
     <use x="491.375" xlink:href="#DejaVuSans-97"/>
     <use x="552.654297" xlink:href="#DejaVuSans-110"/>
     <use x="616.033203" xlink:href="#DejaVuSans-105"/>
     <use x="643.816406" xlink:href="#DejaVuSans-32"/>
     <use x="675.603516" xlink:href="#DejaVuSans-118"/>
     <use x="734.783203" xlink:href="#DejaVuSans-114"/>
     <use x="775.865234" xlink:href="#DejaVuSans-101"/>
     <use x="837.388672" xlink:href="#DejaVuSans-109"/>
     <use x="934.800781" xlink:href="#DejaVuSans-101"/>
     <use x="996.324219" xlink:href="#DejaVuSans-110"/>
     <use x="1059.703125" xlink:href="#DejaVuSans-115"/>
     <use x="1111.802734" xlink:href="#DejaVuSans-107"/>
     <use x="1169.712891" xlink:href="#DejaVuSans-105"/>
     <use x="1197.496094" xlink:href="#DejaVuSans-32"/>
     <use x="1229.283203" xlink:href="#DejaVuSans-110"/>
     <use x="1292.662109" xlink:href="#DejaVuSans-105"/>
     <use x="1320.445312" xlink:href="#DejaVuSans-122"/>
     <use x="1372.935547" xlink:href="#DejaVuSans-32"/>
     <use x="1404.722656" xlink:href="#DejaVuSans-114"/>
     <use x="1445.804688" xlink:href="#DejaVuSans-101"/>
     <use x="1507.328125" xlink:href="#DejaVuSans-122"/>
     <use x="1559.818359" xlink:href="#DejaVuSans-101"/>
     <use x="1621.341797" xlink:href="#DejaVuSans-114"/>
     <use x="1662.455078" xlink:href="#DejaVuSans-118"/>
     <use x="1721.634766" xlink:href="#DejaVuSans-97"/>
     <use x="1782.914062" xlink:href="#DejaVuSans-99"/>
     <use x="1837.894531" xlink:href="#DejaVuSans-105"/>
     <use x="1865.677734" xlink:href="#DejaVuSans-106"/>
     <use x="1893.460938" xlink:href="#DejaVuSans-97"/>
    </g>
   </g>
  </g>
 </g>
 <defs>
  <clipPath id="pfa29ae1ac8">
   <rect height="620.92" width="1218.08" x="58.12" y="37.68"/>
  </clipPath>
 </defs>
</svg>
