<svg xmlns="http://www.w3.org/2000/svg" xmlns:xlink="http://www.w3.org/1999/xlink" xmlns:lucid="lucid" width="980" height="567"><g transform="translate(80 -60)" lucid:page-tab-id="0_0"><path d="M220 180c0 22.1-17.9 40-40 40s-40-17.9-40-40 17.9-40 40-40 40 17.9 40 40zM220 300c0 22.1-17.9 40-40 40s-40-17.9-40-40 17.9-40 40-40 40 17.9 40 40z" stroke="#0c7cba" stroke-width="4" fill="#fff"/><path d="M460 480c0 22.1-17.9 40-40 40s-40-17.9-40-40 17.9-40 40-40 40 17.9 40 40z" stroke="#000" stroke-width="4" fill="#fff"/><path d="M220 420c0 22.1-17.9 40-40 40s-40-17.9-40-40 17.9-40 40-40 40 17.9 40 40z" stroke="#0c7cba" stroke-width="4" fill="#fff"/><path d="M460 120c0 22.1-17.9 40-40 40s-40-17.9-40-40 17.9-40 40-40 40 17.9 40 40zM460 360c0 22.1-17.9 40-40 40s-40-17.9-40-40 17.9-40 40-40 40 17.9 40 40z" stroke="#000" stroke-width="4" fill="#fff"/><path d="M680 240c0 22.1-17.9 40-40 40s-40-17.9-40-40 17.9-40 40-40 40 17.9 40 40z" stroke="#ef8d22" stroke-width="4" fill="#fff"/><path d="M460 240c0 22.1-17.9 40-40 40s-40-17.9-40-40 17.9-40 40-40 40 17.9 40 40z" stroke="#000" stroke-width="4" fill="#fff"/><path d="M680 360c0 22.1-17.9 40-40 40s-40-17.9-40-40 17.9-40 40-40 40 17.9 40 40z" stroke="#ef8d22" stroke-width="4" fill="#fff"/><path d="M119.5 180H61" stroke="#999" stroke-width="2" fill="none"/><path d="M134.76 180l-14.26 4.64v-9.28z" stroke="#999" stroke-width="2" fill="#999"/><path d="M61.03 180H60M119.5 300H61" stroke="#999" stroke-width="2" fill="none"/><path d="M134.76 300l-14.26 4.64v-9.28z" stroke="#999" stroke-width="2" fill="#999"/><path d="M61.03 300H60M119.5 420H61" stroke="#999" stroke-width="2" fill="none"/><path d="M134.76 420l-14.26 4.64v-9.28z" stroke="#999" stroke-width="2" fill="#999"/><path d="M61.03 420H60M683 240h58.5" stroke="#999" stroke-width="2" fill="none"/><path d="M683.03 241h-1.1l.07-.97-.03-1.03h1.06z" fill="#999"/><path d="M756.76 240l-14.26 4.64v-9.28z" stroke="#999" stroke-width="2" fill="#999"/><path d="M683 360h58.5" stroke="#999" stroke-width="2" fill="none"/><path d="M683.03 361h-1.1l.07-.97-.03-1.03h1.06z" fill="#999"/><path d="M756.76 360l-14.26 4.64v-9.28z" stroke="#999" stroke-width="2" fill="#999"/><path d="M222.93 419.64l137.8-53" stroke="#999" stroke-width="2" fill="none"/><path d="M223.32 420.57l-1.38.53.06-1.07-.04-1.1.64-.23z" fill="#999"/><path d="M374.98 361.16l-11.65 9.45-3.33-8.64z" stroke="#999" stroke-width="2" fill="#999"/><path d="M220.74 433.54l139.5 41.22" stroke="#999" stroke-width="2" fill="none"/><path d="M221.05 432.6l-.57 1.9-1-.3.6-1.9z" fill="#999"/><path d="M374.9 479.08l-15 .4 2.63-8.88z" stroke="#999" stroke-width="2" fill="#999"/><path d="M222.66 419.24l143.22-165.26" stroke="#999" stroke-width="2" fill="none"/><path d="M223.43 419.88l-1.53 1.76.1-1.6-.05-1.44z" fill="#999"/><path d="M375.88 242.45l-5.84 13.8-7-6.06z" stroke="#999" stroke-width="2" fill="#999"/><path d="M222.46 419.1l147-282.68" stroke="#999" stroke-width="2" fill="none"/><path d="M223.36 419.55l-1.5 2.9.14-2.42-.04-1.2z" fill="#999"/><path d="M376.5 122.87l-2.46 14.8-8.23-4.28z" stroke="#999" stroke-width="2" fill="#999"/><path d="M222.66 300.76l143.22 165.26" stroke="#999" stroke-width="2" fill="none"/><path d="M223.43 300.12l-1.5 1.3h-.02l.1-1.4-.05-1.6z" fill="#999"/><path d="M375.88 477.55l-12.85-7.74 7-6.06z" stroke="#999" stroke-width="2" fill="#999"/><path d="M222.93 300.36l137.8 53" stroke="#999" stroke-width="2" fill="none"/><path d="M223.32 299.43l-.72 1.87-.66-.25.06-1.02-.04-1.12z" fill="#999"/><path d="M374.98 358.84l-14.98-.8 3.33-8.65z" stroke="#999" stroke-width="2" fill="#999"/><path d="M222.93 299.64l137.8-53" stroke="#999" stroke-width="2" fill="none"/><path d="M223.32 300.57l-1.38.53.06-1.07-.04-1.1.64-.23z" fill="#999"/><path d="M374.98 241.16l-11.65 9.45-3.33-8.64z" stroke="#999" stroke-width="2" fill="#999"/><path d="M222.66 299.24l143.22-165.26" stroke="#999" stroke-width="2" fill="none"/><path d="M223.43 299.88l-1.53 1.76.1-1.6-.05-1.44z" fill="#999"/><path d="M375.88 122.45l-5.84 13.8-7-6.06z" stroke="#999" stroke-width="2" fill="#999"/><path d="M222.46 180.9l147 282.68" stroke="#999" stroke-width="2" fill="none"/><path d="M223.36 180.45l-1.43.74.07-1.17-.08-2.36z" fill="#999"/><path d="M376.5 477.13l-10.7-10.52 8.24-4.27z" stroke="#999" stroke-width="2" fill="#999"/><path d="M222.66 180.76l143.22 165.26" stroke="#999" stroke-width="2" fill="none"/><path d="M223.43 180.12l-1.5 1.3h-.02l.1-1.4-.05-1.6z" fill="#999"/><path d="M375.88 357.55l-12.85-7.74 7-6.06z" stroke="#999" stroke-width="2" fill="#999"/><path d="M222.93 180.36l137.8 53" stroke="#999" stroke-width="2" fill="none"/><path d="M223.32 179.43l-.72 1.87-.66-.25.06-1.02-.04-1.12z" fill="#999"/><path d="M374.98 238.84l-14.98-.8 3.33-8.65z" stroke="#999" stroke-width="2" fill="#999"/><path d="M222.93 179.64l137.8-53" stroke="#999" stroke-width="2" fill="none"/><path d="M223.32 180.57l-1.38.53.06-1.07-.04-1.1.64-.23z" fill="#999"/><path d="M374.98 121.16l-11.65 9.45-3.33-8.64z" stroke="#999" stroke-width="2" fill="#999"/><path d="M462.75 120.66l121.38 107.1" stroke="#999" stroke-width="2" fill="none"/><path d="M463.43 119.93l-1.32 1.5-.18-.16.08-1.24-.05-1.4z" fill="#999"/><path d="M595.57 237.86l-13.76-5.96 6.14-6.96z" stroke="#999" stroke-width="2" fill="#999"/><path d="M462.5 120.87L588.87 343.9" stroke="#999" stroke-width="2" fill="none"/><path d="M463.38 120.4l-1.45.82.07-1.2-.08-2.18z" fill="#999"/><path d="M596.4 357.18l-11.06-10.12 8.06-4.57z" stroke="#999" stroke-width="2" fill="#999"/><path d="M463 240h116.5" stroke="#999" stroke-width="2" fill="none"/><path d="M463.03 241h-1.1l.07-.97-.03-1.03h1.06z" fill="#999"/><path d="M594.76 240l-14.26 4.64v-9.28z" stroke="#999" stroke-width="2" fill="#999"/><path d="M462.75 240.66l121.38 107.1" stroke="#999" stroke-width="2" fill="none"/><path d="M463.43 239.93l-1.32 1.5-.18-.16.08-1.24-.05-1.4z" fill="#999"/><path d="M595.57 357.86l-13.76-5.96 6.14-6.96z" stroke="#999" stroke-width="2" fill="#999"/><path d="M462.75 359.34l121.38-107.1" stroke="#999" stroke-width="2" fill="none"/><path d="M463.43 360.07l-1.5 1.34.07-1.37-.04-1.32.15-.13z" fill="#999"/><path d="M595.57 242.14l-7.63 12.92-6.13-6.96z" stroke="#999" stroke-width="2" fill="#999"/><path d="M463 360h116.5" stroke="#999" stroke-width="2" fill="none"/><path d="M463.03 361h-1.1l.07-.97-.03-1.03h1.06z" fill="#999"/><path d="M594.76 360l-14.26 4.64v-9.28z" stroke="#999" stroke-width="2" fill="#999"/><path d="M462.75 479.34l121.38-107.1" stroke="#999" stroke-width="2" fill="none"/><path d="M463.43 480.07l-1.5 1.34.07-1.37-.04-1.32.15-.13z" fill="#999"/><path d="M595.57 362.14l-7.63 12.92-6.13-6.96z" stroke="#999" stroke-width="2" fill="#999"/><path d="M462.5 479.13L588.87 256.1" stroke="#999" stroke-width="2" fill="none"/><path d="M463.38 479.6l-1.52 2.67.14-2.24-.04-1.23z" fill="#999"/><path d="M596.4 242.82l-3 14.7-8.06-4.58z" stroke="#999" stroke-width="2" fill="#999"/><path d="M222.66 419.24l143.22-165.26" stroke="#999" stroke-width="2" fill="none"/><path d="M223.43 419.88l-1.53 1.76.1-1.6-.05-1.44z" fill="#999"/><path d="M375.88 242.45l-5.84 13.8-7-6.06z" stroke="#999" stroke-width="2" fill="#999"/><path d="M300 533h240v74H300z" stroke="#000" stroke-opacity="0" stroke-width="2" fill="#fff" fill-opacity="0"/><use xlink:href="#a" transform="matrix(1,0,0,1,305,538) translate(36.55555555555554 37.333333333333336)"/><use xlink:href="#b" transform="matrix(1,0,0,1,305,538) translate(147.59259259259258 37.333333333333336)"/><path d="M540 533h240v74H540z" stroke="#000" stroke-opacity="0" stroke-width="2" fill="#fff" fill-opacity="0"/><use xlink:href="#c" transform="matrix(1,0,0,1,545,538) translate(48.40740740740739 37.333333333333336)"/><use xlink:href="#d" transform="matrix(1,0,0,1,545,538) translate(135.74074074074073 37.333333333333336)"/><path d="M60 533h240v74H60z" stroke="#000" stroke-opacity="0" stroke-width="2" fill="#fff" fill-opacity="0"/><use xlink:href="#e" transform="matrix(1,0,0,1,65,538) translate(49.185185185185176 37.333333333333336)"/><use xlink:href="#f" transform="matrix(1,0,0,1,65,538) translate(134.96296296296296 37.333333333333336)"/><path d="M-60 260H60v74H-60z" stroke="#000" stroke-opacity="0" stroke-width="2" fill="#fff" fill-opacity="0"/><use xlink:href="#g" transform="matrix(1,0,0,1,-55,265) translate(27.629629629629626 37.333333333333336)"/><path d="M760 260h120v74H760z" stroke="#000" stroke-opacity="0" stroke-width="2" fill="#fff" fill-opacity="0"/><use xlink:href="#h" transform="matrix(1,0,0,1,765,265) translate(26.851851851851848 37.333333333333336)"/><path d="M220 80h120v74H220z" stroke="#000" stroke-opacity="0" stroke-width="2" fill="#fff" fill-opacity="0"/><use xlink:href="#i" transform="matrix(1,0,0,1,225,85) translate(16.55555555555555 37.333333333333336)"/><path d="M500 80h120v74H500z" stroke="#000" stroke-opacity="0" stroke-width="2" fill="#fff" fill-opacity="0"/><g><use xlink:href="#i" transform="matrix(1,0,0,1,505,85) translate(16.55555555555555 37.333333333333336)"/></g><defs><path d="M169-182c-1-43-94-46-97-3 18 66 151 10 154 114 3 95-165 93-204 36-6-8-10-19-12-30l50-8c3 46 112 56 116 5-17-69-150-10-154-114-4-87 153-88 188-35 5 8 8 18 10 28" id="j"/><path d="M147 0L96-86 75-71V0H25v-261h50v150l67-79h53l-66 74L201 0h-54" id="k"/><path d="M135-150c-39-12-60 13-60 57V0H25l-1-190h47c2 13-1 29 3 40 6-28 27-53 61-41v41" id="l"/><path d="M25-224v-37h50v37H25zM25 0v-190h50V0H25" id="m"/><path d="M128 0H69L1-190h53L99-40l48-150h52" id="n"/><path d="M185-48c-13 30-37 53-82 52C43 2 14-33 14-96s30-98 90-98c62 0 83 45 84 108H66c0 31 8 55 39 56 18 0 30-7 34-22zm-45-69c5-46-57-63-70-21-2 6-4 13-4 21h74" id="o"/><path d="M135-194c87-1 58 113 63 194h-50c-7-57 23-157-34-157-59 0-34 97-39 157H25l-1-190h47c2 12-1 28 3 38 12-26 28-41 61-42" id="p"/><g id="a"><use transform="matrix(0.07407407407407408,0,0,0.07407407407407408,0,0)" xlink:href="#j"/><use transform="matrix(0.07407407407407408,0,0,0.07407407407407408,17.77777777777778,0)" xlink:href="#k"/><use transform="matrix(0.07407407407407408,0,0,0.07407407407407408,32.592592592592595,0)" xlink:href="#l"/><use transform="matrix(0.07407407407407408,0,0,0.07407407407407408,42.96296296296297,0)" xlink:href="#m"/><use transform="matrix(0.07407407407407408,0,0,0.07407407407407408,50.370370370370374,0)" xlink:href="#n"/><use transform="matrix(0.07407407407407408,0,0,0.07407407407407408,65.18518518518519,0)" xlink:href="#o"/><use transform="matrix(0.07407407407407408,0,0,0.07407407407407408,80,0)" xlink:href="#p"/><use transform="matrix(0.07407407407407408,0,0,0.07407407407407408,96.22222222222223,0)" xlink:href="#m"/></g><path d="M137-138c1-29-70-34-71-4 15 46 118 7 119 86 1 83-164 76-172 9l43-7c4 19 20 25 44 25 33 8 57-30 24-41C81-84 22-81 20-136c-2-80 154-74 161-7" id="q"/><path d="M25 0v-261h50V0H25" id="r"/><path d="M110-194c64 0 96 36 96 99 0 64-35 99-97 99-61 0-95-36-95-99 0-62 34-99 96-99zm-1 164c35 0 45-28 45-65 0-40-10-65-43-65-34 0-45 26-45 65 0 36 10 65 43 65" id="s"/><path d="M25-224v-37h50v37H25zM75 22c2 45-34 59-81 51V38c22 5 31-5 31-27v-201h50V22" id="t"/><g id="b"><use transform="matrix(0.07407407407407408,0,0,0.07407407407407408,0,0)" xlink:href="#q"/><use transform="matrix(0.07407407407407408,0,0,0.07407407407407408,14.814814814814817,0)" xlink:href="#r"/><use transform="matrix(0.07407407407407408,0,0,0.07407407407407408,22.222222222222225,0)" xlink:href="#s"/><use transform="matrix(0.07407407407407408,0,0,0.07407407407407408,38.44444444444445,0)" xlink:href="#t"/></g><path fill="#ef8d22" d="M24 0v-248h52V0H24" id="u"/><path fill="#ef8d22" d="M12 0v-35l95-120H19v-35h142v35L67-36h103V0H12" id="v"/><path fill="#ef8d22" d="M25 0v-261h50V0H25" id="w"/><path fill="#ef8d22" d="M133-34C117-15 103 5 69 4 32 3 11-16 11-54c-1-60 55-63 116-61 1-26-3-47-28-47-18 1-26 9-28 27l-52-2c7-38 36-58 82-57s74 22 75 68l1 82c-1 14 12 18 25 15v27c-30 8-71 5-69-32zm-48 3c29 0 43-24 42-57-32 0-66-3-65 30 0 17 8 27 23 27" id="x"/><path fill="#ef8d22" d="M135-194c87-1 58 113 63 194h-50c-7-57 23-157-34-157-59 0-34 97-39 157H25l-1-190h47c2 12-1 28 3 38 12-26 28-41 61-42" id="y"/><path fill="#ef8d22" d="M25-224v-37h50v37H25zM25 0v-190h50V0H25" id="z"/><g id="c"><use transform="matrix(0.07407407407407408,0,0,0.07407407407407408,0,0)" xlink:href="#u"/><use transform="matrix(0.07407407407407408,0,0,0.07407407407407408,7.407407407407408,0)" xlink:href="#v"/><use transform="matrix(0.07407407407407408,0,0,0.07407407407407408,20.740740740740744,0)" xlink:href="#w"/><use transform="matrix(0.07407407407407408,0,0,0.07407407407407408,28.148148148148152,0)" xlink:href="#x"/><use transform="matrix(0.07407407407407408,0,0,0.07407407407407408,42.96296296296297,0)" xlink:href="#v"/><use transform="matrix(0.07407407407407408,0,0,0.07407407407407408,56.296296296296305,0)" xlink:href="#y"/><use transform="matrix(0.07407407407407408,0,0,0.07407407407407408,72.51851851851853,0)" xlink:href="#z"/></g><path fill="#ef8d22" d="M137-138c1-29-70-34-71-4 15 46 118 7 119 86 1 83-164 76-172 9l43-7c4 19 20 25 44 25 33 8 57-30 24-41C81-84 22-81 20-136c-2-80 154-74 161-7" id="A"/><path fill="#ef8d22" d="M110-194c64 0 96 36 96 99 0 64-35 99-97 99-61 0-95-36-95-99 0-62 34-99 96-99zm-1 164c35 0 45-28 45-65 0-40-10-65-43-65-34 0-45 26-45 65 0 36 10 65 43 65" id="B"/><path fill="#ef8d22" d="M25-224v-37h50v37H25zM75 22c2 45-34 59-81 51V38c22 5 31-5 31-27v-201h50V22" id="C"/><g id="d"><use transform="matrix(0.07407407407407408,0,0,0.07407407407407408,0,0)" xlink:href="#A"/><use transform="matrix(0.07407407407407408,0,0,0.07407407407407408,14.814814814814817,0)" xlink:href="#w"/><use transform="matrix(0.07407407407407408,0,0,0.07407407407407408,22.222222222222225,0)" xlink:href="#B"/><use transform="matrix(0.07407407407407408,0,0,0.07407407407407408,38.44444444444445,0)" xlink:href="#C"/></g><path fill="#0c7cba" d="M238-95c0 69-44 99-111 99C63 4 22-25 22-93v-155h51v151c-1 38 19 59 55 60 90 1 49-130 58-211h52v153" id="D"/><path fill="#0c7cba" d="M25 0v-261h50V0H25" id="E"/><path fill="#0c7cba" d="M133-34C117-15 103 5 69 4 32 3 11-16 11-54c-1-60 55-63 116-61 1-26-3-47-28-47-18 1-26 9-28 27l-52-2c7-38 36-58 82-57s74 22 75 68l1 82c-1 14 12 18 25 15v27c-30 8-71 5-69-32zm-48 3c29 0 43-24 42-57-32 0-66-3-65 30 0 17 8 27 23 27" id="F"/><path fill="#0c7cba" d="M12 0v-35l95-120H19v-35h142v35L67-36h103V0H12" id="G"/><path fill="#0c7cba" d="M135-194c87-1 58 113 63 194h-50c-7-57 23-157-34-157-59 0-34 97-39 157H25l-1-190h47c2 12-1 28 3 38 12-26 28-41 61-42" id="H"/><path fill="#0c7cba" d="M25-224v-37h50v37H25zM25 0v-190h50V0H25" id="I"/><g id="e"><use transform="matrix(0.07407407407407408,0,0,0.07407407407407408,0,0)" xlink:href="#D"/><use transform="matrix(0.07407407407407408,0,0,0.07407407407407408,19.185185185185187,0)" xlink:href="#E"/><use transform="matrix(0.07407407407407408,0,0,0.07407407407407408,26.592592592592595,0)" xlink:href="#F"/><use transform="matrix(0.07407407407407408,0,0,0.07407407407407408,41.40740740740741,0)" xlink:href="#G"/><use transform="matrix(0.07407407407407408,0,0,0.07407407407407408,54.74074074074075,0)" xlink:href="#H"/><use transform="matrix(0.07407407407407408,0,0,0.07407407407407408,70.96296296296298,0)" xlink:href="#I"/></g><path fill="#0c7cba" d="M137-138c1-29-70-34-71-4 15 46 118 7 119 86 1 83-164 76-172 9l43-7c4 19 20 25 44 25 33 8 57-30 24-41C81-84 22-81 20-136c-2-80 154-74 161-7" id="J"/><path fill="#0c7cba" d="M110-194c64 0 96 36 96 99 0 64-35 99-97 99-61 0-95-36-95-99 0-62 34-99 96-99zm-1 164c35 0 45-28 45-65 0-40-10-65-43-65-34 0-45 26-45 65 0 36 10 65 43 65" id="K"/><path fill="#0c7cba" d="M25-224v-37h50v37H25zM75 22c2 45-34 59-81 51V38c22 5 31-5 31-27v-201h50V22" id="L"/><g id="f"><use transform="matrix(0.07407407407407408,0,0,0.07407407407407408,0,0)" xlink:href="#J"/><use transform="matrix(0.07407407407407408,0,0,0.07407407407407408,14.814814814814817,0)" xlink:href="#E"/><use transform="matrix(0.07407407407407408,0,0,0.07407407407407408,22.222222222222225,0)" xlink:href="#K"/><use transform="matrix(0.07407407407407408,0,0,0.07407407407407408,38.44444444444445,0)" xlink:href="#L"/></g><path d="M238-95c0 69-44 99-111 99C63 4 22-25 22-93v-155h51v151c-1 38 19 59 55 60 90 1 49-130 58-211h52v153" id="M"/><path d="M133-34C117-15 103 5 69 4 32 3 11-16 11-54c-1-60 55-63 116-61 1-26-3-47-28-47-18 1-26 9-28 27l-52-2c7-38 36-58 82-57s74 22 75 68l1 82c-1 14 12 18 25 15v27c-30 8-71 5-69-32zm-48 3c29 0 43-24 42-57-32 0-66-3-65 30 0 17 8 27 23 27" id="N"/><path d="M12 0v-35l95-120H19v-35h142v35L67-36h103V0H12" id="O"/><g id="g"><use transform="matrix(0.07407407407407408,0,0,0.07407407407407408,0,0)" xlink:href="#M"/><use transform="matrix(0.07407407407407408,0,0,0.07407407407407408,19.185185185185187,0)" xlink:href="#r"/><use transform="matrix(0.07407407407407408,0,0,0.07407407407407408,26.592592592592595,0)" xlink:href="#N"/><use transform="matrix(0.07407407407407408,0,0,0.07407407407407408,41.40740740740741,0)" xlink:href="#O"/></g><path d="M24 0v-248h52V0H24" id="P"/><g id="h"><use transform="matrix(0.07407407407407408,0,0,0.07407407407407408,0,0)" xlink:href="#P"/><use transform="matrix(0.07407407407407408,0,0,0.07407407407407408,7.407407407407408,0)" xlink:href="#O"/><use transform="matrix(0.07407407407407408,0,0,0.07407407407407408,20.740740740740744,0)" xlink:href="#r"/><use transform="matrix(0.07407407407407408,0,0,0.07407407407407408,28.148148148148152,0)" xlink:href="#N"/><use transform="matrix(0.07407407407407408,0,0,0.07407407407407408,42.96296296296297,0)" xlink:href="#O"/></g><path d="M127-220V0H93v-220H8v-28h204v28h-85" id="Q"/><path d="M100-194c63 0 86 42 84 106H49c0 40 14 67 53 68 26 1 43-12 49-29l28 8c-11 28-37 45-77 45C44 4 14-33 15-96c1-61 26-98 85-98zm52 81c6-60-76-77-97-28-3 7-6 17-6 28h103" id="R"/><path d="M9 0v-24l116-142H16v-24h144v24L44-24h123V0H9zm95-211H68c-13-18-31-30-41-51 32-2 39 20 59 30 19-10 26-32 57-30-9 21-27 33-39 51" id="S"/><path d="M24-231v-30h32v30H24zM24 0v-190h32V0H24" id="T"/><path d="M117-194c89-4 53 116 60 194h-32v-121c0-31-8-49-39-48C34-167 62-67 57 0H25l-1-190h30c1 10-1 24 2 32 11-22 29-35 61-36" id="U"/><g id="i"><use transform="matrix(0.07407407407407408,0,0,0.07407407407407408,0,0)" xlink:href="#Q"/><use transform="matrix(0.07407407407407408,0,0,0.07407407407407408,13.259259259259261,0)" xlink:href="#R"/><use transform="matrix(0.07407407407407408,0,0,0.07407407407407408,28.074074074074076,0)" xlink:href="#S"/><use transform="matrix(0.07407407407407408,0,0,0.07407407407407408,41.40740740740741,0)" xlink:href="#T"/><use transform="matrix(0.07407407407407408,0,0,0.07407407407407408,47.25925925925927,0)" xlink:href="#U"/><use transform="matrix(0.07407407407407408,0,0,0.07407407407407408,62.07407407407408,0)" xlink:href="#R"/></g></defs></g></svg>