<svg xmlns="http://www.w3.org/2000/svg" xmlns:xlink="http://www.w3.org/1999/xlink" xmlns:lucid="lucid" width="932" height="591"><g transform="translate(-3708 -115)" lucid:page-tab-id="0_0"><path d="M3960 340c0 22.1-17.9 40-40 40s-40-17.9-40-40 17.9-40 40-40 40 17.9 40 40z" stroke="#0c7cba" stroke-width="4" fill="#fff"/><use xlink:href="#a" transform="matrix(1,0,0,1,3885,305) translate(19.03395061728395 38.111111111111114)"/><path d="M4208.64 500c0 22.1-17.9 40-40 40s-40-17.9-40-40 17.9-40 40-40 40 17.9 40 40z" stroke="#834187" stroke-width="4" fill="#fff"/><use xlink:href="#b" transform="matrix(1,0,0,1,4133.639810488298,465) translate(0.9722222222222214 28.777777777777775)"/><use xlink:href="#c" transform="matrix(1,0,0,1,4133.639810488298,465) translate(8.728395061728392 47.44444444444444)"/><path d="M4431.62 340c0 22.1-17.9 40-40 40s-40-17.9-40-40 17.9-40 40-40 40 17.9 40 40z" stroke="#ef8d22" stroke-width="4" fill="#fff"/><use xlink:href="#d" transform="matrix(1,0,0,1,4356.621320807693,305) translate(16 38.6)"/><path d="M4208.64 340c0 22.1-17.9 40-40 40s-40-17.9-40-40 17.9-40 40-40 40 17.9 40 40z" stroke="#000" stroke-width="4" fill="#fff"/><use xlink:href="#e" transform="matrix(1,0,0,1,4133.639810488298,305) translate(6.935185185185183 28.777777777777775)"/><use xlink:href="#f" transform="matrix(1,0,0,1,4133.639810488298,305) translate(8.728395061728392 47.44444444444444)"/><path d="M3859.5 340H3801" stroke="#999" stroke-width="2" fill="none"/><path d="M3874.76 340l-14.26 4.64v-9.28z" stroke="#999" stroke-width="2" fill="#999"/><path d="M3801.03 340H3800M4434.62 340h66.88" stroke="#999" stroke-width="2" fill="none"/><path d="M4434.65 341h-1.1l.07-.97-.03-1.03h1.05z" fill="#999"/><path d="M4516.76 340l-14.26 4.64v-9.28z" stroke="#999" stroke-width="2" fill="#999"/><path d="M3963 340h145.14" stroke="#999" stroke-width="2" fill="none"/><path d="M3963.03 341h-1.1l.07-.97-.03-1.03h1.06z" fill="#999"/><path d="M4123.4 340l-14.26 4.64v-9.28z" stroke="#999" stroke-width="2" fill="#999"/><path d="M4211.64 340h119.48" stroke="#999" stroke-width="2" fill="none"/><path d="M4211.67 341h-1.1l.07-.97-.03-1.03h1.07z" fill="#999"/><path d="M4346.38 340l-14.26 4.64v-9.28z" stroke="#999" stroke-width="2" fill="#999"/><path d="M4125.64 499.85l-10.1-1.48-10.08-1.92-9.15-2.14-8.3-2.3-7.56-2.45-6.85-2.55-6.23-2.6-5.65-2.66-5.12-2.68-4.65-2.68-4.22-2.67-3.83-2.65-3.47-2.64-3.16-2.6-2.85-2.56-2.6-2.53-2.33-2.48-2.13-2.46-1.92-2.4-1.72-2.38-1.56-2.34-1.4-2.3-1.24-2.26-1.1-2.24-1-2.2-.85-2.17-.75-2.15-.64-2.13-.55-2.1-.45-2.1-.35-2.07-.26-2.06-.18-2.05-.1-2.04v-2.04l.1-2.04.17-2.04.25-2.04.34-2.05.43-2.06.53-2.07.63-2.1.73-2.1.84-2.12.95-2.14 1.1-2.18 1.2-2.2 1.35-2.25 1.5-2.27 1.7-2.3 1.85-2.36 2.06-2.4 2.28-2.42 2.53-2.47 2.78-2.5 3.08-2.55 3.42-2.6 3.77-2.62 4.2-2.66 4.63-2.68 5.15-2.7 5.72-2.7 6.36-2.66 7.1-2.64 7.88-2.56 8.8-2.45 9.82-2.32 1.8-.34" stroke="#999" stroke-width="2" fill="none"/><path d="M4126.7 499l-.06.97.03 1.05-1.2-.18.3-1.98z" fill="#999"/><path d="M4123.45 340.55l-13.27 7-1.58-9.15z" stroke="#999" stroke-width="2" fill="#999"/><path d="M4434.6 340.22l2.1.48 2.97.83 2.88.94 2.8 1.04 2.7 1.17 2.62 1.26 2.55 1.37 2.46 1.47 2.38 1.57 2.3 1.67 2.23 1.78 2.13 1.86 2.06 1.96 1.96 2.05 1.9 2.15 1.78 2.23 1.7 2.32 1.6 2.4 1.48 2.48 1.4 2.55 1.26 2.6 1.16 2.7 1.04 2.72.92 2.78.8 2.8.66 2.86.54 2.88.4 2.9.3 2.9.14 2.9.02 2.9-.1 2.9-.25 2.9-.36 2.86-.5 2.84-.6 2.83-.76 2.8-.87 2.76-1 2.74-1.1 2.7-1.27 2.68-1.38 2.63-1.52 2.6-1.66 2.57-1.8 2.53-1.94 2.5-2.1 2.44-2.26 2.4-1.67 1.67-2.44 2.25-2.72 2.3-3.04 2.37-3.42 2.43-3.86 2.5-4.38 2.6-5 2.7-5.74 2.78-6.66 2.9-7.78 3-9.17 3.08-10.93 3.2-13.14 3.23-16.02 3.25-19.76 3.15-24.75 2.88-31.4 2.32-40.24 1.3-25.12-.18" stroke="#999" stroke-width="2" fill="none"/><path d="M4434.85 339.25l-.45 1.95-.84-.2.06-.97-.03-1.06z" fill="#999"/><path d="M4213.88 500.02l14.3-4.54-.07 9.27z" stroke="#999" stroke-width="2" fill="#999"/><path d="M4020 310.42h29.1V334H4020z" fill="#fff" fill-opacity="0"/><path d="M4030.05 314.26l.44 2.12c2.6-4 3.98-5.33 5.62-5.33.9 0 1.53.56 1.53 1.38 0 .8-.52 1.34-1.26 1.34-.72 0-1.06-.63-1.95-.63-.67 0-2.02 1.64-3.66 4.5 0 .27.07.8.3 1.7l1.18 5c.27 1.03.6 1.5 1.12 1.5.5 0 .9-.36 1.75-1.48.34-.45.5-.67.8-1.04l.55.33c-2.17 3.36-3.13 4.25-4.55 4.25-1.2 0-1.75-.67-2.2-2.53l-1.08-4.44-3.28 4.44c-1.65 2.2-2.4 2.53-3.55 2.53-1.16 0-1.87-.6-1.87-1.56 0-.75.52-1.34 1.27-1.34.33 0 .7.15 1.2.4.36.23.74.34.96.34.42 0 1.13-.7 1.9-1.83l3.07-4.3-1.04-4.63c-.53-2.24-.8-2.54-1.72-2.54-.3 0-.73.08-1.44.26l-.67.18-.13-.6.4-.15c2.3-.82 3.52-1.08 4.38-1.08.93 0 1.38.67 1.9 3.2M4045.35 321.83l-.14.84h-2.2l-2.3 8.65-.05.37c0 .33.16.4.4.4.42 0 .84-.4 2.13-2.08l.35.2c-1.58 2.4-2.4 3.18-3.77 3.18-.7 0-1.2-.32-1.2-.98 0-.3.2-1.1.4-1.95l2.06-7.8h-1.97c-.03-.08-.03-.16-.03-.16 0-.28.24-.52.87-.65.83-.18 2.55-1.47 3.5-2.9.1-.16.26-.23.36-.23.16 0 .24.07.24.2 0 0 0 .14-.02.2l-.74 2.7h2.1"/><path d="M4265.17 303.15h30.06v32.45h-30.06z" fill="#fff" fill-opacity="0"/><path d="M4282.42 324.75l.5.48c-2.28 3.23-3.54 4.23-5.43 4.23-1 0-1.64-.6-1.64-1.56 0-.44.26-1.6.74-3.4l2.04-7.7c.15-.6.26-1.07.26-1.22 0-.55-.2-.92-1.04-.92-1.34 0-3.7 2.26-5.64 5.2-1.5 2.25-2.08 3.55-3.56 9.27h-2.8l5.43-20.56c.3-1.15.47-1.78.47-2.3 0-.63-.85-.93-1.52-.93h-1v-.56c2.23-.26 3.67-.52 5.83-1l.26.22-4.5 16.6c3.35-5.43 6.24-7.84 8.54-7.84 1.7 0 2.4 1.12 2.4 2.5 0 .92-.65 3.66-1.77 7.15-.62 1.94-1.2 4.24-1.2 4.65 0 .37.25.67.58.67.6 0 1.04-.45 3.04-2.97M4291.5 323.5l-.14.83h-2.2l-2.3 8.6-.04.37c0 .34.15.42.4.42.4 0 .83-.42 2.12-2.07l.34.18c-1.58 2.4-2.4 3.18-3.76 3.18-.7 0-1.2-.3-1.2-.97 0-.28.2-1.1.42-1.94l2.04-7.77h-1.96c-.03-.08-.03-.16-.03-.16 0-.3.23-.53.86-.66.84-.17 2.54-1.46 3.5-2.87.1-.16.25-.24.35-.24.17 0 .25.07.25.2 0 0 0 .13-.03.18l-.73 2.7h2.1"/><path d="M4461.3 310.42h29v25.4h-29z" fill="#fff" fill-opacity="0"/><path d="M4471.25 320.56l.78 4.1c3.17-5.26 4.55-7.94 4.55-9.58 0-.52-.26-.75-.97-1.2-.73-.48-.96-.85-.96-1.45 0-.82.64-1.38 1.5-1.38 1.1 0 1.93.93 1.93 2.05 0 2.13-1.8 6.23-4.88 11.37-3.9 6.42-7.88 10.7-10 10.7-1.12 0-1.9-.63-1.9-1.6 0-.82.63-1.5 1.45-1.5 1.3 0 1.3 1.05 2.27 1.05.5 0 .94-.3 1.8-1.23.66-.72 2.34-2.9 2.64-3.4.22-.45.37-.9.37-1.3 0-1.5-2.05-9.85-3.05-12.38-.7-1.83-1.38-2.4-2.87-2.4-.4 0-.74.05-1.15.16v-.63l1.2-.23c.74-.15 1.97-.37 3.98-.67h.15c.56 0 2.54 6.2 3.17 9.5M4486.55 321.83l-.13.84h-2.22l-2.3 8.65-.04.37c0 .33.15.4.4.4.4 0 .84-.4 2.13-2.08l.33.2c-1.58 2.4-2.4 3.18-3.77 3.18-.7 0-1.2-.32-1.2-.98 0-.3.2-1.1.4-1.95l2.07-7.8h-1.98c-.03-.08-.03-.16-.03-.16 0-.28.24-.52.87-.65.84-.18 2.55-1.47 3.5-2.9.1-.16.26-.23.37-.23.16 0 .23.07.23.2 0 0 0 .14-.02.2l-.74 2.7h2.1"/><path d="M4320 507.6h29V533h-29z" fill="#fff" fill-opacity="0"/><path d="M4329.94 517.75l.78 4.1c3.17-5.25 4.55-7.94 4.55-9.58 0-.52-.26-.75-.97-1.2-.75-.48-.97-.85-.97-1.45 0-.82.63-1.38 1.5-1.38 1.1 0 1.93.94 1.93 2.05 0 2.12-1.8 6.22-4.9 11.37-3.86 6.4-7.85 10.7-9.98 10.7-1.12 0-1.9-.64-1.9-1.6 0-.83.64-1.5 1.46-1.5 1.3 0 1.3 1.04 2.27 1.04.5 0 .94-.28 1.8-1.22.67-.7 2.35-2.9 2.65-3.4.22-.44.37-.88.37-1.3 0-1.48-2.05-9.84-3.06-12.37-.7-1.82-1.38-2.38-2.87-2.38-.42 0-.75.04-1.16.15v-.63l1.2-.22c.73-.15 1.96-.38 3.98-.68h.15c.56 0 2.53 6.2 3.17 9.5M4345.23 519.02l-.13.84h-2.2l-2.3 8.65c-.03.1-.06.3-.06.38 0 .34.16.42.4.42.42 0 .84-.42 2.13-2.08l.35.18c-1.6 2.43-2.4 3.2-3.77 3.2-.72 0-1.22-.33-1.22-1 0-.28.2-1.1.42-1.94l2.06-7.8h-1.97l-.02-.16c0-.3.24-.52.88-.66.84-.18 2.55-1.47 3.5-2.9.1-.15.27-.23.37-.23.16 0 .24.1.24.22 0 0 0 .13-.04.18l-.73 2.72h2.1"/><path d="M4049.1 500h42.2v25.4h-42.2z" fill="#fff" fill-opacity="0"/><path d="M4059.04 510.14l.78 4.1c3.17-5.25 4.55-7.94 4.55-9.58 0-.52-.26-.74-.97-1.2-.74-.48-.97-.85-.97-1.45 0-.8.64-1.37 1.5-1.37 1.1 0 1.93.94 1.93 2.06 0 2.1-1.8 6.2-4.88 11.36-3.88 6.4-7.87 10.7-10 10.7-1.1 0-1.9-.64-1.9-1.6 0-.83.64-1.5 1.46-1.5 1.3 0 1.3 1.05 2.27 1.05.5 0 .95-.3 1.8-1.22.67-.7 2.35-2.9 2.65-3.4.22-.44.37-.9.37-1.3 0-1.5-2.05-9.84-3.05-12.38-.7-1.83-1.38-2.4-2.87-2.4-.4 0-.75.05-1.16.16v-.63l1.2-.22c.74-.14 1.97-.37 3.98-.67h.15c.56 0 2.54 6.2 3.17 9.5M4074.34 511.4l-.14.83h-2.2l-2.3 8.65c-.03.1-.06.3-.06.36 0 .35.16.43.4.43.42 0 .84-.43 2.13-2.1l.35.2c-1.58 2.42-2.4 3.2-3.77 3.2-.7 0-1.22-.33-1.22-1 0-.28.22-1.1.43-1.94l2.05-7.8h-1.96c-.03-.08-.03-.16-.03-.16 0-.3.25-.53.88-.66.84-.17 2.56-1.46 3.5-2.9.1-.15.27-.23.37-.23.16 0 .24.08.24.22 0 0 0 .12-.03.17l-.74 2.72h2.1M4084.72 522.67h-7.27v-.4c1.95-.1 2.5-.66 2.5-2.1v-11.84c0-.9-.24-1.3-.8-1.3-.25 0-.7.14-1.18.32l-.7.27v-.37l4.7-2.4.25.08v15.73c0 1.14.53 1.6 2.5 1.6v.4"/><defs><path fill="#0c7cba" d="M238-95c0 69-44 99-111 99C63 4 22-25 22-93v-155h51v151c-1 38 19 59 55 60 90 1 49-130 58-211h52v153" id="g"/><path fill="#0c7cba" d="M25 0v-261h50V0H25" id="h"/><path fill="#0c7cba" d="M133-34C117-15 103 5 69 4 32 3 11-16 11-54c-1-60 55-63 116-61 1-26-3-47-28-47-18 1-26 9-28 27l-52-2c7-38 36-58 82-57s74 22 75 68l1 82c-1 14 12 18 25 15v27c-30 8-71 5-69-32zm-48 3c29 0 43-24 42-57-32 0-66-3-65 30 0 17 8 27 23 27" id="i"/><path fill="#0c7cba" d="M12 0v-35l95-120H19v-35h142v35L67-36h103V0H12" id="j"/><g id="a"><use transform="matrix(0.04320987654320988,0,0,0.04320987654320988,0,0)" xlink:href="#g"/><use transform="matrix(0.04320987654320988,0,0,0.04320987654320988,11.19135802469136,0)" xlink:href="#h"/><use transform="matrix(0.04320987654320988,0,0,0.04320987654320988,15.512345679012347,0)" xlink:href="#i"/><use transform="matrix(0.04320987654320988,0,0,0.04320987654320988,24.154320987654323,0)" xlink:href="#j"/></g><path fill="#834187" d="M140-251c80 0 125 45 125 126S219 4 139 4C58 4 15-44 15-125s44-126 125-126zm-1 214c52 0 73-35 73-88 0-50-21-86-72-86-52 0-73 35-73 86s22 88 72 88" id="k"/><path fill="#834187" d="M88-194c31-1 46 15 58 34l-1-101h50l1 261h-48c-2-10 0-23-3-31C134-8 116 4 84 4 32 4 16-41 15-95c0-56 19-97 73-99zm17 164c33 0 40-30 41-66 1-37-9-64-41-64s-38 30-39 65c0 43 13 65 39 65" id="l"/><path fill="#834187" d="M195-6C206 82 75 100 31 46c-4-6-6-13-8-21l49-6c3 16 16 24 34 25 40 0 42-37 40-79-11 22-30 35-61 35-53 0-70-43-70-97 0-56 18-96 73-97 30 0 46 14 59 34l2-30h47zm-90-29c32 0 41-27 41-63 0-35-9-62-40-62-32 0-39 29-40 63 0 36 9 62 39 62" id="m"/><path fill="#834187" d="M110-194c64 0 96 36 96 99 0 64-35 99-97 99-61 0-95-36-95-99 0-62 34-99 96-99zm-1 164c35 0 45-28 45-65 0-40-10-65-43-65-34 0-45 26-45 65 0 36 10 65 43 65" id="n"/><path fill="#834187" d="M88-187c31-1 46 15 58 34l-1-54H95v-29h50v-25h50v25h23v29h-23l1 207h-47c-2-9-2-22-4-31C134-8 116 4 84 4 33 4 15-38 15-92c1-55 19-94 73-95zm17 157c32 0 40-29 41-63 1-35-10-61-41-61s-38 28-39 62c0 41 13 62 39 62" id="o"/><path fill="#834187" d="M185-48c-13 30-37 53-82 52C43 2 14-33 14-96s30-98 90-98c62 0 83 45 84 108H66c0 31 8 55 39 56 18 0 30-7 34-22zm-45-69c5-46-57-63-70-21-2 6-4 13-4 21h74" id="p"/><path fill="#834187" d="M135-194c87-1 58 113 63 194h-50c-7-57 23-157-34-157-59 0-34 97-39 157H25l-1-190h47c2 12-1 28 3 38 12-26 28-41 61-42" id="q"/><g id="b"><use transform="matrix(0.04320987654320988,0,0,0.04320987654320988,0,0)" xlink:href="#k"/><use transform="matrix(0.04320987654320988,0,0,0.04320987654320988,12.098765432098766,0)" xlink:href="#l"/><use transform="matrix(0.04320987654320988,0,0,0.04320987654320988,21.561728395061728,0)" xlink:href="#m"/><use transform="matrix(0.04320987654320988,0,0,0.04320987654320988,31.02469135802469,0)" xlink:href="#n"/><use transform="matrix(0.04320987654320988,0,0,0.04320987654320988,40.48765432098765,0)" xlink:href="#o"/><use transform="matrix(0.04320987654320988,0,0,0.04320987654320988,49.95061728395061,0)" xlink:href="#p"/><use transform="matrix(0.04320987654320988,0,0,0.04320987654320988,58.59259259259259,0)" xlink:href="#q"/></g><path fill="#834187" d="M85 4C-2 5 27-109 22-190h50c7 57-23 150 33 157 60-5 35-97 40-157h50l1 190h-47c-2-12 1-28-3-38-12 25-28 42-61 42" id="r"/><path fill="#834187" d="M135-150c-39-12-60 13-60 57V0H25l-1-190h47c2 13-1 29 3 40 6-28 27-53 61-41v41" id="s"/><g id="c"><use transform="matrix(0.04320987654320988,0,0,0.04320987654320988,0,0)" xlink:href="#q"/><use transform="matrix(0.04320987654320988,0,0,0.04320987654320988,9.462962962962964,0)" xlink:href="#p"/><use transform="matrix(0.04320987654320988,0,0,0.04320987654320988,18.10493827160494,0)" xlink:href="#r"/><use transform="matrix(0.04320987654320988,0,0,0.04320987654320988,27.567901234567906,0)" xlink:href="#s"/><use transform="matrix(0.04320987654320988,0,0,0.04320987654320988,33.61728395061729,0)" xlink:href="#n"/><use transform="matrix(0.04320987654320988,0,0,0.04320987654320988,43.080246913580254,0)" xlink:href="#q"/></g><path fill="#ef8d22" d="M24 0v-248h52V0H24" id="t"/><path fill="#ef8d22" d="M12 0v-35l95-120H19v-35h142v35L67-36h103V0H12" id="u"/><path fill="#ef8d22" d="M25 0v-261h50V0H25" id="v"/><path fill="#ef8d22" d="M133-34C117-15 103 5 69 4 32 3 11-16 11-54c-1-60 55-63 116-61 1-26-3-47-28-47-18 1-26 9-28 27l-52-2c7-38 36-58 82-57s74 22 75 68l1 82c-1 14 12 18 25 15v27c-30 8-71 5-69-32zm-48 3c29 0 43-24 42-57-32 0-66-3-65 30 0 17 8 27 23 27" id="w"/><g id="d"><use transform="matrix(0.05,0,0,0.05,0,0)" xlink:href="#t"/><use transform="matrix(0.05,0,0,0.05,5,0)" xlink:href="#u"/><use transform="matrix(0.05,0,0,0.05,14,0)" xlink:href="#v"/><use transform="matrix(0.05,0,0,0.05,19,0)" xlink:href="#w"/><use transform="matrix(0.05,0,0,0.05,29,0)" xlink:href="#u"/></g><path d="M169-182c-1-43-94-46-97-3 18 66 151 10 154 114 3 95-165 93-204 36-6-8-10-19-12-30l50-8c3 46 112 56 116 5-17-69-150-10-154-114-4-87 153-88 188-35 5 8 8 18 10 28" id="x"/><path d="M147 0L96-86 75-71V0H25v-261h50v150l67-79h53l-66 74L201 0h-54" id="y"/><path d="M135-150c-39-12-60 13-60 57V0H25l-1-190h47c2 13-1 29 3 40 6-28 27-53 61-41v41" id="z"/><path d="M25-224v-37h50v37H25zM25 0v-190h50V0H25" id="A"/><path d="M128 0H69L1-190h53L99-40l48-150h52" id="B"/><path d="M185-48c-13 30-37 53-82 52C43 2 14-33 14-96s30-98 90-98c62 0 83 45 84 108H66c0 31 8 55 39 56 18 0 30-7 34-22zm-45-69c5-46-57-63-70-21-2 6-4 13-4 21h74" id="C"/><path d="M135-194c87-1 58 113 63 194h-50c-7-57 23-157-34-157-59 0-34 97-39 157H25l-1-190h47c2 12-1 28 3 38 12-26 28-41 61-42" id="D"/><g id="e"><use transform="matrix(0.04320987654320988,0,0,0.04320987654320988,0,0)" xlink:href="#x"/><use transform="matrix(0.04320987654320988,0,0,0.04320987654320988,10.370370370370372,0)" xlink:href="#y"/><use transform="matrix(0.04320987654320988,0,0,0.04320987654320988,19.01234567901235,0)" xlink:href="#z"/><use transform="matrix(0.04320987654320988,0,0,0.04320987654320988,25.06172839506173,0)" xlink:href="#A"/><use transform="matrix(0.04320987654320988,0,0,0.04320987654320988,29.38271604938272,0)" xlink:href="#B"/><use transform="matrix(0.04320987654320988,0,0,0.04320987654320988,38.0246913580247,0)" xlink:href="#C"/><use transform="matrix(0.04320987654320988,0,0,0.04320987654320988,46.66666666666667,0)" xlink:href="#D"/></g><path d="M85 4C-2 5 27-109 22-190h50c7 57-23 150 33 157 60-5 35-97 40-157h50l1 190h-47c-2-12 1-28-3-38-12 25-28 42-61 42" id="E"/><path d="M110-194c64 0 96 36 96 99 0 64-35 99-97 99-61 0-95-36-95-99 0-62 34-99 96-99zm-1 164c35 0 45-28 45-65 0-40-10-65-43-65-34 0-45 26-45 65 0 36 10 65 43 65" id="F"/><g id="f"><use transform="matrix(0.04320987654320988,0,0,0.04320987654320988,0,0)" xlink:href="#D"/><use transform="matrix(0.04320987654320988,0,0,0.04320987654320988,9.462962962962964,0)" xlink:href="#C"/><use transform="matrix(0.04320987654320988,0,0,0.04320987654320988,18.10493827160494,0)" xlink:href="#E"/><use transform="matrix(0.04320987654320988,0,0,0.04320987654320988,27.567901234567906,0)" xlink:href="#z"/><use transform="matrix(0.04320987654320988,0,0,0.04320987654320988,33.61728395061729,0)" xlink:href="#F"/><use transform="matrix(0.04320987654320988,0,0,0.04320987654320988,43.080246913580254,0)" xlink:href="#D"/></g></defs></g></svg>