<?xml version="1.0" encoding="utf-8" standalone="no"?>
<!DOCTYPE svg PUBLIC "-//W3C//DTD SVG 1.1//EN"
  "http://www.w3.org/Graphics/SVG/1.1/DTD/svg11.dtd">
<!-- Created with matplotlib (https://matplotlib.org/) -->
<svg height="720pt" version="1.1" viewBox="0 0 1296 720" width="1296pt" xmlns="http://www.w3.org/2000/svg" xmlns:xlink="http://www.w3.org/1999/xlink">
 <defs>
  <style type="text/css">
*{stroke-linecap:butt;stroke-linejoin:round;}
  </style>
 </defs>
 <g id="figure_1">
  <g id="patch_1">
   <path d="M 0 720 
L 1296 720 
L 1296 0 
L 0 0 
z
" style="fill:#ffffff;"/>
  </g>
  <g id="axes_1">
   <g id="patch_2">
    <path d="M 75.53 658.6 
L 1276.2 658.6 
L 1276.2 37.68 
L 75.53 37.68 
z
" style="fill:#ffffff;"/>
   </g>
   <g id="matplotlib.axis_1">
    <g id="xtick_1">
     <g id="line2d_1">
      <defs>
       <path d="M 0 0 
L 0 3.5 
" id="m8a836ca647" style="stroke:#000000;stroke-width:0.8;"/>
      </defs>
      <g>
       <use style="stroke:#000000;stroke-width:0.8;" x="175.086054" xlink:href="#m8a836ca647" y="658.6"/>
      </g>
     </g>
     <g id="text_1">
      <!-- −350 -->
      <defs>
       <path d="M 10.59375 35.5 
L 73.1875 35.5 
L 73.1875 27.203125 
L 10.59375 27.203125 
z
" id="DejaVuSans-8722"/>
       <path d="M 40.578125 39.3125 
Q 47.65625 37.796875 51.625 33 
Q 55.609375 28.21875 55.609375 21.1875 
Q 55.609375 10.40625 48.1875 4.484375 
Q 40.765625 -1.421875 27.09375 -1.421875 
Q 22.515625 -1.421875 17.65625 -0.515625 
Q 12.796875 0.390625 7.625 2.203125 
L 7.625 11.71875 
Q 11.71875 9.328125 16.59375 8.109375 
Q 21.484375 6.890625 26.8125 6.890625 
Q 36.078125 6.890625 40.9375 10.546875 
Q 45.796875 14.203125 45.796875 21.1875 
Q 45.796875 27.640625 41.28125 31.265625 
Q 36.765625 34.90625 28.71875 34.90625 
L 20.21875 34.90625 
L 20.21875 43.015625 
L 29.109375 43.015625 
Q 36.375 43.015625 40.234375 45.921875 
Q 44.09375 48.828125 44.09375 54.296875 
Q 44.09375 59.90625 40.109375 62.90625 
Q 36.140625 65.921875 28.71875 65.921875 
Q 24.65625 65.921875 20.015625 65.03125 
Q 15.375 64.15625 9.8125 62.3125 
L 9.8125 71.09375 
Q 15.4375 72.65625 20.34375 73.4375 
Q 25.25 74.21875 29.59375 74.21875 
Q 40.828125 74.21875 47.359375 69.109375 
Q 53.90625 64.015625 53.90625 55.328125 
Q 53.90625 49.265625 50.4375 45.09375 
Q 46.96875 40.921875 40.578125 39.3125 
z
" id="DejaVuSans-51"/>
       <path d="M 10.796875 72.90625 
L 49.515625 72.90625 
L 49.515625 64.59375 
L 19.828125 64.59375 
L 19.828125 46.734375 
Q 21.96875 47.46875 24.109375 47.828125 
Q 26.265625 48.1875 28.421875 48.1875 
Q 40.625 48.1875 47.75 41.5 
Q 54.890625 34.8125 54.890625 23.390625 
Q 54.890625 11.625 47.5625 5.09375 
Q 40.234375 -1.421875 26.90625 -1.421875 
Q 22.3125 -1.421875 17.546875 -0.640625 
Q 12.796875 0.140625 7.71875 1.703125 
L 7.71875 11.625 
Q 12.109375 9.234375 16.796875 8.0625 
Q 21.484375 6.890625 26.703125 6.890625 
Q 35.15625 6.890625 40.078125 11.328125 
Q 45.015625 15.765625 45.015625 23.390625 
Q 45.015625 31 40.078125 35.4375 
Q 35.15625 39.890625 26.703125 39.890625 
Q 22.75 39.890625 18.8125 39.015625 
Q 14.890625 38.140625 10.796875 36.28125 
z
" id="DejaVuSans-53"/>
       <path d="M 31.78125 66.40625 
Q 24.171875 66.40625 20.328125 58.90625 
Q 16.5 51.421875 16.5 36.375 
Q 16.5 21.390625 20.328125 13.890625 
Q 24.171875 6.390625 31.78125 6.390625 
Q 39.453125 6.390625 43.28125 13.890625 
Q 47.125 21.390625 47.125 36.375 
Q 47.125 51.421875 43.28125 58.90625 
Q 39.453125 66.40625 31.78125 66.40625 
z
M 31.78125 74.21875 
Q 44.046875 74.21875 50.515625 64.515625 
Q 56.984375 54.828125 56.984375 36.375 
Q 56.984375 17.96875 50.515625 8.265625 
Q 44.046875 -1.421875 31.78125 -1.421875 
Q 19.53125 -1.421875 13.0625 8.265625 
Q 6.59375 17.96875 6.59375 36.375 
Q 6.59375 54.828125 13.0625 64.515625 
Q 19.53125 74.21875 31.78125 74.21875 
z
" id="DejaVuSans-48"/>
      </defs>
      <g transform="translate(153.112304 677.7575)scale(0.16 -0.16)">
       <use xlink:href="#DejaVuSans-8722"/>
       <use x="83.789062" xlink:href="#DejaVuSans-51"/>
       <use x="147.412109" xlink:href="#DejaVuSans-53"/>
       <use x="211.035156" xlink:href="#DejaVuSans-48"/>
      </g>
     </g>
    </g>
    <g id="xtick_2">
     <g id="line2d_2">
      <g>
       <use style="stroke:#000000;stroke-width:0.8;" x="325.01987" xlink:href="#m8a836ca647" y="658.6"/>
      </g>
     </g>
     <g id="text_2">
      <!-- −300 -->
      <g transform="translate(303.04612 677.7575)scale(0.16 -0.16)">
       <use xlink:href="#DejaVuSans-8722"/>
       <use x="83.789062" xlink:href="#DejaVuSans-51"/>
       <use x="147.412109" xlink:href="#DejaVuSans-48"/>
       <use x="211.035156" xlink:href="#DejaVuSans-48"/>
      </g>
     </g>
    </g>
    <g id="xtick_3">
     <g id="line2d_3">
      <g>
       <use style="stroke:#000000;stroke-width:0.8;" x="474.953686" xlink:href="#m8a836ca647" y="658.6"/>
      </g>
     </g>
     <g id="text_3">
      <!-- −250 -->
      <defs>
       <path d="M 19.1875 8.296875 
L 53.609375 8.296875 
L 53.609375 0 
L 7.328125 0 
L 7.328125 8.296875 
Q 12.9375 14.109375 22.625 23.890625 
Q 32.328125 33.6875 34.8125 36.53125 
Q 39.546875 41.84375 41.421875 45.53125 
Q 43.3125 49.21875 43.3125 52.78125 
Q 43.3125 58.59375 39.234375 62.25 
Q 35.15625 65.921875 28.609375 65.921875 
Q 23.96875 65.921875 18.8125 64.3125 
Q 13.671875 62.703125 7.8125 59.421875 
L 7.8125 69.390625 
Q 13.765625 71.78125 18.9375 73 
Q 24.125 74.21875 28.421875 74.21875 
Q 39.75 74.21875 46.484375 68.546875 
Q 53.21875 62.890625 53.21875 53.421875 
Q 53.21875 48.921875 51.53125 44.890625 
Q 49.859375 40.875 45.40625 35.40625 
Q 44.1875 33.984375 37.640625 27.21875 
Q 31.109375 20.453125 19.1875 8.296875 
z
" id="DejaVuSans-50"/>
      </defs>
      <g transform="translate(452.979936 677.7575)scale(0.16 -0.16)">
       <use xlink:href="#DejaVuSans-8722"/>
       <use x="83.789062" xlink:href="#DejaVuSans-50"/>
       <use x="147.412109" xlink:href="#DejaVuSans-53"/>
       <use x="211.035156" xlink:href="#DejaVuSans-48"/>
      </g>
     </g>
    </g>
    <g id="xtick_4">
     <g id="line2d_4">
      <g>
       <use style="stroke:#000000;stroke-width:0.8;" x="624.887502" xlink:href="#m8a836ca647" y="658.6"/>
      </g>
     </g>
     <g id="text_4">
      <!-- −200 -->
      <g transform="translate(602.913752 677.7575)scale(0.16 -0.16)">
       <use xlink:href="#DejaVuSans-8722"/>
       <use x="83.789062" xlink:href="#DejaVuSans-50"/>
       <use x="147.412109" xlink:href="#DejaVuSans-48"/>
       <use x="211.035156" xlink:href="#DejaVuSans-48"/>
      </g>
     </g>
    </g>
    <g id="xtick_5">
     <g id="line2d_5">
      <g>
       <use style="stroke:#000000;stroke-width:0.8;" x="774.821319" xlink:href="#m8a836ca647" y="658.6"/>
      </g>
     </g>
     <g id="text_5">
      <!-- −150 -->
      <defs>
       <path d="M 12.40625 8.296875 
L 28.515625 8.296875 
L 28.515625 63.921875 
L 10.984375 60.40625 
L 10.984375 69.390625 
L 28.421875 72.90625 
L 38.28125 72.90625 
L 38.28125 8.296875 
L 54.390625 8.296875 
L 54.390625 0 
L 12.40625 0 
z
" id="DejaVuSans-49"/>
      </defs>
      <g transform="translate(752.847569 677.7575)scale(0.16 -0.16)">
       <use xlink:href="#DejaVuSans-8722"/>
       <use x="83.789062" xlink:href="#DejaVuSans-49"/>
       <use x="147.412109" xlink:href="#DejaVuSans-53"/>
       <use x="211.035156" xlink:href="#DejaVuSans-48"/>
      </g>
     </g>
    </g>
    <g id="xtick_6">
     <g id="line2d_6">
      <g>
       <use style="stroke:#000000;stroke-width:0.8;" x="924.755135" xlink:href="#m8a836ca647" y="658.6"/>
      </g>
     </g>
     <g id="text_6">
      <!-- −100 -->
      <g transform="translate(902.781385 677.7575)scale(0.16 -0.16)">
       <use xlink:href="#DejaVuSans-8722"/>
       <use x="83.789062" xlink:href="#DejaVuSans-49"/>
       <use x="147.412109" xlink:href="#DejaVuSans-48"/>
       <use x="211.035156" xlink:href="#DejaVuSans-48"/>
      </g>
     </g>
    </g>
    <g id="xtick_7">
     <g id="line2d_7">
      <g>
       <use style="stroke:#000000;stroke-width:0.8;" x="1074.688951" xlink:href="#m8a836ca647" y="658.6"/>
      </g>
     </g>
     <g id="text_7">
      <!-- −50 -->
      <g transform="translate(1057.805201 677.7575)scale(0.16 -0.16)">
       <use xlink:href="#DejaVuSans-8722"/>
       <use x="83.789062" xlink:href="#DejaVuSans-53"/>
       <use x="147.412109" xlink:href="#DejaVuSans-48"/>
      </g>
     </g>
    </g>
    <g id="xtick_8">
     <g id="line2d_8">
      <g>
       <use style="stroke:#000000;stroke-width:0.8;" x="1224.622767" xlink:href="#m8a836ca647" y="658.6"/>
      </g>
     </g>
     <g id="text_8">
      <!-- 0 -->
      <g transform="translate(1219.532767 677.7575)scale(0.16 -0.16)">
       <use xlink:href="#DejaVuSans-48"/>
      </g>
     </g>
    </g>
    <g id="text_9">
     <!-- Broj dana unatrag -->
     <defs>
      <path d="M 19.671875 34.8125 
L 19.671875 8.109375 
L 35.5 8.109375 
Q 43.453125 8.109375 47.28125 11.40625 
Q 51.125 14.703125 51.125 21.484375 
Q 51.125 28.328125 47.28125 31.5625 
Q 43.453125 34.8125 35.5 34.8125 
z
M 19.671875 64.796875 
L 19.671875 42.828125 
L 34.28125 42.828125 
Q 41.5 42.828125 45.03125 45.53125 
Q 48.578125 48.25 48.578125 53.8125 
Q 48.578125 59.328125 45.03125 62.0625 
Q 41.5 64.796875 34.28125 64.796875 
z
M 9.8125 72.90625 
L 35.015625 72.90625 
Q 46.296875 72.90625 52.390625 68.21875 
Q 58.5 63.53125 58.5 54.890625 
Q 58.5 48.1875 55.375 44.234375 
Q 52.25 40.28125 46.1875 39.3125 
Q 53.46875 37.75 57.5 32.78125 
Q 61.53125 27.828125 61.53125 20.40625 
Q 61.53125 10.640625 54.890625 5.3125 
Q 48.25 0 35.984375 0 
L 9.8125 0 
z
" id="DejaVuSans-66"/>
      <path d="M 41.109375 46.296875 
Q 39.59375 47.171875 37.8125 47.578125 
Q 36.03125 48 33.890625 48 
Q 26.265625 48 22.1875 43.046875 
Q 18.109375 38.09375 18.109375 28.8125 
L 18.109375 0 
L 9.078125 0 
L 9.078125 54.6875 
L 18.109375 54.6875 
L 18.109375 46.1875 
Q 20.953125 51.171875 25.484375 53.578125 
Q 30.03125 56 36.53125 56 
Q 37.453125 56 38.578125 55.875 
Q 39.703125 55.765625 41.0625 55.515625 
z
" id="DejaVuSans-114"/>
      <path d="M 30.609375 48.390625 
Q 23.390625 48.390625 19.1875 42.75 
Q 14.984375 37.109375 14.984375 27.296875 
Q 14.984375 17.484375 19.15625 11.84375 
Q 23.34375 6.203125 30.609375 6.203125 
Q 37.796875 6.203125 41.984375 11.859375 
Q 46.1875 17.53125 46.1875 27.296875 
Q 46.1875 37.015625 41.984375 42.703125 
Q 37.796875 48.390625 30.609375 48.390625 
z
M 30.609375 56 
Q 42.328125 56 49.015625 48.375 
Q 55.71875 40.765625 55.71875 27.296875 
Q 55.71875 13.875 49.015625 6.21875 
Q 42.328125 -1.421875 30.609375 -1.421875 
Q 18.84375 -1.421875 12.171875 6.21875 
Q 5.515625 13.875 5.515625 27.296875 
Q 5.515625 40.765625 12.171875 48.375 
Q 18.84375 56 30.609375 56 
z
" id="DejaVuSans-111"/>
      <path d="M 9.421875 54.6875 
L 18.40625 54.6875 
L 18.40625 -0.984375 
Q 18.40625 -11.421875 14.421875 -16.109375 
Q 10.453125 -20.796875 1.609375 -20.796875 
L -1.8125 -20.796875 
L -1.8125 -13.1875 
L 0.59375 -13.1875 
Q 5.71875 -13.1875 7.5625 -10.8125 
Q 9.421875 -8.453125 9.421875 -0.984375 
z
M 9.421875 75.984375 
L 18.40625 75.984375 
L 18.40625 64.59375 
L 9.421875 64.59375 
z
" id="DejaVuSans-106"/>
      <path id="DejaVuSans-32"/>
      <path d="M 45.40625 46.390625 
L 45.40625 75.984375 
L 54.390625 75.984375 
L 54.390625 0 
L 45.40625 0 
L 45.40625 8.203125 
Q 42.578125 3.328125 38.25 0.953125 
Q 33.9375 -1.421875 27.875 -1.421875 
Q 17.96875 -1.421875 11.734375 6.484375 
Q 5.515625 14.40625 5.515625 27.296875 
Q 5.515625 40.1875 11.734375 48.09375 
Q 17.96875 56 27.875 56 
Q 33.9375 56 38.25 53.625 
Q 42.578125 51.265625 45.40625 46.390625 
z
M 14.796875 27.296875 
Q 14.796875 17.390625 18.875 11.75 
Q 22.953125 6.109375 30.078125 6.109375 
Q 37.203125 6.109375 41.296875 11.75 
Q 45.40625 17.390625 45.40625 27.296875 
Q 45.40625 37.203125 41.296875 42.84375 
Q 37.203125 48.484375 30.078125 48.484375 
Q 22.953125 48.484375 18.875 42.84375 
Q 14.796875 37.203125 14.796875 27.296875 
z
" id="DejaVuSans-100"/>
      <path d="M 34.28125 27.484375 
Q 23.390625 27.484375 19.1875 25 
Q 14.984375 22.515625 14.984375 16.5 
Q 14.984375 11.71875 18.140625 8.90625 
Q 21.296875 6.109375 26.703125 6.109375 
Q 34.1875 6.109375 38.703125 11.40625 
Q 43.21875 16.703125 43.21875 25.484375 
L 43.21875 27.484375 
z
M 52.203125 31.203125 
L 52.203125 0 
L 43.21875 0 
L 43.21875 8.296875 
Q 40.140625 3.328125 35.546875 0.953125 
Q 30.953125 -1.421875 24.3125 -1.421875 
Q 15.921875 -1.421875 10.953125 3.296875 
Q 6 8.015625 6 15.921875 
Q 6 25.140625 12.171875 29.828125 
Q 18.359375 34.515625 30.609375 34.515625 
L 43.21875 34.515625 
L 43.21875 35.40625 
Q 43.21875 41.609375 39.140625 45 
Q 35.0625 48.390625 27.6875 48.390625 
Q 23 48.390625 18.546875 47.265625 
Q 14.109375 46.140625 10.015625 43.890625 
L 10.015625 52.203125 
Q 14.9375 54.109375 19.578125 55.046875 
Q 24.21875 56 28.609375 56 
Q 40.484375 56 46.34375 49.84375 
Q 52.203125 43.703125 52.203125 31.203125 
z
" id="DejaVuSans-97"/>
      <path d="M 54.890625 33.015625 
L 54.890625 0 
L 45.90625 0 
L 45.90625 32.71875 
Q 45.90625 40.484375 42.875 44.328125 
Q 39.84375 48.1875 33.796875 48.1875 
Q 26.515625 48.1875 22.3125 43.546875 
Q 18.109375 38.921875 18.109375 30.90625 
L 18.109375 0 
L 9.078125 0 
L 9.078125 54.6875 
L 18.109375 54.6875 
L 18.109375 46.1875 
Q 21.34375 51.125 25.703125 53.5625 
Q 30.078125 56 35.796875 56 
Q 45.21875 56 50.046875 50.171875 
Q 54.890625 44.34375 54.890625 33.015625 
z
" id="DejaVuSans-110"/>
      <path d="M 8.5 21.578125 
L 8.5 54.6875 
L 17.484375 54.6875 
L 17.484375 21.921875 
Q 17.484375 14.15625 20.5 10.265625 
Q 23.53125 6.390625 29.59375 6.390625 
Q 36.859375 6.390625 41.078125 11.03125 
Q 45.3125 15.671875 45.3125 23.6875 
L 45.3125 54.6875 
L 54.296875 54.6875 
L 54.296875 0 
L 45.3125 0 
L 45.3125 8.40625 
Q 42.046875 3.421875 37.71875 1 
Q 33.40625 -1.421875 27.6875 -1.421875 
Q 18.265625 -1.421875 13.375 4.4375 
Q 8.5 10.296875 8.5 21.578125 
z
M 31.109375 56 
z
" id="DejaVuSans-117"/>
      <path d="M 18.3125 70.21875 
L 18.3125 54.6875 
L 36.8125 54.6875 
L 36.8125 47.703125 
L 18.3125 47.703125 
L 18.3125 18.015625 
Q 18.3125 11.328125 20.140625 9.421875 
Q 21.96875 7.515625 27.59375 7.515625 
L 36.8125 7.515625 
L 36.8125 0 
L 27.59375 0 
Q 17.1875 0 13.234375 3.875 
Q 9.28125 7.765625 9.28125 18.015625 
L 9.28125 47.703125 
L 2.6875 47.703125 
L 2.6875 54.6875 
L 9.28125 54.6875 
L 9.28125 70.21875 
z
" id="DejaVuSans-116"/>
      <path d="M 45.40625 27.984375 
Q 45.40625 37.75 41.375 43.109375 
Q 37.359375 48.484375 30.078125 48.484375 
Q 22.859375 48.484375 18.828125 43.109375 
Q 14.796875 37.75 14.796875 27.984375 
Q 14.796875 18.265625 18.828125 12.890625 
Q 22.859375 7.515625 30.078125 7.515625 
Q 37.359375 7.515625 41.375 12.890625 
Q 45.40625 18.265625 45.40625 27.984375 
z
M 54.390625 6.78125 
Q 54.390625 -7.171875 48.1875 -13.984375 
Q 42 -20.796875 29.203125 -20.796875 
Q 24.46875 -20.796875 20.265625 -20.09375 
Q 16.0625 -19.390625 12.109375 -17.921875 
L 12.109375 -9.1875 
Q 16.0625 -11.328125 19.921875 -12.34375 
Q 23.78125 -13.375 27.78125 -13.375 
Q 36.625 -13.375 41.015625 -8.765625 
Q 45.40625 -4.15625 45.40625 5.171875 
L 45.40625 9.625 
Q 42.625 4.78125 38.28125 2.390625 
Q 33.9375 0 27.875 0 
Q 17.828125 0 11.671875 7.65625 
Q 5.515625 15.328125 5.515625 27.984375 
Q 5.515625 40.671875 11.671875 48.328125 
Q 17.828125 56 27.875 56 
Q 33.9375 56 38.28125 53.609375 
Q 42.625 51.21875 45.40625 46.390625 
L 45.40625 54.6875 
L 54.390625 54.6875 
z
" id="DejaVuSans-103"/>
     </defs>
     <g transform="translate(603.485 697.2425)scale(0.16 -0.16)">
      <use xlink:href="#DejaVuSans-66"/>
      <use x="68.603516" xlink:href="#DejaVuSans-114"/>
      <use x="109.685547" xlink:href="#DejaVuSans-111"/>
      <use x="170.867188" xlink:href="#DejaVuSans-106"/>
      <use x="198.650391" xlink:href="#DejaVuSans-32"/>
      <use x="230.4375" xlink:href="#DejaVuSans-100"/>
      <use x="293.914062" xlink:href="#DejaVuSans-97"/>
      <use x="355.193359" xlink:href="#DejaVuSans-110"/>
      <use x="418.572266" xlink:href="#DejaVuSans-97"/>
      <use x="479.851562" xlink:href="#DejaVuSans-32"/>
      <use x="511.638672" xlink:href="#DejaVuSans-117"/>
      <use x="575.017578" xlink:href="#DejaVuSans-110"/>
      <use x="638.396484" xlink:href="#DejaVuSans-97"/>
      <use x="699.675781" xlink:href="#DejaVuSans-116"/>
      <use x="738.884766" xlink:href="#DejaVuSans-114"/>
      <use x="779.998047" xlink:href="#DejaVuSans-97"/>
      <use x="841.277344" xlink:href="#DejaVuSans-103"/>
     </g>
    </g>
   </g>
   <g id="matplotlib.axis_2">
    <g id="ytick_1">
     <g id="line2d_9">
      <defs>
       <path d="M 0 0 
L -3.5 0 
" id="m30bd2999ff" style="stroke:#000000;stroke-width:0.8;"/>
      </defs>
      <g>
       <use style="stroke:#000000;stroke-width:0.8;" x="75.53" xlink:href="#m30bd2999ff" y="630.376364"/>
      </g>
     </g>
     <g id="text_10">
      <!-- 0 -->
      <g transform="translate(58.35 636.455114)scale(0.16 -0.16)">
       <use xlink:href="#DejaVuSans-48"/>
      </g>
     </g>
    </g>
    <g id="ytick_2">
     <g id="line2d_10">
      <g>
       <use style="stroke:#000000;stroke-width:0.8;" x="75.53" xlink:href="#m30bd2999ff" y="520.770009"/>
      </g>
     </g>
     <g id="text_11">
      <!-- 20 -->
      <g transform="translate(48.17 526.848759)scale(0.16 -0.16)">
       <use xlink:href="#DejaVuSans-50"/>
       <use x="63.623047" xlink:href="#DejaVuSans-48"/>
      </g>
     </g>
    </g>
    <g id="ytick_3">
     <g id="line2d_11">
      <g>
       <use style="stroke:#000000;stroke-width:0.8;" x="75.53" xlink:href="#m30bd2999ff" y="411.163654"/>
      </g>
     </g>
     <g id="text_12">
      <!-- 40 -->
      <defs>
       <path d="M 37.796875 64.3125 
L 12.890625 25.390625 
L 37.796875 25.390625 
z
M 35.203125 72.90625 
L 47.609375 72.90625 
L 47.609375 25.390625 
L 58.015625 25.390625 
L 58.015625 17.1875 
L 47.609375 17.1875 
L 47.609375 0 
L 37.796875 0 
L 37.796875 17.1875 
L 4.890625 17.1875 
L 4.890625 26.703125 
z
" id="DejaVuSans-52"/>
      </defs>
      <g transform="translate(48.17 417.242404)scale(0.16 -0.16)">
       <use xlink:href="#DejaVuSans-52"/>
       <use x="63.623047" xlink:href="#DejaVuSans-48"/>
      </g>
     </g>
    </g>
    <g id="ytick_4">
     <g id="line2d_12">
      <g>
       <use style="stroke:#000000;stroke-width:0.8;" x="75.53" xlink:href="#m30bd2999ff" y="301.557299"/>
      </g>
     </g>
     <g id="text_13">
      <!-- 60 -->
      <defs>
       <path d="M 33.015625 40.375 
Q 26.375 40.375 22.484375 35.828125 
Q 18.609375 31.296875 18.609375 23.390625 
Q 18.609375 15.53125 22.484375 10.953125 
Q 26.375 6.390625 33.015625 6.390625 
Q 39.65625 6.390625 43.53125 10.953125 
Q 47.40625 15.53125 47.40625 23.390625 
Q 47.40625 31.296875 43.53125 35.828125 
Q 39.65625 40.375 33.015625 40.375 
z
M 52.59375 71.296875 
L 52.59375 62.3125 
Q 48.875 64.0625 45.09375 64.984375 
Q 41.3125 65.921875 37.59375 65.921875 
Q 27.828125 65.921875 22.671875 59.328125 
Q 17.53125 52.734375 16.796875 39.40625 
Q 19.671875 43.65625 24.015625 45.921875 
Q 28.375 48.1875 33.59375 48.1875 
Q 44.578125 48.1875 50.953125 41.515625 
Q 57.328125 34.859375 57.328125 23.390625 
Q 57.328125 12.15625 50.6875 5.359375 
Q 44.046875 -1.421875 33.015625 -1.421875 
Q 20.359375 -1.421875 13.671875 8.265625 
Q 6.984375 17.96875 6.984375 36.375 
Q 6.984375 53.65625 15.1875 63.9375 
Q 23.390625 74.21875 37.203125 74.21875 
Q 40.921875 74.21875 44.703125 73.484375 
Q 48.484375 72.75 52.59375 71.296875 
z
" id="DejaVuSans-54"/>
      </defs>
      <g transform="translate(48.17 307.636049)scale(0.16 -0.16)">
       <use xlink:href="#DejaVuSans-54"/>
       <use x="63.623047" xlink:href="#DejaVuSans-48"/>
      </g>
     </g>
    </g>
    <g id="ytick_5">
     <g id="line2d_13">
      <g>
       <use style="stroke:#000000;stroke-width:0.8;" x="75.53" xlink:href="#m30bd2999ff" y="191.950944"/>
      </g>
     </g>
     <g id="text_14">
      <!-- 80 -->
      <defs>
       <path d="M 31.78125 34.625 
Q 24.75 34.625 20.71875 30.859375 
Q 16.703125 27.09375 16.703125 20.515625 
Q 16.703125 13.921875 20.71875 10.15625 
Q 24.75 6.390625 31.78125 6.390625 
Q 38.8125 6.390625 42.859375 10.171875 
Q 46.921875 13.96875 46.921875 20.515625 
Q 46.921875 27.09375 42.890625 30.859375 
Q 38.875 34.625 31.78125 34.625 
z
M 21.921875 38.8125 
Q 15.578125 40.375 12.03125 44.71875 
Q 8.5 49.078125 8.5 55.328125 
Q 8.5 64.0625 14.71875 69.140625 
Q 20.953125 74.21875 31.78125 74.21875 
Q 42.671875 74.21875 48.875 69.140625 
Q 55.078125 64.0625 55.078125 55.328125 
Q 55.078125 49.078125 51.53125 44.71875 
Q 48 40.375 41.703125 38.8125 
Q 48.828125 37.15625 52.796875 32.3125 
Q 56.78125 27.484375 56.78125 20.515625 
Q 56.78125 9.90625 50.3125 4.234375 
Q 43.84375 -1.421875 31.78125 -1.421875 
Q 19.734375 -1.421875 13.25 4.234375 
Q 6.78125 9.90625 6.78125 20.515625 
Q 6.78125 27.484375 10.78125 32.3125 
Q 14.796875 37.15625 21.921875 38.8125 
z
M 18.3125 54.390625 
Q 18.3125 48.734375 21.84375 45.5625 
Q 25.390625 42.390625 31.78125 42.390625 
Q 38.140625 42.390625 41.71875 45.5625 
Q 45.3125 48.734375 45.3125 54.390625 
Q 45.3125 60.0625 41.71875 63.234375 
Q 38.140625 66.40625 31.78125 66.40625 
Q 25.390625 66.40625 21.84375 63.234375 
Q 18.3125 60.0625 18.3125 54.390625 
z
" id="DejaVuSans-56"/>
      </defs>
      <g transform="translate(48.17 198.029694)scale(0.16 -0.16)">
       <use xlink:href="#DejaVuSans-56"/>
       <use x="63.623047" xlink:href="#DejaVuSans-48"/>
      </g>
     </g>
    </g>
    <g id="ytick_6">
     <g id="line2d_14">
      <g>
       <use style="stroke:#000000;stroke-width:0.8;" x="75.53" xlink:href="#m30bd2999ff" y="82.34459"/>
      </g>
     </g>
     <g id="text_15">
      <!-- 100 -->
      <g transform="translate(37.99 88.42334)scale(0.16 -0.16)">
       <use xlink:href="#DejaVuSans-49"/>
       <use x="63.623047" xlink:href="#DejaVuSans-48"/>
       <use x="127.246094" xlink:href="#DejaVuSans-48"/>
      </g>
     </g>
    </g>
    <g id="text_16">
     <!-- Broj soba -->
     <defs>
      <path d="M 44.28125 53.078125 
L 44.28125 44.578125 
Q 40.484375 46.53125 36.375 47.5 
Q 32.28125 48.484375 27.875 48.484375 
Q 21.1875 48.484375 17.84375 46.4375 
Q 14.5 44.390625 14.5 40.28125 
Q 14.5 37.15625 16.890625 35.375 
Q 19.28125 33.59375 26.515625 31.984375 
L 29.59375 31.296875 
Q 39.15625 29.25 43.1875 25.515625 
Q 47.21875 21.78125 47.21875 15.09375 
Q 47.21875 7.46875 41.1875 3.015625 
Q 35.15625 -1.421875 24.609375 -1.421875 
Q 20.21875 -1.421875 15.453125 -0.5625 
Q 10.6875 0.296875 5.421875 2 
L 5.421875 11.28125 
Q 10.40625 8.6875 15.234375 7.390625 
Q 20.0625 6.109375 24.8125 6.109375 
Q 31.15625 6.109375 34.5625 8.28125 
Q 37.984375 10.453125 37.984375 14.40625 
Q 37.984375 18.0625 35.515625 20.015625 
Q 33.0625 21.96875 24.703125 23.78125 
L 21.578125 24.515625 
Q 13.234375 26.265625 9.515625 29.90625 
Q 5.8125 33.546875 5.8125 39.890625 
Q 5.8125 47.609375 11.28125 51.796875 
Q 16.75 56 26.8125 56 
Q 31.78125 56 36.171875 55.265625 
Q 40.578125 54.546875 44.28125 53.078125 
z
" id="DejaVuSans-115"/>
      <path d="M 48.6875 27.296875 
Q 48.6875 37.203125 44.609375 42.84375 
Q 40.53125 48.484375 33.40625 48.484375 
Q 26.265625 48.484375 22.1875 42.84375 
Q 18.109375 37.203125 18.109375 27.296875 
Q 18.109375 17.390625 22.1875 11.75 
Q 26.265625 6.109375 33.40625 6.109375 
Q 40.53125 6.109375 44.609375 11.75 
Q 48.6875 17.390625 48.6875 27.296875 
z
M 18.109375 46.390625 
Q 20.953125 51.265625 25.265625 53.625 
Q 29.59375 56 35.59375 56 
Q 45.5625 56 51.78125 48.09375 
Q 58.015625 40.1875 58.015625 27.296875 
Q 58.015625 14.40625 51.78125 6.484375 
Q 45.5625 -1.421875 35.59375 -1.421875 
Q 29.59375 -1.421875 25.265625 0.953125 
Q 20.953125 3.328125 18.109375 8.203125 
L 18.109375 0 
L 9.078125 0 
L 9.078125 75.984375 
L 18.109375 75.984375 
z
" id="DejaVuSans-98"/>
     </defs>
     <g transform="translate(30.6625 385.61875)rotate(-90)scale(0.16 -0.16)">
      <use xlink:href="#DejaVuSans-66"/>
      <use x="68.603516" xlink:href="#DejaVuSans-114"/>
      <use x="109.685547" xlink:href="#DejaVuSans-111"/>
      <use x="170.867188" xlink:href="#DejaVuSans-106"/>
      <use x="198.650391" xlink:href="#DejaVuSans-32"/>
      <use x="230.4375" xlink:href="#DejaVuSans-115"/>
      <use x="282.537109" xlink:href="#DejaVuSans-111"/>
      <use x="343.71875" xlink:href="#DejaVuSans-98"/>
      <use x="407.195312" xlink:href="#DejaVuSans-97"/>
     </g>
    </g>
   </g>
   <g id="line2d_15">
    <path clip-path="url(#p2fe187b6ab)" d="M 130.105909 559.132233 
L 133.104585 592.014139 
L 136.103262 586.533822 
L 139.101938 619.415728 
L 142.100614 581.053504 
L 145.099291 553.651915 
L 148.097967 597.494457 
L 151.096643 602.974775 
L 154.09532 559.132233 
L 157.093996 597.494457 
L 160.092672 602.974775 
L 163.091349 592.014139 
L 166.090025 597.494457 
L 169.088701 592.014139 
L 172.087378 613.93541 
L 175.086054 592.014139 
L 178.08473 624.896046 
L 181.083407 613.93541 
L 184.082083 592.014139 
L 190.079436 602.974775 
L 193.078112 586.533822 
L 196.076788 602.974775 
L 199.075465 613.93541 
L 202.074141 619.415728 
L 205.072817 613.93541 
L 208.071494 597.494457 
L 211.07017 482.407785 
L 217.067522 613.93541 
L 220.066199 597.494457 
L 223.064875 624.896046 
L 226.063551 619.415728 
L 229.062228 608.455093 
L 232.060904 608.455093 
L 235.05958 613.93541 
L 238.058257 602.974775 
L 241.056933 597.494457 
L 244.055609 613.93541 
L 247.054286 613.93541 
L 250.052962 619.415728 
L 253.051638 613.93541 
L 256.050315 619.415728 
L 259.048991 613.93541 
L 265.046344 613.93541 
L 268.04502 619.415728 
L 271.043696 608.455093 
L 274.042373 624.896046 
L 277.041049 630.376364 
L 280.039725 613.93541 
L 286.037078 624.896046 
L 289.035754 597.494457 
L 292.034431 602.974775 
L 295.033107 630.376364 
L 298.031783 624.896046 
L 301.03046 608.455093 
L 304.029136 608.455093 
L 307.027812 630.376364 
L 313.025165 597.494457 
L 316.023841 613.93541 
L 319.022517 619.415728 
L 322.021194 613.93541 
L 325.01987 619.415728 
L 328.018546 630.376364 
L 331.017223 613.93541 
L 337.014575 613.93541 
L 340.013252 630.376364 
L 343.011928 608.455093 
L 346.010604 619.415728 
L 349.009281 619.415728 
L 352.007957 581.053504 
L 355.006633 619.415728 
L 358.00531 613.93541 
L 361.003986 581.053504 
L 364.002662 613.93541 
L 367.001339 630.376364 
L 370.000015 624.896046 
L 372.998691 624.896046 
L 375.997368 553.651915 
L 378.996044 624.896046 
L 381.99472 624.896046 
L 384.993397 613.93541 
L 387.992073 624.896046 
L 390.990749 630.376364 
L 393.989426 592.014139 
L 396.988102 602.974775 
L 399.986778 624.896046 
L 402.985455 586.533822 
L 405.984131 586.533822 
L 408.982807 619.415728 
L 411.981484 597.494457 
L 414.98016 608.455093 
L 417.978836 613.93541 
L 420.977512 613.93541 
L 423.976189 602.974775 
L 426.974865 608.455093 
L 429.973541 602.974775 
L 432.972218 575.573186 
L 435.970894 608.455093 
L 438.96957 602.974775 
L 441.968247 433.084925 
L 444.966923 586.533822 
L 447.965599 613.93541 
L 450.964276 613.93541 
L 453.962952 586.533822 
L 456.961628 581.053504 
L 459.960305 602.974775 
L 462.958981 619.415728 
L 465.957657 630.376364 
L 468.956334 597.494457 
L 471.95501 624.896046 
L 474.953686 624.896046 
L 477.952363 564.612551 
L 480.951039 608.455093 
L 483.949715 608.455093 
L 486.948392 586.533822 
L 489.947068 613.93541 
L 492.945744 619.415728 
L 495.944421 592.014139 
L 498.943097 619.415728 
L 501.941773 592.014139 
L 504.94045 575.573186 
L 507.939126 586.533822 
L 510.937802 602.974775 
L 513.936479 597.494457 
L 516.935155 597.494457 
L 519.933831 570.092868 
L 522.932507 602.974775 
L 525.931184 597.494457 
L 528.92986 559.132233 
L 531.928536 592.014139 
L 534.927213 608.455093 
L 537.925889 559.132233 
L 540.924565 581.053504 
L 543.923242 581.053504 
L 546.921918 482.407785 
L 549.920594 476.927467 
L 552.919271 564.612551 
L 555.917947 586.533822 
L 558.916623 592.014139 
L 561.9153 482.407785 
L 564.913976 581.053504 
L 567.912652 493.36842 
L 570.911329 597.494457 
L 573.910005 597.494457 
L 576.908681 581.053504 
L 579.907358 597.494457 
L 582.906034 586.533822 
L 585.90471 372.80143 
L 588.903387 361.840794 
L 591.902063 531.730644 
L 594.900739 592.014139 
L 597.899416 581.053504 
L 600.898092 564.612551 
L 603.896768 564.612551 
L 606.895445 553.651915 
L 609.894121 564.612551 
L 612.892797 586.533822 
L 615.891474 575.573186 
L 618.89015 592.014139 
L 621.888826 570.092868 
L 624.887502 613.93541 
L 627.886179 570.092868 
L 630.884855 553.651915 
L 633.883531 586.533822 
L 636.882208 586.533822 
L 639.880884 602.974775 
L 642.87956 586.533822 
L 645.878237 559.132233 
L 648.876913 575.573186 
L 651.875589 564.612551 
L 654.874266 559.132233 
L 657.872942 592.014139 
L 660.871618 586.533822 
L 663.870295 526.250327 
L 666.868971 581.053504 
L 669.867647 520.770009 
L 672.866324 465.966831 
L 675.865 504.329056 
L 678.863676 564.612551 
L 681.862353 515.289691 
L 684.861029 531.730644 
L 687.859705 520.770009 
L 690.858382 498.848738 
L 693.857058 520.770009 
L 696.855734 515.289691 
L 699.854411 515.289691 
L 702.853087 520.770009 
L 705.851763 394.722701 
L 708.85044 476.927467 
L 711.849116 422.124289 
L 714.847792 460.486514 
L 717.846469 438.565243 
L 720.845145 400.203019 
L 723.843821 520.770009 
L 726.842498 427.604607 
L 729.841174 394.722701 
L 732.83985 339.919523 
L 735.838526 449.525878 
L 738.837203 405.683336 
L 741.835879 438.565243 
L 744.834555 433.084925 
L 747.833232 444.04556 
L 750.831908 367.321112 
L 753.830584 498.848738 
L 756.829261 444.04556 
L 759.827937 438.565243 
L 762.826613 422.124289 
L 765.82529 520.770009 
L 768.823966 400.203019 
L 771.822642 444.04556 
L 774.821319 339.919523 
L 777.819995 394.722701 
L 780.818671 372.80143 
L 783.817348 427.604607 
L 786.816024 537.210962 
L 789.8147 504.329056 
L 795.812053 416.643972 
L 798.810729 482.407785 
L 801.809406 438.565243 
L 804.808082 526.250327 
L 807.806758 592.014139 
L 810.805435 498.848738 
L 813.804111 356.360477 
L 816.802787 515.289691 
L 819.801464 471.447149 
L 822.80014 548.171598 
L 825.798816 553.651915 
L 828.797493 520.770009 
L 831.796169 504.329056 
L 834.794845 542.69128 
L 837.793521 498.848738 
L 840.792198 526.250327 
L 843.790874 559.132233 
L 846.78955 504.329056 
L 849.788227 537.210962 
L 852.786903 411.163654 
L 855.785579 498.848738 
L 858.784256 553.651915 
L 861.782932 482.407785 
L 864.781608 564.612551 
L 867.780285 597.494457 
L 870.778961 531.730644 
L 873.777637 537.210962 
L 876.776314 476.927467 
L 879.77499 564.612551 
L 882.773666 542.69128 
L 885.772343 575.573186 
L 888.771019 570.092868 
L 891.769695 542.69128 
L 894.768372 509.809373 
L 897.767048 487.888102 
L 900.765724 542.69128 
L 903.764401 493.36842 
L 906.763077 581.053504 
L 909.761753 592.014139 
L 912.76043 597.494457 
L 915.759106 548.171598 
L 918.757782 548.171598 
L 921.756459 581.053504 
L 924.755135 564.612551 
L 927.753811 602.974775 
L 930.752488 586.533822 
L 933.751164 619.415728 
L 936.74984 559.132233 
L 939.748516 559.132233 
L 942.747193 537.210962 
L 945.745869 602.974775 
L 948.744545 581.053504 
L 951.743222 493.36842 
L 954.741898 526.250327 
L 957.740574 542.69128 
L 960.739251 575.573186 
L 963.737927 526.250327 
L 966.736603 548.171598 
L 969.73528 548.171598 
L 972.733956 559.132233 
L 975.732632 504.329056 
L 978.731309 487.888102 
L 981.729985 515.289691 
L 984.728661 570.092868 
L 987.727338 564.612551 
L 990.726014 602.974775 
L 993.72469 581.053504 
L 996.723367 509.809373 
L 999.722043 542.69128 
L 1002.720719 509.809373 
L 1005.719396 520.770009 
L 1008.718072 449.525878 
L 1011.716748 537.210962 
L 1014.715425 564.612551 
L 1017.714101 542.69128 
L 1020.712777 515.289691 
L 1023.711454 553.651915 
L 1026.71013 520.770009 
L 1029.708806 564.612551 
L 1035.706159 520.770009 
L 1038.704835 553.651915 
L 1041.703511 498.848738 
L 1044.702188 542.69128 
L 1047.700864 493.36842 
L 1050.69954 520.770009 
L 1053.698217 592.014139 
L 1056.696893 592.014139 
L 1059.695569 537.210962 
L 1062.694246 548.171598 
L 1065.692922 531.730644 
L 1068.691598 581.053504 
L 1071.690275 542.69128 
L 1074.688951 520.770009 
L 1077.687627 542.69128 
L 1080.686304 553.651915 
L 1083.68498 504.329056 
L 1086.683656 526.250327 
L 1089.682333 509.809373 
L 1092.681009 548.171598 
L 1095.679685 482.407785 
L 1098.678362 592.014139 
L 1101.677038 444.04556 
L 1104.675714 460.486514 
L 1107.674391 531.730644 
L 1110.673067 509.809373 
L 1113.671743 542.69128 
L 1116.67042 537.210962 
L 1119.669096 526.250327 
L 1122.667772 487.888102 
L 1125.666449 438.565243 
L 1128.665125 465.966831 
L 1131.663801 444.04556 
L 1134.662478 416.643972 
L 1137.661154 531.730644 
L 1140.65983 509.809373 
L 1143.658506 509.809373 
L 1146.657183 531.730644 
L 1149.655859 405.683336 
L 1152.654535 504.329056 
L 1155.653212 465.966831 
L 1158.651888 455.006196 
L 1161.650564 476.927467 
L 1164.649241 526.250327 
L 1167.647917 433.084925 
L 1170.646593 416.643972 
L 1173.64527 460.486514 
L 1176.643946 394.722701 
L 1179.642622 433.084925 
L 1182.641299 476.927467 
L 1185.639975 334.439206 
L 1188.638651 235.793486 
L 1191.637328 268.675393 
L 1194.636004 334.439206 
L 1197.63468 170.029673 
L 1200.633357 246.754122 
L 1203.632033 317.998252 
L 1206.630709 285.116346 
L 1209.629386 175.509991 
L 1212.628062 82.34459 
L 1215.626738 246.754122 
L 1218.625415 159.069038 
L 1221.624091 323.47857 
L 1221.624091 323.47857 
" style="fill:none;stroke:#f44336;stroke-linecap:square;stroke-width:1.5;"/>
   </g>
   <g id="line2d_16">
    <path clip-path="url(#p2fe187b6ab)" d="M 130.105909 504.329056 
L 133.104585 586.533822 
L 136.103262 520.770009 
L 139.101938 553.651915 
L 142.100614 515.289691 
L 145.099291 498.848738 
L 148.097967 581.053504 
L 151.096643 592.014139 
L 154.09532 608.455093 
L 157.093996 581.053504 
L 160.092672 592.014139 
L 163.091349 570.092868 
L 166.090025 608.455093 
L 169.088701 575.573186 
L 172.087378 608.455093 
L 175.086054 624.896046 
L 178.08473 586.533822 
L 181.083407 592.014139 
L 184.082083 575.573186 
L 187.080759 613.93541 
L 190.079436 613.93541 
L 193.078112 602.974775 
L 196.076788 624.896046 
L 199.075465 570.092868 
L 202.074141 592.014139 
L 205.072817 592.014139 
L 208.071494 613.93541 
L 211.07017 602.974775 
L 217.067522 602.974775 
L 220.066199 613.93541 
L 223.064875 602.974775 
L 229.062228 613.93541 
L 232.060904 613.93541 
L 235.05958 592.014139 
L 238.058257 624.896046 
L 241.056933 619.415728 
L 244.055609 602.974775 
L 247.054286 619.415728 
L 250.052962 613.93541 
L 253.051638 630.376364 
L 256.050315 602.974775 
L 259.048991 624.896046 
L 262.047667 613.93541 
L 265.046344 624.896046 
L 271.043696 613.93541 
L 274.042373 619.415728 
L 277.041049 630.376364 
L 280.039725 597.494457 
L 283.038402 630.376364 
L 289.035754 630.376364 
L 292.034431 619.415728 
L 298.031783 619.415728 
L 301.03046 608.455093 
L 304.029136 613.93541 
L 307.027812 608.455093 
L 313.025165 619.415728 
L 316.023841 613.93541 
L 319.022517 624.896046 
L 322.021194 613.93541 
L 325.01987 619.415728 
L 328.018546 613.93541 
L 331.017223 619.415728 
L 334.015899 597.494457 
L 337.014575 619.415728 
L 340.013252 624.896046 
L 343.011928 624.896046 
L 346.010604 602.974775 
L 352.007957 602.974775 
L 355.006633 575.573186 
L 358.00531 597.494457 
L 361.003986 624.896046 
L 364.002662 619.415728 
L 367.001339 624.896046 
L 370.000015 608.455093 
L 372.998691 613.93541 
L 375.997368 613.93541 
L 378.996044 619.415728 
L 384.993397 597.494457 
L 387.992073 597.494457 
L 390.990749 613.93541 
L 396.988102 592.014139 
L 399.986778 531.730644 
L 402.985455 597.494457 
L 405.984131 548.171598 
L 408.982807 570.092868 
L 411.981484 531.730644 
L 414.98016 526.250327 
L 417.978836 619.415728 
L 420.977512 575.573186 
L 423.976189 602.974775 
L 426.974865 592.014139 
L 429.973541 575.573186 
L 432.972218 581.053504 
L 435.970894 592.014139 
L 438.96957 581.053504 
L 441.968247 559.132233 
L 444.966923 570.092868 
L 447.965599 575.573186 
L 450.964276 460.486514 
L 453.962952 564.612551 
L 456.961628 570.092868 
L 459.960305 597.494457 
L 462.958981 570.092868 
L 465.957657 592.014139 
L 468.956334 592.014139 
L 471.95501 575.573186 
L 474.953686 592.014139 
L 477.952363 570.092868 
L 480.951039 559.132233 
L 483.949715 542.69128 
L 489.947068 597.494457 
L 492.945744 548.171598 
L 498.943097 537.210962 
L 501.941773 515.289691 
L 504.94045 559.132233 
L 507.939126 586.533822 
L 510.937802 559.132233 
L 513.936479 515.289691 
L 516.935155 509.809373 
L 519.933831 548.171598 
L 522.932507 570.092868 
L 525.931184 548.171598 
L 528.92986 602.974775 
L 534.927213 537.210962 
L 537.925889 515.289691 
L 540.924565 575.573186 
L 543.923242 575.573186 
L 546.921918 559.132233 
L 549.920594 548.171598 
L 552.919271 542.69128 
L 555.917947 531.730644 
L 558.916623 487.888102 
L 561.9153 581.053504 
L 564.913976 570.092868 
L 567.912652 520.770009 
L 570.911329 570.092868 
L 573.910005 559.132233 
L 576.908681 515.289691 
L 579.907358 537.210962 
L 582.906034 498.848738 
L 585.90471 559.132233 
L 588.903387 581.053504 
L 591.902063 592.014139 
L 594.900739 597.494457 
L 597.899416 504.329056 
L 600.898092 465.966831 
L 603.896768 559.132233 
L 606.895445 531.730644 
L 612.892797 597.494457 
L 615.891474 553.651915 
L 618.89015 548.171598 
L 621.888826 537.210962 
L 624.887502 515.289691 
L 627.886179 575.573186 
L 630.884855 526.250327 
L 633.883531 575.573186 
L 636.882208 570.092868 
L 639.880884 449.525878 
L 642.87956 542.69128 
L 645.878237 531.730644 
L 648.876913 548.171598 
L 651.875589 575.573186 
L 654.874266 592.014139 
L 657.872942 575.573186 
L 660.871618 570.092868 
L 663.870295 526.250327 
L 666.868971 476.927467 
L 669.867647 509.809373 
L 672.866324 460.486514 
L 675.865 548.171598 
L 678.863676 581.053504 
L 681.862353 383.762065 
L 684.861029 317.998252 
L 687.859705 400.203019 
L 690.858382 383.762065 
L 693.857058 455.006196 
L 696.855734 444.04556 
L 702.853087 389.242383 
L 705.851763 301.557299 
L 708.85044 296.076981 
L 711.849116 246.754122 
L 714.847792 400.203019 
L 717.846469 400.203019 
L 720.845145 268.675393 
L 723.843821 307.037617 
L 726.842498 361.840794 
L 729.841174 361.840794 
L 732.83985 433.084925 
L 735.838526 367.321112 
L 738.837203 416.643972 
L 741.835879 400.203019 
L 744.834555 389.242383 
L 747.833232 389.242383 
L 750.831908 405.683336 
L 753.830584 416.643972 
L 756.829261 422.124289 
L 759.827937 526.250327 
L 762.826613 471.447149 
L 765.82529 367.321112 
L 768.823966 241.273804 
L 771.822642 323.47857 
L 774.821319 460.486514 
L 777.819995 394.722701 
L 780.818671 471.447149 
L 783.817348 444.04556 
L 786.816024 422.124289 
L 789.8147 389.242383 
L 792.813377 460.486514 
L 795.812053 350.880159 
L 798.810729 493.36842 
L 801.809406 526.250327 
L 804.808082 509.809373 
L 807.806758 455.006196 
L 810.805435 356.360477 
L 813.804111 411.163654 
L 816.802787 444.04556 
L 819.801464 542.69128 
L 822.80014 553.651915 
L 825.798816 504.329056 
L 828.797493 493.36842 
L 831.796169 487.888102 
L 834.794845 509.809373 
L 837.793521 504.329056 
L 840.792198 581.053504 
L 846.78955 537.210962 
L 849.788227 542.69128 
L 852.786903 542.69128 
L 855.785579 570.092868 
L 858.784256 531.730644 
L 861.782932 542.69128 
L 864.781608 581.053504 
L 867.780285 537.210962 
L 873.777637 526.250327 
L 876.776314 548.171598 
L 879.77499 465.966831 
L 882.773666 537.210962 
L 885.772343 581.053504 
L 888.771019 559.132233 
L 891.769695 520.770009 
L 894.768372 564.612551 
L 897.767048 493.36842 
L 900.765724 581.053504 
L 903.764401 564.612551 
L 906.763077 542.69128 
L 909.761753 537.210962 
L 912.76043 520.770009 
L 915.759106 526.250327 
L 918.757782 597.494457 
L 921.756459 564.612551 
L 924.755135 586.533822 
L 927.753811 575.573186 
L 930.752488 531.730644 
L 933.751164 548.171598 
L 939.748516 559.132233 
L 942.747193 586.533822 
L 945.745869 559.132233 
L 948.744545 586.533822 
L 951.743222 564.612551 
L 954.741898 608.455093 
L 957.740574 597.494457 
L 960.739251 559.132233 
L 963.737927 575.573186 
L 966.736603 542.69128 
L 969.73528 553.651915 
L 972.733956 542.69128 
L 975.732632 537.210962 
L 978.731309 575.573186 
L 981.729985 597.494457 
L 984.728661 526.250327 
L 987.727338 526.250327 
L 993.72469 581.053504 
L 996.723367 531.730644 
L 999.722043 553.651915 
L 1002.720719 542.69128 
L 1005.719396 559.132233 
L 1008.718072 531.730644 
L 1011.716748 553.651915 
L 1014.715425 509.809373 
L 1017.714101 537.210962 
L 1020.712777 526.250327 
L 1023.711454 520.770009 
L 1026.71013 526.250327 
L 1029.708806 553.651915 
L 1032.707483 542.69128 
L 1035.706159 553.651915 
L 1038.704835 542.69128 
L 1041.703511 471.447149 
L 1044.702188 465.966831 
L 1047.700864 548.171598 
L 1050.69954 493.36842 
L 1053.698217 509.809373 
L 1056.696893 493.36842 
L 1059.695569 465.966831 
L 1062.694246 498.848738 
L 1065.692922 515.289691 
L 1068.691598 515.289691 
L 1071.690275 548.171598 
L 1074.688951 498.848738 
L 1077.687627 515.289691 
L 1080.686304 455.006196 
L 1083.68498 438.565243 
L 1086.683656 438.565243 
L 1089.682333 465.966831 
L 1092.681009 471.447149 
L 1095.679685 542.69128 
L 1098.678362 449.525878 
L 1101.677038 400.203019 
L 1104.675714 498.848738 
L 1107.674391 553.651915 
L 1110.673067 509.809373 
L 1113.671743 537.210962 
L 1116.67042 504.329056 
L 1119.669096 449.525878 
L 1122.667772 427.604607 
L 1125.666449 449.525878 
L 1128.665125 400.203019 
L 1131.663801 537.210962 
L 1134.662478 471.447149 
L 1137.661154 449.525878 
L 1140.65983 400.203019 
L 1143.658506 394.722701 
L 1146.657183 400.203019 
L 1149.655859 411.163654 
L 1152.654535 427.604607 
L 1155.653212 449.525878 
L 1158.651888 465.966831 
L 1161.650564 400.203019 
L 1164.649241 361.840794 
L 1167.647917 361.840794 
L 1170.646593 339.919523 
L 1173.64527 323.47857 
L 1176.643946 356.360477 
L 1179.642622 411.163654 
L 1182.641299 400.203019 
L 1185.639975 334.439206 
L 1188.638651 312.517935 
L 1191.637328 274.155711 
L 1194.636004 290.596664 
L 1197.63468 274.155711 
L 1200.633357 268.675393 
L 1203.632033 367.321112 
L 1206.630709 87.824907 
L 1209.629386 219.352533 
L 1212.628062 153.58872 
L 1215.626738 219.352533 
L 1218.625415 65.903636 
L 1221.624091 317.998252 
L 1221.624091 317.998252 
" style="fill:none;stroke:#673ab7;stroke-linecap:square;stroke-width:1.5;"/>
   </g>
   <g id="line2d_17">
    <path clip-path="url(#p2fe187b6ab)" d="M 130.105909 542.69128 
L 133.104585 559.132233 
L 136.103262 559.132233 
L 139.101938 471.447149 
L 142.100614 389.242383 
L 145.099291 460.486514 
L 148.097967 575.573186 
L 151.096643 592.014139 
L 154.09532 531.730644 
L 157.093996 581.053504 
L 160.092672 548.171598 
L 163.091349 520.770009 
L 166.090025 548.171598 
L 169.088701 559.132233 
L 172.087378 581.053504 
L 175.086054 537.210962 
L 178.08473 586.533822 
L 181.083407 602.974775 
L 184.082083 553.651915 
L 187.080759 581.053504 
L 190.079436 482.407785 
L 193.078112 608.455093 
L 196.076788 581.053504 
L 199.075465 602.974775 
L 202.074141 592.014139 
L 205.072817 564.612551 
L 211.07017 608.455093 
L 214.068846 597.494457 
L 217.067522 613.93541 
L 220.066199 592.014139 
L 223.064875 597.494457 
L 226.063551 586.533822 
L 229.062228 608.455093 
L 232.060904 613.93541 
L 235.05958 597.494457 
L 238.058257 597.494457 
L 241.056933 581.053504 
L 244.055609 624.896046 
L 247.054286 602.974775 
L 253.051638 592.014139 
L 256.050315 613.93541 
L 259.048991 592.014139 
L 262.047667 613.93541 
L 265.046344 608.455093 
L 268.04502 613.93541 
L 271.043696 613.93541 
L 277.041049 602.974775 
L 280.039725 613.93541 
L 283.038402 602.974775 
L 286.037078 575.573186 
L 289.035754 581.053504 
L 292.034431 592.014139 
L 295.033107 613.93541 
L 298.031783 597.494457 
L 301.03046 592.014139 
L 304.029136 613.93541 
L 307.027812 613.93541 
L 310.026489 597.494457 
L 313.025165 624.896046 
L 316.023841 613.93541 
L 319.022517 597.494457 
L 322.021194 613.93541 
L 325.01987 619.415728 
L 328.018546 613.93541 
L 331.017223 592.014139 
L 334.015899 592.014139 
L 337.014575 597.494457 
L 340.013252 575.573186 
L 343.011928 624.896046 
L 346.010604 602.974775 
L 352.007957 613.93541 
L 355.006633 602.974775 
L 358.00531 613.93541 
L 361.003986 608.455093 
L 364.002662 597.494457 
L 370.000015 619.415728 
L 372.998691 586.533822 
L 375.997368 586.533822 
L 378.996044 602.974775 
L 381.99472 613.93541 
L 384.993397 575.573186 
L 387.992073 602.974775 
L 390.990749 575.573186 
L 393.989426 608.455093 
L 399.986778 630.376364 
L 402.985455 624.896046 
L 405.984131 613.93541 
L 408.982807 553.651915 
L 411.981484 548.171598 
L 414.98016 575.573186 
L 417.978836 570.092868 
L 420.977512 559.132233 
L 423.976189 493.36842 
L 426.974865 493.36842 
L 429.973541 504.329056 
L 432.972218 509.809373 
L 435.970894 476.927467 
L 438.96957 559.132233 
L 441.968247 531.730644 
L 444.966923 509.809373 
L 447.965599 482.407785 
L 450.964276 449.525878 
L 453.962952 608.455093 
L 456.961628 537.210962 
L 459.960305 476.927467 
L 462.958981 542.69128 
L 465.957657 449.525878 
L 468.956334 476.927467 
L 471.95501 509.809373 
L 474.953686 493.36842 
L 477.952363 438.565243 
L 480.951039 449.525878 
L 483.949715 515.289691 
L 486.948392 356.360477 
L 489.947068 482.407785 
L 492.945744 400.203019 
L 495.944421 504.329056 
L 498.943097 520.770009 
L 501.941773 394.722701 
L 504.94045 515.289691 
L 507.939126 438.565243 
L 510.937802 465.966831 
L 513.936479 460.486514 
L 516.935155 444.04556 
L 519.933831 520.770009 
L 522.932507 509.809373 
L 525.931184 542.69128 
L 528.92986 471.447149 
L 534.927213 537.210962 
L 537.925889 548.171598 
L 540.924565 548.171598 
L 543.923242 624.896046 
L 546.921918 575.573186 
L 549.920594 592.014139 
L 552.919271 361.840794 
L 555.917947 487.888102 
L 558.916623 559.132233 
L 561.9153 570.092868 
L 564.913976 548.171598 
L 567.912652 559.132233 
L 570.911329 465.966831 
L 573.910005 520.770009 
L 576.908681 515.289691 
L 579.907358 526.250327 
L 582.906034 520.770009 
L 585.90471 455.006196 
L 588.903387 581.053504 
L 591.902063 537.210962 
L 594.900739 433.084925 
L 597.899416 531.730644 
L 600.898092 548.171598 
L 603.896768 548.171598 
L 606.895445 504.329056 
L 609.894121 586.533822 
L 612.892797 542.69128 
L 615.891474 542.69128 
L 621.888826 586.533822 
L 624.887502 570.092868 
L 627.886179 586.533822 
L 630.884855 619.415728 
L 633.883531 482.407785 
L 636.882208 559.132233 
L 639.880884 553.651915 
L 642.87956 559.132233 
L 645.878237 531.730644 
L 648.876913 581.053504 
L 651.875589 586.533822 
L 654.874266 608.455093 
L 657.872942 597.494457 
L 660.871618 531.730644 
L 663.870295 515.289691 
L 669.867647 515.289691 
L 672.866324 542.69128 
L 675.865 526.250327 
L 678.863676 493.36842 
L 681.862353 498.848738 
L 684.861029 465.966831 
L 687.859705 455.006196 
L 690.858382 356.360477 
L 693.857058 487.888102 
L 696.855734 312.517935 
L 699.854411 323.47857 
L 702.853087 372.80143 
L 705.851763 334.439206 
L 708.85044 312.517935 
L 711.849116 301.557299 
L 714.847792 339.919523 
L 717.846469 296.076981 
L 720.845145 246.754122 
L 723.843821 339.919523 
L 726.842498 383.762065 
L 729.841174 334.439206 
L 732.83985 312.517935 
L 735.838526 394.722701 
L 738.837203 389.242383 
L 741.835879 400.203019 
L 744.834555 323.47857 
L 747.833232 356.360477 
L 750.831908 312.517935 
L 753.830584 422.124289 
L 756.829261 504.329056 
L 759.827937 356.360477 
L 762.826613 422.124289 
L 765.82529 241.273804 
L 768.823966 301.557299 
L 771.822642 405.683336 
L 774.821319 328.958888 
L 777.819995 427.604607 
L 780.818671 482.407785 
L 783.817348 394.722701 
L 786.816024 471.447149 
L 789.8147 378.281748 
L 792.813377 493.36842 
L 795.812053 498.848738 
L 798.810729 493.36842 
L 801.809406 411.163654 
L 804.808082 498.848738 
L 807.806758 400.203019 
L 810.805435 455.006196 
L 813.804111 394.722701 
L 816.802787 542.69128 
L 819.801464 520.770009 
L 822.80014 542.69128 
L 825.798816 493.36842 
L 828.797493 487.888102 
L 831.796169 542.69128 
L 837.793521 597.494457 
L 840.792198 581.053504 
L 843.790874 559.132233 
L 846.78955 515.289691 
L 849.788227 559.132233 
L 852.786903 559.132233 
L 855.785579 520.770009 
L 858.784256 542.69128 
L 861.782932 526.250327 
L 864.781608 526.250327 
L 867.780285 465.966831 
L 870.778961 581.053504 
L 873.777637 515.289691 
L 876.776314 531.730644 
L 879.77499 520.770009 
L 882.773666 328.958888 
L 885.772343 394.722701 
L 888.771019 526.250327 
L 891.769695 548.171598 
L 894.768372 586.533822 
L 897.767048 498.848738 
L 900.765724 581.053504 
L 906.763077 504.329056 
L 909.761753 526.250327 
L 912.76043 559.132233 
L 915.759106 564.612551 
L 918.757782 515.289691 
L 921.756459 564.612551 
L 924.755135 559.132233 
L 927.753811 542.69128 
L 930.752488 476.927467 
L 933.751164 537.210962 
L 936.74984 531.730644 
L 939.748516 586.533822 
L 942.747193 586.533822 
L 945.745869 564.612551 
L 948.744545 564.612551 
L 951.743222 526.250327 
L 957.740574 537.210962 
L 960.739251 531.730644 
L 963.737927 581.053504 
L 966.736603 548.171598 
L 969.73528 504.329056 
L 972.733956 526.250327 
L 975.732632 526.250327 
L 978.731309 509.809373 
L 981.729985 548.171598 
L 984.728661 548.171598 
L 987.727338 575.573186 
L 990.726014 493.36842 
L 993.72469 586.533822 
L 996.723367 487.888102 
L 999.722043 537.210962 
L 1002.720719 537.210962 
L 1005.719396 559.132233 
L 1008.718072 520.770009 
L 1011.716748 411.163654 
L 1014.715425 482.407785 
L 1017.714101 504.329056 
L 1023.711454 504.329056 
L 1026.71013 487.888102 
L 1029.708806 515.289691 
L 1032.707483 471.447149 
L 1035.706159 465.966831 
L 1038.704835 444.04556 
L 1041.703511 548.171598 
L 1044.702188 509.809373 
L 1047.700864 487.888102 
L 1050.69954 553.651915 
L 1053.698217 520.770009 
L 1056.696893 504.329056 
L 1059.695569 504.329056 
L 1062.694246 449.525878 
L 1065.692922 520.770009 
L 1068.691598 559.132233 
L 1071.690275 520.770009 
L 1074.688951 471.447149 
L 1077.687627 542.69128 
L 1080.686304 542.69128 
L 1083.68498 455.006196 
L 1086.683656 493.36842 
L 1089.682333 509.809373 
L 1092.681009 592.014139 
L 1095.679685 422.124289 
L 1098.678362 471.447149 
L 1101.677038 498.848738 
L 1104.675714 476.927467 
L 1107.674391 526.250327 
L 1110.673067 542.69128 
L 1113.671743 509.809373 
L 1116.67042 515.289691 
L 1119.669096 509.809373 
L 1122.667772 460.486514 
L 1125.666449 482.407785 
L 1128.665125 553.651915 
L 1131.663801 553.651915 
L 1134.662478 471.447149 
L 1137.661154 460.486514 
L 1140.65983 274.155711 
L 1143.658506 394.722701 
L 1146.657183 504.329056 
L 1149.655859 438.565243 
L 1152.654535 460.486514 
L 1155.653212 520.770009 
L 1158.651888 433.084925 
L 1161.650564 372.80143 
L 1164.649241 378.281748 
L 1170.646593 422.124289 
L 1173.64527 433.084925 
L 1176.643946 416.643972 
L 1179.642622 449.525878 
L 1182.641299 433.084925 
L 1185.639975 378.281748 
L 1188.638651 317.998252 
L 1191.637328 213.872215 
L 1194.636004 334.439206 
L 1197.63468 405.683336 
L 1200.633357 394.722701 
L 1203.632033 202.91158 
L 1206.630709 252.23444 
L 1209.629386 252.23444 
L 1212.628062 328.958888 
L 1215.626738 323.47857 
L 1218.625415 361.840794 
L 1221.624091 455.006196 
L 1221.624091 455.006196 
" style="fill:none;stroke:#03a9f4;stroke-linecap:square;stroke-width:1.5;"/>
   </g>
   <g id="patch_3">
    <path d="M 75.53 658.6 
L 75.53 37.68 
" style="fill:none;stroke:#000000;stroke-linecap:square;stroke-linejoin:miter;stroke-width:0.8;"/>
   </g>
   <g id="patch_4">
    <path d="M 1276.2 658.6 
L 1276.2 37.68 
" style="fill:none;stroke:#000000;stroke-linecap:square;stroke-linejoin:miter;stroke-width:0.8;"/>
   </g>
   <g id="patch_5">
    <path d="M 75.53 658.6 
L 1276.2 658.6 
" style="fill:none;stroke:#000000;stroke-linecap:square;stroke-linejoin:miter;stroke-width:0.8;"/>
   </g>
   <g id="patch_6">
    <path d="M 75.53 37.68 
L 1276.2 37.68 
" style="fill:none;stroke:#000000;stroke-linecap:square;stroke-linejoin:miter;stroke-width:0.8;"/>
   </g>
   <g id="text_17">
    <!-- Rezervacije soba za 01.07. -->
    <defs>
     <path d="M 44.390625 34.1875 
Q 47.5625 33.109375 50.5625 29.59375 
Q 53.5625 26.078125 56.59375 19.921875 
L 66.609375 0 
L 56 0 
L 46.6875 18.703125 
Q 43.0625 26.03125 39.671875 28.421875 
Q 36.28125 30.8125 30.421875 30.8125 
L 19.671875 30.8125 
L 19.671875 0 
L 9.8125 0 
L 9.8125 72.90625 
L 32.078125 72.90625 
Q 44.578125 72.90625 50.734375 67.671875 
Q 56.890625 62.453125 56.890625 51.90625 
Q 56.890625 45.015625 53.6875 40.46875 
Q 50.484375 35.9375 44.390625 34.1875 
z
M 19.671875 64.796875 
L 19.671875 38.921875 
L 32.078125 38.921875 
Q 39.203125 38.921875 42.84375 42.21875 
Q 46.484375 45.515625 46.484375 51.90625 
Q 46.484375 58.296875 42.84375 61.546875 
Q 39.203125 64.796875 32.078125 64.796875 
z
" id="DejaVuSans-82"/>
     <path d="M 56.203125 29.59375 
L 56.203125 25.203125 
L 14.890625 25.203125 
Q 15.484375 15.921875 20.484375 11.0625 
Q 25.484375 6.203125 34.421875 6.203125 
Q 39.59375 6.203125 44.453125 7.46875 
Q 49.3125 8.734375 54.109375 11.28125 
L 54.109375 2.78125 
Q 49.265625 0.734375 44.1875 -0.34375 
Q 39.109375 -1.421875 33.890625 -1.421875 
Q 20.796875 -1.421875 13.15625 6.1875 
Q 5.515625 13.8125 5.515625 26.8125 
Q 5.515625 40.234375 12.765625 48.109375 
Q 20.015625 56 32.328125 56 
Q 43.359375 56 49.78125 48.890625 
Q 56.203125 41.796875 56.203125 29.59375 
z
M 47.21875 32.234375 
Q 47.125 39.59375 43.09375 43.984375 
Q 39.0625 48.390625 32.421875 48.390625 
Q 24.90625 48.390625 20.390625 44.140625 
Q 15.875 39.890625 15.1875 32.171875 
z
" id="DejaVuSans-101"/>
     <path d="M 5.515625 54.6875 
L 48.1875 54.6875 
L 48.1875 46.484375 
L 14.40625 7.171875 
L 48.1875 7.171875 
L 48.1875 0 
L 4.296875 0 
L 4.296875 8.203125 
L 38.09375 47.515625 
L 5.515625 47.515625 
z
" id="DejaVuSans-122"/>
     <path d="M 2.984375 54.6875 
L 12.5 54.6875 
L 29.59375 8.796875 
L 46.6875 54.6875 
L 56.203125 54.6875 
L 35.6875 0 
L 23.484375 0 
z
" id="DejaVuSans-118"/>
     <path d="M 48.78125 52.59375 
L 48.78125 44.1875 
Q 44.96875 46.296875 41.140625 47.34375 
Q 37.3125 48.390625 33.40625 48.390625 
Q 24.65625 48.390625 19.8125 42.84375 
Q 14.984375 37.3125 14.984375 27.296875 
Q 14.984375 17.28125 19.8125 11.734375 
Q 24.65625 6.203125 33.40625 6.203125 
Q 37.3125 6.203125 41.140625 7.25 
Q 44.96875 8.296875 48.78125 10.40625 
L 48.78125 2.09375 
Q 45.015625 0.34375 40.984375 -0.53125 
Q 36.96875 -1.421875 32.421875 -1.421875 
Q 20.0625 -1.421875 12.78125 6.34375 
Q 5.515625 14.109375 5.515625 27.296875 
Q 5.515625 40.671875 12.859375 48.328125 
Q 20.21875 56 33.015625 56 
Q 37.15625 56 41.109375 55.140625 
Q 45.0625 54.296875 48.78125 52.59375 
z
" id="DejaVuSans-99"/>
     <path d="M 9.421875 54.6875 
L 18.40625 54.6875 
L 18.40625 0 
L 9.421875 0 
z
M 9.421875 75.984375 
L 18.40625 75.984375 
L 18.40625 64.59375 
L 9.421875 64.59375 
z
" id="DejaVuSans-105"/>
     <path d="M 10.6875 12.40625 
L 21 12.40625 
L 21 0 
L 10.6875 0 
z
" id="DejaVuSans-46"/>
     <path d="M 8.203125 72.90625 
L 55.078125 72.90625 
L 55.078125 68.703125 
L 28.609375 0 
L 18.3125 0 
L 43.21875 64.59375 
L 8.203125 64.59375 
z
" id="DejaVuSans-55"/>
    </defs>
    <g transform="translate(546.856 31.68)scale(0.192 -0.192)">
     <use xlink:href="#DejaVuSans-82"/>
     <use x="69.419922" xlink:href="#DejaVuSans-101"/>
     <use x="130.943359" xlink:href="#DejaVuSans-122"/>
     <use x="183.433594" xlink:href="#DejaVuSans-101"/>
     <use x="244.957031" xlink:href="#DejaVuSans-114"/>
     <use x="286.070312" xlink:href="#DejaVuSans-118"/>
     <use x="345.25" xlink:href="#DejaVuSans-97"/>
     <use x="406.529297" xlink:href="#DejaVuSans-99"/>
     <use x="461.509766" xlink:href="#DejaVuSans-105"/>
     <use x="489.292969" xlink:href="#DejaVuSans-106"/>
     <use x="517.076172" xlink:href="#DejaVuSans-101"/>
     <use x="578.599609" xlink:href="#DejaVuSans-32"/>
     <use x="610.386719" xlink:href="#DejaVuSans-115"/>
     <use x="662.486328" xlink:href="#DejaVuSans-111"/>
     <use x="723.667969" xlink:href="#DejaVuSans-98"/>
     <use x="787.144531" xlink:href="#DejaVuSans-97"/>
     <use x="848.423828" xlink:href="#DejaVuSans-32"/>
     <use x="880.210938" xlink:href="#DejaVuSans-122"/>
     <use x="932.701172" xlink:href="#DejaVuSans-97"/>
     <use x="993.980469" xlink:href="#DejaVuSans-32"/>
     <use x="1025.767578" xlink:href="#DejaVuSans-48"/>
     <use x="1089.390625" xlink:href="#DejaVuSans-49"/>
     <use x="1153.013672" xlink:href="#DejaVuSans-46"/>
     <use x="1184.800781" xlink:href="#DejaVuSans-48"/>
     <use x="1248.423828" xlink:href="#DejaVuSans-55"/>
     <use x="1312.046875" xlink:href="#DejaVuSans-46"/>
    </g>
   </g>
   <g id="legend_1">
    <g id="patch_7">
     <path d="M 86.73 120.935 
L 178.65 120.935 
Q 181.85 120.935 181.85 117.735 
L 181.85 48.88 
Q 181.85 45.68 178.65 45.68 
L 86.73 45.68 
Q 83.53 45.68 83.53 48.88 
L 83.53 117.735 
Q 83.53 120.935 86.73 120.935 
z
" style="fill:#ffffff;opacity:0.8;stroke:#cccccc;stroke-linejoin:miter;"/>
    </g>
    <g id="line2d_18">
     <path d="M 89.93 58.6375 
L 121.93 58.6375 
" style="fill:none;stroke:#f44336;stroke-linecap:square;stroke-width:1.5;"/>
    </g>
    <g id="line2d_19"/>
    <g id="text_18">
     <!-- 2016 -->
     <g transform="translate(134.73 64.2375)scale(0.16 -0.16)">
      <use xlink:href="#DejaVuSans-50"/>
      <use x="63.623047" xlink:href="#DejaVuSans-48"/>
      <use x="127.246094" xlink:href="#DejaVuSans-49"/>
      <use x="190.869141" xlink:href="#DejaVuSans-54"/>
     </g>
    </g>
    <g id="line2d_20">
     <path d="M 89.93 82.1225 
L 121.93 82.1225 
" style="fill:none;stroke:#673ab7;stroke-linecap:square;stroke-width:1.5;"/>
    </g>
    <g id="line2d_21"/>
    <g id="text_19">
     <!-- 2017 -->
     <g transform="translate(134.73 87.7225)scale(0.16 -0.16)">
      <use xlink:href="#DejaVuSans-50"/>
      <use x="63.623047" xlink:href="#DejaVuSans-48"/>
      <use x="127.246094" xlink:href="#DejaVuSans-49"/>
      <use x="190.869141" xlink:href="#DejaVuSans-55"/>
     </g>
    </g>
    <g id="line2d_22">
     <path d="M 89.93 105.6075 
L 121.93 105.6075 
" style="fill:none;stroke:#03a9f4;stroke-linecap:square;stroke-width:1.5;"/>
    </g>
    <g id="line2d_23"/>
    <g id="text_20">
     <!-- 2018 -->
     <g transform="translate(134.73 111.2075)scale(0.16 -0.16)">
      <use xlink:href="#DejaVuSans-50"/>
      <use x="63.623047" xlink:href="#DejaVuSans-48"/>
      <use x="127.246094" xlink:href="#DejaVuSans-49"/>
      <use x="190.869141" xlink:href="#DejaVuSans-56"/>
     </g>
    </g>
   </g>
  </g>
 </g>
 <defs>
  <clipPath id="p2fe187b6ab">
   <rect height="620.92" width="1200.67" x="75.53" y="37.68"/>
  </clipPath>
 </defs>
</svg>
