<?xml version="1.0" encoding="utf-8" standalone="no"?>
<!DOCTYPE svg PUBLIC "-//W3C//DTD SVG 1.1//EN"
  "http://www.w3.org/Graphics/SVG/1.1/DTD/svg11.dtd">
<!-- Created with matplotlib (https://matplotlib.org/) -->
<svg height="288pt" version="1.1" viewBox="0 0 1296 288" width="1296pt" xmlns="http://www.w3.org/2000/svg" xmlns:xlink="http://www.w3.org/1999/xlink">
 <defs>
  <style type="text/css">
*{stroke-linecap:butt;stroke-linejoin:round;}
  </style>
 </defs>
 <g id="figure_1">
  <g id="patch_1">
   <path d="M 0 288 
L 1296 288 
L 1296 0 
L 0 0 
z
" style="fill:#ffffff;"/>
  </g>
  <g id="axes_1">
   <g id="patch_2">
    <path d="M 44.71 195.653619 
L 1276.2 195.653619 
L 1276.2 37.68 
L 44.71 37.68 
z
" style="fill:#ffffff;"/>
   </g>
   <g id="matplotlib.axis_1">
    <g id="xtick_1">
     <g id="line2d_1">
      <defs>
       <path d="M 0 0 
L 0 3.5 
" id="mb4b8d9a6be" style="stroke:#000000;stroke-width:0.8;"/>
      </defs>
      <g>
       <use style="stroke:#000000;stroke-width:0.8;" x="114.37458" xlink:href="#mb4b8d9a6be" y="195.653619"/>
      </g>
     </g>
     <g id="text_1">
      <!-- 09.2015 -->
      <defs>
       <path d="M 31.78125 66.40625 
Q 24.171875 66.40625 20.328125 58.90625 
Q 16.5 51.421875 16.5 36.375 
Q 16.5 21.390625 20.328125 13.890625 
Q 24.171875 6.390625 31.78125 6.390625 
Q 39.453125 6.390625 43.28125 13.890625 
Q 47.125 21.390625 47.125 36.375 
Q 47.125 51.421875 43.28125 58.90625 
Q 39.453125 66.40625 31.78125 66.40625 
z
M 31.78125 74.21875 
Q 44.046875 74.21875 50.515625 64.515625 
Q 56.984375 54.828125 56.984375 36.375 
Q 56.984375 17.96875 50.515625 8.265625 
Q 44.046875 -1.421875 31.78125 -1.421875 
Q 19.53125 -1.421875 13.0625 8.265625 
Q 6.59375 17.96875 6.59375 36.375 
Q 6.59375 54.828125 13.0625 64.515625 
Q 19.53125 74.21875 31.78125 74.21875 
z
" id="DejaVuSans-48"/>
       <path d="M 10.984375 1.515625 
L 10.984375 10.5 
Q 14.703125 8.734375 18.5 7.8125 
Q 22.3125 6.890625 25.984375 6.890625 
Q 35.75 6.890625 40.890625 13.453125 
Q 46.046875 20.015625 46.78125 33.40625 
Q 43.953125 29.203125 39.59375 26.953125 
Q 35.25 24.703125 29.984375 24.703125 
Q 19.046875 24.703125 12.671875 31.3125 
Q 6.296875 37.9375 6.296875 49.421875 
Q 6.296875 60.640625 12.9375 67.421875 
Q 19.578125 74.21875 30.609375 74.21875 
Q 43.265625 74.21875 49.921875 64.515625 
Q 56.59375 54.828125 56.59375 36.375 
Q 56.59375 19.140625 48.40625 8.859375 
Q 40.234375 -1.421875 26.421875 -1.421875 
Q 22.703125 -1.421875 18.890625 -0.6875 
Q 15.09375 0.046875 10.984375 1.515625 
z
M 30.609375 32.421875 
Q 37.25 32.421875 41.125 36.953125 
Q 45.015625 41.5 45.015625 49.421875 
Q 45.015625 57.28125 41.125 61.84375 
Q 37.25 66.40625 30.609375 66.40625 
Q 23.96875 66.40625 20.09375 61.84375 
Q 16.21875 57.28125 16.21875 49.421875 
Q 16.21875 41.5 20.09375 36.953125 
Q 23.96875 32.421875 30.609375 32.421875 
z
" id="DejaVuSans-57"/>
       <path d="M 10.6875 12.40625 
L 21 12.40625 
L 21 0 
L 10.6875 0 
z
" id="DejaVuSans-46"/>
       <path d="M 19.1875 8.296875 
L 53.609375 8.296875 
L 53.609375 0 
L 7.328125 0 
L 7.328125 8.296875 
Q 12.9375 14.109375 22.625 23.890625 
Q 32.328125 33.6875 34.8125 36.53125 
Q 39.546875 41.84375 41.421875 45.53125 
Q 43.3125 49.21875 43.3125 52.78125 
Q 43.3125 58.59375 39.234375 62.25 
Q 35.15625 65.921875 28.609375 65.921875 
Q 23.96875 65.921875 18.8125 64.3125 
Q 13.671875 62.703125 7.8125 59.421875 
L 7.8125 69.390625 
Q 13.765625 71.78125 18.9375 73 
Q 24.125 74.21875 28.421875 74.21875 
Q 39.75 74.21875 46.484375 68.546875 
Q 53.21875 62.890625 53.21875 53.421875 
Q 53.21875 48.921875 51.53125 44.890625 
Q 49.859375 40.875 45.40625 35.40625 
Q 44.1875 33.984375 37.640625 27.21875 
Q 31.109375 20.453125 19.1875 8.296875 
z
" id="DejaVuSans-50"/>
       <path d="M 12.40625 8.296875 
L 28.515625 8.296875 
L 28.515625 63.921875 
L 10.984375 60.40625 
L 10.984375 69.390625 
L 28.421875 72.90625 
L 38.28125 72.90625 
L 38.28125 8.296875 
L 54.390625 8.296875 
L 54.390625 0 
L 12.40625 0 
z
" id="DejaVuSans-49"/>
       <path d="M 10.796875 72.90625 
L 49.515625 72.90625 
L 49.515625 64.59375 
L 19.828125 64.59375 
L 19.828125 46.734375 
Q 21.96875 47.46875 24.109375 47.828125 
Q 26.265625 48.1875 28.421875 48.1875 
Q 40.625 48.1875 47.75 41.5 
Q 54.890625 34.8125 54.890625 23.390625 
Q 54.890625 11.625 47.5625 5.09375 
Q 40.234375 -1.421875 26.90625 -1.421875 
Q 22.3125 -1.421875 17.546875 -0.640625 
Q 12.796875 0.140625 7.71875 1.703125 
L 7.71875 11.625 
Q 12.109375 9.234375 16.796875 8.0625 
Q 21.484375 6.890625 26.703125 6.890625 
Q 35.15625 6.890625 40.078125 11.328125 
Q 45.015625 15.765625 45.015625 23.390625 
Q 45.015625 31 40.078125 35.4375 
Q 35.15625 39.890625 26.703125 39.890625 
Q 22.75 39.890625 18.8125 39.015625 
Q 14.890625 38.140625 10.796875 36.28125 
z
" id="DejaVuSans-53"/>
      </defs>
      <g transform="translate(55.410259 246.264823)rotate(-30)scale(0.16 -0.16)">
       <use xlink:href="#DejaVuSans-48"/>
       <use x="63.623047" xlink:href="#DejaVuSans-57"/>
       <use x="127.246094" xlink:href="#DejaVuSans-46"/>
       <use x="159.033203" xlink:href="#DejaVuSans-50"/>
       <use x="222.65625" xlink:href="#DejaVuSans-48"/>
       <use x="286.279297" xlink:href="#DejaVuSans-49"/>
       <use x="349.902344" xlink:href="#DejaVuSans-53"/>
      </g>
     </g>
    </g>
    <g id="xtick_2">
     <g id="line2d_2">
      <g>
       <use style="stroke:#000000;stroke-width:0.8;" x="251.456496" xlink:href="#mb4b8d9a6be" y="195.653619"/>
      </g>
     </g>
     <g id="text_2">
      <!-- 01.2016 -->
      <defs>
       <path d="M 33.015625 40.375 
Q 26.375 40.375 22.484375 35.828125 
Q 18.609375 31.296875 18.609375 23.390625 
Q 18.609375 15.53125 22.484375 10.953125 
Q 26.375 6.390625 33.015625 6.390625 
Q 39.65625 6.390625 43.53125 10.953125 
Q 47.40625 15.53125 47.40625 23.390625 
Q 47.40625 31.296875 43.53125 35.828125 
Q 39.65625 40.375 33.015625 40.375 
z
M 52.59375 71.296875 
L 52.59375 62.3125 
Q 48.875 64.0625 45.09375 64.984375 
Q 41.3125 65.921875 37.59375 65.921875 
Q 27.828125 65.921875 22.671875 59.328125 
Q 17.53125 52.734375 16.796875 39.40625 
Q 19.671875 43.65625 24.015625 45.921875 
Q 28.375 48.1875 33.59375 48.1875 
Q 44.578125 48.1875 50.953125 41.515625 
Q 57.328125 34.859375 57.328125 23.390625 
Q 57.328125 12.15625 50.6875 5.359375 
Q 44.046875 -1.421875 33.015625 -1.421875 
Q 20.359375 -1.421875 13.671875 8.265625 
Q 6.984375 17.96875 6.984375 36.375 
Q 6.984375 53.65625 15.1875 63.9375 
Q 23.390625 74.21875 37.203125 74.21875 
Q 40.921875 74.21875 44.703125 73.484375 
Q 48.484375 72.75 52.59375 71.296875 
z
" id="DejaVuSans-54"/>
      </defs>
      <g transform="translate(192.492176 246.264823)rotate(-30)scale(0.16 -0.16)">
       <use xlink:href="#DejaVuSans-48"/>
       <use x="63.623047" xlink:href="#DejaVuSans-49"/>
       <use x="127.246094" xlink:href="#DejaVuSans-46"/>
       <use x="159.033203" xlink:href="#DejaVuSans-50"/>
       <use x="222.65625" xlink:href="#DejaVuSans-48"/>
       <use x="286.279297" xlink:href="#DejaVuSans-49"/>
       <use x="349.902344" xlink:href="#DejaVuSans-54"/>
      </g>
     </g>
    </g>
    <g id="xtick_3">
     <g id="line2d_3">
      <g>
       <use style="stroke:#000000;stroke-width:0.8;" x="387.41479" xlink:href="#mb4b8d9a6be" y="195.653619"/>
      </g>
     </g>
     <g id="text_3">
      <!-- 05.2016 -->
      <g transform="translate(328.450469 246.264823)rotate(-30)scale(0.16 -0.16)">
       <use xlink:href="#DejaVuSans-48"/>
       <use x="63.623047" xlink:href="#DejaVuSans-53"/>
       <use x="127.246094" xlink:href="#DejaVuSans-46"/>
       <use x="159.033203" xlink:href="#DejaVuSans-50"/>
       <use x="222.65625" xlink:href="#DejaVuSans-48"/>
       <use x="286.279297" xlink:href="#DejaVuSans-49"/>
       <use x="349.902344" xlink:href="#DejaVuSans-54"/>
      </g>
     </g>
    </g>
    <g id="xtick_4">
     <g id="line2d_4">
      <g>
       <use style="stroke:#000000;stroke-width:0.8;" x="525.620328" xlink:href="#mb4b8d9a6be" y="195.653619"/>
      </g>
     </g>
     <g id="text_4">
      <!-- 09.2016 -->
      <g transform="translate(466.656008 246.264823)rotate(-30)scale(0.16 -0.16)">
       <use xlink:href="#DejaVuSans-48"/>
       <use x="63.623047" xlink:href="#DejaVuSans-57"/>
       <use x="127.246094" xlink:href="#DejaVuSans-46"/>
       <use x="159.033203" xlink:href="#DejaVuSans-50"/>
       <use x="222.65625" xlink:href="#DejaVuSans-48"/>
       <use x="286.279297" xlink:href="#DejaVuSans-49"/>
       <use x="349.902344" xlink:href="#DejaVuSans-54"/>
      </g>
     </g>
    </g>
    <g id="xtick_5">
     <g id="line2d_5">
      <g>
       <use style="stroke:#000000;stroke-width:0.8;" x="662.702245" xlink:href="#mb4b8d9a6be" y="195.653619"/>
      </g>
     </g>
     <g id="text_5">
      <!-- 01.2017 -->
      <defs>
       <path d="M 8.203125 72.90625 
L 55.078125 72.90625 
L 55.078125 68.703125 
L 28.609375 0 
L 18.3125 0 
L 43.21875 64.59375 
L 8.203125 64.59375 
z
" id="DejaVuSans-55"/>
      </defs>
      <g transform="translate(603.737924 246.264823)rotate(-30)scale(0.16 -0.16)">
       <use xlink:href="#DejaVuSans-48"/>
       <use x="63.623047" xlink:href="#DejaVuSans-49"/>
       <use x="127.246094" xlink:href="#DejaVuSans-46"/>
       <use x="159.033203" xlink:href="#DejaVuSans-50"/>
       <use x="222.65625" xlink:href="#DejaVuSans-48"/>
       <use x="286.279297" xlink:href="#DejaVuSans-49"/>
       <use x="349.902344" xlink:href="#DejaVuSans-55"/>
      </g>
     </g>
    </g>
    <g id="xtick_6">
     <g id="line2d_6">
      <g>
       <use style="stroke:#000000;stroke-width:0.8;" x="797.536916" xlink:href="#mb4b8d9a6be" y="195.653619"/>
      </g>
     </g>
     <g id="text_6">
      <!-- 05.2017 -->
      <g transform="translate(738.572595 246.264823)rotate(-30)scale(0.16 -0.16)">
       <use xlink:href="#DejaVuSans-48"/>
       <use x="63.623047" xlink:href="#DejaVuSans-53"/>
       <use x="127.246094" xlink:href="#DejaVuSans-46"/>
       <use x="159.033203" xlink:href="#DejaVuSans-50"/>
       <use x="222.65625" xlink:href="#DejaVuSans-48"/>
       <use x="286.279297" xlink:href="#DejaVuSans-49"/>
       <use x="349.902344" xlink:href="#DejaVuSans-55"/>
      </g>
     </g>
    </g>
    <g id="xtick_7">
     <g id="line2d_7">
      <g>
       <use style="stroke:#000000;stroke-width:0.8;" x="935.742454" xlink:href="#mb4b8d9a6be" y="195.653619"/>
      </g>
     </g>
     <g id="text_7">
      <!-- 09.2017 -->
      <g transform="translate(876.778134 246.264823)rotate(-30)scale(0.16 -0.16)">
       <use xlink:href="#DejaVuSans-48"/>
       <use x="63.623047" xlink:href="#DejaVuSans-57"/>
       <use x="127.246094" xlink:href="#DejaVuSans-46"/>
       <use x="159.033203" xlink:href="#DejaVuSans-50"/>
       <use x="222.65625" xlink:href="#DejaVuSans-48"/>
       <use x="286.279297" xlink:href="#DejaVuSans-49"/>
       <use x="349.902344" xlink:href="#DejaVuSans-55"/>
      </g>
     </g>
    </g>
    <g id="xtick_8">
     <g id="line2d_8">
      <g>
       <use style="stroke:#000000;stroke-width:0.8;" x="1072.82437" xlink:href="#mb4b8d9a6be" y="195.653619"/>
      </g>
     </g>
     <g id="text_8">
      <!-- 01.2018 -->
      <defs>
       <path d="M 31.78125 34.625 
Q 24.75 34.625 20.71875 30.859375 
Q 16.703125 27.09375 16.703125 20.515625 
Q 16.703125 13.921875 20.71875 10.15625 
Q 24.75 6.390625 31.78125 6.390625 
Q 38.8125 6.390625 42.859375 10.171875 
Q 46.921875 13.96875 46.921875 20.515625 
Q 46.921875 27.09375 42.890625 30.859375 
Q 38.875 34.625 31.78125 34.625 
z
M 21.921875 38.8125 
Q 15.578125 40.375 12.03125 44.71875 
Q 8.5 49.078125 8.5 55.328125 
Q 8.5 64.0625 14.71875 69.140625 
Q 20.953125 74.21875 31.78125 74.21875 
Q 42.671875 74.21875 48.875 69.140625 
Q 55.078125 64.0625 55.078125 55.328125 
Q 55.078125 49.078125 51.53125 44.71875 
Q 48 40.375 41.703125 38.8125 
Q 48.828125 37.15625 52.796875 32.3125 
Q 56.78125 27.484375 56.78125 20.515625 
Q 56.78125 9.90625 50.3125 4.234375 
Q 43.84375 -1.421875 31.78125 -1.421875 
Q 19.734375 -1.421875 13.25 4.234375 
Q 6.78125 9.90625 6.78125 20.515625 
Q 6.78125 27.484375 10.78125 32.3125 
Q 14.796875 37.15625 21.921875 38.8125 
z
M 18.3125 54.390625 
Q 18.3125 48.734375 21.84375 45.5625 
Q 25.390625 42.390625 31.78125 42.390625 
Q 38.140625 42.390625 41.71875 45.5625 
Q 45.3125 48.734375 45.3125 54.390625 
Q 45.3125 60.0625 41.71875 63.234375 
Q 38.140625 66.40625 31.78125 66.40625 
Q 25.390625 66.40625 21.84375 63.234375 
Q 18.3125 60.0625 18.3125 54.390625 
z
" id="DejaVuSans-56"/>
      </defs>
      <g transform="translate(1013.86005 246.264823)rotate(-30)scale(0.16 -0.16)">
       <use xlink:href="#DejaVuSans-48"/>
       <use x="63.623047" xlink:href="#DejaVuSans-49"/>
       <use x="127.246094" xlink:href="#DejaVuSans-46"/>
       <use x="159.033203" xlink:href="#DejaVuSans-50"/>
       <use x="222.65625" xlink:href="#DejaVuSans-48"/>
       <use x="286.279297" xlink:href="#DejaVuSans-49"/>
       <use x="349.902344" xlink:href="#DejaVuSans-56"/>
      </g>
     </g>
    </g>
    <g id="xtick_9">
     <g id="line2d_9">
      <g>
       <use style="stroke:#000000;stroke-width:0.8;" x="1207.659042" xlink:href="#mb4b8d9a6be" y="195.653619"/>
      </g>
     </g>
     <g id="text_9">
      <!-- 05.2018 -->
      <g transform="translate(1148.694721 246.264823)rotate(-30)scale(0.16 -0.16)">
       <use xlink:href="#DejaVuSans-48"/>
       <use x="63.623047" xlink:href="#DejaVuSans-53"/>
       <use x="127.246094" xlink:href="#DejaVuSans-46"/>
       <use x="159.033203" xlink:href="#DejaVuSans-50"/>
       <use x="222.65625" xlink:href="#DejaVuSans-48"/>
       <use x="286.279297" xlink:href="#DejaVuSans-49"/>
       <use x="349.902344" xlink:href="#DejaVuSans-56"/>
      </g>
     </g>
    </g>
    <g id="text_10">
     <!-- Datum -->
     <defs>
      <path d="M 19.671875 64.796875 
L 19.671875 8.109375 
L 31.59375 8.109375 
Q 46.6875 8.109375 53.6875 14.9375 
Q 60.6875 21.78125 60.6875 36.53125 
Q 60.6875 51.171875 53.6875 57.984375 
Q 46.6875 64.796875 31.59375 64.796875 
z
M 9.8125 72.90625 
L 30.078125 72.90625 
Q 51.265625 72.90625 61.171875 64.09375 
Q 71.09375 55.28125 71.09375 36.53125 
Q 71.09375 17.671875 61.125 8.828125 
Q 51.171875 0 30.078125 0 
L 9.8125 0 
z
" id="DejaVuSans-68"/>
      <path d="M 34.28125 27.484375 
Q 23.390625 27.484375 19.1875 25 
Q 14.984375 22.515625 14.984375 16.5 
Q 14.984375 11.71875 18.140625 8.90625 
Q 21.296875 6.109375 26.703125 6.109375 
Q 34.1875 6.109375 38.703125 11.40625 
Q 43.21875 16.703125 43.21875 25.484375 
L 43.21875 27.484375 
z
M 52.203125 31.203125 
L 52.203125 0 
L 43.21875 0 
L 43.21875 8.296875 
Q 40.140625 3.328125 35.546875 0.953125 
Q 30.953125 -1.421875 24.3125 -1.421875 
Q 15.921875 -1.421875 10.953125 3.296875 
Q 6 8.015625 6 15.921875 
Q 6 25.140625 12.171875 29.828125 
Q 18.359375 34.515625 30.609375 34.515625 
L 43.21875 34.515625 
L 43.21875 35.40625 
Q 43.21875 41.609375 39.140625 45 
Q 35.0625 48.390625 27.6875 48.390625 
Q 23 48.390625 18.546875 47.265625 
Q 14.109375 46.140625 10.015625 43.890625 
L 10.015625 52.203125 
Q 14.9375 54.109375 19.578125 55.046875 
Q 24.21875 56 28.609375 56 
Q 40.484375 56 46.34375 49.84375 
Q 52.203125 43.703125 52.203125 31.203125 
z
" id="DejaVuSans-97"/>
      <path d="M 18.3125 70.21875 
L 18.3125 54.6875 
L 36.8125 54.6875 
L 36.8125 47.703125 
L 18.3125 47.703125 
L 18.3125 18.015625 
Q 18.3125 11.328125 20.140625 9.421875 
Q 21.96875 7.515625 27.59375 7.515625 
L 36.8125 7.515625 
L 36.8125 0 
L 27.59375 0 
Q 17.1875 0 13.234375 3.875 
Q 9.28125 7.765625 9.28125 18.015625 
L 9.28125 47.703125 
L 2.6875 47.703125 
L 2.6875 54.6875 
L 9.28125 54.6875 
L 9.28125 70.21875 
z
" id="DejaVuSans-116"/>
      <path d="M 8.5 21.578125 
L 8.5 54.6875 
L 17.484375 54.6875 
L 17.484375 21.921875 
Q 17.484375 14.15625 20.5 10.265625 
Q 23.53125 6.390625 29.59375 6.390625 
Q 36.859375 6.390625 41.078125 11.03125 
Q 45.3125 15.671875 45.3125 23.6875 
L 45.3125 54.6875 
L 54.296875 54.6875 
L 54.296875 0 
L 45.3125 0 
L 45.3125 8.40625 
Q 42.046875 3.421875 37.71875 1 
Q 33.40625 -1.421875 27.6875 -1.421875 
Q 18.265625 -1.421875 13.375 4.4375 
Q 8.5 10.296875 8.5 21.578125 
z
M 31.109375 56 
z
" id="DejaVuSans-117"/>
      <path d="M 52 44.1875 
Q 55.375 50.25 60.0625 53.125 
Q 64.75 56 71.09375 56 
Q 79.640625 56 84.28125 50.015625 
Q 88.921875 44.046875 88.921875 33.015625 
L 88.921875 0 
L 79.890625 0 
L 79.890625 32.71875 
Q 79.890625 40.578125 77.09375 44.375 
Q 74.3125 48.1875 68.609375 48.1875 
Q 61.625 48.1875 57.5625 43.546875 
Q 53.515625 38.921875 53.515625 30.90625 
L 53.515625 0 
L 44.484375 0 
L 44.484375 32.71875 
Q 44.484375 40.625 41.703125 44.40625 
Q 38.921875 48.1875 33.109375 48.1875 
Q 26.21875 48.1875 22.15625 43.53125 
Q 18.109375 38.875 18.109375 30.90625 
L 18.109375 0 
L 9.078125 0 
L 9.078125 54.6875 
L 18.109375 54.6875 
L 18.109375 46.1875 
Q 21.1875 51.21875 25.484375 53.609375 
Q 29.78125 56 35.6875 56 
Q 41.65625 56 45.828125 52.96875 
Q 50 49.953125 52 44.1875 
z
" id="DejaVuSans-109"/>
     </defs>
     <g transform="translate(633.39375 265.304023)scale(0.16 -0.16)">
      <use xlink:href="#DejaVuSans-68"/>
      <use x="77.001953" xlink:href="#DejaVuSans-97"/>
      <use x="138.28125" xlink:href="#DejaVuSans-116"/>
      <use x="177.490234" xlink:href="#DejaVuSans-117"/>
      <use x="240.869141" xlink:href="#DejaVuSans-109"/>
     </g>
    </g>
   </g>
   <g id="matplotlib.axis_2">
    <g id="ytick_1">
     <g id="line2d_10">
      <defs>
       <path d="M 0 0 
L -3.5 0 
" id="m6bb562e8b9" style="stroke:#000000;stroke-width:0.8;"/>
      </defs>
      <g>
       <use style="stroke:#000000;stroke-width:0.8;" x="44.71" xlink:href="#m6bb562e8b9" y="151.651406"/>
      </g>
     </g>
     <g id="text_11">
      <!-- 17.5 -->
      <g transform="translate(2.085 157.730156)scale(0.16 -0.16)">
       <use xlink:href="#DejaVuSans-49"/>
       <use x="63.623047" xlink:href="#DejaVuSans-55"/>
       <use x="127.246094" xlink:href="#DejaVuSans-46"/>
       <use x="159.033203" xlink:href="#DejaVuSans-53"/>
      </g>
     </g>
    </g>
    <g id="ytick_2">
     <g id="line2d_11">
      <g>
       <use style="stroke:#000000;stroke-width:0.8;" x="44.71" xlink:href="#m6bb562e8b9" y="102.664807"/>
      </g>
     </g>
     <g id="text_12">
      <!-- 20.0 -->
      <g transform="translate(2.085 108.743557)scale(0.16 -0.16)">
       <use xlink:href="#DejaVuSans-50"/>
       <use x="63.623047" xlink:href="#DejaVuSans-48"/>
       <use x="127.246094" xlink:href="#DejaVuSans-46"/>
       <use x="159.033203" xlink:href="#DejaVuSans-48"/>
      </g>
     </g>
    </g>
    <g id="ytick_3">
     <g id="line2d_12">
      <g>
       <use style="stroke:#000000;stroke-width:0.8;" x="44.71" xlink:href="#m6bb562e8b9" y="53.678207"/>
      </g>
     </g>
     <g id="text_13">
      <!-- 22.5 -->
      <g transform="translate(2.085 59.756957)scale(0.16 -0.16)">
       <use xlink:href="#DejaVuSans-50"/>
       <use x="63.623047" xlink:href="#DejaVuSans-50"/>
       <use x="127.246094" xlink:href="#DejaVuSans-46"/>
       <use x="159.033203" xlink:href="#DejaVuSans-53"/>
      </g>
     </g>
    </g>
   </g>
   <g id="line2d_13">
    <path clip-path="url(#p2bb50a3025)" d="M 246.962007 188.473 
L 248.08563 185.125583 
L 250.332874 176.471283 
L 252.580119 168.93279 
L 253.703741 167.408762 
L 254.827363 167.1094 
L 258.19823 165.775876 
L 259.321852 164.850573 
L 260.445474 164.279063 
L 261.569097 164.197419 
L 262.692719 164.251848 
L 264.939964 164.006915 
L 267.187208 163.435405 
L 269.434453 163.299331 
L 271.681697 163.571479 
L 272.805319 163.517049 
L 275.052564 163.054398 
L 277.299808 163.054398 
L 279.547053 164.60564 
L 280.670675 164.60564 
L 285.165164 164.142989 
L 288.536031 164.061345 
L 291.906898 164.170204 
L 294.154142 163.952486 
L 296.401387 163.952486 
L 298.648631 163.952486 
L 302.019498 164.006915 
L 304.266743 163.898056 
L 309.884854 164.170204 
L 311.008476 164.03413 
L 314.379343 164.442352 
L 315.502965 164.415137 
L 316.626588 164.551211 
L 319.997454 164.578426 
L 325.615566 164.387922 
L 327.86281 164.387922 
L 332.357299 164.360707 
L 333.480922 164.578426 
L 336.851788 164.877788 
L 337.975411 164.687285 
L 340.222655 163.925271 
L 342.4699 164.469566 
L 345.840766 164.333493 
L 346.964389 164.197419 
L 350.335255 164.306278 
L 351.458878 164.224633 
L 352.5825 164.415137 
L 353.706122 164.469566 
L 354.829745 164.360707 
L 358.200611 163.081613 
L 360.447856 162.047451 
L 361.571478 161.285437 
L 362.6951 161.122149 
L 363.818723 161.176578 
L 364.942345 161.01329 
L 367.189589 162.537317 
L 373.931323 161.122149 
L 376.178568 159.053826 
L 378.425812 158.210168 
L 384.043923 157.584228 
L 386.291168 156.822214 
L 388.538412 155.788052 
L 390.785657 155.706408 
L 393.032901 154.617817 
L 394.156524 153.910233 
L 395.280146 153.447582 
L 396.403768 153.311508 
L 397.527391 153.03936 
L 398.651013 152.631138 
L 400.898257 151.297614 
L 402.02188 151.052681 
L 404.269124 150.889392 
L 405.392746 151.433688 
L 406.516369 152.168487 
L 407.639991 152.222917 
L 408.763613 151.923554 
L 409.887235 151.78748 
L 412.13448 152.304561 
L 413.258102 152.386205 
L 414.381724 152.304561 
L 415.505347 151.433688 
L 416.628969 150.889392 
L 417.752591 150.753319 
L 418.876214 150.290667 
L 419.999836 150.943822 
L 421.123458 152.903286 
L 422.24708 153.801374 
L 423.370703 153.447582 
L 424.494325 152.767212 
L 425.617947 152.331776 
L 426.741569 152.386205 
L 428.988814 153.012145 
L 430.112436 152.767212 
L 431.236058 151.814695 
L 432.359681 151.107111 
L 434.606925 150.317882 
L 435.730547 150.209023 
L 436.85417 150.345097 
L 437.977792 150.154593 
L 439.101414 149.719157 
L 440.225036 149.038788 
L 441.348659 148.548922 
L 443.595903 148.167915 
L 444.719526 148.195129 
L 445.843148 147.678049 
L 446.96677 146.88882 
L 448.090392 146.371739 
L 449.214015 146.208451 
L 450.337637 146.290095 
L 451.461259 146.616672 
L 453.708504 148.385633 
L 454.832126 148.521707 
L 458.202993 147.433116 
L 459.326615 147.378686 
L 460.450237 147.922982 
L 461.573859 147.56919 
L 463.821104 144.357846 
L 464.944726 143.704691 
L 466.068349 143.541402 
L 468.315593 143.432543 
L 469.439215 142.969892 
L 470.562838 142.235093 
L 471.68646 140.629421 
L 472.810082 138.615528 
L 473.933704 137.744655 
L 475.057327 138.071232 
L 476.180949 137.472507 
L 477.304571 136.084553 
L 479.551816 134.478882 
L 480.675438 134.07066 
L 481.79906 134.01623 
L 482.922682 133.608009 
L 484.046305 132.982069 
L 486.293549 132.111196 
L 487.417172 131.376397 
L 488.540794 130.886531 
L 489.664416 130.859316 
L 490.788038 131.675759 
L 491.911661 132.982069 
L 493.035283 133.335861 
L 494.158905 132.383344 
L 495.282527 130.396665 
L 496.40615 129.11757 
L 497.529772 128.573275 
L 498.653394 128.518845 
L 499.777016 128.60049 
L 500.900639 128.328342 
L 502.024261 127.566328 
L 504.271505 124.84485 
L 505.395128 124.790421 
L 506.51875 125.52522 
L 507.642372 125.770153 
L 508.765995 125.498005 
L 511.013239 122.531594 
L 512.136861 121.687936 
L 513.260484 121.388574 
L 515.507728 121.82401 
L 517.754973 120.980352 
L 518.878595 120.762634 
L 520.002217 121.089211 
L 521.125839 121.960084 
L 522.249462 122.39552 
L 523.373084 122.694883 
L 524.496706 122.858172 
L 525.620328 122.477165 
L 526.743951 122.39552 
L 527.867573 122.558809 
L 530.114818 123.266393 
L 531.23844 123.320823 
L 532.362062 123.07589 
L 533.485684 122.640453 
L 535.732929 122.259446 
L 536.856551 122.286661 
L 539.103796 123.239178 
L 540.227418 123.266393 
L 541.35104 122.830957 
L 542.474662 122.177802 
L 543.598285 121.82401 
L 544.721907 122.068943 
L 545.845529 121.960084 
L 546.969151 121.633507 
L 548.092774 121.089211 
L 549.216396 120.381627 
L 550.340018 119.973405 
L 551.463641 119.891761 
L 552.587263 120.055049 
L 553.710885 120.381627 
L 554.834507 120.218338 
L 555.95813 119.701257 
L 557.081752 119.837331 
L 559.328996 120.680989 
L 561.576241 121.034781 
L 564.947108 122.286661 
L 566.07073 122.749312 
L 567.194352 123.456897 
L 568.317974 124.028407 
L 569.441597 124.082837 
L 570.565219 123.892333 
L 572.812464 123.103105 
L 575.059708 123.865118 
L 576.18333 123.865118 
L 577.306953 124.110051 
L 578.430575 124.926495 
L 579.554197 125.552435 
L 581.801442 125.416361 
L 584.048686 125.742938 
L 585.172308 125.797368 
L 586.295931 125.688508 
L 587.419553 125.389146 
L 588.543175 125.389146 
L 590.79042 125.225857 
L 593.037664 125.715723 
L 594.161286 126.123945 
L 595.284909 126.042301 
L 597.532153 124.246125 
L 598.655776 123.892333 
L 599.779398 123.70183 
L 604.273887 121.551862 
L 605.397509 121.143641 
L 606.521131 121.007567 
L 608.768376 121.225285 
L 611.01562 120.708204 
L 613.262865 119.020888 
L 614.386487 119.020888 
L 615.510109 118.74874 
L 616.633732 118.612666 
L 617.757354 118.313304 
L 618.880976 117.170283 
L 620.004599 116.35384 
L 621.128221 116.544343 
L 624.499088 118.585451 
L 625.62271 119.048103 
L 626.746332 118.694311 
L 628.993577 117.034209 
L 630.117199 116.517128 
L 631.240821 116.87092 
L 632.364443 116.92535 
L 635.73531 115.020316 
L 636.858932 114.067798 
L 637.982555 113.469073 
L 641.353422 113.85008 
L 642.477044 113.523503 
L 643.600666 112.5982 
L 644.724288 112.053905 
L 645.847911 112.516556 
L 648.095155 114.203872 
L 650.3424 117.306357 
L 651.466022 117.714579 
L 652.589644 117.632934 
L 653.713266 118.150015 
L 654.836889 119.674043 
L 657.084133 121.87844 
L 658.207755 121.742366 
L 659.331378 119.156962 
L 661.578622 111.945046 
L 662.702245 108.026118 
L 663.825867 104.624271 
L 664.949489 103.862257 
L 666.073111 103.971116 
L 667.196734 103.698968 
L 668.320356 102.85531 
L 670.5676 99.616752 
L 671.691223 98.990812 
L 672.814845 98.936382 
L 675.062089 98.283227 
L 676.185712 97.766147 
L 677.309334 97.058562 
L 678.432956 96.514267 
L 680.680201 95.969971 
L 682.927445 94.963025 
L 686.298312 94.445944 
L 688.545557 93.275708 
L 693.040046 92.676983 
L 694.163668 92.350406 
L 699.781779 91.969399 
L 700.905401 91.670036 
L 702.029024 91.533963 
L 704.276268 91.425103 
L 707.647135 90.799164 
L 708.770757 90.744734 
L 714.388869 89.792217 
L 716.636113 89.737787 
L 723.377847 88.73084 
L 725.625091 88.15933 
L 727.872336 87.968827 
L 730.11958 87.58782 
L 743.603047 86.880236 
L 745.850292 87.043524 
L 748.097536 86.771377 
L 753.715648 86.39037 
L 755.962892 86.553658 
L 758.210137 86.227081 
L 759.333759 86.33594 
L 761.581004 86.90745 
L 762.704626 87.070739 
L 763.828248 87.397316 
L 764.95187 88.023256 
L 766.075493 88.975773 
L 767.199115 89.520069 
L 768.322737 89.737787 
L 769.446359 89.683358 
L 770.569982 89.220706 
L 771.693604 89.002988 
L 772.817226 88.948559 
L 773.940849 88.73084 
L 775.064471 88.132115 
L 777.311715 86.716947 
L 778.435338 86.063792 
L 779.55896 85.818859 
L 780.682582 85.873289 
L 781.806204 85.655571 
L 782.929827 85.029631 
L 784.053449 84.158758 
L 785.177071 83.015737 
L 786.300693 82.389797 
L 787.424316 82.280938 
L 789.67156 80.81134 
L 790.795182 80.130971 
L 791.918805 79.260098 
L 793.042427 78.634158 
L 794.166049 77.817715 
L 796.413294 75.749392 
L 797.536916 75.177881 
L 798.660538 74.279794 
L 800.907783 71.803249 
L 802.031405 70.605799 
L 803.155027 70.360866 
L 804.27865 69.81657 
L 806.525894 68.265328 
L 808.773139 66.088146 
L 809.896761 64.754621 
L 811.020383 64.047037 
L 813.267628 63.747675 
L 815.514872 62.278077 
L 816.638495 61.951499 
L 817.762117 61.924285 
L 818.885739 62.033144 
L 821.132984 63.448312 
L 822.256606 63.529956 
L 823.380228 62.849587 
L 824.50385 61.652137 
L 825.627473 61.243915 
L 827.874717 61.84264 
L 828.998339 62.196432 
L 830.121962 62.033144 
L 833.492828 59.855961 
L 834.616451 59.583814 
L 836.863695 59.665458 
L 837.987318 59.801532 
L 839.11094 59.175592 
L 840.234562 58.19586 
L 841.358184 57.842068 
L 842.481807 57.814853 
L 843.605429 57.651565 
L 845.852673 58.032571 
L 848.099918 57.978142 
L 849.22354 58.005357 
L 850.347162 58.685726 
L 851.470785 59.502169 
L 852.594407 60.155324 
L 853.718029 60.264183 
L 854.841651 59.855961 
L 858.212518 59.039518 
L 859.336141 59.121163 
L 860.459763 59.937606 
L 862.707007 62.142003 
L 863.83063 62.740728 
L 864.954252 62.332506 
L 866.077874 62.659084 
L 869.448741 67.394455 
L 870.572363 68.292543 
L 872.819608 69.272275 
L 875.066852 70.44251 
L 877.314097 72.94627 
L 878.437719 72.89184 
L 879.561341 72.374759 
L 880.684964 72.565263 
L 881.808586 72.919055 
L 882.932208 72.646907 
L 884.05583 72.238685 
L 885.179453 71.449457 
L 886.303075 70.170362 
L 887.426697 69.19063 
L 891.921186 67.285596 
L 894.168431 66.850159 
L 895.292053 65.734353 
L 896.415675 64.155896 
L 897.539297 63.312238 
L 898.66292 63.938178 
L 899.786542 65.734353 
L 900.910164 66.11536 
L 902.033786 65.734353 
L 903.157409 64.727407 
L 904.281031 62.876802 
L 905.404653 62.087573 
L 907.651898 61.243915 
L 908.77552 61.733781 
L 909.899142 61.89707 
L 911.022765 61.135056 
L 912.146387 60.209754 
L 913.270009 59.747102 
L 914.393631 60.64519 
L 915.517254 61.760996 
L 916.640876 62.005929 
L 917.764498 61.624922 
L 920.011743 59.638243 
L 921.135365 58.903444 
L 922.258987 58.685726 
L 924.506232 59.257236 
L 925.629854 59.012303 
L 926.753476 58.223075 
L 927.877099 57.896498 
L 929.000721 58.059786 
L 931.247965 58.794585 
L 932.371588 58.985089 
L 933.49521 58.985089 
L 934.618832 58.740156 
L 939.113321 58.794585 
L 940.236943 58.985089 
L 941.360566 58.930659 
L 942.484188 58.576867 
L 945.855055 58.032571 
L 946.978677 56.99841 
L 948.102299 55.256664 
L 949.225922 54.140858 
L 950.349544 53.97757 
L 951.473166 54.249717 
L 954.844033 54.54908 
L 957.091277 53.378844 
L 958.2149 52.997838 
L 960.462144 53.079482 
L 961.585766 52.970623 
L 962.709389 53.025052 
L 963.833011 52.807334 
L 966.080255 51.52824 
L 967.203878 51.120018 
L 969.451122 50.684581 
L 972.821989 50.494078 
L 975.069234 50.167501 
L 978.4401 49.895353 
L 979.563723 49.541561 
L 981.810967 49.296628 
L 982.934589 48.806762 
L 984.058212 48.534614 
L 986.305456 48.725117 
L 988.552701 48.507399 
L 989.676323 48.45297 
L 990.799945 48.262466 
L 994.170812 48.725117 
L 995.294434 48.153607 
L 996.418057 47.228305 
L 998.665301 46.248573 
L 999.788923 45.813136 
L 1000.912546 45.704277 
L 1002.036168 46.030854 
L 1003.15979 45.894781 
L 1005.407035 44.915049 
L 1006.530657 44.860619 
L 1007.654279 45.350485 
L 1011.025146 45.867566 
L 1015.519635 45.187196 
L 1017.76688 47.119446 
L 1020.014124 47.935889 
L 1021.137746 48.289681 
L 1022.261369 48.316896 
L 1024.508613 49.323843 
L 1025.632235 49.568776 
L 1026.755858 49.323843 
L 1027.87948 48.561829 
L 1029.003102 48.208037 
L 1030.126724 48.316896 
L 1031.250347 48.942836 
L 1033.497591 50.9023 
L 1034.621214 51.337736 
L 1035.744836 51.41938 
L 1036.868458 51.664313 
L 1037.99208 52.126965 
L 1039.115703 53.324415 
L 1040.239325 54.875657 
L 1041.362947 55.937034 
L 1042.486569 56.399685 
L 1043.610192 55.692101 
L 1044.733814 54.467436 
L 1045.857436 54.630724 
L 1048.104681 56.399685 
L 1050.351925 59.230022 
L 1051.475547 59.855961 
L 1053.722792 59.611028 
L 1054.846414 60.046465 
L 1055.970036 61.080626 
L 1057.093659 62.386936 
L 1060.464526 66.79573 
L 1062.71177 67.476099 
L 1063.835392 68.673549 
L 1064.959015 70.49694 
L 1066.082637 72.619692 
L 1067.206259 74.170934 
L 1068.329881 74.524727 
L 1069.453504 72.755766 
L 1071.700748 67.857106 
L 1072.82437 66.142575 
L 1073.947993 65.924857 
L 1073.947993 65.924857 
" style="fill:none;stroke:#1f77b4;stroke-linecap:square;stroke-width:1.5;"/>
   </g>
   <g id="patch_3">
    <path d="M 44.71 195.653619 
L 44.71 37.68 
" style="fill:none;stroke:#000000;stroke-linecap:square;stroke-linejoin:miter;stroke-width:0.8;"/>
   </g>
   <g id="patch_4">
    <path d="M 1276.2 195.653619 
L 1276.2 37.68 
" style="fill:none;stroke:#000000;stroke-linecap:square;stroke-linejoin:miter;stroke-width:0.8;"/>
   </g>
   <g id="patch_5">
    <path d="M 44.71 195.653619 
L 1276.2 195.653619 
" style="fill:none;stroke:#000000;stroke-linecap:square;stroke-linejoin:miter;stroke-width:0.8;"/>
   </g>
   <g id="patch_6">
    <path d="M 44.71 37.68 
L 1276.2 37.68 
" style="fill:none;stroke:#000000;stroke-linecap:square;stroke-linejoin:miter;stroke-width:0.8;"/>
   </g>
   <g id="text_14">
    <!-- Trend rezervacija -->
    <defs>
     <path d="M -0.296875 72.90625 
L 61.375 72.90625 
L 61.375 64.59375 
L 35.5 64.59375 
L 35.5 0 
L 25.59375 0 
L 25.59375 64.59375 
L -0.296875 64.59375 
z
" id="DejaVuSans-84"/>
     <path d="M 41.109375 46.296875 
Q 39.59375 47.171875 37.8125 47.578125 
Q 36.03125 48 33.890625 48 
Q 26.265625 48 22.1875 43.046875 
Q 18.109375 38.09375 18.109375 28.8125 
L 18.109375 0 
L 9.078125 0 
L 9.078125 54.6875 
L 18.109375 54.6875 
L 18.109375 46.1875 
Q 20.953125 51.171875 25.484375 53.578125 
Q 30.03125 56 36.53125 56 
Q 37.453125 56 38.578125 55.875 
Q 39.703125 55.765625 41.0625 55.515625 
z
" id="DejaVuSans-114"/>
     <path d="M 56.203125 29.59375 
L 56.203125 25.203125 
L 14.890625 25.203125 
Q 15.484375 15.921875 20.484375 11.0625 
Q 25.484375 6.203125 34.421875 6.203125 
Q 39.59375 6.203125 44.453125 7.46875 
Q 49.3125 8.734375 54.109375 11.28125 
L 54.109375 2.78125 
Q 49.265625 0.734375 44.1875 -0.34375 
Q 39.109375 -1.421875 33.890625 -1.421875 
Q 20.796875 -1.421875 13.15625 6.1875 
Q 5.515625 13.8125 5.515625 26.8125 
Q 5.515625 40.234375 12.765625 48.109375 
Q 20.015625 56 32.328125 56 
Q 43.359375 56 49.78125 48.890625 
Q 56.203125 41.796875 56.203125 29.59375 
z
M 47.21875 32.234375 
Q 47.125 39.59375 43.09375 43.984375 
Q 39.0625 48.390625 32.421875 48.390625 
Q 24.90625 48.390625 20.390625 44.140625 
Q 15.875 39.890625 15.1875 32.171875 
z
" id="DejaVuSans-101"/>
     <path d="M 54.890625 33.015625 
L 54.890625 0 
L 45.90625 0 
L 45.90625 32.71875 
Q 45.90625 40.484375 42.875 44.328125 
Q 39.84375 48.1875 33.796875 48.1875 
Q 26.515625 48.1875 22.3125 43.546875 
Q 18.109375 38.921875 18.109375 30.90625 
L 18.109375 0 
L 9.078125 0 
L 9.078125 54.6875 
L 18.109375 54.6875 
L 18.109375 46.1875 
Q 21.34375 51.125 25.703125 53.5625 
Q 30.078125 56 35.796875 56 
Q 45.21875 56 50.046875 50.171875 
Q 54.890625 44.34375 54.890625 33.015625 
z
" id="DejaVuSans-110"/>
     <path d="M 45.40625 46.390625 
L 45.40625 75.984375 
L 54.390625 75.984375 
L 54.390625 0 
L 45.40625 0 
L 45.40625 8.203125 
Q 42.578125 3.328125 38.25 0.953125 
Q 33.9375 -1.421875 27.875 -1.421875 
Q 17.96875 -1.421875 11.734375 6.484375 
Q 5.515625 14.40625 5.515625 27.296875 
Q 5.515625 40.1875 11.734375 48.09375 
Q 17.96875 56 27.875 56 
Q 33.9375 56 38.25 53.625 
Q 42.578125 51.265625 45.40625 46.390625 
z
M 14.796875 27.296875 
Q 14.796875 17.390625 18.875 11.75 
Q 22.953125 6.109375 30.078125 6.109375 
Q 37.203125 6.109375 41.296875 11.75 
Q 45.40625 17.390625 45.40625 27.296875 
Q 45.40625 37.203125 41.296875 42.84375 
Q 37.203125 48.484375 30.078125 48.484375 
Q 22.953125 48.484375 18.875 42.84375 
Q 14.796875 37.203125 14.796875 27.296875 
z
" id="DejaVuSans-100"/>
     <path id="DejaVuSans-32"/>
     <path d="M 5.515625 54.6875 
L 48.1875 54.6875 
L 48.1875 46.484375 
L 14.40625 7.171875 
L 48.1875 7.171875 
L 48.1875 0 
L 4.296875 0 
L 4.296875 8.203125 
L 38.09375 47.515625 
L 5.515625 47.515625 
z
" id="DejaVuSans-122"/>
     <path d="M 2.984375 54.6875 
L 12.5 54.6875 
L 29.59375 8.796875 
L 46.6875 54.6875 
L 56.203125 54.6875 
L 35.6875 0 
L 23.484375 0 
z
" id="DejaVuSans-118"/>
     <path d="M 48.78125 52.59375 
L 48.78125 44.1875 
Q 44.96875 46.296875 41.140625 47.34375 
Q 37.3125 48.390625 33.40625 48.390625 
Q 24.65625 48.390625 19.8125 42.84375 
Q 14.984375 37.3125 14.984375 27.296875 
Q 14.984375 17.28125 19.8125 11.734375 
Q 24.65625 6.203125 33.40625 6.203125 
Q 37.3125 6.203125 41.140625 7.25 
Q 44.96875 8.296875 48.78125 10.40625 
L 48.78125 2.09375 
Q 45.015625 0.34375 40.984375 -0.53125 
Q 36.96875 -1.421875 32.421875 -1.421875 
Q 20.0625 -1.421875 12.78125 6.34375 
Q 5.515625 14.109375 5.515625 27.296875 
Q 5.515625 40.671875 12.859375 48.328125 
Q 20.21875 56 33.015625 56 
Q 37.15625 56 41.109375 55.140625 
Q 45.0625 54.296875 48.78125 52.59375 
z
" id="DejaVuSans-99"/>
     <path d="M 9.421875 54.6875 
L 18.40625 54.6875 
L 18.40625 0 
L 9.421875 0 
z
M 9.421875 75.984375 
L 18.40625 75.984375 
L 18.40625 64.59375 
L 9.421875 64.59375 
z
" id="DejaVuSans-105"/>
     <path d="M 9.421875 54.6875 
L 18.40625 54.6875 
L 18.40625 -0.984375 
Q 18.40625 -11.421875 14.421875 -16.109375 
Q 10.453125 -20.796875 1.609375 -20.796875 
L -1.8125 -20.796875 
L -1.8125 -13.1875 
L 0.59375 -13.1875 
Q 5.71875 -13.1875 7.5625 -10.8125 
Q 9.421875 -8.453125 9.421875 -0.984375 
z
M 9.421875 75.984375 
L 18.40625 75.984375 
L 18.40625 64.59375 
L 9.421875 64.59375 
z
" id="DejaVuSans-106"/>
    </defs>
    <g transform="translate(576.7295 31.68)scale(0.192 -0.192)">
     <use xlink:href="#DejaVuSans-84"/>
     <use x="60.865234" xlink:href="#DejaVuSans-114"/>
     <use x="101.947266" xlink:href="#DejaVuSans-101"/>
     <use x="163.470703" xlink:href="#DejaVuSans-110"/>
     <use x="226.849609" xlink:href="#DejaVuSans-100"/>
     <use x="290.326172" xlink:href="#DejaVuSans-32"/>
     <use x="322.113281" xlink:href="#DejaVuSans-114"/>
     <use x="363.195312" xlink:href="#DejaVuSans-101"/>
     <use x="424.71875" xlink:href="#DejaVuSans-122"/>
     <use x="477.208984" xlink:href="#DejaVuSans-101"/>
     <use x="538.732422" xlink:href="#DejaVuSans-114"/>
     <use x="579.845703" xlink:href="#DejaVuSans-118"/>
     <use x="639.025391" xlink:href="#DejaVuSans-97"/>
     <use x="700.304688" xlink:href="#DejaVuSans-99"/>
     <use x="755.285156" xlink:href="#DejaVuSans-105"/>
     <use x="783.068359" xlink:href="#DejaVuSans-106"/>
     <use x="810.851562" xlink:href="#DejaVuSans-97"/>
    </g>
   </g>
  </g>
 </g>
 <defs>
  <clipPath id="p2bb50a3025">
   <rect height="157.973619" width="1231.49" x="44.71" y="37.68"/>
  </clipPath>
 </defs>
</svg>
