<?xml version="1.0" encoding="utf-8" standalone="no"?>
<!DOCTYPE svg PUBLIC "-//W3C//DTD SVG 1.1//EN"
  "http://www.w3.org/Graphics/SVG/1.1/DTD/svg11.dtd">
<!-- Created with matplotlib (https://matplotlib.org/) -->
<svg height="720pt" version="1.1" viewBox="0 0 1296 720" width="1296pt" xmlns="http://www.w3.org/2000/svg" xmlns:xlink="http://www.w3.org/1999/xlink">
 <defs>
  <style type="text/css">
*{stroke-linecap:butt;stroke-linejoin:round;}
  </style>
 </defs>
 <g id="figure_1">
  <g id="patch_1">
   <path d="M 0 720 
L 1296 720 
L 1296 0 
L 0 0 
z
" style="fill:#ffffff;"/>
  </g>
  <g id="axes_1">
   <g id="patch_2">
    <path d="M 75.53 658.6 
L 1276.2 658.6 
L 1276.2 37.68 
L 75.53 37.68 
z
" style="fill:#ffffff;"/>
   </g>
   <g id="matplotlib.axis_1">
    <g id="xtick_1">
     <g id="line2d_1">
      <defs>
       <path d="M 0 0 
L 0 3.5 
" id="m9e478fbee9" style="stroke:#000000;stroke-width:0.8;"/>
      </defs>
      <g>
       <use style="stroke:#000000;stroke-width:0.8;" x="191.852376" xlink:href="#m9e478fbee9" y="658.6"/>
      </g>
     </g>
     <g id="text_1">
      <!-- 09.2015 -->
      <defs>
       <path d="M 31.78125 66.40625 
Q 24.171875 66.40625 20.328125 58.90625 
Q 16.5 51.421875 16.5 36.375 
Q 16.5 21.390625 20.328125 13.890625 
Q 24.171875 6.390625 31.78125 6.390625 
Q 39.453125 6.390625 43.28125 13.890625 
Q 47.125 21.390625 47.125 36.375 
Q 47.125 51.421875 43.28125 58.90625 
Q 39.453125 66.40625 31.78125 66.40625 
z
M 31.78125 74.21875 
Q 44.046875 74.21875 50.515625 64.515625 
Q 56.984375 54.828125 56.984375 36.375 
Q 56.984375 17.96875 50.515625 8.265625 
Q 44.046875 -1.421875 31.78125 -1.421875 
Q 19.53125 -1.421875 13.0625 8.265625 
Q 6.59375 17.96875 6.59375 36.375 
Q 6.59375 54.828125 13.0625 64.515625 
Q 19.53125 74.21875 31.78125 74.21875 
z
" id="DejaVuSans-48"/>
       <path d="M 10.984375 1.515625 
L 10.984375 10.5 
Q 14.703125 8.734375 18.5 7.8125 
Q 22.3125 6.890625 25.984375 6.890625 
Q 35.75 6.890625 40.890625 13.453125 
Q 46.046875 20.015625 46.78125 33.40625 
Q 43.953125 29.203125 39.59375 26.953125 
Q 35.25 24.703125 29.984375 24.703125 
Q 19.046875 24.703125 12.671875 31.3125 
Q 6.296875 37.9375 6.296875 49.421875 
Q 6.296875 60.640625 12.9375 67.421875 
Q 19.578125 74.21875 30.609375 74.21875 
Q 43.265625 74.21875 49.921875 64.515625 
Q 56.59375 54.828125 56.59375 36.375 
Q 56.59375 19.140625 48.40625 8.859375 
Q 40.234375 -1.421875 26.421875 -1.421875 
Q 22.703125 -1.421875 18.890625 -0.6875 
Q 15.09375 0.046875 10.984375 1.515625 
z
M 30.609375 32.421875 
Q 37.25 32.421875 41.125 36.953125 
Q 45.015625 41.5 45.015625 49.421875 
Q 45.015625 57.28125 41.125 61.84375 
Q 37.25 66.40625 30.609375 66.40625 
Q 23.96875 66.40625 20.09375 61.84375 
Q 16.21875 57.28125 16.21875 49.421875 
Q 16.21875 41.5 20.09375 36.953125 
Q 23.96875 32.421875 30.609375 32.421875 
z
" id="DejaVuSans-57"/>
       <path d="M 10.6875 12.40625 
L 21 12.40625 
L 21 0 
L 10.6875 0 
z
" id="DejaVuSans-46"/>
       <path d="M 19.1875 8.296875 
L 53.609375 8.296875 
L 53.609375 0 
L 7.328125 0 
L 7.328125 8.296875 
Q 12.9375 14.109375 22.625 23.890625 
Q 32.328125 33.6875 34.8125 36.53125 
Q 39.546875 41.84375 41.421875 45.53125 
Q 43.3125 49.21875 43.3125 52.78125 
Q 43.3125 58.59375 39.234375 62.25 
Q 35.15625 65.921875 28.609375 65.921875 
Q 23.96875 65.921875 18.8125 64.3125 
Q 13.671875 62.703125 7.8125 59.421875 
L 7.8125 69.390625 
Q 13.765625 71.78125 18.9375 73 
Q 24.125 74.21875 28.421875 74.21875 
Q 39.75 74.21875 46.484375 68.546875 
Q 53.21875 62.890625 53.21875 53.421875 
Q 53.21875 48.921875 51.53125 44.890625 
Q 49.859375 40.875 45.40625 35.40625 
Q 44.1875 33.984375 37.640625 27.21875 
Q 31.109375 20.453125 19.1875 8.296875 
z
" id="DejaVuSans-50"/>
       <path d="M 12.40625 8.296875 
L 28.515625 8.296875 
L 28.515625 63.921875 
L 10.984375 60.40625 
L 10.984375 69.390625 
L 28.421875 72.90625 
L 38.28125 72.90625 
L 38.28125 8.296875 
L 54.390625 8.296875 
L 54.390625 0 
L 12.40625 0 
z
" id="DejaVuSans-49"/>
       <path d="M 10.796875 72.90625 
L 49.515625 72.90625 
L 49.515625 64.59375 
L 19.828125 64.59375 
L 19.828125 46.734375 
Q 21.96875 47.46875 24.109375 47.828125 
Q 26.265625 48.1875 28.421875 48.1875 
Q 40.625 48.1875 47.75 41.5 
Q 54.890625 34.8125 54.890625 23.390625 
Q 54.890625 11.625 47.5625 5.09375 
Q 40.234375 -1.421875 26.90625 -1.421875 
Q 22.3125 -1.421875 17.546875 -0.640625 
Q 12.796875 0.140625 7.71875 1.703125 
L 7.71875 11.625 
Q 12.109375 9.234375 16.796875 8.0625 
Q 21.484375 6.890625 26.703125 6.890625 
Q 35.15625 6.890625 40.078125 11.328125 
Q 45.015625 15.765625 45.015625 23.390625 
Q 45.015625 31 40.078125 35.4375 
Q 35.15625 39.890625 26.703125 39.890625 
Q 22.75 39.890625 18.8125 39.015625 
Q 14.890625 38.140625 10.796875 36.28125 
z
" id="DejaVuSans-53"/>
      </defs>
      <g transform="translate(158.769876 677.7575)scale(0.16 -0.16)">
       <use xlink:href="#DejaVuSans-48"/>
       <use x="63.623047" xlink:href="#DejaVuSans-57"/>
       <use x="127.246094" xlink:href="#DejaVuSans-46"/>
       <use x="159.033203" xlink:href="#DejaVuSans-50"/>
       <use x="222.65625" xlink:href="#DejaVuSans-48"/>
       <use x="286.279297" xlink:href="#DejaVuSans-49"/>
       <use x="349.902344" xlink:href="#DejaVuSans-53"/>
      </g>
     </g>
    </g>
    <g id="xtick_2">
     <g id="line2d_2">
      <g>
       <use style="stroke:#000000;stroke-width:0.8;" x="313.353487" xlink:href="#m9e478fbee9" y="658.6"/>
      </g>
     </g>
     <g id="text_2">
      <!-- 01.2016 -->
      <defs>
       <path d="M 33.015625 40.375 
Q 26.375 40.375 22.484375 35.828125 
Q 18.609375 31.296875 18.609375 23.390625 
Q 18.609375 15.53125 22.484375 10.953125 
Q 26.375 6.390625 33.015625 6.390625 
Q 39.65625 6.390625 43.53125 10.953125 
Q 47.40625 15.53125 47.40625 23.390625 
Q 47.40625 31.296875 43.53125 35.828125 
Q 39.65625 40.375 33.015625 40.375 
z
M 52.59375 71.296875 
L 52.59375 62.3125 
Q 48.875 64.0625 45.09375 64.984375 
Q 41.3125 65.921875 37.59375 65.921875 
Q 27.828125 65.921875 22.671875 59.328125 
Q 17.53125 52.734375 16.796875 39.40625 
Q 19.671875 43.65625 24.015625 45.921875 
Q 28.375 48.1875 33.59375 48.1875 
Q 44.578125 48.1875 50.953125 41.515625 
Q 57.328125 34.859375 57.328125 23.390625 
Q 57.328125 12.15625 50.6875 5.359375 
Q 44.046875 -1.421875 33.015625 -1.421875 
Q 20.359375 -1.421875 13.671875 8.265625 
Q 6.984375 17.96875 6.984375 36.375 
Q 6.984375 53.65625 15.1875 63.9375 
Q 23.390625 74.21875 37.203125 74.21875 
Q 40.921875 74.21875 44.703125 73.484375 
Q 48.484375 72.75 52.59375 71.296875 
z
" id="DejaVuSans-54"/>
      </defs>
      <g transform="translate(280.270987 677.7575)scale(0.16 -0.16)">
       <use xlink:href="#DejaVuSans-48"/>
       <use x="63.623047" xlink:href="#DejaVuSans-49"/>
       <use x="127.246094" xlink:href="#DejaVuSans-46"/>
       <use x="159.033203" xlink:href="#DejaVuSans-50"/>
       <use x="222.65625" xlink:href="#DejaVuSans-48"/>
       <use x="286.279297" xlink:href="#DejaVuSans-49"/>
       <use x="349.902344" xlink:href="#DejaVuSans-54"/>
      </g>
     </g>
    </g>
    <g id="xtick_3">
     <g id="line2d_3">
      <g>
       <use style="stroke:#000000;stroke-width:0.8;" x="433.858688" xlink:href="#m9e478fbee9" y="658.6"/>
      </g>
     </g>
     <g id="text_3">
      <!-- 05.2016 -->
      <g transform="translate(400.776188 677.7575)scale(0.16 -0.16)">
       <use xlink:href="#DejaVuSans-48"/>
       <use x="63.623047" xlink:href="#DejaVuSans-53"/>
       <use x="127.246094" xlink:href="#DejaVuSans-46"/>
       <use x="159.033203" xlink:href="#DejaVuSans-50"/>
       <use x="222.65625" xlink:href="#DejaVuSans-48"/>
       <use x="286.279297" xlink:href="#DejaVuSans-49"/>
       <use x="349.902344" xlink:href="#DejaVuSans-54"/>
      </g>
     </g>
    </g>
    <g id="xtick_4">
     <g id="line2d_4">
      <g>
       <use style="stroke:#000000;stroke-width:0.8;" x="556.35571" xlink:href="#m9e478fbee9" y="658.6"/>
      </g>
     </g>
     <g id="text_4">
      <!-- 09.2016 -->
      <g transform="translate(523.27321 677.7575)scale(0.16 -0.16)">
       <use xlink:href="#DejaVuSans-48"/>
       <use x="63.623047" xlink:href="#DejaVuSans-57"/>
       <use x="127.246094" xlink:href="#DejaVuSans-46"/>
       <use x="159.033203" xlink:href="#DejaVuSans-50"/>
       <use x="222.65625" xlink:href="#DejaVuSans-48"/>
       <use x="286.279297" xlink:href="#DejaVuSans-49"/>
       <use x="349.902344" xlink:href="#DejaVuSans-54"/>
      </g>
     </g>
    </g>
    <g id="xtick_5">
     <g id="line2d_5">
      <g>
       <use style="stroke:#000000;stroke-width:0.8;" x="677.856821" xlink:href="#m9e478fbee9" y="658.6"/>
      </g>
     </g>
     <g id="text_5">
      <!-- 01.2017 -->
      <defs>
       <path d="M 8.203125 72.90625 
L 55.078125 72.90625 
L 55.078125 68.703125 
L 28.609375 0 
L 18.3125 0 
L 43.21875 64.59375 
L 8.203125 64.59375 
z
" id="DejaVuSans-55"/>
      </defs>
      <g transform="translate(644.774321 677.7575)scale(0.16 -0.16)">
       <use xlink:href="#DejaVuSans-48"/>
       <use x="63.623047" xlink:href="#DejaVuSans-49"/>
       <use x="127.246094" xlink:href="#DejaVuSans-46"/>
       <use x="159.033203" xlink:href="#DejaVuSans-50"/>
       <use x="222.65625" xlink:href="#DejaVuSans-48"/>
       <use x="286.279297" xlink:href="#DejaVuSans-49"/>
       <use x="349.902344" xlink:href="#DejaVuSans-55"/>
      </g>
     </g>
    </g>
    <g id="xtick_6">
     <g id="line2d_6">
      <g>
       <use style="stroke:#000000;stroke-width:0.8;" x="797.366111" xlink:href="#m9e478fbee9" y="658.6"/>
      </g>
     </g>
     <g id="text_6">
      <!-- 05.2017 -->
      <g transform="translate(764.283611 677.7575)scale(0.16 -0.16)">
       <use xlink:href="#DejaVuSans-48"/>
       <use x="63.623047" xlink:href="#DejaVuSans-53"/>
       <use x="127.246094" xlink:href="#DejaVuSans-46"/>
       <use x="159.033203" xlink:href="#DejaVuSans-50"/>
       <use x="222.65625" xlink:href="#DejaVuSans-48"/>
       <use x="286.279297" xlink:href="#DejaVuSans-49"/>
       <use x="349.902344" xlink:href="#DejaVuSans-55"/>
      </g>
     </g>
    </g>
    <g id="xtick_7">
     <g id="line2d_7">
      <g>
       <use style="stroke:#000000;stroke-width:0.8;" x="919.863134" xlink:href="#m9e478fbee9" y="658.6"/>
      </g>
     </g>
     <g id="text_7">
      <!-- 09.2017 -->
      <g transform="translate(886.780634 677.7575)scale(0.16 -0.16)">
       <use xlink:href="#DejaVuSans-48"/>
       <use x="63.623047" xlink:href="#DejaVuSans-57"/>
       <use x="127.246094" xlink:href="#DejaVuSans-46"/>
       <use x="159.033203" xlink:href="#DejaVuSans-50"/>
       <use x="222.65625" xlink:href="#DejaVuSans-48"/>
       <use x="286.279297" xlink:href="#DejaVuSans-49"/>
       <use x="349.902344" xlink:href="#DejaVuSans-55"/>
      </g>
     </g>
    </g>
    <g id="xtick_8">
     <g id="line2d_8">
      <g>
       <use style="stroke:#000000;stroke-width:0.8;" x="1041.364245" xlink:href="#m9e478fbee9" y="658.6"/>
      </g>
     </g>
     <g id="text_8">
      <!-- 01.2018 -->
      <defs>
       <path d="M 31.78125 34.625 
Q 24.75 34.625 20.71875 30.859375 
Q 16.703125 27.09375 16.703125 20.515625 
Q 16.703125 13.921875 20.71875 10.15625 
Q 24.75 6.390625 31.78125 6.390625 
Q 38.8125 6.390625 42.859375 10.171875 
Q 46.921875 13.96875 46.921875 20.515625 
Q 46.921875 27.09375 42.890625 30.859375 
Q 38.875 34.625 31.78125 34.625 
z
M 21.921875 38.8125 
Q 15.578125 40.375 12.03125 44.71875 
Q 8.5 49.078125 8.5 55.328125 
Q 8.5 64.0625 14.71875 69.140625 
Q 20.953125 74.21875 31.78125 74.21875 
Q 42.671875 74.21875 48.875 69.140625 
Q 55.078125 64.0625 55.078125 55.328125 
Q 55.078125 49.078125 51.53125 44.71875 
Q 48 40.375 41.703125 38.8125 
Q 48.828125 37.15625 52.796875 32.3125 
Q 56.78125 27.484375 56.78125 20.515625 
Q 56.78125 9.90625 50.3125 4.234375 
Q 43.84375 -1.421875 31.78125 -1.421875 
Q 19.734375 -1.421875 13.25 4.234375 
Q 6.78125 9.90625 6.78125 20.515625 
Q 6.78125 27.484375 10.78125 32.3125 
Q 14.796875 37.15625 21.921875 38.8125 
z
M 18.3125 54.390625 
Q 18.3125 48.734375 21.84375 45.5625 
Q 25.390625 42.390625 31.78125 42.390625 
Q 38.140625 42.390625 41.71875 45.5625 
Q 45.3125 48.734375 45.3125 54.390625 
Q 45.3125 60.0625 41.71875 63.234375 
Q 38.140625 66.40625 31.78125 66.40625 
Q 25.390625 66.40625 21.84375 63.234375 
Q 18.3125 60.0625 18.3125 54.390625 
z
" id="DejaVuSans-56"/>
      </defs>
      <g transform="translate(1008.281745 677.7575)scale(0.16 -0.16)">
       <use xlink:href="#DejaVuSans-48"/>
       <use x="63.623047" xlink:href="#DejaVuSans-49"/>
       <use x="127.246094" xlink:href="#DejaVuSans-46"/>
       <use x="159.033203" xlink:href="#DejaVuSans-50"/>
       <use x="222.65625" xlink:href="#DejaVuSans-48"/>
       <use x="286.279297" xlink:href="#DejaVuSans-49"/>
       <use x="349.902344" xlink:href="#DejaVuSans-56"/>
      </g>
     </g>
    </g>
    <g id="xtick_9">
     <g id="line2d_9">
      <g>
       <use style="stroke:#000000;stroke-width:0.8;" x="1160.873535" xlink:href="#m9e478fbee9" y="658.6"/>
      </g>
     </g>
     <g id="text_9">
      <!-- 05.2018 -->
      <g transform="translate(1127.791035 677.7575)scale(0.16 -0.16)">
       <use xlink:href="#DejaVuSans-48"/>
       <use x="63.623047" xlink:href="#DejaVuSans-53"/>
       <use x="127.246094" xlink:href="#DejaVuSans-46"/>
       <use x="159.033203" xlink:href="#DejaVuSans-50"/>
       <use x="222.65625" xlink:href="#DejaVuSans-48"/>
       <use x="286.279297" xlink:href="#DejaVuSans-49"/>
       <use x="349.902344" xlink:href="#DejaVuSans-56"/>
      </g>
     </g>
    </g>
    <g id="text_10">
     <!-- Datum -->
     <defs>
      <path d="M 19.671875 64.796875 
L 19.671875 8.109375 
L 31.59375 8.109375 
Q 46.6875 8.109375 53.6875 14.9375 
Q 60.6875 21.78125 60.6875 36.53125 
Q 60.6875 51.171875 53.6875 57.984375 
Q 46.6875 64.796875 31.59375 64.796875 
z
M 9.8125 72.90625 
L 30.078125 72.90625 
Q 51.265625 72.90625 61.171875 64.09375 
Q 71.09375 55.28125 71.09375 36.53125 
Q 71.09375 17.671875 61.125 8.828125 
Q 51.171875 0 30.078125 0 
L 9.8125 0 
z
" id="DejaVuSans-68"/>
      <path d="M 34.28125 27.484375 
Q 23.390625 27.484375 19.1875 25 
Q 14.984375 22.515625 14.984375 16.5 
Q 14.984375 11.71875 18.140625 8.90625 
Q 21.296875 6.109375 26.703125 6.109375 
Q 34.1875 6.109375 38.703125 11.40625 
Q 43.21875 16.703125 43.21875 25.484375 
L 43.21875 27.484375 
z
M 52.203125 31.203125 
L 52.203125 0 
L 43.21875 0 
L 43.21875 8.296875 
Q 40.140625 3.328125 35.546875 0.953125 
Q 30.953125 -1.421875 24.3125 -1.421875 
Q 15.921875 -1.421875 10.953125 3.296875 
Q 6 8.015625 6 15.921875 
Q 6 25.140625 12.171875 29.828125 
Q 18.359375 34.515625 30.609375 34.515625 
L 43.21875 34.515625 
L 43.21875 35.40625 
Q 43.21875 41.609375 39.140625 45 
Q 35.0625 48.390625 27.6875 48.390625 
Q 23 48.390625 18.546875 47.265625 
Q 14.109375 46.140625 10.015625 43.890625 
L 10.015625 52.203125 
Q 14.9375 54.109375 19.578125 55.046875 
Q 24.21875 56 28.609375 56 
Q 40.484375 56 46.34375 49.84375 
Q 52.203125 43.703125 52.203125 31.203125 
z
" id="DejaVuSans-97"/>
      <path d="M 18.3125 70.21875 
L 18.3125 54.6875 
L 36.8125 54.6875 
L 36.8125 47.703125 
L 18.3125 47.703125 
L 18.3125 18.015625 
Q 18.3125 11.328125 20.140625 9.421875 
Q 21.96875 7.515625 27.59375 7.515625 
L 36.8125 7.515625 
L 36.8125 0 
L 27.59375 0 
Q 17.1875 0 13.234375 3.875 
Q 9.28125 7.765625 9.28125 18.015625 
L 9.28125 47.703125 
L 2.6875 47.703125 
L 2.6875 54.6875 
L 9.28125 54.6875 
L 9.28125 70.21875 
z
" id="DejaVuSans-116"/>
      <path d="M 8.5 21.578125 
L 8.5 54.6875 
L 17.484375 54.6875 
L 17.484375 21.921875 
Q 17.484375 14.15625 20.5 10.265625 
Q 23.53125 6.390625 29.59375 6.390625 
Q 36.859375 6.390625 41.078125 11.03125 
Q 45.3125 15.671875 45.3125 23.6875 
L 45.3125 54.6875 
L 54.296875 54.6875 
L 54.296875 0 
L 45.3125 0 
L 45.3125 8.40625 
Q 42.046875 3.421875 37.71875 1 
Q 33.40625 -1.421875 27.6875 -1.421875 
Q 18.265625 -1.421875 13.375 4.4375 
Q 8.5 10.296875 8.5 21.578125 
z
M 31.109375 56 
z
" id="DejaVuSans-117"/>
      <path d="M 52 44.1875 
Q 55.375 50.25 60.0625 53.125 
Q 64.75 56 71.09375 56 
Q 79.640625 56 84.28125 50.015625 
Q 88.921875 44.046875 88.921875 33.015625 
L 88.921875 0 
L 79.890625 0 
L 79.890625 32.71875 
Q 79.890625 40.578125 77.09375 44.375 
Q 74.3125 48.1875 68.609375 48.1875 
Q 61.625 48.1875 57.5625 43.546875 
Q 53.515625 38.921875 53.515625 30.90625 
L 53.515625 0 
L 44.484375 0 
L 44.484375 32.71875 
Q 44.484375 40.625 41.703125 44.40625 
Q 38.921875 48.1875 33.109375 48.1875 
Q 26.21875 48.1875 22.15625 43.53125 
Q 18.109375 38.875 18.109375 30.90625 
L 18.109375 0 
L 9.078125 0 
L 9.078125 54.6875 
L 18.109375 54.6875 
L 18.109375 46.1875 
Q 21.1875 51.21875 25.484375 53.609375 
Q 29.78125 56 35.6875 56 
Q 41.65625 56 45.828125 52.96875 
Q 50 49.953125 52 44.1875 
z
" id="DejaVuSans-109"/>
     </defs>
     <g transform="translate(648.80375 697.2425)scale(0.16 -0.16)">
      <use xlink:href="#DejaVuSans-68"/>
      <use x="77.001953" xlink:href="#DejaVuSans-97"/>
      <use x="138.28125" xlink:href="#DejaVuSans-116"/>
      <use x="177.490234" xlink:href="#DejaVuSans-117"/>
      <use x="240.869141" xlink:href="#DejaVuSans-109"/>
     </g>
    </g>
   </g>
   <g id="matplotlib.axis_2">
    <g id="ytick_1">
     <g id="line2d_10">
      <defs>
       <path d="M 0 0 
L -3.5 0 
" id="mb728ea257a" style="stroke:#000000;stroke-width:0.8;"/>
      </defs>
      <g>
       <use style="stroke:#000000;stroke-width:0.8;" x="75.53" xlink:href="#mb728ea257a" y="630.376364"/>
      </g>
     </g>
     <g id="text_11">
      <!-- 0 -->
      <g transform="translate(58.35 636.455114)scale(0.16 -0.16)">
       <use xlink:href="#DejaVuSans-48"/>
      </g>
     </g>
    </g>
    <g id="ytick_2">
     <g id="line2d_11">
      <g>
       <use style="stroke:#000000;stroke-width:0.8;" x="75.53" xlink:href="#mb728ea257a" y="520.770009"/>
      </g>
     </g>
     <g id="text_12">
      <!-- 20 -->
      <g transform="translate(48.17 526.848759)scale(0.16 -0.16)">
       <use xlink:href="#DejaVuSans-50"/>
       <use x="63.623047" xlink:href="#DejaVuSans-48"/>
      </g>
     </g>
    </g>
    <g id="ytick_3">
     <g id="line2d_12">
      <g>
       <use style="stroke:#000000;stroke-width:0.8;" x="75.53" xlink:href="#mb728ea257a" y="411.163654"/>
      </g>
     </g>
     <g id="text_13">
      <!-- 40 -->
      <defs>
       <path d="M 37.796875 64.3125 
L 12.890625 25.390625 
L 37.796875 25.390625 
z
M 35.203125 72.90625 
L 47.609375 72.90625 
L 47.609375 25.390625 
L 58.015625 25.390625 
L 58.015625 17.1875 
L 47.609375 17.1875 
L 47.609375 0 
L 37.796875 0 
L 37.796875 17.1875 
L 4.890625 17.1875 
L 4.890625 26.703125 
z
" id="DejaVuSans-52"/>
      </defs>
      <g transform="translate(48.17 417.242404)scale(0.16 -0.16)">
       <use xlink:href="#DejaVuSans-52"/>
       <use x="63.623047" xlink:href="#DejaVuSans-48"/>
      </g>
     </g>
    </g>
    <g id="ytick_4">
     <g id="line2d_13">
      <g>
       <use style="stroke:#000000;stroke-width:0.8;" x="75.53" xlink:href="#mb728ea257a" y="301.557299"/>
      </g>
     </g>
     <g id="text_14">
      <!-- 60 -->
      <g transform="translate(48.17 307.636049)scale(0.16 -0.16)">
       <use xlink:href="#DejaVuSans-54"/>
       <use x="63.623047" xlink:href="#DejaVuSans-48"/>
      </g>
     </g>
    </g>
    <g id="ytick_5">
     <g id="line2d_14">
      <g>
       <use style="stroke:#000000;stroke-width:0.8;" x="75.53" xlink:href="#mb728ea257a" y="191.950944"/>
      </g>
     </g>
     <g id="text_15">
      <!-- 80 -->
      <g transform="translate(48.17 198.029694)scale(0.16 -0.16)">
       <use xlink:href="#DejaVuSans-56"/>
       <use x="63.623047" xlink:href="#DejaVuSans-48"/>
      </g>
     </g>
    </g>
    <g id="ytick_6">
     <g id="line2d_15">
      <g>
       <use style="stroke:#000000;stroke-width:0.8;" x="75.53" xlink:href="#mb728ea257a" y="82.34459"/>
      </g>
     </g>
     <g id="text_16">
      <!-- 100 -->
      <g transform="translate(37.99 88.42334)scale(0.16 -0.16)">
       <use xlink:href="#DejaVuSans-49"/>
       <use x="63.623047" xlink:href="#DejaVuSans-48"/>
       <use x="127.246094" xlink:href="#DejaVuSans-48"/>
      </g>
     </g>
    </g>
    <g id="text_17">
     <!-- Broj soba -->
     <defs>
      <path d="M 19.671875 34.8125 
L 19.671875 8.109375 
L 35.5 8.109375 
Q 43.453125 8.109375 47.28125 11.40625 
Q 51.125 14.703125 51.125 21.484375 
Q 51.125 28.328125 47.28125 31.5625 
Q 43.453125 34.8125 35.5 34.8125 
z
M 19.671875 64.796875 
L 19.671875 42.828125 
L 34.28125 42.828125 
Q 41.5 42.828125 45.03125 45.53125 
Q 48.578125 48.25 48.578125 53.8125 
Q 48.578125 59.328125 45.03125 62.0625 
Q 41.5 64.796875 34.28125 64.796875 
z
M 9.8125 72.90625 
L 35.015625 72.90625 
Q 46.296875 72.90625 52.390625 68.21875 
Q 58.5 63.53125 58.5 54.890625 
Q 58.5 48.1875 55.375 44.234375 
Q 52.25 40.28125 46.1875 39.3125 
Q 53.46875 37.75 57.5 32.78125 
Q 61.53125 27.828125 61.53125 20.40625 
Q 61.53125 10.640625 54.890625 5.3125 
Q 48.25 0 35.984375 0 
L 9.8125 0 
z
" id="DejaVuSans-66"/>
      <path d="M 41.109375 46.296875 
Q 39.59375 47.171875 37.8125 47.578125 
Q 36.03125 48 33.890625 48 
Q 26.265625 48 22.1875 43.046875 
Q 18.109375 38.09375 18.109375 28.8125 
L 18.109375 0 
L 9.078125 0 
L 9.078125 54.6875 
L 18.109375 54.6875 
L 18.109375 46.1875 
Q 20.953125 51.171875 25.484375 53.578125 
Q 30.03125 56 36.53125 56 
Q 37.453125 56 38.578125 55.875 
Q 39.703125 55.765625 41.0625 55.515625 
z
" id="DejaVuSans-114"/>
      <path d="M 30.609375 48.390625 
Q 23.390625 48.390625 19.1875 42.75 
Q 14.984375 37.109375 14.984375 27.296875 
Q 14.984375 17.484375 19.15625 11.84375 
Q 23.34375 6.203125 30.609375 6.203125 
Q 37.796875 6.203125 41.984375 11.859375 
Q 46.1875 17.53125 46.1875 27.296875 
Q 46.1875 37.015625 41.984375 42.703125 
Q 37.796875 48.390625 30.609375 48.390625 
z
M 30.609375 56 
Q 42.328125 56 49.015625 48.375 
Q 55.71875 40.765625 55.71875 27.296875 
Q 55.71875 13.875 49.015625 6.21875 
Q 42.328125 -1.421875 30.609375 -1.421875 
Q 18.84375 -1.421875 12.171875 6.21875 
Q 5.515625 13.875 5.515625 27.296875 
Q 5.515625 40.765625 12.171875 48.375 
Q 18.84375 56 30.609375 56 
z
" id="DejaVuSans-111"/>
      <path d="M 9.421875 54.6875 
L 18.40625 54.6875 
L 18.40625 -0.984375 
Q 18.40625 -11.421875 14.421875 -16.109375 
Q 10.453125 -20.796875 1.609375 -20.796875 
L -1.8125 -20.796875 
L -1.8125 -13.1875 
L 0.59375 -13.1875 
Q 5.71875 -13.1875 7.5625 -10.8125 
Q 9.421875 -8.453125 9.421875 -0.984375 
z
M 9.421875 75.984375 
L 18.40625 75.984375 
L 18.40625 64.59375 
L 9.421875 64.59375 
z
" id="DejaVuSans-106"/>
      <path id="DejaVuSans-32"/>
      <path d="M 44.28125 53.078125 
L 44.28125 44.578125 
Q 40.484375 46.53125 36.375 47.5 
Q 32.28125 48.484375 27.875 48.484375 
Q 21.1875 48.484375 17.84375 46.4375 
Q 14.5 44.390625 14.5 40.28125 
Q 14.5 37.15625 16.890625 35.375 
Q 19.28125 33.59375 26.515625 31.984375 
L 29.59375 31.296875 
Q 39.15625 29.25 43.1875 25.515625 
Q 47.21875 21.78125 47.21875 15.09375 
Q 47.21875 7.46875 41.1875 3.015625 
Q 35.15625 -1.421875 24.609375 -1.421875 
Q 20.21875 -1.421875 15.453125 -0.5625 
Q 10.6875 0.296875 5.421875 2 
L 5.421875 11.28125 
Q 10.40625 8.6875 15.234375 7.390625 
Q 20.0625 6.109375 24.8125 6.109375 
Q 31.15625 6.109375 34.5625 8.28125 
Q 37.984375 10.453125 37.984375 14.40625 
Q 37.984375 18.0625 35.515625 20.015625 
Q 33.0625 21.96875 24.703125 23.78125 
L 21.578125 24.515625 
Q 13.234375 26.265625 9.515625 29.90625 
Q 5.8125 33.546875 5.8125 39.890625 
Q 5.8125 47.609375 11.28125 51.796875 
Q 16.75 56 26.8125 56 
Q 31.78125 56 36.171875 55.265625 
Q 40.578125 54.546875 44.28125 53.078125 
z
" id="DejaVuSans-115"/>
      <path d="M 48.6875 27.296875 
Q 48.6875 37.203125 44.609375 42.84375 
Q 40.53125 48.484375 33.40625 48.484375 
Q 26.265625 48.484375 22.1875 42.84375 
Q 18.109375 37.203125 18.109375 27.296875 
Q 18.109375 17.390625 22.1875 11.75 
Q 26.265625 6.109375 33.40625 6.109375 
Q 40.53125 6.109375 44.609375 11.75 
Q 48.6875 17.390625 48.6875 27.296875 
z
M 18.109375 46.390625 
Q 20.953125 51.265625 25.265625 53.625 
Q 29.59375 56 35.59375 56 
Q 45.5625 56 51.78125 48.09375 
Q 58.015625 40.1875 58.015625 27.296875 
Q 58.015625 14.40625 51.78125 6.484375 
Q 45.5625 -1.421875 35.59375 -1.421875 
Q 29.59375 -1.421875 25.265625 0.953125 
Q 20.953125 3.328125 18.109375 8.203125 
L 18.109375 0 
L 9.078125 0 
L 9.078125 75.984375 
L 18.109375 75.984375 
z
" id="DejaVuSans-98"/>
     </defs>
     <g transform="translate(30.6625 385.61875)rotate(-90)scale(0.16 -0.16)">
      <use xlink:href="#DejaVuSans-66"/>
      <use x="68.603516" xlink:href="#DejaVuSans-114"/>
      <use x="109.685547" xlink:href="#DejaVuSans-111"/>
      <use x="170.867188" xlink:href="#DejaVuSans-106"/>
      <use x="198.650391" xlink:href="#DejaVuSans-32"/>
      <use x="230.4375" xlink:href="#DejaVuSans-115"/>
      <use x="282.537109" xlink:href="#DejaVuSans-111"/>
      <use x="343.71875" xlink:href="#DejaVuSans-98"/>
      <use x="407.195312" xlink:href="#DejaVuSans-97"/>
     </g>
    </g>
   </g>
   <g id="line2d_16">
    <path clip-path="url(#p019bff1b41)" d="M 130.105909 575.573186 
L 131.10182 559.132233 
L 132.097731 592.014139 
L 133.093641 586.533822 
L 134.089552 619.415728 
L 135.085463 581.053504 
L 136.081374 553.651915 
L 137.077284 597.494457 
L 138.073195 602.974775 
L 139.069106 559.132233 
L 140.065017 597.494457 
L 141.060927 602.974775 
L 142.056838 592.014139 
L 143.052749 597.494457 
L 144.04866 592.014139 
L 145.04457 613.93541 
L 146.040481 592.014139 
L 147.036392 624.896046 
L 148.032303 613.93541 
L 149.028213 592.014139 
L 151.020035 602.974775 
L 152.015946 586.533822 
L 153.011856 602.974775 
L 154.007767 613.93541 
L 155.003678 619.415728 
L 155.999589 613.93541 
L 156.995499 597.494457 
L 157.99141 482.407785 
L 159.983232 613.93541 
L 160.979142 597.494457 
L 161.975053 624.896046 
L 162.970964 619.415728 
L 163.966875 608.455093 
L 164.962785 608.455093 
L 165.958696 613.93541 
L 166.954607 602.974775 
L 167.950518 597.494457 
L 168.946428 613.93541 
L 169.942339 613.93541 
L 170.93825 619.415728 
L 171.934161 613.93541 
L 172.930071 619.415728 
L 173.925982 613.93541 
L 175.917804 613.93541 
L 176.913714 619.415728 
L 177.909625 608.455093 
L 178.905536 624.896046 
L 179.901447 630.376364 
L 180.897357 613.93541 
L 182.889179 624.896046 
L 183.88509 597.494457 
L 184.881 602.974775 
L 185.876911 630.376364 
L 186.872822 624.896046 
L 187.868733 608.455093 
L 188.864643 608.455093 
L 189.860554 630.376364 
L 191.852376 597.494457 
L 192.848286 613.93541 
L 193.844197 619.415728 
L 194.840108 613.93541 
L 195.836019 619.415728 
L 196.831929 630.376364 
L 197.82784 613.93541 
L 199.819662 613.93541 
L 200.815572 630.376364 
L 201.811483 608.455093 
L 202.807394 619.415728 
L 203.803305 619.415728 
L 204.799215 581.053504 
L 205.795126 619.415728 
L 206.791037 613.93541 
L 207.786948 581.053504 
L 208.782858 613.93541 
L 209.778769 630.376364 
L 210.77468 624.896046 
L 211.770591 624.896046 
L 212.766501 553.651915 
L 213.762412 624.896046 
L 214.758323 624.896046 
L 215.754234 613.93541 
L 216.750144 624.896046 
L 217.746055 630.376364 
L 218.741966 592.014139 
L 219.737877 602.974775 
L 220.733787 624.896046 
L 221.729698 586.533822 
L 222.725609 586.533822 
L 223.72152 619.415728 
L 224.71743 597.494457 
L 225.713341 608.455093 
L 226.709252 613.93541 
L 227.705163 613.93541 
L 228.701073 602.974775 
L 229.696984 608.455093 
L 230.692895 602.974775 
L 231.688806 575.573186 
L 232.684716 608.455093 
L 233.680627 602.974775 
L 234.676538 433.084925 
L 235.672449 586.533822 
L 236.668359 613.93541 
L 237.66427 613.93541 
L 238.660181 586.533822 
L 239.656092 581.053504 
L 240.652002 602.974775 
L 241.647913 619.415728 
L 242.643824 630.376364 
L 243.639735 597.494457 
L 244.635645 624.896046 
L 245.631556 624.896046 
L 246.627467 564.612551 
L 247.623378 608.455093 
L 248.619288 608.455093 
L 249.615199 586.533822 
L 250.61111 613.93541 
L 251.607021 619.415728 
L 252.602931 592.014139 
L 253.598842 619.415728 
L 254.594753 592.014139 
L 255.590664 575.573186 
L 256.586574 586.533822 
L 257.582485 602.974775 
L 258.578396 597.494457 
L 259.574307 597.494457 
L 260.570217 570.092868 
L 261.566128 602.974775 
L 262.562039 597.494457 
L 263.55795 559.132233 
L 264.55386 592.014139 
L 265.549771 608.455093 
L 266.545682 559.132233 
L 267.541593 581.053504 
L 268.537503 581.053504 
L 269.533414 482.407785 
L 270.529325 476.927467 
L 271.525236 564.612551 
L 272.521146 586.533822 
L 273.517057 592.014139 
L 274.512968 482.407785 
L 275.508879 581.053504 
L 276.504789 493.36842 
L 277.5007 597.494457 
L 278.496611 597.494457 
L 279.492522 581.053504 
L 280.488432 597.494457 
L 281.484343 586.533822 
L 282.480254 372.80143 
L 283.476165 361.840794 
L 284.472075 531.730644 
L 285.467986 592.014139 
L 286.463897 581.053504 
L 287.459808 564.612551 
L 288.455718 564.612551 
L 289.451629 553.651915 
L 290.44754 564.612551 
L 291.443451 586.533822 
L 292.439361 575.573186 
L 293.435272 592.014139 
L 294.431183 570.092868 
L 295.427094 613.93541 
L 296.423004 570.092868 
L 297.418915 553.651915 
L 298.414826 586.533822 
L 299.410737 586.533822 
L 300.406647 602.974775 
L 301.402558 586.533822 
L 302.398469 559.132233 
L 303.39438 575.573186 
L 304.39029 564.612551 
L 305.386201 559.132233 
L 306.382112 592.014139 
L 307.378023 586.533822 
L 308.373933 526.250327 
L 309.369844 581.053504 
L 311.361666 465.966831 
L 312.357576 504.329056 
L 313.353487 564.612551 
L 314.349398 515.289691 
L 315.345309 531.730644 
L 316.341219 520.770009 
L 317.33713 498.848738 
L 318.333041 520.770009 
L 319.328952 515.289691 
L 320.324862 515.289691 
L 321.320773 520.770009 
L 322.316684 394.722701 
L 323.312595 476.927467 
L 324.308505 422.124289 
L 325.304416 460.486514 
L 326.300327 438.565243 
L 327.296238 400.203019 
L 328.292148 520.770009 
L 329.288059 427.604607 
L 330.28397 394.722701 
L 331.279881 339.919523 
L 332.275791 449.525878 
L 333.271702 405.683336 
L 334.267613 438.565243 
L 335.263524 433.084925 
L 336.259434 444.04556 
L 337.255345 367.321112 
L 338.251256 498.848738 
L 339.247167 444.04556 
L 340.243077 438.565243 
L 341.238988 422.124289 
L 342.234899 520.770009 
L 343.23081 400.203019 
L 344.22672 444.04556 
L 345.222631 339.919523 
L 346.218542 394.722701 
L 347.214453 372.80143 
L 348.210363 427.604607 
L 349.206274 537.210962 
L 350.202185 504.329056 
L 352.194006 416.643972 
L 353.189917 482.407785 
L 354.185828 438.565243 
L 355.181739 526.250327 
L 356.177649 592.014139 
L 357.17356 498.848738 
L 358.169471 356.360477 
L 359.165382 515.289691 
L 360.161292 471.447149 
L 361.157203 548.171598 
L 362.153114 553.651915 
L 363.149025 520.770009 
L 364.144935 504.329056 
L 365.140846 542.69128 
L 366.136757 498.848738 
L 367.132668 526.250327 
L 368.128578 559.132233 
L 369.124489 504.329056 
L 370.1204 537.210962 
L 371.116311 411.163654 
L 373.108132 498.848738 
L 374.104043 553.651915 
L 375.099954 482.407785 
L 376.095864 564.612551 
L 377.091775 597.494457 
L 378.087686 531.730644 
L 379.083597 537.210962 
L 380.079507 476.927467 
L 381.075418 564.612551 
L 382.071329 542.69128 
L 383.06724 575.573186 
L 384.06315 570.092868 
L 385.059061 542.69128 
L 386.054972 509.809373 
L 387.050883 487.888102 
L 388.046793 542.69128 
L 389.042704 493.36842 
L 390.038615 581.053504 
L 391.034526 592.014139 
L 392.030436 597.494457 
L 393.026347 548.171598 
L 394.022258 548.171598 
L 395.018169 581.053504 
L 396.014079 564.612551 
L 397.00999 602.974775 
L 398.005901 586.533822 
L 399.001812 619.415728 
L 399.997722 559.132233 
L 400.993633 559.132233 
L 401.989544 537.210962 
L 402.985455 602.974775 
L 403.981365 581.053504 
L 404.977276 493.36842 
L 405.973187 526.250327 
L 406.969098 542.69128 
L 407.965008 575.573186 
L 408.960919 526.250327 
L 409.95683 548.171598 
L 410.952741 548.171598 
L 411.948651 559.132233 
L 412.944562 504.329056 
L 413.940473 487.888102 
L 414.936384 515.289691 
L 415.932294 570.092868 
L 416.928205 564.612551 
L 417.924116 602.974775 
L 418.920027 581.053504 
L 419.915937 509.809373 
L 420.911848 542.69128 
L 421.907759 509.809373 
L 422.90367 520.770009 
L 423.89958 449.525878 
L 424.895491 537.210962 
L 425.891402 564.612551 
L 426.887313 542.69128 
L 427.883223 515.289691 
L 428.879134 553.651915 
L 429.875045 520.770009 
L 430.870956 564.612551 
L 432.862777 520.770009 
L 433.858688 553.651915 
L 434.854599 498.848738 
L 435.850509 542.69128 
L 436.84642 493.36842 
L 437.842331 520.770009 
L 438.838242 592.014139 
L 439.834152 592.014139 
L 440.830063 537.210962 
L 441.825974 548.171598 
L 442.821885 531.730644 
L 443.817795 581.053504 
L 444.813706 542.69128 
L 445.809617 520.770009 
L 446.805528 542.69128 
L 447.801438 553.651915 
L 448.797349 504.329056 
L 449.79326 526.250327 
L 450.789171 509.809373 
L 451.785081 548.171598 
L 452.780992 482.407785 
L 453.776903 592.014139 
L 454.772814 444.04556 
L 455.768724 460.486514 
L 456.764635 531.730644 
L 457.760546 509.809373 
L 458.756457 542.69128 
L 459.752367 537.210962 
L 460.748278 526.250327 
L 461.744189 487.888102 
L 462.7401 438.565243 
L 463.73601 465.966831 
L 464.731921 444.04556 
L 465.727832 416.643972 
L 466.723743 531.730644 
L 467.719653 509.809373 
L 468.715564 509.809373 
L 469.711475 531.730644 
L 470.707386 405.683336 
L 471.703296 504.329056 
L 472.699207 465.966831 
L 473.695118 455.006196 
L 474.691029 476.927467 
L 475.686939 526.250327 
L 476.68285 433.084925 
L 477.678761 416.643972 
L 478.674672 460.486514 
L 479.670582 394.722701 
L 480.666493 433.084925 
L 481.662404 476.927467 
L 482.658315 334.439206 
L 483.654225 235.793486 
L 484.650136 268.675393 
L 485.646047 334.439206 
L 486.641958 170.029673 
L 488.633779 317.998252 
L 489.62969 285.116346 
L 490.625601 175.509991 
L 491.621511 82.34459 
L 492.617422 246.754122 
L 493.613333 159.069038 
L 495.605154 504.329056 
L 496.601065 586.533822 
L 497.596976 520.770009 
L 498.592887 553.651915 
L 499.588797 515.289691 
L 500.584708 498.848738 
L 501.580619 581.053504 
L 502.57653 592.014139 
L 503.57244 608.455093 
L 504.568351 581.053504 
L 505.564262 592.014139 
L 506.560173 570.092868 
L 507.556083 608.455093 
L 508.551994 575.573186 
L 509.547905 608.455093 
L 510.543816 624.896046 
L 511.539726 586.533822 
L 512.535637 592.014139 
L 513.531548 575.573186 
L 514.527459 613.93541 
L 515.523369 613.93541 
L 516.51928 602.974775 
L 517.515191 624.896046 
L 518.511102 570.092868 
L 519.507012 592.014139 
L 520.502923 592.014139 
L 521.498834 613.93541 
L 522.494745 602.974775 
L 524.486566 602.974775 
L 525.482477 613.93541 
L 526.478388 602.974775 
L 528.470209 613.93541 
L 529.46612 613.93541 
L 530.462031 592.014139 
L 531.457941 624.896046 
L 532.453852 619.415728 
L 533.449763 602.974775 
L 534.445674 619.415728 
L 535.441584 613.93541 
L 536.437495 630.376364 
L 537.433406 602.974775 
L 538.429317 624.896046 
L 539.425227 613.93541 
L 540.421138 624.896046 
L 542.41296 613.93541 
L 543.40887 619.415728 
L 544.404781 630.376364 
L 545.400692 597.494457 
L 546.396603 630.376364 
L 548.388424 630.376364 
L 549.384335 619.415728 
L 551.376156 619.415728 
L 552.372067 608.455093 
L 553.367978 613.93541 
L 554.363889 608.455093 
L 556.35571 619.415728 
L 557.351621 613.93541 
L 558.347532 624.896046 
L 559.343442 613.93541 
L 560.339353 619.415728 
L 561.335264 613.93541 
L 562.331175 619.415728 
L 563.327085 597.494457 
L 564.322996 619.415728 
L 565.318907 624.896046 
L 566.314818 624.896046 
L 567.310728 602.974775 
L 569.30255 602.974775 
L 570.298461 575.573186 
L 571.294371 597.494457 
L 572.290282 624.896046 
L 573.286193 619.415728 
L 574.282104 624.896046 
L 575.278014 608.455093 
L 576.273925 613.93541 
L 577.269836 613.93541 
L 578.265747 619.415728 
L 580.257568 597.494457 
L 581.253479 597.494457 
L 582.24939 613.93541 
L 584.241211 592.014139 
L 585.237122 531.730644 
L 586.233033 597.494457 
L 587.228943 548.171598 
L 588.224854 570.092868 
L 589.220765 531.730644 
L 590.216676 526.250327 
L 591.212586 619.415728 
L 592.208497 575.573186 
L 593.204408 602.974775 
L 594.200319 592.014139 
L 595.196229 575.573186 
L 596.19214 581.053504 
L 597.188051 592.014139 
L 598.183962 581.053504 
L 599.179872 559.132233 
L 600.175783 570.092868 
L 601.171694 575.573186 
L 602.167605 460.486514 
L 603.163515 564.612551 
L 604.159426 570.092868 
L 605.155337 597.494457 
L 606.151248 570.092868 
L 607.147158 592.014139 
L 608.143069 592.014139 
L 609.13898 575.573186 
L 610.134891 592.014139 
L 611.130801 570.092868 
L 612.126712 559.132233 
L 613.122623 542.69128 
L 615.114444 597.494457 
L 616.110355 548.171598 
L 618.102177 537.210962 
L 619.098087 515.289691 
L 620.093998 559.132233 
L 621.089909 586.533822 
L 622.08582 559.132233 
L 623.08173 515.289691 
L 624.077641 509.809373 
L 625.073552 548.171598 
L 626.069463 570.092868 
L 627.065373 548.171598 
L 628.061284 602.974775 
L 630.053106 537.210962 
L 631.049016 515.289691 
L 632.044927 575.573186 
L 633.040838 575.573186 
L 634.036749 559.132233 
L 635.032659 548.171598 
L 636.02857 542.69128 
L 637.024481 531.730644 
L 638.020392 487.888102 
L 639.016302 581.053504 
L 640.012213 570.092868 
L 641.008124 520.770009 
L 642.004035 570.092868 
L 642.999945 559.132233 
L 643.995856 515.289691 
L 644.991767 537.210962 
L 645.987678 498.848738 
L 646.983588 559.132233 
L 647.979499 581.053504 
L 648.97541 592.014139 
L 649.971321 597.494457 
L 650.967231 504.329056 
L 651.963142 465.966831 
L 652.959053 559.132233 
L 653.954964 531.730644 
L 655.946785 597.494457 
L 656.942696 553.651915 
L 657.938607 548.171598 
L 658.934517 537.210962 
L 659.930428 515.289691 
L 660.926339 575.573186 
L 661.92225 526.250327 
L 662.91816 575.573186 
L 663.914071 570.092868 
L 664.909982 449.525878 
L 665.905893 542.69128 
L 666.901803 531.730644 
L 667.897714 548.171598 
L 668.893625 575.573186 
L 669.889536 592.014139 
L 670.885446 575.573186 
L 671.881357 570.092868 
L 672.877268 526.250327 
L 673.873179 476.927467 
L 674.869089 509.809373 
L 675.865 460.486514 
L 676.860911 548.171598 
L 677.856821 581.053504 
L 678.852732 383.762065 
L 679.848643 317.998252 
L 680.844554 400.203019 
L 681.840464 383.762065 
L 682.836375 455.006196 
L 683.832286 444.04556 
L 685.824107 389.242383 
L 686.820018 301.557299 
L 687.815929 296.076981 
L 688.81184 246.754122 
L 689.80775 400.203019 
L 690.803661 400.203019 
L 691.799572 268.675393 
L 692.795483 307.037617 
L 693.791393 361.840794 
L 694.787304 361.840794 
L 695.783215 433.084925 
L 696.779126 367.321112 
L 697.775036 416.643972 
L 698.770947 400.203019 
L 699.766858 389.242383 
L 700.762769 389.242383 
L 701.758679 405.683336 
L 702.75459 416.643972 
L 703.750501 422.124289 
L 704.746412 526.250327 
L 705.742322 471.447149 
L 706.738233 367.321112 
L 707.734144 241.273804 
L 708.730055 323.47857 
L 709.725965 460.486514 
L 710.721876 394.722701 
L 711.717787 471.447149 
L 712.713698 444.04556 
L 713.709608 422.124289 
L 714.705519 389.242383 
L 715.70143 460.486514 
L 716.697341 350.880159 
L 717.693251 493.36842 
L 718.689162 526.250327 
L 719.685073 509.809373 
L 720.680984 455.006196 
L 721.676894 356.360477 
L 722.672805 411.163654 
L 723.668716 444.04556 
L 724.664627 542.69128 
L 725.660537 553.651915 
L 726.656448 504.329056 
L 727.652359 493.36842 
L 728.64827 487.888102 
L 729.64418 509.809373 
L 730.640091 504.329056 
L 731.636002 581.053504 
L 733.627823 537.210962 
L 734.623734 542.69128 
L 735.619645 542.69128 
L 736.615556 570.092868 
L 737.611466 531.730644 
L 738.607377 542.69128 
L 739.603288 581.053504 
L 740.599199 537.210962 
L 742.59102 526.250327 
L 743.586931 548.171598 
L 744.582842 465.966831 
L 745.578752 537.210962 
L 746.574663 581.053504 
L 747.570574 559.132233 
L 748.566485 520.770009 
L 749.562395 564.612551 
L 750.558306 493.36842 
L 751.554217 581.053504 
L 752.550128 564.612551 
L 753.546038 542.69128 
L 754.541949 537.210962 
L 755.53786 520.770009 
L 756.533771 526.250327 
L 757.529681 597.494457 
L 758.525592 564.612551 
L 759.521503 586.533822 
L 760.517414 575.573186 
L 761.513324 531.730644 
L 762.509235 548.171598 
L 764.501057 559.132233 
L 765.496967 586.533822 
L 766.492878 559.132233 
L 767.488789 586.533822 
L 768.4847 564.612551 
L 769.48061 608.455093 
L 770.476521 597.494457 
L 771.472432 559.132233 
L 772.468343 575.573186 
L 773.464253 542.69128 
L 774.460164 553.651915 
L 775.456075 542.69128 
L 776.451986 537.210962 
L 777.447896 575.573186 
L 778.443807 597.494457 
L 779.439718 526.250327 
L 780.435629 526.250327 
L 782.42745 581.053504 
L 783.423361 531.730644 
L 784.419272 553.651915 
L 785.415182 542.69128 
L 786.411093 559.132233 
L 787.407004 531.730644 
L 788.402915 553.651915 
L 789.398825 509.809373 
L 790.394736 537.210962 
L 791.390647 526.250327 
L 792.386558 520.770009 
L 793.382468 526.250327 
L 794.378379 553.651915 
L 795.37429 542.69128 
L 796.370201 553.651915 
L 797.366111 542.69128 
L 798.362022 471.447149 
L 799.357933 465.966831 
L 800.353844 548.171598 
L 801.349754 493.36842 
L 802.345665 509.809373 
L 803.341576 493.36842 
L 804.337487 465.966831 
L 805.333397 498.848738 
L 806.329308 515.289691 
L 807.325219 515.289691 
L 808.32113 548.171598 
L 809.31704 498.848738 
L 810.312951 515.289691 
L 811.308862 455.006196 
L 812.304773 438.565243 
L 813.300683 438.565243 
L 814.296594 465.966831 
L 815.292505 471.447149 
L 816.288416 542.69128 
L 817.284326 449.525878 
L 818.280237 400.203019 
L 819.276148 498.848738 
L 820.272059 553.651915 
L 821.267969 509.809373 
L 822.26388 537.210962 
L 823.259791 504.329056 
L 824.255702 449.525878 
L 825.251612 427.604607 
L 826.247523 449.525878 
L 827.243434 400.203019 
L 828.239345 537.210962 
L 829.235255 471.447149 
L 830.231166 449.525878 
L 831.227077 400.203019 
L 832.222988 394.722701 
L 833.218898 400.203019 
L 834.214809 411.163654 
L 835.21072 427.604607 
L 836.206631 449.525878 
L 837.202541 465.966831 
L 838.198452 400.203019 
L 839.194363 361.840794 
L 840.190274 361.840794 
L 841.186184 339.919523 
L 842.182095 323.47857 
L 843.178006 356.360477 
L 844.173917 411.163654 
L 845.169827 400.203019 
L 846.165738 334.439206 
L 847.161649 312.517935 
L 848.15756 274.155711 
L 849.15347 290.596664 
L 850.149381 274.155711 
L 851.145292 268.675393 
L 852.141203 367.321112 
L 853.137113 87.824907 
L 854.133024 219.352533 
L 855.128935 153.58872 
L 856.124846 219.352533 
L 857.120756 65.903636 
L 859.112578 542.69128 
L 860.108489 559.132233 
L 861.104399 559.132233 
L 863.096221 389.242383 
L 864.092132 460.486514 
L 865.088042 575.573186 
L 866.083953 592.014139 
L 867.079864 531.730644 
L 868.075775 581.053504 
L 869.071685 548.171598 
L 870.067596 520.770009 
L 871.063507 548.171598 
L 872.059418 559.132233 
L 873.055328 581.053504 
L 874.051239 537.210962 
L 875.04715 586.533822 
L 876.043061 602.974775 
L 877.038971 553.651915 
L 878.034882 581.053504 
L 879.030793 482.407785 
L 880.026704 608.455093 
L 881.022614 581.053504 
L 882.018525 602.974775 
L 883.014436 592.014139 
L 884.010347 564.612551 
L 886.002168 608.455093 
L 886.998079 597.494457 
L 887.99399 613.93541 
L 888.9899 592.014139 
L 889.985811 597.494457 
L 890.981722 586.533822 
L 891.977633 608.455093 
L 892.973543 613.93541 
L 893.969454 597.494457 
L 894.965365 597.494457 
L 895.961276 581.053504 
L 896.957186 624.896046 
L 897.953097 602.974775 
L 899.944919 592.014139 
L 900.940829 613.93541 
L 901.93674 592.014139 
L 902.932651 613.93541 
L 903.928562 608.455093 
L 904.924472 613.93541 
L 905.920383 613.93541 
L 907.912205 602.974775 
L 908.908115 613.93541 
L 909.904026 602.974775 
L 910.899937 575.573186 
L 911.895848 581.053504 
L 912.891758 592.014139 
L 913.887669 613.93541 
L 914.88358 597.494457 
L 915.879491 592.014139 
L 916.875401 613.93541 
L 917.871312 613.93541 
L 918.867223 597.494457 
L 919.863134 624.896046 
L 920.859044 613.93541 
L 921.854955 597.494457 
L 922.850866 613.93541 
L 923.846777 619.415728 
L 924.842687 613.93541 
L 925.838598 592.014139 
L 926.834509 592.014139 
L 927.83042 597.494457 
L 928.82633 575.573186 
L 929.822241 624.896046 
L 930.818152 602.974775 
L 932.809973 613.93541 
L 933.805884 602.974775 
L 934.801795 613.93541 
L 935.797706 608.455093 
L 936.793616 597.494457 
L 938.785438 619.415728 
L 939.781349 586.533822 
L 940.777259 586.533822 
L 941.77317 602.974775 
L 942.769081 613.93541 
L 943.764992 575.573186 
L 944.760902 602.974775 
L 945.756813 575.573186 
L 946.752724 608.455093 
L 948.744545 630.376364 
L 949.740456 624.896046 
L 950.736367 613.93541 
L 951.732278 553.651915 
L 952.728188 548.171598 
L 953.724099 575.573186 
L 954.72001 570.092868 
L 955.715921 559.132233 
L 956.711831 493.36842 
L 957.707742 493.36842 
L 958.703653 504.329056 
L 959.699564 509.809373 
L 960.695474 476.927467 
L 961.691385 559.132233 
L 962.687296 531.730644 
L 963.683207 509.809373 
L 964.679117 482.407785 
L 965.675028 449.525878 
L 966.670939 608.455093 
L 967.66685 537.210962 
L 968.66276 476.927467 
L 969.658671 542.69128 
L 970.654582 449.525878 
L 971.650493 476.927467 
L 972.646403 509.809373 
L 973.642314 493.36842 
L 974.638225 438.565243 
L 975.634136 449.525878 
L 976.630046 515.289691 
L 977.625957 356.360477 
L 978.621868 482.407785 
L 979.617779 400.203019 
L 980.613689 504.329056 
L 981.6096 520.770009 
L 982.605511 394.722701 
L 983.601422 515.289691 
L 984.597332 438.565243 
L 985.593243 465.966831 
L 986.589154 460.486514 
L 987.585065 444.04556 
L 988.580975 520.770009 
L 989.576886 509.809373 
L 990.572797 542.69128 
L 991.568708 471.447149 
L 993.560529 537.210962 
L 994.55644 548.171598 
L 995.552351 548.171598 
L 996.548261 624.896046 
L 997.544172 575.573186 
L 998.540083 592.014139 
L 999.535994 361.840794 
L 1000.531904 487.888102 
L 1001.527815 559.132233 
L 1002.523726 570.092868 
L 1003.519637 548.171598 
L 1004.515547 559.132233 
L 1005.511458 465.966831 
L 1006.507369 520.770009 
L 1007.50328 515.289691 
L 1008.49919 526.250327 
L 1009.495101 520.770009 
L 1010.491012 455.006196 
L 1011.486923 581.053504 
L 1012.482833 537.210962 
L 1013.478744 433.084925 
L 1014.474655 531.730644 
L 1015.470566 548.171598 
L 1016.466476 548.171598 
L 1017.462387 504.329056 
L 1018.458298 586.533822 
L 1019.454209 542.69128 
L 1020.450119 542.69128 
L 1022.441941 586.533822 
L 1023.437852 570.092868 
L 1024.433762 586.533822 
L 1025.429673 619.415728 
L 1026.425584 482.407785 
L 1027.421495 559.132233 
L 1028.417405 553.651915 
L 1029.413316 559.132233 
L 1030.409227 531.730644 
L 1031.405138 581.053504 
L 1032.401048 586.533822 
L 1033.396959 608.455093 
L 1034.39287 597.494457 
L 1035.388781 531.730644 
L 1036.384691 515.289691 
L 1038.376513 515.289691 
L 1039.372424 542.69128 
L 1040.368334 526.250327 
L 1041.364245 493.36842 
L 1042.360156 498.848738 
L 1043.356067 465.966831 
L 1044.351977 455.006196 
L 1045.347888 356.360477 
L 1046.343799 487.888102 
L 1047.33971 312.517935 
L 1048.33562 323.47857 
L 1049.331531 372.80143 
L 1050.327442 334.439206 
L 1051.323353 312.517935 
L 1052.319263 301.557299 
L 1053.315174 339.919523 
L 1054.311085 296.076981 
L 1055.306996 246.754122 
L 1056.302906 339.919523 
L 1057.298817 383.762065 
L 1058.294728 334.439206 
L 1059.290639 312.517935 
L 1060.286549 394.722701 
L 1061.28246 389.242383 
L 1062.278371 400.203019 
L 1063.274282 323.47857 
L 1064.270192 356.360477 
L 1065.266103 312.517935 
L 1066.262014 422.124289 
L 1067.257925 504.329056 
L 1068.253835 356.360477 
L 1069.249746 422.124289 
L 1070.245657 241.273804 
L 1071.241568 301.557299 
L 1072.237478 405.683336 
L 1073.233389 328.958888 
L 1074.2293 427.604607 
L 1075.225211 482.407785 
L 1076.221121 394.722701 
L 1077.217032 471.447149 
L 1078.212943 378.281748 
L 1079.208854 493.36842 
L 1080.204764 498.848738 
L 1081.200675 493.36842 
L 1082.196586 411.163654 
L 1083.192497 498.848738 
L 1084.188407 400.203019 
L 1085.184318 455.006196 
L 1086.180229 394.722701 
L 1087.17614 542.69128 
L 1088.17205 520.770009 
L 1089.167961 542.69128 
L 1090.163872 493.36842 
L 1091.159783 487.888102 
L 1092.155693 542.69128 
L 1094.147515 597.494457 
L 1095.143426 581.053504 
L 1096.139336 559.132233 
L 1097.135247 515.289691 
L 1098.131158 559.132233 
L 1099.127069 559.132233 
L 1100.122979 520.770009 
L 1101.11889 542.69128 
L 1102.114801 526.250327 
L 1103.110712 526.250327 
L 1104.106622 465.966831 
L 1105.102533 581.053504 
L 1106.098444 515.289691 
L 1107.094355 531.730644 
L 1108.090265 520.770009 
L 1109.086176 328.958888 
L 1110.082087 394.722701 
L 1111.077998 526.250327 
L 1112.073908 548.171598 
L 1113.069819 586.533822 
L 1114.06573 498.848738 
L 1115.061641 581.053504 
L 1117.053462 504.329056 
L 1118.049373 526.250327 
L 1119.045284 559.132233 
L 1120.041194 564.612551 
L 1121.037105 515.289691 
L 1122.033016 564.612551 
L 1123.028927 559.132233 
L 1124.024837 542.69128 
L 1125.020748 476.927467 
L 1126.016659 537.210962 
L 1127.01257 531.730644 
L 1128.00848 586.533822 
L 1129.004391 586.533822 
L 1130.000302 564.612551 
L 1130.996213 564.612551 
L 1131.992123 526.250327 
L 1133.983945 537.210962 
L 1134.979856 531.730644 
L 1135.975766 581.053504 
L 1136.971677 548.171598 
L 1137.967588 504.329056 
L 1138.963499 526.250327 
L 1139.959409 526.250327 
L 1140.95532 509.809373 
L 1141.951231 548.171598 
L 1142.947142 548.171598 
L 1143.943052 575.573186 
L 1144.938963 493.36842 
L 1145.934874 586.533822 
L 1146.930785 487.888102 
L 1147.926695 537.210962 
L 1148.922606 537.210962 
L 1149.918517 559.132233 
L 1150.914428 520.770009 
L 1151.910338 411.163654 
L 1152.906249 482.407785 
L 1153.90216 504.329056 
L 1155.893981 504.329056 
L 1156.889892 487.888102 
L 1157.885803 515.289691 
L 1158.881714 471.447149 
L 1159.877624 465.966831 
L 1160.873535 444.04556 
L 1161.869446 548.171598 
L 1162.865357 509.809373 
L 1163.861267 487.888102 
L 1164.857178 553.651915 
L 1165.853089 520.770009 
L 1166.849 504.329056 
L 1167.84491 504.329056 
L 1168.840821 449.525878 
L 1169.836732 520.770009 
L 1170.832643 559.132233 
L 1171.828553 520.770009 
L 1172.824464 471.447149 
L 1173.820375 542.69128 
L 1174.816286 542.69128 
L 1175.812196 455.006196 
L 1176.808107 493.36842 
L 1177.804018 509.809373 
L 1178.799929 592.014139 
L 1179.795839 422.124289 
L 1180.79175 471.447149 
L 1181.787661 498.848738 
L 1182.783572 476.927467 
L 1183.779482 526.250327 
L 1184.775393 542.69128 
L 1185.771304 509.809373 
L 1186.767215 515.289691 
L 1187.763125 509.809373 
L 1188.759036 460.486514 
L 1189.754947 482.407785 
L 1190.750858 553.651915 
L 1191.746768 553.651915 
L 1192.742679 471.447149 
L 1193.73859 460.486514 
L 1194.734501 274.155711 
L 1196.726322 504.329056 
L 1197.722233 438.565243 
L 1198.718144 460.486514 
L 1199.714054 520.770009 
L 1200.709965 433.084925 
L 1201.705876 372.80143 
L 1202.701787 378.281748 
L 1204.693608 422.124289 
L 1205.689519 433.084925 
L 1206.68543 416.643972 
L 1207.68134 449.525878 
L 1208.677251 433.084925 
L 1210.669073 317.998252 
L 1211.664983 213.872215 
L 1212.660894 334.439206 
L 1213.656805 405.683336 
L 1214.652716 394.722701 
L 1215.648626 202.91158 
L 1216.644537 252.23444 
L 1217.640448 252.23444 
L 1218.636359 328.958888 
L 1219.632269 323.47857 
L 1220.62818 361.840794 
L 1221.624091 455.006196 
L 1221.624091 455.006196 
" style="fill:none;stroke:#2196f3;stroke-linecap:square;stroke-width:1.5;"/>
   </g>
   <g id="patch_3">
    <path d="M 75.53 658.6 
L 75.53 37.68 
" style="fill:none;stroke:#000000;stroke-linecap:square;stroke-linejoin:miter;stroke-width:0.8;"/>
   </g>
   <g id="patch_4">
    <path d="M 1276.2 658.6 
L 1276.2 37.68 
" style="fill:none;stroke:#000000;stroke-linecap:square;stroke-linejoin:miter;stroke-width:0.8;"/>
   </g>
   <g id="patch_5">
    <path d="M 75.53 658.6 
L 1276.2 658.6 
" style="fill:none;stroke:#000000;stroke-linecap:square;stroke-linejoin:miter;stroke-width:0.8;"/>
   </g>
   <g id="patch_6">
    <path d="M 75.53 37.68 
L 1276.2 37.68 
" style="fill:none;stroke:#000000;stroke-linecap:square;stroke-linejoin:miter;stroke-width:0.8;"/>
   </g>
   <g id="text_18">
    <!-- Rezervacije -->
    <defs>
     <path d="M 44.390625 34.1875 
Q 47.5625 33.109375 50.5625 29.59375 
Q 53.5625 26.078125 56.59375 19.921875 
L 66.609375 0 
L 56 0 
L 46.6875 18.703125 
Q 43.0625 26.03125 39.671875 28.421875 
Q 36.28125 30.8125 30.421875 30.8125 
L 19.671875 30.8125 
L 19.671875 0 
L 9.8125 0 
L 9.8125 72.90625 
L 32.078125 72.90625 
Q 44.578125 72.90625 50.734375 67.671875 
Q 56.890625 62.453125 56.890625 51.90625 
Q 56.890625 45.015625 53.6875 40.46875 
Q 50.484375 35.9375 44.390625 34.1875 
z
M 19.671875 64.796875 
L 19.671875 38.921875 
L 32.078125 38.921875 
Q 39.203125 38.921875 42.84375 42.21875 
Q 46.484375 45.515625 46.484375 51.90625 
Q 46.484375 58.296875 42.84375 61.546875 
Q 39.203125 64.796875 32.078125 64.796875 
z
" id="DejaVuSans-82"/>
     <path d="M 56.203125 29.59375 
L 56.203125 25.203125 
L 14.890625 25.203125 
Q 15.484375 15.921875 20.484375 11.0625 
Q 25.484375 6.203125 34.421875 6.203125 
Q 39.59375 6.203125 44.453125 7.46875 
Q 49.3125 8.734375 54.109375 11.28125 
L 54.109375 2.78125 
Q 49.265625 0.734375 44.1875 -0.34375 
Q 39.109375 -1.421875 33.890625 -1.421875 
Q 20.796875 -1.421875 13.15625 6.1875 
Q 5.515625 13.8125 5.515625 26.8125 
Q 5.515625 40.234375 12.765625 48.109375 
Q 20.015625 56 32.328125 56 
Q 43.359375 56 49.78125 48.890625 
Q 56.203125 41.796875 56.203125 29.59375 
z
M 47.21875 32.234375 
Q 47.125 39.59375 43.09375 43.984375 
Q 39.0625 48.390625 32.421875 48.390625 
Q 24.90625 48.390625 20.390625 44.140625 
Q 15.875 39.890625 15.1875 32.171875 
z
" id="DejaVuSans-101"/>
     <path d="M 5.515625 54.6875 
L 48.1875 54.6875 
L 48.1875 46.484375 
L 14.40625 7.171875 
L 48.1875 7.171875 
L 48.1875 0 
L 4.296875 0 
L 4.296875 8.203125 
L 38.09375 47.515625 
L 5.515625 47.515625 
z
" id="DejaVuSans-122"/>
     <path d="M 2.984375 54.6875 
L 12.5 54.6875 
L 29.59375 8.796875 
L 46.6875 54.6875 
L 56.203125 54.6875 
L 35.6875 0 
L 23.484375 0 
z
" id="DejaVuSans-118"/>
     <path d="M 48.78125 52.59375 
L 48.78125 44.1875 
Q 44.96875 46.296875 41.140625 47.34375 
Q 37.3125 48.390625 33.40625 48.390625 
Q 24.65625 48.390625 19.8125 42.84375 
Q 14.984375 37.3125 14.984375 27.296875 
Q 14.984375 17.28125 19.8125 11.734375 
Q 24.65625 6.203125 33.40625 6.203125 
Q 37.3125 6.203125 41.140625 7.25 
Q 44.96875 8.296875 48.78125 10.40625 
L 48.78125 2.09375 
Q 45.015625 0.34375 40.984375 -0.53125 
Q 36.96875 -1.421875 32.421875 -1.421875 
Q 20.0625 -1.421875 12.78125 6.34375 
Q 5.515625 14.109375 5.515625 27.296875 
Q 5.515625 40.671875 12.859375 48.328125 
Q 20.21875 56 33.015625 56 
Q 37.15625 56 41.109375 55.140625 
Q 45.0625 54.296875 48.78125 52.59375 
z
" id="DejaVuSans-99"/>
     <path d="M 9.421875 54.6875 
L 18.40625 54.6875 
L 18.40625 0 
L 9.421875 0 
z
M 9.421875 75.984375 
L 18.40625 75.984375 
L 18.40625 64.59375 
L 9.421875 64.59375 
z
" id="DejaVuSans-105"/>
    </defs>
    <g transform="translate(620.317 31.68)scale(0.192 -0.192)">
     <use xlink:href="#DejaVuSans-82"/>
     <use x="69.419922" xlink:href="#DejaVuSans-101"/>
     <use x="130.943359" xlink:href="#DejaVuSans-122"/>
     <use x="183.433594" xlink:href="#DejaVuSans-101"/>
     <use x="244.957031" xlink:href="#DejaVuSans-114"/>
     <use x="286.070312" xlink:href="#DejaVuSans-118"/>
     <use x="345.25" xlink:href="#DejaVuSans-97"/>
     <use x="406.529297" xlink:href="#DejaVuSans-99"/>
     <use x="461.509766" xlink:href="#DejaVuSans-105"/>
     <use x="489.292969" xlink:href="#DejaVuSans-106"/>
     <use x="517.076172" xlink:href="#DejaVuSans-101"/>
    </g>
   </g>
  </g>
 </g>
 <defs>
  <clipPath id="p019bff1b41">
   <rect height="620.92" width="1200.67" x="75.53" y="37.68"/>
  </clipPath>
 </defs>
</svg>
