<?xml version="1.0" encoding="utf-8" standalone="no"?>
<!DOCTYPE svg PUBLIC "-//W3C//DTD SVG 1.1//EN"
  "http://www.w3.org/Graphics/SVG/1.1/DTD/svg11.dtd">
<!-- Created with matplotlib (https://matplotlib.org/) -->
<svg height="720pt" version="1.1" viewBox="0 0 1296 720" width="1296pt" xmlns="http://www.w3.org/2000/svg" xmlns:xlink="http://www.w3.org/1999/xlink">
 <defs>
  <style type="text/css">
*{stroke-linecap:butt;stroke-linejoin:round;}
  </style>
 </defs>
 <g id="figure_1">
  <g id="patch_1">
   <path d="M 0 720 
L 1296 720 
L 1296 0 
L 0 0 
z
" style="fill:#ffffff;"/>
  </g>
  <g id="axes_1">
   <g id="patch_2">
    <path d="M 162 630 
L 1166.4 630 
L 1166.4 86.4 
L 162 86.4 
z
" style="fill:#ffffff;"/>
   </g>
   <g id="matplotlib.axis_1">
    <g id="xtick_1">
     <g id="line2d_1">
      <defs>
       <path d="M 0 0 
L 0 3.5 
" id="m327580eef7" style="stroke:#000000;stroke-width:0.8;"/>
      </defs>
      <g>
       <use style="stroke:#000000;stroke-width:0.8;" x="207.654545" xlink:href="#m327580eef7" y="630"/>
      </g>
     </g>
     <g id="text_1">
      <!-- 2015-07-01 -->
      <defs>
       <path d="M 19.1875 8.296875 
L 53.609375 8.296875 
L 53.609375 0 
L 7.328125 0 
L 7.328125 8.296875 
Q 12.9375 14.109375 22.625 23.890625 
Q 32.328125 33.6875 34.8125 36.53125 
Q 39.546875 41.84375 41.421875 45.53125 
Q 43.3125 49.21875 43.3125 52.78125 
Q 43.3125 58.59375 39.234375 62.25 
Q 35.15625 65.921875 28.609375 65.921875 
Q 23.96875 65.921875 18.8125 64.3125 
Q 13.671875 62.703125 7.8125 59.421875 
L 7.8125 69.390625 
Q 13.765625 71.78125 18.9375 73 
Q 24.125 74.21875 28.421875 74.21875 
Q 39.75 74.21875 46.484375 68.546875 
Q 53.21875 62.890625 53.21875 53.421875 
Q 53.21875 48.921875 51.53125 44.890625 
Q 49.859375 40.875 45.40625 35.40625 
Q 44.1875 33.984375 37.640625 27.21875 
Q 31.109375 20.453125 19.1875 8.296875 
z
" id="DejaVuSans-50"/>
       <path d="M 31.78125 66.40625 
Q 24.171875 66.40625 20.328125 58.90625 
Q 16.5 51.421875 16.5 36.375 
Q 16.5 21.390625 20.328125 13.890625 
Q 24.171875 6.390625 31.78125 6.390625 
Q 39.453125 6.390625 43.28125 13.890625 
Q 47.125 21.390625 47.125 36.375 
Q 47.125 51.421875 43.28125 58.90625 
Q 39.453125 66.40625 31.78125 66.40625 
z
M 31.78125 74.21875 
Q 44.046875 74.21875 50.515625 64.515625 
Q 56.984375 54.828125 56.984375 36.375 
Q 56.984375 17.96875 50.515625 8.265625 
Q 44.046875 -1.421875 31.78125 -1.421875 
Q 19.53125 -1.421875 13.0625 8.265625 
Q 6.59375 17.96875 6.59375 36.375 
Q 6.59375 54.828125 13.0625 64.515625 
Q 19.53125 74.21875 31.78125 74.21875 
z
" id="DejaVuSans-48"/>
       <path d="M 12.40625 8.296875 
L 28.515625 8.296875 
L 28.515625 63.921875 
L 10.984375 60.40625 
L 10.984375 69.390625 
L 28.421875 72.90625 
L 38.28125 72.90625 
L 38.28125 8.296875 
L 54.390625 8.296875 
L 54.390625 0 
L 12.40625 0 
z
" id="DejaVuSans-49"/>
       <path d="M 10.796875 72.90625 
L 49.515625 72.90625 
L 49.515625 64.59375 
L 19.828125 64.59375 
L 19.828125 46.734375 
Q 21.96875 47.46875 24.109375 47.828125 
Q 26.265625 48.1875 28.421875 48.1875 
Q 40.625 48.1875 47.75 41.5 
Q 54.890625 34.8125 54.890625 23.390625 
Q 54.890625 11.625 47.5625 5.09375 
Q 40.234375 -1.421875 26.90625 -1.421875 
Q 22.3125 -1.421875 17.546875 -0.640625 
Q 12.796875 0.140625 7.71875 1.703125 
L 7.71875 11.625 
Q 12.109375 9.234375 16.796875 8.0625 
Q 21.484375 6.890625 26.703125 6.890625 
Q 35.15625 6.890625 40.078125 11.328125 
Q 45.015625 15.765625 45.015625 23.390625 
Q 45.015625 31 40.078125 35.4375 
Q 35.15625 39.890625 26.703125 39.890625 
Q 22.75 39.890625 18.8125 39.015625 
Q 14.890625 38.140625 10.796875 36.28125 
z
" id="DejaVuSans-53"/>
       <path d="M 4.890625 31.390625 
L 31.203125 31.390625 
L 31.203125 23.390625 
L 4.890625 23.390625 
z
" id="DejaVuSans-45"/>
       <path d="M 8.203125 72.90625 
L 55.078125 72.90625 
L 55.078125 68.703125 
L 28.609375 0 
L 18.3125 0 
L 43.21875 64.59375 
L 8.203125 64.59375 
z
" id="DejaVuSans-55"/>
      </defs>
      <g transform="translate(172.78517 646.118125)scale(0.12 -0.12)">
       <use xlink:href="#DejaVuSans-50"/>
       <use x="63.623047" xlink:href="#DejaVuSans-48"/>
       <use x="127.246094" xlink:href="#DejaVuSans-49"/>
       <use x="190.869141" xlink:href="#DejaVuSans-53"/>
       <use x="254.492188" xlink:href="#DejaVuSans-45"/>
       <use x="290.576172" xlink:href="#DejaVuSans-48"/>
       <use x="354.199219" xlink:href="#DejaVuSans-55"/>
       <use x="417.822266" xlink:href="#DejaVuSans-45"/>
       <use x="453.90625" xlink:href="#DejaVuSans-48"/>
       <use x="517.529297" xlink:href="#DejaVuSans-49"/>
      </g>
     </g>
    </g>
    <g id="xtick_2">
     <g id="line2d_2">
      <g>
       <use style="stroke:#000000;stroke-width:0.8;" x="332.735492" xlink:href="#m327580eef7" y="630"/>
      </g>
     </g>
     <g id="text_2">
      <!-- 2015-11-28 -->
      <defs>
       <path d="M 31.78125 34.625 
Q 24.75 34.625 20.71875 30.859375 
Q 16.703125 27.09375 16.703125 20.515625 
Q 16.703125 13.921875 20.71875 10.15625 
Q 24.75 6.390625 31.78125 6.390625 
Q 38.8125 6.390625 42.859375 10.171875 
Q 46.921875 13.96875 46.921875 20.515625 
Q 46.921875 27.09375 42.890625 30.859375 
Q 38.875 34.625 31.78125 34.625 
z
M 21.921875 38.8125 
Q 15.578125 40.375 12.03125 44.71875 
Q 8.5 49.078125 8.5 55.328125 
Q 8.5 64.0625 14.71875 69.140625 
Q 20.953125 74.21875 31.78125 74.21875 
Q 42.671875 74.21875 48.875 69.140625 
Q 55.078125 64.0625 55.078125 55.328125 
Q 55.078125 49.078125 51.53125 44.71875 
Q 48 40.375 41.703125 38.8125 
Q 48.828125 37.15625 52.796875 32.3125 
Q 56.78125 27.484375 56.78125 20.515625 
Q 56.78125 9.90625 50.3125 4.234375 
Q 43.84375 -1.421875 31.78125 -1.421875 
Q 19.734375 -1.421875 13.25 4.234375 
Q 6.78125 9.90625 6.78125 20.515625 
Q 6.78125 27.484375 10.78125 32.3125 
Q 14.796875 37.15625 21.921875 38.8125 
z
M 18.3125 54.390625 
Q 18.3125 48.734375 21.84375 45.5625 
Q 25.390625 42.390625 31.78125 42.390625 
Q 38.140625 42.390625 41.71875 45.5625 
Q 45.3125 48.734375 45.3125 54.390625 
Q 45.3125 60.0625 41.71875 63.234375 
Q 38.140625 66.40625 31.78125 66.40625 
Q 25.390625 66.40625 21.84375 63.234375 
Q 18.3125 60.0625 18.3125 54.390625 
z
" id="DejaVuSans-56"/>
      </defs>
      <g transform="translate(297.866117 646.118125)scale(0.12 -0.12)">
       <use xlink:href="#DejaVuSans-50"/>
       <use x="63.623047" xlink:href="#DejaVuSans-48"/>
       <use x="127.246094" xlink:href="#DejaVuSans-49"/>
       <use x="190.869141" xlink:href="#DejaVuSans-53"/>
       <use x="254.492188" xlink:href="#DejaVuSans-45"/>
       <use x="290.576172" xlink:href="#DejaVuSans-49"/>
       <use x="354.199219" xlink:href="#DejaVuSans-49"/>
       <use x="417.822266" xlink:href="#DejaVuSans-45"/>
       <use x="453.90625" xlink:href="#DejaVuSans-50"/>
       <use x="517.529297" xlink:href="#DejaVuSans-56"/>
      </g>
     </g>
    </g>
    <g id="xtick_3">
     <g id="line2d_3">
      <g>
       <use style="stroke:#000000;stroke-width:0.8;" x="457.816438" xlink:href="#m327580eef7" y="630"/>
      </g>
     </g>
     <g id="text_3">
      <!-- 2016-04-27 -->
      <defs>
       <path d="M 33.015625 40.375 
Q 26.375 40.375 22.484375 35.828125 
Q 18.609375 31.296875 18.609375 23.390625 
Q 18.609375 15.53125 22.484375 10.953125 
Q 26.375 6.390625 33.015625 6.390625 
Q 39.65625 6.390625 43.53125 10.953125 
Q 47.40625 15.53125 47.40625 23.390625 
Q 47.40625 31.296875 43.53125 35.828125 
Q 39.65625 40.375 33.015625 40.375 
z
M 52.59375 71.296875 
L 52.59375 62.3125 
Q 48.875 64.0625 45.09375 64.984375 
Q 41.3125 65.921875 37.59375 65.921875 
Q 27.828125 65.921875 22.671875 59.328125 
Q 17.53125 52.734375 16.796875 39.40625 
Q 19.671875 43.65625 24.015625 45.921875 
Q 28.375 48.1875 33.59375 48.1875 
Q 44.578125 48.1875 50.953125 41.515625 
Q 57.328125 34.859375 57.328125 23.390625 
Q 57.328125 12.15625 50.6875 5.359375 
Q 44.046875 -1.421875 33.015625 -1.421875 
Q 20.359375 -1.421875 13.671875 8.265625 
Q 6.984375 17.96875 6.984375 36.375 
Q 6.984375 53.65625 15.1875 63.9375 
Q 23.390625 74.21875 37.203125 74.21875 
Q 40.921875 74.21875 44.703125 73.484375 
Q 48.484375 72.75 52.59375 71.296875 
z
" id="DejaVuSans-54"/>
       <path d="M 37.796875 64.3125 
L 12.890625 25.390625 
L 37.796875 25.390625 
z
M 35.203125 72.90625 
L 47.609375 72.90625 
L 47.609375 25.390625 
L 58.015625 25.390625 
L 58.015625 17.1875 
L 47.609375 17.1875 
L 47.609375 0 
L 37.796875 0 
L 37.796875 17.1875 
L 4.890625 17.1875 
L 4.890625 26.703125 
z
" id="DejaVuSans-52"/>
      </defs>
      <g transform="translate(422.947063 646.118125)scale(0.12 -0.12)">
       <use xlink:href="#DejaVuSans-50"/>
       <use x="63.623047" xlink:href="#DejaVuSans-48"/>
       <use x="127.246094" xlink:href="#DejaVuSans-49"/>
       <use x="190.869141" xlink:href="#DejaVuSans-54"/>
       <use x="254.492188" xlink:href="#DejaVuSans-45"/>
       <use x="290.576172" xlink:href="#DejaVuSans-48"/>
       <use x="354.199219" xlink:href="#DejaVuSans-52"/>
       <use x="417.822266" xlink:href="#DejaVuSans-45"/>
       <use x="453.90625" xlink:href="#DejaVuSans-50"/>
       <use x="517.529297" xlink:href="#DejaVuSans-55"/>
      </g>
     </g>
    </g>
    <g id="xtick_4">
     <g id="line2d_4">
      <g>
       <use style="stroke:#000000;stroke-width:0.8;" x="582.897385" xlink:href="#m327580eef7" y="630"/>
      </g>
     </g>
     <g id="text_4">
      <!-- 2016-09-24 -->
      <defs>
       <path d="M 10.984375 1.515625 
L 10.984375 10.5 
Q 14.703125 8.734375 18.5 7.8125 
Q 22.3125 6.890625 25.984375 6.890625 
Q 35.75 6.890625 40.890625 13.453125 
Q 46.046875 20.015625 46.78125 33.40625 
Q 43.953125 29.203125 39.59375 26.953125 
Q 35.25 24.703125 29.984375 24.703125 
Q 19.046875 24.703125 12.671875 31.3125 
Q 6.296875 37.9375 6.296875 49.421875 
Q 6.296875 60.640625 12.9375 67.421875 
Q 19.578125 74.21875 30.609375 74.21875 
Q 43.265625 74.21875 49.921875 64.515625 
Q 56.59375 54.828125 56.59375 36.375 
Q 56.59375 19.140625 48.40625 8.859375 
Q 40.234375 -1.421875 26.421875 -1.421875 
Q 22.703125 -1.421875 18.890625 -0.6875 
Q 15.09375 0.046875 10.984375 1.515625 
z
M 30.609375 32.421875 
Q 37.25 32.421875 41.125 36.953125 
Q 45.015625 41.5 45.015625 49.421875 
Q 45.015625 57.28125 41.125 61.84375 
Q 37.25 66.40625 30.609375 66.40625 
Q 23.96875 66.40625 20.09375 61.84375 
Q 16.21875 57.28125 16.21875 49.421875 
Q 16.21875 41.5 20.09375 36.953125 
Q 23.96875 32.421875 30.609375 32.421875 
z
" id="DejaVuSans-57"/>
      </defs>
      <g transform="translate(548.02801 646.118125)scale(0.12 -0.12)">
       <use xlink:href="#DejaVuSans-50"/>
       <use x="63.623047" xlink:href="#DejaVuSans-48"/>
       <use x="127.246094" xlink:href="#DejaVuSans-49"/>
       <use x="190.869141" xlink:href="#DejaVuSans-54"/>
       <use x="254.492188" xlink:href="#DejaVuSans-45"/>
       <use x="290.576172" xlink:href="#DejaVuSans-48"/>
       <use x="354.199219" xlink:href="#DejaVuSans-57"/>
       <use x="417.822266" xlink:href="#DejaVuSans-45"/>
       <use x="453.90625" xlink:href="#DejaVuSans-50"/>
       <use x="517.529297" xlink:href="#DejaVuSans-52"/>
      </g>
     </g>
    </g>
    <g id="xtick_5">
     <g id="line2d_5">
      <g>
       <use style="stroke:#000000;stroke-width:0.8;" x="707.978331" xlink:href="#m327580eef7" y="630"/>
      </g>
     </g>
     <g id="text_5">
      <!-- 2017-02-21 -->
      <g transform="translate(673.108956 646.118125)scale(0.12 -0.12)">
       <use xlink:href="#DejaVuSans-50"/>
       <use x="63.623047" xlink:href="#DejaVuSans-48"/>
       <use x="127.246094" xlink:href="#DejaVuSans-49"/>
       <use x="190.869141" xlink:href="#DejaVuSans-55"/>
       <use x="254.492188" xlink:href="#DejaVuSans-45"/>
       <use x="290.576172" xlink:href="#DejaVuSans-48"/>
       <use x="354.199219" xlink:href="#DejaVuSans-50"/>
       <use x="417.822266" xlink:href="#DejaVuSans-45"/>
       <use x="453.90625" xlink:href="#DejaVuSans-50"/>
       <use x="517.529297" xlink:href="#DejaVuSans-49"/>
      </g>
     </g>
    </g>
    <g id="xtick_6">
     <g id="line2d_6">
      <g>
       <use style="stroke:#000000;stroke-width:0.8;" x="833.059278" xlink:href="#m327580eef7" y="630"/>
      </g>
     </g>
     <g id="text_6">
      <!-- 2017-07-21 -->
      <g transform="translate(798.189903 646.118125)scale(0.12 -0.12)">
       <use xlink:href="#DejaVuSans-50"/>
       <use x="63.623047" xlink:href="#DejaVuSans-48"/>
       <use x="127.246094" xlink:href="#DejaVuSans-49"/>
       <use x="190.869141" xlink:href="#DejaVuSans-55"/>
       <use x="254.492188" xlink:href="#DejaVuSans-45"/>
       <use x="290.576172" xlink:href="#DejaVuSans-48"/>
       <use x="354.199219" xlink:href="#DejaVuSans-55"/>
       <use x="417.822266" xlink:href="#DejaVuSans-45"/>
       <use x="453.90625" xlink:href="#DejaVuSans-50"/>
       <use x="517.529297" xlink:href="#DejaVuSans-49"/>
      </g>
     </g>
    </g>
    <g id="xtick_7">
     <g id="line2d_7">
      <g>
       <use style="stroke:#000000;stroke-width:0.8;" x="958.140224" xlink:href="#m327580eef7" y="630"/>
      </g>
     </g>
     <g id="text_7">
      <!-- 2017-12-18 -->
      <g transform="translate(923.270849 646.118125)scale(0.12 -0.12)">
       <use xlink:href="#DejaVuSans-50"/>
       <use x="63.623047" xlink:href="#DejaVuSans-48"/>
       <use x="127.246094" xlink:href="#DejaVuSans-49"/>
       <use x="190.869141" xlink:href="#DejaVuSans-55"/>
       <use x="254.492188" xlink:href="#DejaVuSans-45"/>
       <use x="290.576172" xlink:href="#DejaVuSans-49"/>
       <use x="354.199219" xlink:href="#DejaVuSans-50"/>
       <use x="417.822266" xlink:href="#DejaVuSans-45"/>
       <use x="453.90625" xlink:href="#DejaVuSans-49"/>
       <use x="517.529297" xlink:href="#DejaVuSans-56"/>
      </g>
     </g>
    </g>
    <g id="xtick_8">
     <g id="line2d_8">
      <g>
       <use style="stroke:#000000;stroke-width:0.8;" x="1083.221171" xlink:href="#m327580eef7" y="630"/>
      </g>
     </g>
     <g id="text_8">
      <!-- 2018-05-17 -->
      <g transform="translate(1048.351796 646.118125)scale(0.12 -0.12)">
       <use xlink:href="#DejaVuSans-50"/>
       <use x="63.623047" xlink:href="#DejaVuSans-48"/>
       <use x="127.246094" xlink:href="#DejaVuSans-49"/>
       <use x="190.869141" xlink:href="#DejaVuSans-56"/>
       <use x="254.492188" xlink:href="#DejaVuSans-45"/>
       <use x="290.576172" xlink:href="#DejaVuSans-48"/>
       <use x="354.199219" xlink:href="#DejaVuSans-53"/>
       <use x="417.822266" xlink:href="#DejaVuSans-45"/>
       <use x="453.90625" xlink:href="#DejaVuSans-49"/>
       <use x="517.529297" xlink:href="#DejaVuSans-55"/>
      </g>
     </g>
    </g>
   </g>
   <g id="matplotlib.axis_2">
    <g id="ytick_1">
     <g id="line2d_9">
      <defs>
       <path d="M 0 0 
L -3.5 0 
" id="m9d18fecb0c" style="stroke:#000000;stroke-width:0.8;"/>
      </defs>
      <g>
       <use style="stroke:#000000;stroke-width:0.8;" x="162" xlink:href="#m9d18fecb0c" y="605.290909"/>
      </g>
     </g>
     <g id="text_9">
      <!-- 0 -->
      <g transform="translate(147.365 609.849972)scale(0.12 -0.12)">
       <use xlink:href="#DejaVuSans-48"/>
      </g>
     </g>
    </g>
    <g id="ytick_2">
     <g id="line2d_10">
      <g>
       <use style="stroke:#000000;stroke-width:0.8;" x="162" xlink:href="#m9d18fecb0c" y="509.333274"/>
      </g>
     </g>
     <g id="text_10">
      <!-- 20 -->
      <g transform="translate(139.73 513.892337)scale(0.12 -0.12)">
       <use xlink:href="#DejaVuSans-50"/>
       <use x="63.623047" xlink:href="#DejaVuSans-48"/>
      </g>
     </g>
    </g>
    <g id="ytick_3">
     <g id="line2d_11">
      <g>
       <use style="stroke:#000000;stroke-width:0.8;" x="162" xlink:href="#m9d18fecb0c" y="413.37564"/>
      </g>
     </g>
     <g id="text_11">
      <!-- 40 -->
      <g transform="translate(139.73 417.934702)scale(0.12 -0.12)">
       <use xlink:href="#DejaVuSans-52"/>
       <use x="63.623047" xlink:href="#DejaVuSans-48"/>
      </g>
     </g>
    </g>
    <g id="ytick_4">
     <g id="line2d_12">
      <g>
       <use style="stroke:#000000;stroke-width:0.8;" x="162" xlink:href="#m9d18fecb0c" y="317.418005"/>
      </g>
     </g>
     <g id="text_12">
      <!-- 60 -->
      <g transform="translate(139.73 321.977068)scale(0.12 -0.12)">
       <use xlink:href="#DejaVuSans-54"/>
       <use x="63.623047" xlink:href="#DejaVuSans-48"/>
      </g>
     </g>
    </g>
    <g id="ytick_5">
     <g id="line2d_13">
      <g>
       <use style="stroke:#000000;stroke-width:0.8;" x="162" xlink:href="#m9d18fecb0c" y="221.460371"/>
      </g>
     </g>
     <g id="text_13">
      <!-- 80 -->
      <g transform="translate(139.73 226.019433)scale(0.12 -0.12)">
       <use xlink:href="#DejaVuSans-56"/>
       <use x="63.623047" xlink:href="#DejaVuSans-48"/>
      </g>
     </g>
    </g>
    <g id="ytick_6">
     <g id="line2d_14">
      <g>
       <use style="stroke:#000000;stroke-width:0.8;" x="162" xlink:href="#m9d18fecb0c" y="125.502736"/>
      </g>
     </g>
     <g id="text_14">
      <!-- 100 -->
      <g transform="translate(132.095 130.061799)scale(0.12 -0.12)">
       <use xlink:href="#DejaVuSans-49"/>
       <use x="63.623047" xlink:href="#DejaVuSans-48"/>
       <use x="127.246094" xlink:href="#DejaVuSans-48"/>
      </g>
     </g>
    </g>
   </g>
   <g id="line2d_15">
    <path clip-path="url(#p88b072ea53)" d="M 207.654545 557.312092 
L 208.488418 542.918447 
L 209.322291 571.705737 
L 210.156164 566.907855 
L 210.990037 595.695146 
L 211.82391 562.109974 
L 212.657783 538.120565 
L 213.491656 576.503619 
L 214.325529 581.3015 
L 215.159402 542.918447 
L 215.993275 576.503619 
L 216.827148 581.3015 
L 217.661021 571.705737 
L 218.494894 576.503619 
L 219.328767 571.705737 
L 220.16264 590.897264 
L 220.996513 571.705737 
L 221.830386 600.493027 
L 222.664259 590.897264 
L 223.498132 571.705737 
L 225.165878 581.3015 
L 225.999751 566.907855 
L 226.833624 581.3015 
L 227.667497 590.897264 
L 228.50137 595.695146 
L 229.335243 590.897264 
L 230.169116 576.503619 
L 231.002989 475.748102 
L 232.670735 590.897264 
L 233.504608 576.503619 
L 234.338481 600.493027 
L 235.172354 595.695146 
L 236.006227 586.099382 
L 236.8401 586.099382 
L 237.673973 590.897264 
L 238.507846 581.3015 
L 239.341719 576.503619 
L 240.175592 590.897264 
L 241.009465 590.897264 
L 241.843337 595.695146 
L 242.67721 590.897264 
L 243.511083 595.695146 
L 244.344956 590.897264 
L 246.012702 590.897264 
L 246.846575 595.695146 
L 247.680448 586.099382 
L 248.514321 600.493027 
L 249.348194 605.290909 
L 250.182067 590.897264 
L 251.849813 600.493027 
L 252.683686 576.503619 
L 253.517559 581.3015 
L 254.351432 605.290909 
L 255.185305 600.493027 
L 256.019178 586.099382 
L 256.853051 586.099382 
L 257.686924 605.290909 
L 259.35467 576.503619 
L 260.188543 590.897264 
L 261.022416 595.695146 
L 261.856289 590.897264 
L 262.690162 595.695146 
L 263.524035 605.290909 
L 264.357908 590.897264 
L 266.025654 590.897264 
L 266.859527 605.290909 
L 267.6934 586.099382 
L 268.527273 595.695146 
L 269.361146 595.695146 
L 270.195019 562.109974 
L 271.028892 595.695146 
L 271.862765 590.897264 
L 272.696638 562.109974 
L 273.530511 590.897264 
L 274.364384 605.290909 
L 275.198257 600.493027 
L 276.03213 600.493027 
L 276.866002 538.120565 
L 277.699875 600.493027 
L 278.533748 600.493027 
L 279.367621 590.897264 
L 280.201494 600.493027 
L 281.035367 605.290909 
L 281.86924 571.705737 
L 282.703113 581.3015 
L 283.536986 600.493027 
L 284.370859 566.907855 
L 285.204732 566.907855 
L 286.038605 595.695146 
L 286.872478 576.503619 
L 287.706351 586.099382 
L 288.540224 590.897264 
L 289.374097 590.897264 
L 290.20797 581.3015 
L 291.041843 586.099382 
L 291.875716 581.3015 
L 292.709589 557.312092 
L 293.543462 586.099382 
L 294.377335 581.3015 
L 295.211208 432.567167 
L 296.045081 566.907855 
L 296.878954 590.897264 
L 297.712827 590.897264 
L 298.5467 566.907855 
L 299.380573 562.109974 
L 300.214446 581.3015 
L 301.048319 595.695146 
L 301.882192 605.290909 
L 302.716065 576.503619 
L 303.549938 600.493027 
L 304.383811 600.493027 
L 305.217684 547.716328 
L 306.051557 586.099382 
L 306.88543 586.099382 
L 307.719303 566.907855 
L 308.553176 590.897264 
L 309.387049 595.695146 
L 310.220922 571.705737 
L 311.054795 595.695146 
L 311.888667 571.705737 
L 312.72254 557.312092 
L 313.556413 566.907855 
L 314.390286 581.3015 
L 315.224159 576.503619 
L 316.058032 576.503619 
L 316.891905 552.51421 
L 317.725778 581.3015 
L 318.559651 576.503619 
L 319.393524 542.918447 
L 320.227397 571.705737 
L 321.06127 586.099382 
L 321.895143 542.918447 
L 322.729016 562.109974 
L 323.562889 562.109974 
L 324.396762 475.748102 
L 325.230635 470.950221 
L 326.064508 547.716328 
L 326.898381 566.907855 
L 327.732254 571.705737 
L 328.566127 475.748102 
L 329.4 562.109974 
L 330.233873 485.343866 
L 331.067746 576.503619 
L 331.901619 576.503619 
L 332.735492 562.109974 
L 333.569365 576.503619 
L 334.403238 566.907855 
L 335.237111 379.790468 
L 336.070984 370.194704 
L 336.904857 518.929038 
L 337.73873 571.705737 
L 338.572603 562.109974 
L 339.406476 547.716328 
L 340.240349 547.716328 
L 341.074222 538.120565 
L 341.908095 547.716328 
L 342.741968 566.907855 
L 343.575841 557.312092 
L 344.409714 571.705737 
L 345.243587 552.51421 
L 346.07746 590.897264 
L 346.911333 552.51421 
L 347.745205 538.120565 
L 348.579078 566.907855 
L 349.412951 566.907855 
L 350.246824 581.3015 
L 351.080697 566.907855 
L 351.91457 542.918447 
L 352.748443 538.120565 
L 353.582316 547.716328 
L 354.416189 542.918447 
L 355.250062 571.705737 
L 356.083935 566.907855 
L 356.917808 514.131156 
L 357.751681 562.109974 
L 358.585554 509.333274 
L 359.419427 394.184113 
L 360.2533 494.939629 
L 361.087173 547.716328 
L 361.921046 504.535393 
L 362.754919 518.929038 
L 363.588792 509.333274 
L 364.422665 490.141748 
L 365.256538 509.333274 
L 366.090411 504.535393 
L 366.924284 504.535393 
L 367.758157 509.333274 
L 368.59203 398.981995 
L 369.425903 470.950221 
L 370.259776 422.971403 
L 371.093649 456.556575 
L 371.927522 437.365049 
L 372.761395 403.779876 
L 373.595268 509.333274 
L 374.429141 427.769285 
L 375.263014 240.651898 
L 376.93076 446.960812 
L 377.764633 336.609532 
L 378.598506 379.790468 
L 379.432379 432.567167 
L 380.266252 442.16293 
L 381.100125 374.992586 
L 381.933998 384.58835 
L 382.76787 437.365049 
L 383.601743 432.567167 
L 384.435616 346.205296 
L 385.269489 509.333274 
L 386.103362 403.779876 
L 386.937235 413.37564 
L 387.771108 307.822242 
L 388.604981 394.184113 
L 389.438854 374.992586 
L 390.272727 422.971403 
L 391.1066 523.72692 
L 391.940473 494.939629 
L 392.774346 437.365049 
L 393.608219 408.577758 
L 394.442092 475.748102 
L 395.275965 427.769285 
L 396.109838 514.131156 
L 396.943711 571.705737 
L 397.777584 490.141748 
L 398.611457 355.801059 
L 399.44533 494.939629 
L 400.279203 466.152339 
L 401.113076 523.72692 
L 401.946949 538.120565 
L 402.780822 509.333274 
L 403.614695 494.939629 
L 404.448568 514.131156 
L 405.282441 470.950221 
L 406.116314 514.131156 
L 406.950187 523.72692 
L 407.78406 485.343866 
L 408.617933 523.72692 
L 409.451806 413.37564 
L 410.285679 442.16293 
L 411.119552 509.333274 
L 411.953425 475.748102 
L 412.787298 547.716328 
L 413.621171 576.503619 
L 414.455044 518.929038 
L 415.288917 523.72692 
L 416.12279 451.758694 
L 416.956663 538.120565 
L 417.790535 523.72692 
L 418.624408 547.716328 
L 419.458281 552.51421 
L 420.292154 528.524801 
L 421.126027 490.141748 
L 421.9599 461.354457 
L 422.793773 518.929038 
L 423.627646 475.748102 
L 424.461519 562.109974 
L 425.295392 571.705737 
L 426.129265 576.503619 
L 426.963138 533.322683 
L 427.797011 528.524801 
L 428.630884 557.312092 
L 429.464757 542.918447 
L 430.29863 581.3015 
L 431.132503 566.907855 
L 431.966376 595.695146 
L 432.800249 542.918447 
L 433.634122 542.918447 
L 434.467995 518.929038 
L 435.301868 576.503619 
L 436.135741 552.51421 
L 436.969614 485.343866 
L 437.803487 514.131156 
L 438.63736 523.72692 
L 439.471233 547.716328 
L 440.305106 504.535393 
L 441.138979 523.72692 
L 441.972852 528.524801 
L 442.806725 542.918447 
L 443.640598 494.939629 
L 444.474471 456.556575 
L 445.308344 494.939629 
L 446.142217 552.51421 
L 446.97609 547.716328 
L 447.809963 562.109974 
L 448.643836 562.109974 
L 449.477709 499.737511 
L 450.311582 514.131156 
L 451.145455 494.939629 
L 451.979328 509.333274 
L 452.8132 446.960812 
L 453.647073 523.72692 
L 454.480946 547.716328 
L 455.314819 528.524801 
L 456.148692 499.737511 
L 456.982565 528.524801 
L 457.816438 509.333274 
L 458.650311 547.716328 
L 459.484184 523.72692 
L 460.318057 509.333274 
L 461.15193 538.120565 
L 461.985803 485.343866 
L 462.819676 523.72692 
L 463.653549 485.343866 
L 464.487422 499.737511 
L 465.321295 571.705737 
L 466.155168 571.705737 
L 466.989041 523.72692 
L 467.822914 533.322683 
L 468.656787 514.131156 
L 469.49066 547.716328 
L 470.324533 528.524801 
L 471.158406 504.535393 
L 471.992279 528.524801 
L 472.826152 538.120565 
L 473.660025 480.545984 
L 474.493898 509.333274 
L 475.327771 499.737511 
L 476.161644 533.322683 
L 476.995517 475.748102 
L 477.82939 571.705737 
L 478.663263 442.16293 
L 479.497136 446.960812 
L 480.331009 518.929038 
L 481.164882 499.737511 
L 481.998755 528.524801 
L 482.832628 523.72692 
L 483.666501 514.131156 
L 484.500374 480.545984 
L 485.334247 437.365049 
L 486.16812 437.365049 
L 487.001993 442.16293 
L 487.835866 398.981995 
L 488.669738 514.131156 
L 489.503611 499.737511 
L 490.337484 499.737511 
L 491.171357 518.929038 
L 492.00523 394.184113 
L 492.839103 494.939629 
L 493.672976 451.758694 
L 494.506849 451.758694 
L 495.340722 470.950221 
L 496.174595 514.131156 
L 497.008468 432.567167 
L 497.842341 418.173522 
L 498.676214 456.556575 
L 499.510087 398.981995 
L 500.34396 432.567167 
L 501.177833 470.950221 
L 502.011706 346.205296 
L 502.845579 255.045543 
L 503.679452 288.630715 
L 504.513325 346.205296 
L 505.347198 202.268844 
L 507.014944 331.81165 
L 507.848817 303.02436 
L 508.68269 207.066726 
L 509.516563 125.502736 
L 510.350436 269.439188 
L 511.184309 192.67308 
L 512.852055 494.939629 
L 513.685928 566.907855 
L 514.519801 509.333274 
L 515.353674 538.120565 
L 516.187547 504.535393 
L 517.02142 490.141748 
L 517.855293 562.109974 
L 518.689166 571.705737 
L 519.523039 586.099382 
L 520.356912 552.51421 
L 521.190785 571.705737 
L 522.024658 552.51421 
L 522.858531 586.099382 
L 523.692403 557.312092 
L 524.526276 586.099382 
L 525.360149 600.493027 
L 526.194022 547.716328 
L 527.861768 557.312092 
L 528.695641 590.897264 
L 529.529514 590.897264 
L 530.363387 581.3015 
L 531.19726 600.493027 
L 532.031133 552.51421 
L 532.865006 557.312092 
L 534.532752 586.099382 
L 535.366625 581.3015 
L 537.034371 581.3015 
L 537.868244 586.099382 
L 538.702117 581.3015 
L 540.369863 590.897264 
L 541.203736 590.897264 
L 542.037609 571.705737 
L 542.871482 600.493027 
L 543.705355 590.897264 
L 544.539228 576.503619 
L 545.373101 595.695146 
L 546.206974 590.897264 
L 547.040847 605.290909 
L 547.87472 581.3015 
L 548.708593 600.493027 
L 549.542466 590.897264 
L 550.376339 600.493027 
L 551.210212 595.695146 
L 552.044085 586.099382 
L 552.877958 590.897264 
L 553.711831 605.290909 
L 554.545704 576.503619 
L 555.379577 605.290909 
L 556.21345 600.493027 
L 557.047323 605.290909 
L 557.881196 595.695146 
L 559.548941 595.695146 
L 560.382814 586.099382 
L 561.216687 581.3015 
L 562.884433 590.897264 
L 564.552179 590.897264 
L 565.386052 600.493027 
L 566.219925 590.897264 
L 567.887671 581.3015 
L 568.721544 581.3015 
L 569.555417 571.705737 
L 570.38929 590.897264 
L 571.223163 600.493027 
L 572.057036 600.493027 
L 572.890909 566.907855 
L 573.724782 581.3015 
L 574.558655 581.3015 
L 575.392528 557.312092 
L 576.226401 576.503619 
L 577.060274 600.493027 
L 577.894147 595.695146 
L 578.72802 595.695146 
L 579.561893 581.3015 
L 580.395766 590.897264 
L 582.063512 590.897264 
L 582.897385 586.099382 
L 584.565131 566.907855 
L 585.399004 586.099382 
L 586.232877 581.3015 
L 587.06675 571.705737 
L 587.900623 518.929038 
L 588.734496 576.503619 
L 589.568369 533.322683 
L 590.402242 552.51421 
L 591.236115 518.929038 
L 592.069988 514.131156 
L 592.903861 595.695146 
L 593.737733 557.312092 
L 594.571606 581.3015 
L 595.405479 571.705737 
L 597.073225 542.918447 
L 597.907098 571.705737 
L 599.574844 384.58835 
L 600.408717 552.51421 
L 601.24259 557.312092 
L 602.076463 446.960812 
L 602.910336 538.120565 
L 603.744209 547.716328 
L 604.578082 576.503619 
L 605.411955 552.51421 
L 606.245828 571.705737 
L 607.079701 571.705737 
L 607.913574 552.51421 
L 608.747447 566.907855 
L 609.58132 552.51421 
L 610.415193 542.918447 
L 611.249066 528.524801 
L 612.916812 576.503619 
L 613.750685 533.322683 
L 614.584558 528.524801 
L 615.418431 518.929038 
L 616.252304 504.535393 
L 617.086177 542.918447 
L 617.92005 566.907855 
L 618.753923 542.918447 
L 619.587796 494.939629 
L 620.421669 499.737511 
L 621.255542 533.322683 
L 622.089415 552.51421 
L 622.923288 528.524801 
L 623.757161 581.3015 
L 624.591034 552.51421 
L 625.424907 518.929038 
L 626.25878 504.535393 
L 627.092653 557.312092 
L 627.926526 557.312092 
L 628.760399 542.918447 
L 629.594271 533.322683 
L 630.428144 528.524801 
L 631.262017 518.929038 
L 632.09589 480.545984 
L 632.929763 562.109974 
L 633.763636 552.51421 
L 634.597509 509.333274 
L 635.431382 552.51421 
L 636.265255 542.918447 
L 637.099128 485.343866 
L 637.933001 523.72692 
L 638.766874 490.141748 
L 639.600747 542.918447 
L 640.43462 562.109974 
L 641.268493 571.705737 
L 642.102366 576.503619 
L 642.936239 494.939629 
L 643.770112 461.354457 
L 644.603985 542.918447 
L 645.437858 518.929038 
L 647.105604 576.503619 
L 647.939477 538.120565 
L 648.77335 528.524801 
L 649.607223 523.72692 
L 650.441096 504.535393 
L 651.274969 557.312092 
L 652.108842 514.131156 
L 652.942715 557.312092 
L 653.776588 552.51421 
L 654.610461 446.960812 
L 655.444334 475.748102 
L 656.278207 518.929038 
L 657.11208 533.322683 
L 657.945953 557.312092 
L 658.779826 571.705737 
L 659.613699 557.312092 
L 660.447572 552.51421 
L 662.115318 470.950221 
L 662.949191 499.737511 
L 663.783064 456.556575 
L 664.616936 533.322683 
L 665.450809 562.109974 
L 666.284682 389.386231 
L 667.118555 331.81165 
L 667.952428 403.779876 
L 668.786301 389.386231 
L 669.620174 451.758694 
L 670.454047 442.16293 
L 672.121793 394.184113 
L 672.955666 317.418005 
L 673.789539 312.620124 
L 674.623412 269.439188 
L 675.457285 341.407414 
L 676.291158 403.779876 
L 677.125031 288.630715 
L 677.958904 255.045543 
L 678.792777 288.630715 
L 680.460523 432.567167 
L 681.294396 374.992586 
L 682.128269 418.173522 
L 682.962142 403.779876 
L 683.796015 394.184113 
L 684.629888 394.184113 
L 685.463761 408.577758 
L 687.131507 418.173522 
L 687.96538 514.131156 
L 688.799253 466.152339 
L 689.633126 374.992586 
L 690.466999 264.641306 
L 691.300872 298.226478 
L 692.134745 456.556575 
L 692.968618 303.02436 
L 693.802491 466.152339 
L 694.636364 442.16293 
L 695.470237 413.37564 
L 696.30411 394.184113 
L 697.137983 446.960812 
L 697.971856 360.598941 
L 698.805729 470.950221 
L 699.639601 514.131156 
L 700.473474 499.737511 
L 701.307347 451.758694 
L 702.14122 365.396823 
L 702.975093 389.386231 
L 703.808966 418.173522 
L 704.642839 528.524801 
L 705.476712 538.120565 
L 706.310585 494.939629 
L 707.144458 485.343866 
L 707.978331 480.545984 
L 708.812204 490.141748 
L 709.646077 494.939629 
L 710.47995 562.109974 
L 712.147696 523.72692 
L 712.981569 528.524801 
L 713.815442 523.72692 
L 714.649315 552.51421 
L 715.483188 499.737511 
L 716.317061 518.929038 
L 717.150934 562.109974 
L 717.984807 523.72692 
L 718.81868 518.929038 
L 719.652553 499.737511 
L 720.486426 528.524801 
L 721.320299 451.758694 
L 722.154172 523.72692 
L 722.988045 562.109974 
L 723.821918 542.918447 
L 724.655791 466.152339 
L 725.489664 547.716328 
L 726.323537 485.343866 
L 727.15741 557.312092 
L 727.991283 547.716328 
L 728.825156 528.524801 
L 729.659029 523.72692 
L 730.492902 509.333274 
L 731.326775 514.131156 
L 732.160648 576.503619 
L 732.994521 523.72692 
L 733.828394 566.907855 
L 734.662267 557.312092 
L 735.496139 518.929038 
L 736.330012 523.72692 
L 737.163885 533.322683 
L 737.997758 538.120565 
L 738.831631 562.109974 
L 739.665504 538.120565 
L 740.499377 566.907855 
L 741.33325 547.716328 
L 742.167123 586.099382 
L 743.000996 562.109974 
L 743.834869 542.918447 
L 744.668742 552.51421 
L 745.502615 528.524801 
L 746.336488 538.120565 
L 747.170361 528.524801 
L 748.004234 504.535393 
L 748.838107 557.312092 
L 749.67198 576.503619 
L 750.505853 514.131156 
L 751.339726 514.131156 
L 753.007472 562.109974 
L 753.841345 518.929038 
L 755.509091 528.524801 
L 756.342964 538.120565 
L 757.176837 518.929038 
L 758.01071 538.120565 
L 758.844583 499.737511 
L 759.678456 514.131156 
L 760.512329 485.343866 
L 761.346202 490.141748 
L 762.180075 504.535393 
L 763.013948 538.120565 
L 763.847821 528.524801 
L 764.681694 538.120565 
L 765.515567 528.524801 
L 766.34944 442.16293 
L 767.183313 446.960812 
L 768.017186 528.524801 
L 768.851059 480.545984 
L 769.684932 499.737511 
L 770.518804 485.343866 
L 771.352677 442.16293 
L 772.18655 485.343866 
L 773.020423 504.535393 
L 773.854296 499.737511 
L 774.688169 533.322683 
L 775.522042 490.141748 
L 776.355915 504.535393 
L 777.189788 432.567167 
L 778.023661 432.567167 
L 778.857534 427.769285 
L 779.691407 461.354457 
L 780.52528 466.152339 
L 781.359153 528.524801 
L 782.193026 446.960812 
L 783.026899 389.386231 
L 783.860772 490.141748 
L 784.694645 538.120565 
L 785.528518 494.939629 
L 786.362391 523.72692 
L 787.196264 494.939629 
L 788.030137 446.960812 
L 788.86401 422.971403 
L 789.697883 446.960812 
L 790.531756 389.386231 
L 791.365629 518.929038 
L 792.199502 466.152339 
L 793.033375 446.960812 
L 793.867248 403.779876 
L 794.701121 370.194704 
L 795.534994 403.779876 
L 796.368867 413.37564 
L 797.20274 427.769285 
L 798.036613 446.960812 
L 798.870486 461.354457 
L 799.704359 403.779876 
L 800.538232 355.801059 
L 801.372105 370.194704 
L 802.205978 346.205296 
L 803.039851 336.609532 
L 803.873724 360.598941 
L 804.707597 413.37564 
L 805.541469 403.779876 
L 806.375342 346.205296 
L 807.209215 327.013769 
L 808.043088 293.428597 
L 808.876961 307.822242 
L 809.710834 293.428597 
L 810.544707 288.630715 
L 811.37858 374.992586 
L 812.212453 125.502736 
L 813.046326 245.449779 
L 813.880199 187.875199 
L 814.714072 245.449779 
L 815.547945 111.109091 
L 817.215691 528.524801 
L 818.049564 542.918447 
L 818.883437 542.918447 
L 820.551183 394.184113 
L 821.385056 456.556575 
L 822.218929 557.312092 
L 823.052802 571.705737 
L 823.886675 518.929038 
L 824.720548 562.109974 
L 825.554421 533.322683 
L 826.388294 509.333274 
L 827.222167 533.322683 
L 828.05604 542.918447 
L 828.889913 562.109974 
L 829.723786 523.72692 
L 830.557659 566.907855 
L 831.391532 581.3015 
L 832.225405 538.120565 
L 833.059278 562.109974 
L 833.893151 475.748102 
L 834.727024 586.099382 
L 835.560897 562.109974 
L 836.39477 581.3015 
L 837.228643 571.705737 
L 838.062516 547.716328 
L 839.730262 586.099382 
L 840.564134 576.503619 
L 841.398007 590.897264 
L 842.23188 571.705737 
L 843.065753 576.503619 
L 843.899626 566.907855 
L 844.733499 586.099382 
L 845.567372 590.897264 
L 846.401245 576.503619 
L 847.235118 576.503619 
L 848.068991 562.109974 
L 848.902864 600.493027 
L 849.736737 581.3015 
L 851.404483 571.705737 
L 852.238356 590.897264 
L 853.072229 571.705737 
L 853.906102 590.897264 
L 854.739975 586.099382 
L 855.573848 590.897264 
L 856.407721 590.897264 
L 858.075467 581.3015 
L 858.90934 590.897264 
L 859.743213 581.3015 
L 860.577086 557.312092 
L 861.410959 562.109974 
L 862.244832 571.705737 
L 863.078705 590.897264 
L 863.912578 576.503619 
L 864.746451 571.705737 
L 865.580324 590.897264 
L 866.414197 590.897264 
L 867.24807 576.503619 
L 868.081943 600.493027 
L 868.915816 590.897264 
L 869.749689 576.503619 
L 870.583562 590.897264 
L 871.417435 595.695146 
L 872.251308 590.897264 
L 873.085181 571.705737 
L 873.919054 571.705737 
L 874.752927 576.503619 
L 875.5868 557.312092 
L 876.420672 600.493027 
L 877.254545 581.3015 
L 878.922291 590.897264 
L 879.756164 581.3015 
L 880.590037 590.897264 
L 881.42391 586.099382 
L 882.257783 576.503619 
L 883.925529 595.695146 
L 884.759402 566.907855 
L 885.593275 566.907855 
L 886.427148 581.3015 
L 887.261021 590.897264 
L 888.094894 557.312092 
L 888.928767 581.3015 
L 889.76264 557.312092 
L 890.596513 586.099382 
L 892.264259 605.290909 
L 893.098132 600.493027 
L 893.932005 590.897264 
L 894.765878 538.120565 
L 895.599751 533.322683 
L 896.433624 557.312092 
L 897.267497 552.51421 
L 898.10137 542.918447 
L 898.935243 485.343866 
L 899.769116 485.343866 
L 900.602989 494.939629 
L 901.436862 499.737511 
L 902.270735 360.598941 
L 903.104608 470.950221 
L 903.938481 518.929038 
L 904.772354 499.737511 
L 905.606227 466.152339 
L 906.4401 442.16293 
L 907.273973 586.099382 
L 908.107846 514.131156 
L 908.941719 470.950221 
L 909.775592 528.524801 
L 910.609465 446.960812 
L 911.443337 461.354457 
L 912.27721 499.737511 
L 913.111083 485.343866 
L 913.944956 432.567167 
L 914.778829 446.960812 
L 915.612702 504.535393 
L 916.446575 365.396823 
L 917.280448 466.152339 
L 918.114321 403.779876 
L 918.948194 494.939629 
L 919.782067 490.141748 
L 920.61594 398.981995 
L 921.449813 504.535393 
L 922.283686 437.365049 
L 923.117559 461.354457 
L 924.785305 442.16293 
L 925.619178 509.333274 
L 926.453051 499.737511 
L 927.286924 528.524801 
L 928.120797 466.152339 
L 929.788543 523.72692 
L 930.622416 533.322683 
L 931.456289 533.322683 
L 932.290162 595.695146 
L 933.124035 557.312092 
L 933.957908 571.705737 
L 934.791781 370.194704 
L 935.625654 475.748102 
L 936.459527 542.918447 
L 937.2934 552.51421 
L 938.127273 533.322683 
L 938.961146 542.918447 
L 939.795019 461.354457 
L 940.628892 504.535393 
L 941.462765 504.535393 
L 942.296638 514.131156 
L 943.130511 509.333274 
L 943.964384 451.758694 
L 944.798257 562.109974 
L 945.63213 523.72692 
L 946.466002 432.567167 
L 947.299875 518.929038 
L 948.133748 533.322683 
L 948.967621 533.322683 
L 949.801494 494.939629 
L 950.635367 566.907855 
L 951.46924 528.524801 
L 952.303113 528.524801 
L 953.970859 566.907855 
L 954.804732 547.716328 
L 955.638605 566.907855 
L 956.472478 595.695146 
L 957.306351 475.748102 
L 958.140224 542.918447 
L 959.80797 533.322683 
L 960.641843 518.929038 
L 961.475716 562.109974 
L 962.309589 566.907855 
L 963.143462 586.099382 
L 963.977335 576.503619 
L 964.811208 518.929038 
L 965.645081 504.535393 
L 967.312827 504.535393 
L 968.1467 528.524801 
L 968.980573 514.131156 
L 969.814446 485.343866 
L 970.648319 490.141748 
L 971.482192 461.354457 
L 972.316065 451.758694 
L 973.149938 360.598941 
L 973.983811 480.545984 
L 974.817684 327.013769 
L 975.651557 288.630715 
L 976.48543 379.790468 
L 977.319303 341.407414 
L 978.153176 327.013769 
L 978.987049 303.02436 
L 979.820922 351.003177 
L 980.654795 312.620124 
L 981.488667 235.854016 
L 982.32254 341.407414 
L 983.156413 389.386231 
L 983.990286 331.81165 
L 984.824159 298.226478 
L 985.658032 398.981995 
L 986.491905 394.184113 
L 987.325778 394.184113 
L 988.159651 336.609532 
L 988.993524 351.003177 
L 989.827397 327.013769 
L 990.66127 422.971403 
L 991.495143 494.939629 
L 992.329016 365.396823 
L 993.162889 360.598941 
L 993.996762 264.641306 
L 994.830635 307.822242 
L 995.664508 408.577758 
L 996.498381 331.81165 
L 997.332254 427.769285 
L 998.166127 475.748102 
L 999 398.981995 
L 999.833873 442.16293 
L 1000.667746 379.790468 
L 1001.501619 485.343866 
L 1002.335492 490.141748 
L 1003.169365 485.343866 
L 1004.003238 413.37564 
L 1004.837111 485.343866 
L 1005.670984 394.184113 
L 1006.504857 446.960812 
L 1007.33873 365.396823 
L 1008.172603 528.524801 
L 1009.006476 509.333274 
L 1009.840349 528.524801 
L 1010.674222 485.343866 
L 1011.508095 470.950221 
L 1012.341968 528.524801 
L 1013.175841 552.51421 
L 1014.009714 571.705737 
L 1014.843587 562.109974 
L 1015.67746 542.918447 
L 1016.511333 499.737511 
L 1017.345205 542.918447 
L 1018.179078 528.524801 
L 1019.012951 509.333274 
L 1019.846824 518.929038 
L 1020.680697 514.131156 
L 1021.51457 514.131156 
L 1022.348443 446.960812 
L 1023.182316 562.109974 
L 1024.016189 499.737511 
L 1024.850062 514.131156 
L 1025.683935 509.333274 
L 1026.517808 341.407414 
L 1027.351681 398.981995 
L 1028.185554 504.535393 
L 1029.019427 504.535393 
L 1029.8533 566.907855 
L 1030.687173 490.141748 
L 1031.521046 557.312092 
L 1032.354919 528.524801 
L 1033.188792 494.939629 
L 1034.022665 504.535393 
L 1034.856538 533.322683 
L 1035.690411 547.716328 
L 1036.524284 504.535393 
L 1037.358157 547.716328 
L 1038.19203 542.918447 
L 1039.025903 528.524801 
L 1039.859776 466.152339 
L 1040.693649 523.72692 
L 1041.527522 518.929038 
L 1042.361395 528.524801 
L 1043.195268 566.907855 
L 1044.029141 547.716328 
L 1044.863014 547.716328 
L 1046.53076 480.545984 
L 1047.364633 514.131156 
L 1048.198506 509.333274 
L 1049.032379 533.322683 
L 1049.866252 533.322683 
L 1050.700125 494.939629 
L 1051.533998 475.748102 
L 1052.36787 504.535393 
L 1053.201743 494.939629 
L 1054.035616 528.524801 
L 1054.869489 523.72692 
L 1055.703362 557.312092 
L 1056.537235 485.343866 
L 1057.371108 562.109974 
L 1058.204981 475.748102 
L 1059.038854 523.72692 
L 1059.872727 523.72692 
L 1060.7066 542.918447 
L 1061.540473 509.333274 
L 1062.374346 413.37564 
L 1063.208219 475.748102 
L 1064.042092 475.748102 
L 1064.875965 490.141748 
L 1065.709838 490.141748 
L 1066.543711 475.748102 
L 1067.377584 504.535393 
L 1068.211457 466.152339 
L 1069.04533 461.354457 
L 1069.879203 442.16293 
L 1070.713076 518.929038 
L 1070.713076 518.929038 
" style="fill:none;stroke:#0000ff;stroke-linecap:square;stroke-opacity:0.3;stroke-width:1.5;"/>
   </g>
   <g id="line2d_16">
    <path clip-path="url(#p88b072ea53)" d="M 1071.546949 485.343866 
L 1072.380822 480.545984 
L 1073.214695 538.120565 
L 1074.048568 509.333274 
L 1074.882441 470.950221 
L 1075.716314 490.141748 
L 1076.550187 437.365049 
L 1077.38406 504.535393 
L 1078.217933 523.72692 
L 1079.051806 509.333274 
L 1079.885679 466.152339 
L 1080.719552 490.141748 
L 1081.553425 528.524801 
L 1082.387298 442.16293 
L 1083.221171 475.748102 
L 1084.055044 494.939629 
L 1084.888917 571.705737 
L 1085.72279 422.971403 
L 1086.556663 446.960812 
L 1087.390535 480.545984 
L 1088.224408 461.354457 
L 1089.058281 514.131156 
L 1089.892154 528.524801 
L 1090.726027 499.737511 
L 1091.5599 504.535393 
L 1092.393773 470.950221 
L 1093.227646 451.758694 
L 1094.061519 475.748102 
L 1094.895392 538.120565 
L 1095.729265 538.120565 
L 1096.563138 466.152339 
L 1097.397011 456.556575 
L 1098.230884 288.630715 
L 1099.064757 379.790468 
L 1099.89863 485.343866 
L 1100.732503 432.567167 
L 1101.566376 456.556575 
L 1102.400249 509.333274 
L 1103.234122 432.567167 
L 1104.067995 374.992586 
L 1104.901868 384.58835 
L 1105.735741 394.184113 
L 1106.569614 422.971403 
L 1107.403487 427.769285 
L 1108.23736 418.173522 
L 1109.071233 446.960812 
L 1109.905106 432.567167 
L 1110.738979 379.790468 
L 1111.572852 331.81165 
L 1112.406725 240.651898 
L 1113.240598 346.205296 
L 1114.074471 408.577758 
L 1114.908344 398.981995 
L 1115.742217 231.056134 
L 1116.57609 274.23707 
L 1117.409963 274.23707 
L 1118.243836 341.407414 
L 1119.077709 336.609532 
L 1119.911582 370.194704 
L 1120.745455 451.758694 
" style="fill:none;stroke:#008000;stroke-linecap:square;stroke-opacity:0.3;stroke-width:1.5;"/>
   </g>
   <g id="line2d_17">
    <defs>
     <path d="M 0 15 
C 3.978047 15 7.793698 13.419505 10.606602 10.606602 
C 13.419505 7.793698 15 3.978047 15 0 
C 15 -3.978047 13.419505 -7.793698 10.606602 -10.606602 
C 7.793698 -13.419505 3.978047 -15 0 -15 
C -3.978047 -15 -7.793698 -13.419505 -10.606602 -10.606602 
C -13.419505 -7.793698 -15 -3.978047 -15 0 
C -15 3.978047 -13.419505 7.793698 -10.606602 10.606602 
C -7.793698 13.419505 -3.978047 15 0 15 
z
" id="m1e2d498496" style="stroke:#800080;"/>
    </defs>
    <g clip-path="url(#p88b072ea53)">
     <use style="fill:#800080;stroke:#800080;" x="1071.546949" xlink:href="#m1e2d498496" y="485.343866"/>
     <use style="fill:#800080;stroke:#800080;" x="1120.745455" xlink:href="#m1e2d498496" y="451.758694"/>
    </g>
   </g>
   <g id="line2d_18">
    <defs>
     <path d="M 0 10 
C 2.652031 10 5.195799 8.946337 7.071068 7.071068 
C 8.946337 5.195799 10 2.652031 10 0 
C 10 -2.652031 8.946337 -5.195799 7.071068 -7.071068 
C 5.195799 -8.946337 2.652031 -10 0 -10 
C -2.652031 -10 -5.195799 -8.946337 -7.071068 -7.071068 
C -8.946337 -5.195799 -10 -2.652031 -10 0 
C -10 2.652031 -8.946337 5.195799 -7.071068 7.071068 
C -5.195799 8.946337 -2.652031 10 0 10 
z
" id="m7f9623aad6" style="stroke:#ff0000;"/>
    </defs>
    <g clip-path="url(#p88b072ea53)">
     <use style="fill:#ff0000;stroke:#ff0000;" x="1096.563138" xlink:href="#m7f9623aad6" y="466.152339"/>
     <use style="fill:#ff0000;stroke:#ff0000;" x="1120.745455" xlink:href="#m7f9623aad6" y="451.758694"/>
    </g>
   </g>
   <g id="line2d_19">
    <defs>
     <path d="M 0 5 
C 1.326016 5 2.597899 4.473168 3.535534 3.535534 
C 4.473168 2.597899 5 1.326016 5 0 
C 5 -1.326016 4.473168 -2.597899 3.535534 -3.535534 
C 2.597899 -4.473168 1.326016 -5 0 -5 
C -1.326016 -5 -2.597899 -4.473168 -3.535534 -3.535534 
C -4.473168 -2.597899 -5 -1.326016 -5 0 
C -5 1.326016 -4.473168 2.597899 -3.535534 3.535534 
C -2.597899 4.473168 -1.326016 5 0 5 
z
" id="meaf181bf0b" style="stroke:#ffa500;"/>
    </defs>
    <g clip-path="url(#p88b072ea53)">
     <use style="fill:#ffa500;stroke:#ffa500;" x="1115.742217" xlink:href="#meaf181bf0b" y="231.056134"/>
     <use style="fill:#ffa500;stroke:#ffa500;" x="1120.745455" xlink:href="#meaf181bf0b" y="451.758694"/>
    </g>
   </g>
   <g id="patch_3">
    <path d="M 162 630 
L 162 86.4 
" style="fill:none;stroke:#000000;stroke-linecap:square;stroke-linejoin:miter;stroke-width:0.8;"/>
   </g>
   <g id="patch_4">
    <path d="M 1166.4 630 
L 1166.4 86.4 
" style="fill:none;stroke:#000000;stroke-linecap:square;stroke-linejoin:miter;stroke-width:0.8;"/>
   </g>
   <g id="patch_5">
    <path d="M 162 630 
L 1166.4 630 
" style="fill:none;stroke:#000000;stroke-linecap:square;stroke-linejoin:miter;stroke-width:0.8;"/>
   </g>
   <g id="patch_6">
    <path d="M 162 86.4 
L 1166.4 86.4 
" style="fill:none;stroke:#000000;stroke-linecap:square;stroke-linejoin:miter;stroke-width:0.8;"/>
   </g>
  </g>
 </g>
 <defs>
  <clipPath id="p88b072ea53">
   <rect height="543.6" width="1004.4" x="162" y="86.4"/>
  </clipPath>
 </defs>
</svg>
